<?xml version="1.0" encoding="UTF-8"?><svg id="Layer_1" xmlns="http://www.w3.org/2000/svg" xmlns:xlink="http://www.w3.org/1999/xlink" viewBox="0 0 1920 900"><defs><style>.cls-1{fill:#7b7b7a;}.cls-2{fill:#e7ad8d;}.cls-3{fill:#d09d7c;}.cls-4{fill:#868686;}.cls-5{fill:#ac9060;}.cls-6{fill:#79b721;}.cls-7{fill:#ac8841;}.cls-8{fill:#f3d3a2;}.cls-9{fill:#787878;}.cls-10{fill:#6f8289;}.cls-11{fill:#cea852;}.cls-12{fill:#f4f7f0;}.cls-13{clip-path:url(#clippath);}.cls-14{fill:#cac373;}.cls-15{fill:#adadad;}.cls-16{fill:#951a1d;}.cls-17{fill:none;}.cls-18{fill:#d7b777;}.cls-19{fill:#7d1416;}.cls-20{fill:#a81e22;}.cls-21{fill:#b67656;stroke:#a44a24;stroke-miterlimit:10;stroke-width:3.24px;}.cls-22{fill:#29abe2;}.cls-23{fill:#6d6d6d;}.cls-24{fill:#e8c991;}.cls-25{fill:#212120;opacity:.37;}.cls-26{fill:#a2a2a3;}.cls-27{fill:#bc5611;}.cls-28{fill:#58595b;}</style><clipPath id="clippath"><rect class="cls-17" width="1920" height="900"/></clipPath></defs><g class="cls-13"><rect class="cls-22" x="-12.36" y="-17.27" width="1952.36" height="402.29"/><rect class="cls-6" x="-12.36" y="375.49" width="1952.36" height="619.81"/><g><g><g><g><path class="cls-16" d="M562.81,338.6l-6.72-8.91-98.15-10.18c-3.12,24.94-6.23,49.88-9.35,74.83,34.94,.5,69.88,1.01,104.81,1.51,3.14-19.08,6.27-38.17,9.41-57.25Z"/><path class="cls-19" d="M562.81,338.6l-6.72-8.91-98.15-10.18-1.34,22.9-9.41,48.35h14.79c2.53-15.52,5.05-31.04,7.58-46.56,30.53,2.13,61.06,4.25,91.59,6.38l1.68-11.98Z"/><g><path class="cls-19" d="M537.75,372.62l1.98-16.64-1.45-2.48s-7.95,7.95-18.15,16.06l1.45,2.48,16.17,.58Z"/><path class="cls-2" d="M538.33,354.77l-.27-1.26s-8.3-7.29-18.65-.48l.72,16.52,18.21-14.79Z"/><path class="cls-3" d="M536.24,371.55l2.09-16.79s-8.39-7.28-18.86-.46l.71,16.52,16.06,.72Z"/><polygon class="cls-10" points="536.19 356.66 534.56 364.25 529.19 364.1 529.81 355.88 536.19 356.66"/><polygon class="cls-10" points="521.63 356.07 522.23 363.79 527.59 364.23 528.07 356 521.63 356.07"/><polygon class="cls-10" points="534.52 365.53 529.14 365.37 529 369.34 534.38 369.34 534.52 365.53"/><polygon class="cls-10" points="522.42 365.18 527.8 365.33 527.65 369.3 522.28 369 522.42 365.18"/></g><g><path class="cls-19" d="M497.66,371.64l1.12-16.72-1.58-2.41s-7.53,8.35-17.3,16.98l1.58,2.41,16.18-.26Z"/><path class="cls-2" d="M497.32,353.78l-.33-1.24s-8.67-6.85-18.65,.48l1.57,16.47,17.42-15.71Z"/><path class="cls-3" d="M496.1,370.65l1.22-16.87s-8.75-6.84-18.86,.51l1.56,16.47,16.08-.11Z"/><polygon class="cls-10" points="495.28 355.79 494.05 363.45 488.67 363.58 488.87 355.33 495.28 355.79"/><polygon class="cls-10" points="480.71 355.95 481.71 363.62 487.08 363.79 487.14 355.55 480.71 355.95"/><polygon class="cls-10" points="494.07 364.72 488.69 364.85 488.75 368.82 494.12 368.54 494.07 364.72"/><polygon class="cls-10" points="481.97 365 487.35 364.88 487.41 368.85 482.03 368.82 481.97 365"/></g><polygon class="cls-19" points="448.48 383.34 554.86 386.5 554.82 385.23 554.82 385.23 553.01 385.02 448.41 381.09 448.48 383.34"/><polygon class="cls-3" points="450.28 382.76 555.69 385.16 556.13 383.08 555.48 383.06 554.82 383.05 450.17 380.52 450.28 382.76"/><polygon class="cls-25" points="481.25 300.01 480.58 303.85 481.25 336.92 477.74 339.11 459.28 337.12 461.49 298.33 463.31 297.88 481.25 300.01"/></g><g><path class="cls-16" d="M219.95,338.6l6.72-8.91,98.15-10.18c4.81,25.02,9.61,50.04,14.42,75.07-36.63,.42-73.26,.85-109.89,1.27-3.14-19.08-6.27-38.17-9.41-57.25Z"/><path class="cls-19" d="M219.95,338.6l6.72-8.91,98.15-10.18c3.83,8.54,7.65,17.07,11.48,25.61-7.08,.41-14.16,.82-21.24,1.23-30.91,1.1-61.81,2.19-92.72,3.29l-2.39-11.04Z"/><g><path class="cls-19" d="M263.55,372.38l1.11-15.23-1.06-3.9s-6.32,9.72-17.39,16.59l2.5,2.73,14.84-.19Z"/><path class="cls-2" d="M244.64,354.42l.31-1.25s8.52-7.03,18.66,.08l-1.21,16.5-17.75-15.33Z"/><path class="cls-3" d="M246.22,371.26l-1.58-16.84s8.6-7.03,18.87,.1l-1.2,16.5-16.08,.24Z"/><polygon class="cls-10" points="246.72 356.38 248.12 364.01 253.49 364.02 253.12 355.79 246.72 356.38"/><polygon class="cls-10" points="261.29 356.22 260.46 363.92 255.09 364.2 254.85 355.96 261.29 356.22"/><polygon class="cls-10" points="248.12 365.29 253.5 365.29 253.53 369.26 248.15 369.1 248.12 365.29"/><polygon class="cls-10" points="260.22 365.3 254.85 365.3 254.87 369.26 260.25 369.12 260.22 365.3"/></g><g><path class="cls-19" d="M306.91,372.3l1.11-15.23-1.06-3.9s-6.32,9.72-17.39,16.59l2.5,2.73,14.84-.19Z"/><path class="cls-2" d="M288,354.34l.31-1.25s8.52-7.03,18.66,.08l-1.21,16.5-17.75-15.33Z"/><path class="cls-3" d="M289.58,371.18l-1.58-16.84s8.6-7.03,18.87,.1l-1.2,16.5-16.08,.24Z"/><polygon class="cls-10" points="290.08 356.29 291.47 363.93 296.85 363.94 296.48 355.7 290.08 356.29"/><polygon class="cls-10" points="304.65 356.14 303.82 363.83 298.45 364.12 298.21 355.88 304.65 356.14"/><polygon class="cls-10" points="291.48 365.21 296.86 365.21 296.89 369.18 291.51 369.02 291.48 365.21"/><polygon class="cls-10" points="303.58 365.22 298.2 365.21 298.23 369.18 303.61 369.04 303.58 365.22"/></g><path class="cls-4" d="M197.62,339.41l.75,4.99c43.1-1.82,86.2-3.65,129.3-5.47l-4.19-6.69c-41.95,2.39-83.91,4.78-125.86,7.18Z"/><path class="cls-23" d="M229.55,302.58c-2.3,3.1-4.61,6.2-6.91,9.3-8.34,9.18-16.68,18.36-25.02,27.53,43.17-1.74,86.33-3.49,129.5-5.23l-4.98-36.3c-30.86,1.56-61.72,3.13-92.59,4.69Z"/><path class="cls-4" d="M582.29,338.1l-.75,4.99c-43.1-1.82-86.2-3.65-129.3-5.47l4.19-6.69c41.95,2.39,83.91,4.78,125.86,7.18Z"/><path class="cls-23" d="M550.36,301.27c2.3,3.1,4.61,6.2,6.91,9.3,8.34,9.18,16.68,18.36,25.02,27.53-43.17-1.74-86.33-3.49-129.5-5.23l4.98-36.3c30.86,1.56,61.72,3.13,92.59,4.69Z"/><polygon class="cls-19" points="334.27 383.49 227.89 386.34 227.93 385.07 227.93 385.07 229.74 384.86 334.36 381.25 334.27 383.49"/><polygon class="cls-3" points="332.48 382.9 227.04 385.02 226.62 382.94 227.27 382.92 227.93 382.91 332.61 380.66 332.48 382.9"/></g><path class="cls-20" d="M448.52,394.58s18.82-101.52,22.86-114.7c0,0-53.78-60.65-82.02-67.24-7.74,3.86-19.38,10.32-32.1,20.27-6.36,4.97-9.75,8.29-17.45,15.08-7.66,6.76-19.05,16.49-33.82,27.93,3.84,18.32,7.9,36.6,11.93,54.88,6.22,28.18,12.94,57.84,14.96,63.78h115.63Z"/><path class="cls-28" d="M467.52,298.49c12.76,.14,25.76,.42,38.98,.84,15.12,.48,29.93,1.13,44.43,1.93-.28-1.9-.56-3.8-.83-5.7l-81.4-2.56c-.39,1.83-.79,3.67-1.18,5.5Z"/><path class="cls-28" d="M311.38,300.23c-12.85,.14-25.94,.42-39.25,.84-15.22,.48-30.14,1.13-44.74,1.93,.28-1.9,.56-3.8,.84-5.7l81.96-2.56c.4,1.83,.79,3.67,1.19,5.5Z"/><path class="cls-16" d="M468.58,297.12s3.6-16.77,4.5-19.71c0,0-54.93-61.94-83.76-68.67-10.65,7.34-21.47,15.05-32.39,23.14-18.78,13.91-34.53,27.34-50.93,41.03l4.19,21.82,80.5-60,77.89,62.39Z"/><g><ellipse class="cls-16" cx="391.52" cy="259.31" rx="10.81" ry="10.23"/><ellipse class="cls-5" cx="390.22" cy="256.21" rx="10.81" ry="10.23"/><ellipse class="cls-18" cx="390.22" cy="257.45" rx="10.81" ry="10.23"/><ellipse class="cls-24" cx="390.22" cy="257.45" rx="8.84" ry="8.37"/><ellipse class="cls-8" cx="390.22" cy="257.14" rx="8.84" ry="8.06"/><polygon class="cls-23" points="390.33 258.3 392.19 258.32 395.25 255.46 391.16 256.73 390.33 258.3"/><polygon class="cls-23" points="389.89 258.47 389.23 256.45 389.89 251.04 390.54 256.45 389.89 258.47"/></g><g><path class="cls-16" d="M414.91,394.58l8.07-63.61s-5.38-7.63-14.79-12.72c-5.38-7.63-13.46-10.31-18.82-6.36l20.17,82.7h5.38Z"/><path class="cls-2" d="M418.94,333.51l.76-6.47s-25.82-30.5-57.22-1.17v3.82l56.46,3.82Z"/><path class="cls-3" d="M412.22,394.58l7.05-64.11s-25.88-30.04-56.8-.78l5.38,64.89h44.37Z"/><polygon class="cls-21" points="414.91 332.23 393.39 329.24 393.39 367.03 410.87 367.03 414.91 332.23"/><polygon class="cls-21" points="410.1 370.89 393.77 371.25 394.07 390.76 408.46 390.62 410.1 370.89"/><polygon class="cls-21" points="366.5 332.23 388.02 329.24 388.02 367.03 370.54 367.03 366.5 332.23"/><polygon class="cls-21" points="371.31 370.89 387.64 371.25 387.34 390.76 372.95 390.62 371.31 370.89"/><ellipse class="cls-2" cx="390.03" cy="313.79" rx="7.4" ry="7"/><ellipse class="cls-3" cx="390.03" cy="317.6" rx="7.4" ry="7"/></g><g><g><polygon class="cls-16" points="453.9 337.32 445.83 375.49 429.7 374.22 429.7 371.67 451.21 334.78 453.9 337.32"/><polygon class="cls-2" points="451.83 334.83 451.47 337.23 428.35 370.4 429.7 333.51 451.83 334.83"/><polygon class="cls-3" points="451.58 336.2 444.49 372.95 428.35 371.67 429.7 334.78 451.58 336.2"/><polygon class="cls-10" points="448.49 340.25 445.68 355.1 439.25 354.5 440.44 339.57 448.49 340.25"/><polygon class="cls-10" points="445.31 357.14 442.76 370.74 437.86 370.3 439.15 356.33 445.31 357.14"/><polygon class="cls-10" points="431.84 338.25 431.21 353.31 437.21 353.96 439.33 339.13 431.84 338.25"/><polygon class="cls-10" points="431.48 355.3 431.04 369.11 435.93 369.68 437.68 355.77 431.48 355.3"/></g><g><path class="cls-16" d="M454.12,323.08l3.74-24.27-2.61-2.2s-13.67,13.97-24.2,21.63l1.34,2.54,21.73,2.29Z"/><path class="cls-2" d="M455.87,298.38l-.29-1.71s-10.79-10.33-25.18-1.73v22.37l25.47-18.93Z"/><path class="cls-3" d="M452.08,320.94l3.8-22.56s-10.91-10.32-25.46-1.72v22.37l21.66,1.91Z"/><polygon class="cls-10" points="452.87 300.82 450.24 310.98 442.98 310.46 444.3 299.39 452.87 300.82"/><polygon class="cls-10" points="433.24 299.17 433.6 309.63 440.81 310.54 441.94 299.45 433.24 299.17"/><polygon class="cls-10" points="450.1 312.7 442.85 312.18 442.42 317.53 449.69 317.85 450.1 312.7"/><polygon class="cls-10" points="433.78 311.53 441.03 312.05 440.61 317.4 433.37 316.68 433.78 311.53"/></g></g><g><g><polygon class="cls-16" points="354.99 334.78 356.36 373.76 338.51 375.06 337.14 369.86 352.24 332.18 354.99 334.78"/><polygon class="cls-2" points="329.56 333.54 329.93 335.98 353.54 369.86 352.17 332.18 329.56 333.54"/><polygon class="cls-3" points="329.82 334.93 337.06 372.46 353.54 371.16 352.17 333.48 329.82 334.93"/><polygon class="cls-10" points="332.98 339.07 335.85 354.23 342.41 353.62 341.2 338.38 332.98 339.07"/><polygon class="cls-10" points="336.22 356.32 338.83 370.21 343.84 369.76 342.51 355.49 336.22 356.32"/><polygon class="cls-10" points="349.98 337.03 350.62 352.4 344.49 353.06 342.33 337.92 349.98 337.03"/><polygon class="cls-10" points="350.35 354.44 350.79 368.54 345.8 369.13 344.02 354.91 350.35 354.44"/></g><g><path class="cls-16" d="M353.62,319.19v-24.69l-2.07-1.73s-10.52,17.3-21.28,25.12l1.37,2.6,21.97-1.3Z"/><path class="cls-2" d="M325.43,296.31l.3-1.75s11.02-10.55,25.71-1.77v22.84l-26.01-19.33Z"/><path class="cls-3" d="M329.31,319.35l-3.88-23.04s11.14-10.54,26-1.76v22.84l-22.12,1.95Z"/><polygon class="cls-10" points="328.5 298.8 331.19 309.18 338.6 308.65 337.25 297.34 328.5 298.8"/><polygon class="cls-10" points="348.55 297.12 348.18 307.8 340.82 308.73 339.66 297.4 348.55 297.12"/><polygon class="cls-10" points="331.33 310.93 338.74 310.4 339.17 315.86 331.75 316.19 331.33 310.93"/><polygon class="cls-10" points="348 309.74 340.59 310.27 341.03 315.73 348.42 314.99 348 309.74"/></g></g><g><polygon class="cls-1" points="388.88 203.95 389.5 217.5 481.06 285.57 484.98 279.38 388.88 203.95"/><path class="cls-1" d="M389.41,203.85c-.21,4.52,.3,9.13,.09,13.65-30.52,22.69-61.76,45.28-92.27,67.97l-3.92-6.19,96.1-75.43Z"/><polygon class="cls-26" points="389.29 199.18 291.1 275.9 293.31 279.28 389.41 203.85 389.29 199.18"/><polygon class="cls-26" points="389.29 199.18 487.07 275.86 484.86 279.24 388.76 203.81 389.29 199.18"/></g></g><g><rect class="cls-11" x="354.9" y="275.23" width="68.66" height="20.67"/><rect class="cls-7" x="357.85" y="276.98" width="63.2" height="17.38"/><g><path class="cls-12" d="M366.97,292.52c-1.98,0-3.75-.75-4.98-2.45,.79-1.26,1.98-2.69,1.98-2.69,.91,1.68,3.1,2.47,3.83,1.68,.6-.62,0-1.62-1.9-2.45-1.81-.79-3.65-1.71-3.71-3.81-.04-1.21,.71-3.09,3.23-3.26,2.52-.17,4.35,1.24,5.28,3.11-1.57,.75-2.8,1.64-2.8,1.64-.3-.81-1.05-1.41-1.75-1.41-.56,0-.83,.38-.77,.81,.08,.81,.91,1.09,2.34,1.6,2.12,.72,3.35,1.98,3.39,3.54,.04,2.49-2.14,3.69-4.15,3.69Z"/><path class="cls-12" d="M378.44,291.79c-1.21,.92-3.06,.83-4.11,.3-1.45-.74-2.68-2.15-2.94-5.52-.28-3.49,1.09-5.54,2.6-6.33,1.29-.7,2.76-.77,4.07-.15,1.61,.75,1.94,2.36,1.94,4.43,0,0-1.67,.02-3.17,.38-.08-1.36-.44-2.07-1.07-2.04-.62,.02-1.69,1.17-1.65,3.54,.04,2.53,.87,3.34,1.43,3.47,.71,.15,1.37-.51,1.37-1.55,0,0,1.57-.25,3.33-.21,.06,1.6-.6,2.77-1.81,3.68Z"/><path class="cls-12" d="M385.86,292.43c.22-1.32,.4-3.13,.48-5.11-1.09-.09-2.06-.08-2.68-.06,.08,2.11,.28,4.15,.64,5.52-1.81-.17-3.89-.09-3.89-.09,.75-3.07,.71-10.14,.16-12.89,0,0,1.69-.06,3.43,.04-.22,1.39-.34,3.43-.36,5.54,.63-.02,1.65-.09,2.74-.21,.02-2.17-.06-4.35-.28-6.14,1.77,.19,3.43,.17,3.43,.17-.71,3.47-.77,9.71,.16,13-1.9,.06-3.83,.23-3.83,.23Z"/><path class="cls-12" d="M394.45,292.56c-2.32,0-4.68-2.11-4.52-6.5,.16-4.09,2.1-6.26,4.29-6.33,1.63-.06,3.89,1.41,4.48,6.07,.62,4.64-1.9,6.77-4.25,6.77Zm-.32-9.23c-.79,.11-1.49,1.68-1.53,3.35-.04,1.92,.64,3.64,1.87,3.62s1.77-1.6,1.47-3.83c-.24-1.68-.95-3.3-1.81-3.15Z"/><path class="cls-12" d="M403.89,292.56c-2.32,0-4.68-2.11-4.52-6.5,.16-4.09,2.1-6.26,4.29-6.33,1.63-.06,3.89,1.41,4.48,6.07,.62,4.64-1.9,6.77-4.25,6.77Zm-.32-9.23c-.79,.11-1.49,1.68-1.53,3.35-.04,1.92,.64,3.64,1.87,3.62s1.77-1.6,1.47-3.83c-.24-1.68-.95-3.3-1.81-3.15Z"/><path class="cls-12" d="M408.46,292.83c.69-2.83,.52-9.91-.14-12.74,0,0,1.87-.09,3.41-.72-.3,2.69-.4,7.29-.04,9.95,1.09-.41,2.46-.81,3.81-.87,0,0-.12,1.55,.02,3.17-2.52,.17-4.78,.58-7.06,1.21Z"/></g></g></g><g><polygon class="cls-15" points="420.21 398.09 423.33 401.59 340.73 401.59 343.85 398.09 420.21 398.09"/><rect class="cls-9" x="340.73" y="401.59" width="82.6" height="3.5"/><polygon class="cls-15" points="415.2 393.48 417.91 396.52 346.15 396.52 348.86 393.48 415.2 393.48"/><rect class="cls-9" x="346.15" y="396.52" width="71.76" height="3.04"/></g></g><path class="cls-6" d="M1059.25,361.46s9.6-26.5,37.6-19.6c0,0,4.8-5.1,7.7,1,0,0,3.9-15.8,15.4-9.5,0,0,6.5-2.6,9,6.8,0,0,8.9-17.9,23.1,1.4,0,0,2.5-13.1,12.9-7.1,0,0,13.4-32.2,27.1-.5,0,0,10.4-3,13.1,14,0,0,3.7-5.3,6.5,1.2,0,0-2-12.9,7.9-10.4,0,0-3.2-14.5,8.2-10.1,0,0,20.7-17,35.8,19.8,0,0,12.3-5.4,17.1,11.8,0,0,5.3-16.6,20.8,.6,0,0,13.9-23.5,27.1-6.9,0,0,13.3-19,24.9,2.4,0,0,5.1-15.4,15.1-.6,0,0,7.7-27.1,20.8-7.2,0,0,20.4-20.2,26.7,7.2l.4,44.1s-.7,21-15.7,22.5l-83.7,.2-228.9,.1s-14.6,.2-15.6-.6c0,0-12.7-1.8-13-23.7l-.3-36.9Z"/><polygon class="cls-14" points="412.4 394.4 -10 732 -8 503 363 393.9 412.4 394.4"/><path class="cls-14" d="M1195.8,340.5s-8.3,76,4.7,85.1l350.5,174.4,406,194,7-433s-639.4-45.2-768.2-20.5Z"/><path class="cls-6" d="M779.5,350s9.6-26.5,37.6-19.6c0,0,4.8-5.1,7.7,1,0,0,3.9-15.8,15.4-9.5,0,0,6.5-2.6,9,6.8,0,0,8.9-17.9,23.1,1.4,0,0,2.5-13.1,12.9-7.1,0,0,13.4-32.2,27.1-.5,0,0,10.4-3,13.1,14,0,0,3.7-5.3,6.5,1.2,0,0-2-12.9,7.9-10.4,0,0-3.2-14.5,8.2-10.1,0,0,20.7-17,35.8,19.8,0,0,12.3-5.4,17.1,11.8,0,0,5.3-16.6,20.8,.6,0,0,13.9-23.5,27.1-6.9,0,0,13.3-19,24.9,2.4,0,0,5.1-15.4,15.1-.6,0,0,7.7-27.1,20.8-7.2,0,0,20.4-20.2,26.7,7.2l.4,44.1s-.7,21-15.7,22.5l-83.7,.2-228.9,.1s-14.6,.2-15.6-.6c0,0-12.7-1.8-13-23.7l-.3-36.9Z"/><rect class="cls-27" x="636.4" y="364.7" width="7.9" height="23.2"/><path class="cls-6" d="M633.6,373s-17.9,1.7-1.2-69.5c0,0,6.1-20,17,0,0,0,12.4,54.8,.4,69.3-.1-.1-9.2,2.2-16.2,.2Z"/><path class="cls-6" d="M1193.19,300.71s20.9-32.6,82.9-24.5c0,0,10.4-6.4,16.9,1.2,0,0,8.5-19.5,34-11.8,0,0,14.3-3.3,19.9,8.3,0,0,19.6-22.1,51,1.4,0,0,5.4-16.1,28.5-8.9,0,0,29.5-39.7,59.9-.9,0,0,23-3.9,29.1,17,0,0,8.1-6.5,14.4,1.4,0,0-4.6-15.8,17.4-12.9,0,0-7.1-17.8,18.1-12.5,0,0,45.7-21.1,79.3,23.9,0,0,27.2-6.8,37.8,14.2,0,0,11.6-20.4,45.9,.5,0,0,30.6-29,59.7-8.8,0,0,29.3-23.5,55,2.7,0,0,11.2-18.9,33.3-.9,0,0,16.7-33.4,45.9-9.1,0,0,44.9-25,59,8.6l1.1,54.1s-1.4,25.8-34.5,27.8l-184.9,1.2-505.6,2.7s-32.3,.4-34.4-.6c0,0-28.1-2.1-28.8-29l-.9-45.1Z"/></g></svg>