<svg id="Layer_1" data-name="Layer 1" xmlns="http://www.w3.org/2000/svg" xmlns:xlink="http://www.w3.org/1999/xlink" width="80.64" height="197.35" viewBox="0 0 80.64 197.35">
  <defs>
    <style>
      .cls-1 {
        fill: none;
      }

      .cls-2 {
        opacity: 0.26;
      }

      .cls-3 {
        fill: #342516;
      }

      .cls-10, .cls-4 {
        fill: #fbd3c7;
      }

      .cls-28, .cls-4 {
        stroke: #453323;
      }

      .cls-12, .cls-17, .cls-26, .cls-27, .cls-28, .cls-4, .cls-6, .cls-7 {
        stroke-miterlimit: 10;
      }

      .cls-12, .cls-27, .cls-28, .cls-4, .cls-6, .cls-7, .cls-8 {
        stroke-width: 0.5px;
      }

      .cls-5 {
        fill: #e4a68d;
      }

      .cls-6 {
        fill: #e25134;
      }

      .cls-6, .cls-7 {
        stroke: #a31e23;
      }

      .cls-7 {
        fill: #841b96;
      }

      .cls-8 {
        fill: #df71e2;
        stroke: #710e7c;
      }

      .cls-29, .cls-30, .cls-8, .cls-9 {
        stroke-linejoin: round;
      }

      .cls-9 {
        fill: #9b959a;
        stroke: #423a33;
      }

      .cls-17, .cls-29, .cls-30, .cls-9 {
        stroke-width: 0.75px;
      }

      .cls-11 {
        fill: #453323;
      }

      .cls-12, .cls-15 {
        fill: #61435b;
      }

      .cls-12 {
        stroke: #1c101a;
      }

      .cls-13 {
        fill: #2d1708;
      }

      .cls-14 {
        fill: #2c3581;
      }

      .cls-16 {
        fill: #1c101a;
      }

      .cls-17, .cls-18 {
        fill: #f9dad2;
      }

      .cls-17 {
        stroke: #7f430d;
      }

      .cls-19 {
        fill: #7f430d;
      }

      .cls-20 {
        fill: #8c3d35;
      }

      .cls-21 {
        fill: #d26653;
      }

      .cls-22 {
        fill: #fff;
      }

      .cls-23 {
        fill: #f9988f;
      }

      .cls-24 {
        fill: #e5beb7;
      }

      .cls-25 {
        fill: #eab8ad;
      }

      .cls-26 {
        fill: #e8d860;
        stroke: #baa83a;
      }

      .cls-27 {
        fill: #f9f6f2;
        stroke: #323232;
      }

      .cls-28 {
        fill: #f6e982;
      }

      .cls-29 {
        fill: #686c70;
        stroke: #211f1c;
      }

      .cls-30 {
        fill: #311415;
        stroke: #190500;
      }

      .cls-31 {
        clip-path: url(#clip-path);
      }
    </style>
    <clipPath id="clip-path">
      <rect class="cls-1" x="-1542.44" y="-1045.73" width="1600" height="900"/>
    </clipPath>
  </defs>
  <g>
    <ellipse class="cls-2" cx="40.32" cy="168.15" rx="34.33" ry="8.63" transform="translate(-10.62 2.91) rotate(-3.65)"/>
    <g>
      <path class="cls-3" d="M68,57s-1.78,17.64-3.61,18.4S54.21,72,54.21,72l-10,1.19L30.33,72A33.4,33.4,0,0,1,29.78,68a11.27,11.27,0,0,0,.44-1.79S65.81,50.83,68,56.15Z"/>
      <path class="cls-4" d="M48.77,66.75A14.81,14.81,0,0,1,49,71.57c-.58,2.81-1.48,6.52-2.32,7.53-1.42,1.68-10.09,1.47-11.62-1.86a11.34,11.34,0,0,1-.51-6,19,19,0,0,1,.51-2.41,12.84,12.84,0,0,1,1.36-2.63c2.53-3.68,5.9-3.11,8.61-1.64A39.45,39.45,0,0,1,48.77,66.75Z"/>
      <path class="cls-5" d="M48.21,66.48a10.92,10.92,0,0,1,.25,4.25c-6.9,3.87-12,1.51-14.45-.33a18.13,18.13,0,0,1,.5-2.41,12.69,12.69,0,0,1,1.36-2.64,20.77,20.77,0,0,1,2.49-.77c1.23-.27,3.76-.59,6.12-.87A13.08,13.08,0,0,1,48.21,66.48Z"/>
      <g>
        <g>
          <path class="cls-6" d="M71.94,92c-.3,5.71-1.53,23.34-1.66,25.2,0,.11,0,.16,0,.16a5.55,5.55,0,0,1-4.08,4.33c-3.55.89-11.45-1.41-11.45-1.41s-12.84-.18-7.83-32.09c0,0,0-12.16,10.29-13.74A15.32,15.32,0,0,1,60,74.32c.5,0,6.71.88,9.58,3.54S72.25,86,71.94,92Z"/>
          <path class="cls-6" d="M50,71.06c.58-.07,8.94.42,11.86,4.35,0,0,1.48,2.93-2.62,3.81S49.33,75,49.41,74.53,50,71.06,50,71.06Z"/>
          <path class="cls-6" d="M70.28,117.24c0,.11,0,.16,0,.16a5.55,5.55,0,0,1-4.08,4.33c-3.55.89-11.45-1.41-11.45-1.41s-12.84-.18-7.83-32.09c0,0,0-12.16,10.29-13.74a1.46,1.46,0,0,0,1.8-.15l3.34,1.35a176.84,176.84,0,0,0-2.7,33.86,19.1,19.1,0,0,0,.78,6c.67,1.9,2,3.61,3.83,4C66.41,120.14,68.5,118.74,70.28,117.24Z"/>
        </g>
        <g>
          <path class="cls-6" d="M71.85,110l-.72,8.71s-4,2.37-7.36.63l-1-8.4"/>
          <path class="cls-7" d="M62.76,110.94a14.8,14.8,0,0,0,9.09-.94l-1-.45"/>
          <path class="cls-6" d="M66.93,110.76l1,3.08s2.33,3,2.92,0l-1.26-3.43Z"/>
        </g>
      </g>
      <g>
        <g>
          <g>
            <path class="cls-4" d="M32.42,161.28c-1.32,3.88-2.19,6.54-2.75,8.29.43-1.93.74-4.26,0-5-2.53-2.55-6.73.9-5.66-4.15.56-2.65,1.41-6.57,2.15-10,.16-.73.31-1.43.46-2.09.63-2.91,1.1-5.06,1.1-5.06l8.89,1.91-.93,3.54-.42,1.61Z"/>
            <path class="cls-5" d="M35.58,148.71a10.31,10.31,0,0,1-8.8-.32c.64-2.91,1.12-5.06,1.12-5.06l8.61,1.83Z"/>
          </g>
          <path class="cls-8" d="M32.27,161c-1.29,3.79-2.14,6.39-2.68,8.1.42-1.89,1-4.72,0-4.87-2.81-.45-6.48.91-5.43-4,.55-2.58,1.39-6.42,2.11-9.76a2.73,2.73,0,0,0,1.34,3.28s4.3.71,6.43-.35Z"/>
        </g>
        <path class="cls-9" d="M25.44,150.92c.1-.29.41-.37.56-.15.57.86,2.18,2.45,6.29,2.61a4.32,4.32,0,0,0,2.05-.41c.24-.13.48.09.42.4l-.39,2.13a.44.44,0,0,1-.29.35,9.2,9.2,0,0,1-8.76-2.24.35.35,0,0,1-.08-.13A3.77,3.77,0,0,1,25.44,150.92Z"/>
      </g>
      <g>
        <g>
          <g>
            <path class="cls-4" d="M66.28,154.66c1,4,1.74,6.67,2.24,8.44-.7-1.85-1.72-4-2.71-4.18-3.52-.74-5.15,4.43-7-.38L55.12,149l-.76-2-1.85-4.84L61,138.89l1.16,3.48.53,1.57Z"/>
            <path class="cls-5" d="M62,142.41A10.33,10.33,0,0,1,54.5,147l-1.83-4.84,8.2-3.18Z"/>
          </g>
          <path class="cls-8" d="M66,154.48c1,3.88,1.7,6.51,2.18,8.24-.68-1.81-1.77-4.47-2.62-4.09-2.61,1.16-4.93,4.31-6.76-.4-.95-2.46-2.35-6.12-3.57-9.32a2.72,2.72,0,0,0,2.91,2s4-1.75,5.2-3.81Z"/>
        </g>
        <path class="cls-9" d="M54.76,149.81c-.07-.3.15-.54.39-.43,1,.4,3.16.85,6.7-1.26a4.44,4.44,0,0,0,1.49-1.47c.13-.24.45-.18.57.11l.84,2a.47.47,0,0,1,0,.45,9.2,9.2,0,0,1-8.57,2.91.38.38,0,0,1-.13-.06A3.81,3.81,0,0,1,54.76,149.81Z"/>
      </g>
      <path class="cls-4" d="M30.17,87.45a32.51,32.51,0,0,0-5,.43c-1.41.49-4.51,5-5.45,6.59-1.59,2.72-5.61,13.39-4.87,20.77l4,1.31s4.35-9,7.83-14.8c.42-.69,4.47-7.37,4.95-7.79C31.56,94,33.19,90,30.17,87.45Z"/>
      <g>
        <path class="cls-4" d="M19.76,114.09c.91.54,1.46,2.34,2,5.17-.37,6.93-2.27,4.45-2.27,4.45a21.1,21.1,0,0,0-.13-3.51c-.2-.12-2.16,3.7-1.69,6,0,.14-.53,1-2.1.44a.92.92,0,0,1-.52-1,1.66,1.66,0,0,1-2.16-1.53s-2.07.39-1.7-2.46c0,0-.78-.23-.72-1.88,0-1.46,4.23-7,4.23-7"/>
        <g>
          <path class="cls-10" d="M16.88,120.11a10.6,10.6,0,0,0-1.67,5.48"/>
          <path class="cls-11" d="M16.9,120.13a10.78,10.78,0,0,0-1,2.66c-.11.47-.16.94-.27,1.4s-.2.93-.37,1.4h-.05a4.91,4.91,0,0,1-.07-1.48,5.39,5.39,0,0,1,.38-1.43,8.88,8.88,0,0,1,1.37-2.58Z"/>
        </g>
        <g>
          <path class="cls-10" d="M14.75,118.42a10.3,10.3,0,0,0-1.64,5.4"/>
          <path class="cls-11" d="M14.77,118.43a10.14,10.14,0,0,0-1,2.63c-.11.46-.16.92-.26,1.38s-.2.91-.36,1.38h-.05a4.81,4.81,0,0,1-.09-1.46,5.64,5.64,0,0,1,.37-1.41,8.94,8.94,0,0,1,1.36-2.55Z"/>
        </g>
        <g>
          <path class="cls-10" d="M13.44,116.39c-.83,1.1-1.3,1.88-2.1,4.86"/>
          <path class="cls-11" d="M13.46,116.41a9.41,9.41,0,0,0-1.14,2.37c-.14.41-.22.85-.38,1.26a6.7,6.7,0,0,1-.58,1.21h0a5.48,5.48,0,0,1,.15-1.35,7.11,7.11,0,0,1,.48-1.26,8.13,8.13,0,0,1,1.48-2.25Z"/>
        </g>
      </g>
      <path class="cls-8" d="M29.7,73.71c-5.67.09-11.86,23-11.86,23s4.45,3.9,12,1.36l2.31-10.53Z"/>
      <path class="cls-8" d="M33.8,76.27c-3.88-1.85-.35,13.92-.35,13.92s9.08.52,13.45,1.12l1-11Z"/>
      <g>
        <path class="cls-12" d="M55.58,114.11l-27.19-1.87c-3.52-.88-11.19,29.6-9.8,32.42,1.28,2.62,17.73,7.7,33.7,5.71S67,143.92,67,143.92s-9.1-25.34-8.87-25.34"/>
        <path class="cls-13" d="M27.28,108.35v4.45s4.14,4,14.47,3.74,15.73-2.38,15.73-2.38l-.27-3.93Z"/>
        <path class="cls-12" d="M46.64,112.72a0,0,0,0,1,0,0c0,.14.17,3.19.18,3.35s0,0,0,0l-1.26.32h0l-.21-3.48A8.31,8.31,0,0,1,46.64,112.72Z"/>
        <path class="cls-12" d="M35.66,112.58c.16,0,1.1.29,1.1.29s0,3.7,0,3.7l-1.4-.29Z"/>
        <path class="cls-14" d="M53.19,120.93a5.08,5.08,0,0,1,.52-.15l.08,0,.08.14a12.21,12.21,0,0,0,1.76,2.7,10.54,10.54,0,0,0,2.49,2.09,4.11,4.11,0,0,1-3.23-1.43A4.81,4.81,0,0,1,53.56,121l.15.12Z"/>
        <g>
          <path class="cls-15" d="M32.88,117.8s.52-1.31.24-.65-6.72,26.41-6.72,26.41"/>
          <path class="cls-16" d="M32.64,117.71l.33-.81h0c.2.06-.44-.12.44.2a.08.08,0,0,0,0,0v0l0,.05,0,.1-.06.2-.12.41-.47,1.7L31.78,123,30,129.84,26.4,143.56l3.33-13.78,1.68-6.89.86-3.44.44-1.72.12-.44.06-.23,0-.1,0,0v0l0,0c.88.31.24.14.43.2v0l-.32.85Z"/>
        </g>
        <g>
          <path class="cls-15" d="M39.56,118.59s.32-1.37.14-.68S37.09,145,37.09,145"/>
          <path class="cls-16" d="M39.32,118.54l.19-.85h0c.21,0-.45-.06.46.12v0l0,.05,0,.11,0,.2-.06.42-.2,1.76-.38,3.52-.74,7.05L37.09,145l1.19-14.12.61-7.06.32-3.53.17-1.77.06-.46,0-.23,0-.11,0-.06v0l0,0c.92.18.25.1.46.14v0l-.18.88Z"/>
        </g>
        <g>
          <path class="cls-15" d="M48.65,118.63s0-1.42,0-.7S51.55,145,51.55,145"/>
          <path class="cls-16" d="M48.4,118.62l0-.87h0c.2,0-.46,0,.47,0,0,0,0,0,0,0v.39l0,.43.16,1.76.33,3.53.7,7L51.55,145,49.88,131l-.83-7-.4-3.53-.19-1.76,0-.46v-.49c.94,0,.27,0,.48,0v.92Z"/>
        </g>
      </g>
      <path class="cls-12" d="M27.72,92.26,27,108.06s1.67,4.81,12.8,5.31c0,0,14.18-.28,19.07-5L56.29,87l-.08-13.14L51.78,73S46.26,72.3,46,75.68c-.12,1.57.89,7.6-1.12,11.61-.54,1.09-8,3.69-10-1-.92-2.1.31-13.43-.06-14.06l-.56-2.41-2.78,2.64-3.36,9.11Z"/>
      <path class="cls-12" d="M37.61,77.68a5.55,5.55,0,0,1,5.19-.23c3.18,1.18-.79,5-.79,5h-3.5S33.85,79.22,37.61,77.68Z"/>
      <path class="cls-8" d="M37,68c-.37.29-4.7,3.69-4.85,5.29s1,10.23,1,10.23l6.36-6.44s-3.62-3-3.9-4.35S37,68,37,68Z"/>
      <path class="cls-8" d="M41.87,77.23c-.3.12,5.51,7,5.51,7A42.52,42.52,0,0,0,52,73.28l-2.61-4.44S47.67,75,41.87,77.23Z"/>
      <path class="cls-12" d="M36.86,88.3c1.27-4.91,1.71-6.19,1.65-6.54-.16-1,3.76-.65,3.76-.65a37.64,37.64,0,0,0,.58,5c.1.57.2,1.15.32,1.73C43.5,89.57,36.66,89.06,36.86,88.3Z"/>
      <path class="cls-6" d="M33.12,71.07C30.6,73,27.28,81.92,27.55,95.27c-.15.42,0,0-2-6.56a67.19,67.19,0,0,1,2-14.9S27.83,73.29,33.12,71.07Z"/>
      <path class="cls-6" d="M61.13,75.08s-7.94,3.2-5.26,18.56c0,0-.3,1.69-2.54.06,0,0-4.9-15.66-.18-20.68A11.2,11.2,0,0,1,61.13,75.08Z"/>
      <g>
        <path class="cls-4" d="M60.86,94.73a38.61,38.61,0,0,1,4,3.57c.91,1.3,1.05,6.85.94,8.75-.18,3.18-2.7,14.24-7.39,19.64l-4-1.5s1.31-10,1.6-16.81c0-.81.31-8.72.15-9.36C56.1,99,56.89,94.85,60.86,94.73Z"/>
        <g>
          <path class="cls-4" d="M55.77,121c-1,.18-2.08,1.81-3.39,4.52-1.73,7.28.8,5.49.8,5.49a23.1,23.1,0,0,1,1.17-3.56c.23,0,.93,4.67-.21,6.89-.07.13.19,1.27,1.84,1.3,0,0,.63,0,.8-.85a1.51,1.51,0,0,0,2.49-.71s1.83,1.23,2.33-1.84c0,0,.8.08,1.24-1.64.4-1.53-1.9-8.87-1.9-8.87"/>
          <g>
            <path class="cls-10" d="M56.7,128.3a13.16,13.16,0,0,1-.07,6.28"/>
            <path class="cls-11" d="M56.72,128.3a11.17,11.17,0,0,1,.52,3.15,6.69,6.69,0,0,1-.07,1.61,5.62,5.62,0,0,1-.51,1.53h0c0-.55,0-1.07.07-1.59s.12-1,.16-1.55a13.17,13.17,0,0,0-.17-3.13Z"/>
          </g>
          <g>
            <path class="cls-10" d="M59.2,127.42a12.71,12.71,0,0,1-.08,6.19"/>
            <path class="cls-11" d="M59.22,127.42a10.83,10.83,0,0,1,.52,3.1,7.67,7.67,0,0,1-.07,1.59,5.34,5.34,0,0,1-.52,1.5h0c0-.54,0-1,.07-1.56s.13-1,.17-1.53a12.75,12.75,0,0,0-.17-3.08Z"/>
          </g>
          <g>
            <path class="cls-10" d="M61,125.88c.45,1.45.67,2.44.53,5.81"/>
            <path class="cls-11" d="M61.05,125.87a10,10,0,0,1,.71,2.87,7.35,7.35,0,0,1,.08,1.48,6.88,6.88,0,0,1-.26,1.47h0a8.46,8.46,0,0,1-.19-1.47c0-.49,0-1,0-1.46a12.35,12.35,0,0,0-.36-2.88Z"/>
          </g>
        </g>
        <path class="cls-8" d="M61.61,75.77c4.93,4.65,5.83,20.25,7,24.45a58.9,58.9,0,0,1-14.41.78l.38-13.19S57.26,71.68,61.61,75.77Z"/>
      </g>
      <g>
        <path class="cls-17" d="M25,41.44a55,55,0,0,1-.58,10.82c-.79,4.14-1.35,10.19,6.18,15.63,2.52,1.82,3,2.58,6.12,2.85,4.61.41,13.47-1.42,18.31-8.41,0,0,3.81-12.77,1.49-20.23,0,0,3.9-8.63-13-13.3S25,41.44,25,41.44Z"/>
        <g>
          <g>
            <path class="cls-18" d="M36,56.1c-2.53,2.06-4.86-.38-4.65-1.22,0,0-.23-.6,1.36-2,1.26-1.06.56-2.92.56-2.92"/>
            <path class="cls-19" d="M36,56.13a3.67,3.67,0,0,1-1.27.77,2.8,2.8,0,0,1-1.52.1,3.2,3.2,0,0,1-1.39-.69,2.82,2.82,0,0,1-.54-.6,1.25,1.25,0,0,1-.25-.91l0,.19a.92.92,0,0,1,0-.56,2.27,2.27,0,0,1,.16-.39,4.15,4.15,0,0,1,.44-.63,5.24,5.24,0,0,1,.51-.54l.28-.23c.07-.07.15-.13.21-.2A3,3,0,0,0,33.24,50l.07,0a3,3,0,0,1,.4,1.41,2.36,2.36,0,0,1-.46,1.51,2.72,2.72,0,0,1-.29.3l-.25.23c-.15.16-.33.3-.47.46a3.07,3.07,0,0,0-.41.48,1.57,1.57,0,0,0-.14.25c0,.06,0,.19-.05.13V55a.7.7,0,0,0,.12.47,2,2,0,0,0,.4.52,2.9,2.9,0,0,0,1.15.7A3,3,0,0,0,36,56.08Z"/>
          </g>
          <path class="cls-3" d="M40.71,44.56s.1-1.27,2.07-1,4.33,2.74,4.33,4.14C47.11,47.7,43.6,44.22,40.71,44.56Z"/>
          <path class="cls-3" d="M31.06,43.28a1.64,1.64,0,0,0-1.35-1.45c-1.31-.31-3.4.66-3.74,1.54C26,43.37,29.32,42.36,31.06,43.28Z"/>
          <g>
            <path class="cls-20" d="M40.87,61C40,62.11,37.15,65.5,34,65.29c-1.94-.12-2.56-1.86-3.23-3.16-.18-.34-.34-.69-.49-1h0c-.08-.18-.16-.35-.25-.53a9.85,9.85,0,0,0-.72-1.32h0a3,3,0,0,0-.2-.29L29,58.84S31.42,61,40,60.74l.72-.07.29,0,.16,0Z"/>
            <path class="cls-21" d="M31.51,63a2.19,2.19,0,0,1,1.92-.08A4.29,4.29,0,0,1,36.36,64S33.4,65.2,31.51,63Z"/>
            <path class="cls-22" d="M41,60.64c-4.37,2.63-7.81,2-9.59,1.09-.76-.4-.45-1.82-1.76-2.13a3.58,3.58,0,0,1-.64-.65L29,58.84S31.42,61,40,60.74l.72-.07Z"/>
            <path class="cls-23" d="M40.87,61C40,62.11,37.15,65.5,34,65.29c-1.94-.12-2.56-1.86-3.23-3.16C33.26,65.32,36,65.13,40.87,61Z"/>
            <path class="cls-23" d="M40.75,60.67C34,62.49,30.5,60.34,29.26,59.24h0l0,0L29.05,59,29,58.84S31.42,61,40,60.74Z"/>
            <path class="cls-21" d="M40.88,60s1,.33.34,1.32C41.22,61.32,42.14,60.05,40.88,60Z"/>
            <path class="cls-21" d="M29.22,58.52s-.63,0-.4,1C28.82,59.48,28.29,58.52,29.22,58.52Z"/>
          </g>
          <g>
            <path class="cls-24" d="M48.81,35.36a9.89,9.89,0,0,1-3.33,4,11,11,0,0,1-10.32,1.84l.54-1.41s-3.3,2.47-4.77-.6l1.7-1.84a7.09,7.09,0,0,1-5.5,3.06c-4,.4,3.36-8.09,3.36-8.09l10.24-2.54,10.9,2.53,4.58,4.85L59.49,48.9,57,54.8l-.79,4.82s-1.1-1.78-.52-7.14S49.83,44.7,48.81,35.36Z"/>
            <path class="cls-3" d="M50,34.54s0,.71-5.27,4.51a10,10,0,0,1-9.36,1s2.79-2,3.14-4.48c0,0-3.29,5.48-6.91,4.06,0,0,2.2-2.38,2-4.44,0,0-2.34,3.26-4.86,3.55s-3.45,4.29-3.45,4.29-7-7.08,5.29-17.63c.07-.06,5.64-5.69,16.77-5.08,14.58.81,19.08,9.12,21.32,19.77,2.29,10.86-3,24.56-3,24.56s-7,6.07-9.63-3.13V59.81s-1-1.24.11-7.26S48.39,40.79,50,34.54Z"/>
          </g>
          <g>
            <g>
              <g>
                <path class="cls-18" d="M53.23,63a5.86,5.86,0,0,0,6-.36c6.33-5,3.07-8.88.22-9-.71,0-3.31.15-4.83,3.76"/>
                <path class="cls-19" d="M53.23,63a6.09,6.09,0,0,0,5.73-.6c1.55-1.27,3.07-2.85,3.46-4.74A3,3,0,0,0,61.71,55a3.52,3.52,0,0,0-2.54-1.12,4.34,4.34,0,0,0-2.71,1,7.59,7.59,0,0,0-1.87,2.42,6.88,6.88,0,0,1,1.62-2.7,4.77,4.77,0,0,1,2.94-1.36,4,4,0,0,1,3.05,1.26,3.7,3.7,0,0,1,.93,3.19,6.4,6.4,0,0,1-1.44,2.94,14.18,14.18,0,0,1-2.31,2.21,5,5,0,0,1-3.12,1,5.65,5.65,0,0,1-1.59-.21A3.66,3.66,0,0,1,53.23,63Z"/>
              </g>
              <path class="cls-25" d="M55.64,59s1-4.36,3.92-3.27c2.58.95-.34,6-3.59,6.54,0,0-1.18,0,.56-1.81S55.64,59,55.64,59Z"/>
            </g>
            <path class="cls-26" d="M54.94,62.16c-.28-.16-.52.06-.51.44,0,.84-.33,2.41.39,2.63,1,.32.52-2.79.46-3h0C55.28,62.34,55.13,62.27,54.94,62.16Z"/>
          </g>
          <g>
            <ellipse class="cls-27" cx="42.39" cy="51.17" rx="3.82" ry="3.26" transform="translate(-14.42 85.63) rotate(-81.6)"/>
            <ellipse class="cls-3" cx="41.44" cy="51.11" rx="2.22" ry="2.05" transform="translate(-15.17 84.63) rotate(-81.6)"/>
            <ellipse class="cls-22" cx="43.11" cy="49.71" rx="0.63" ry="0.58" transform="translate(-14.93 18.71) rotate(-20.96)"/>
          </g>
          <g>
            <ellipse class="cls-27" cx="29.08" cy="49.48" rx="3.63" ry="2.98" transform="translate(-24.12 71.03) rotate(-81.6)"/>
            <ellipse class="cls-3" cx="28.24" cy="49.14" rx="2.22" ry="1.9" transform="matrix(0.15, -0.99, 0.99, 0.15, -24.49, 69.9)"/>
            <ellipse class="cls-22" cx="29.59" cy="47.82" rx="0.58" ry="0.45" transform="translate(-22.68 27.07) rotate(-36.6)"/>
          </g>
        </g>
        <path class="cls-28" d="M58.56,30.07s4.23,5.58,3.35,7.76-2.37-.21-2.37-.21S57.11,29.89,58,30.24,58.56,30.07,58.56,30.07Z"/>
        <path class="cls-28" d="M54.94,31s4.23,5.58,3.34,7.75-2.37-.21-2.37-.21-2.42-7.73-1.51-7.38S54.94,31,54.94,31Z"/>
      </g>
      <g>
        <path class="cls-29" d="M22.07,163.75c.26,0-.87,1.81-.22,3.06s5.45,1.62,7.65-.24l1.28-2.08s.52,1.22-.51,3.82a13.44,13.44,0,0,1,.1,2.84,4.62,4.62,0,0,1-1.31,2.59,71.51,71.51,0,0,1-7.74-.41c-2.85-.41-11.42-2.86-12.19-5.79,0,0-.38-4.56,7.62-3.16,0,0,2.73,1.48,3.18,1.14S19.56,163.69,22.07,163.75Z"/>
        <path class="cls-30" d="M30.71,168.56c-.11.41-.18,1.63-.31,2h0a6,6,0,0,1-.34.85,1.21,1.21,0,0,1-1.09.71,64.26,64.26,0,0,1-7-.41c-2.85-.4-11.42-2.86-12.19-5.78a1.33,1.33,0,0,1,.1-.38h0c.32-.79,1.57-2.51,6.56-2l.64.08.38.05.29.05.3,0,.4.07.3.06c.26,0,.55.07.83.09h0a2.64,2.64,0,0,0,.83-.05.45.45,0,0,0,.14-.06c.08-.06,2.19-.81,2.93-1.16.23-.11,6.68,2.39,6.94,1.7l.46.16S31.8,164.37,30.71,168.56Z"/>
      </g>
      <g>
        <path class="cls-29" d="M58.89,162.29c.22-.14.26,2,1.5,2.68s5.43-1.63,6.26-4.39l-.07-2.44s1.11.74,1.67,3.48a12.84,12.84,0,0,1,1.64,2.32,4.53,4.53,0,0,1,.31,2.88,71.64,71.64,0,0,1-6.69,3.89c-2.61,1.22-11.13,3.86-13.38,1.84,0,0-2.81-3.62,4.65-6.83,0,0,3.09-.25,3.29-.78S56.76,163.61,58.89,162.29Z"/>
        <path class="cls-30" d="M68.76,161.59c.13.4.74,1.46.83,1.83h0a6,6,0,0,1,.18.9,1.19,1.19,0,0,1-.53,1.18A62.46,62.46,0,0,1,63.13,169c-2.6,1.23-11.12,3.86-13.37,1.84a1.71,1.71,0,0,1-.12-.38h0c-.17-.84-.06-3,4.41-5.25l.57-.29.34-.15.27-.13.28-.12.38-.15.28-.13a7.41,7.41,0,0,0,.75-.37h0a2.42,2.42,0,0,0,.67-.5.28.28,0,0,0,.08-.12c0-.1,1.4-1.88,1.82-2.57.14-.23,6.91-1.66,6.75-2.39l.47-.11S67.38,157.48,68.76,161.59Z"/>
      </g>
    </g>
  </g>
  <g class="cls-31">
    <rect class="cls-1" x="-1578.08" y="-908.79" width="1608" height="913" transform="translate(-1547.29 -906.08) rotate(-179.89)"/>
  </g>
</svg>
