<?xml version="1.0" encoding="utf-8"?>
<!-- Generator: Adobe Illustrator 26.3.1, SVG Export Plug-In . SVG Version: 6.00 Build 0)  -->
<svg version="1.1" id="Layer_1" xmlns="http://www.w3.org/2000/svg" xmlns:xlink="http://www.w3.org/1999/xlink" x="0px" y="0px"
	 viewBox="0 0 1920 900" style="enable-background:new 0 0 1920 900;" xml:space="preserve">
<style type="text/css">
	.st0{clip-path:url(#SVGID_00000058585757142652369880000007079296333928034459_);}
	.st1{opacity:0.5;fill:#FFFFFF;enable-background:new    ;}
	.st2{fill:#8293A3;}
	.st3{fill:#8A9DAD;}
	.st4{fill:#BF9E4B;}
	.st5{opacity:0.13;enable-background:new    ;}
	.st6{opacity:0.18;enable-background:new    ;}
	.st7{opacity:0.24;enable-background:new    ;}
	.st8{fill:#454647;}
	.st9{fill:#A08340;}
	.st10{fill:#FFFFFF;}
	.st11{opacity:0.17;fill:#FFFFFF;enable-background:new    ;}
	.st12{opacity:0.25;}
	.st13{opacity:0.25;fill:#FFFFFF;enable-background:new    ;}
	.st14{fill:#7F6532;}
	.st15{opacity:0.65;fill:#5B4724;enable-background:new    ;}
	.st16{fill:#5B4724;}
	.st17{fill:#565555;}
	.st18{fill:url(#SVGID_00000081617215723246574340000013538120046503535774_);}
	.st19{fill:#727171;}
	.st20{fill:url(#SVGID_00000044170065123062988660000001682410227544801415_);}
	.st21{fill:url(#SVGID_00000134248722962394949030000012736992183544771727_);}
	.st22{fill:url(#SVGID_00000065761922234964333150000013433390008306744721_);}
	.st23{opacity:8.000000e-02;enable-background:new    ;}
	.st24{fill:url(#SVGID_00000094581037180642233730000001847208537341264313_);}
	.st25{fill:url(#SVGID_00000155148650353772854800000001573044723663664798_);}
	.st26{fill:url(#SVGID_00000127746787722310838660000016667278800281629346_);}
	.st27{fill:url(#SVGID_00000183954817239896163480000014660939407727105461_);}
	.st28{fill:url(#SVGID_00000124157700512707685970000017675399519951173298_);}
	.st29{fill:url(#SVGID_00000179627891627242253190000006485077524299882941_);}
	.st30{fill:url(#SVGID_00000107562373726546267860000009340923540344886704_);}
	.st31{fill:url(#SVGID_00000073714332101686105920000015279474352809020849_);}
	.st32{fill:url(#SVGID_00000095319217848229337140000006135328739363585974_);}
	.st33{fill:url(#SVGID_00000069363002552794237210000017080917170923521214_);}
	.st34{fill:url(#SVGID_00000053516087916275393740000013430025585886052761_);}
	.st35{fill:url(#SVGID_00000117676401695615882550000008695186036023048611_);}
	.st36{fill:url(#SVGID_00000028315962236130681520000010840261590246518454_);}
	.st37{fill:url(#SVGID_00000146484243665901238710000012376843708457997191_);}
	.st38{fill:url(#SVGID_00000175281687808049841140000014064840504311374250_);}
	.st39{fill:url(#SVGID_00000165954976645725552650000013019178997872945050_);}
	.st40{fill:url(#SVGID_00000124841205838721141860000000896075831529382052_);}
	.st41{fill:url(#SVGID_00000064322283181743850040000009489222162748942764_);}
	.st42{fill:url(#SVGID_00000099651042548228063720000012760862259363766168_);}
	.st43{fill:url(#SVGID_00000138532457963381645530000004406799929662694826_);}
	.st44{fill:url(#SVGID_00000040558583572697436870000006306071343190581173_);}
	.st45{fill:url(#SVGID_00000159429708122668881060000002418623078519843231_);}
	.st46{fill:url(#SVGID_00000098902156363509591700000006524614958019800223_);}
	.st47{fill:url(#SVGID_00000051376220498789404800000014459468417875982009_);}
	.st48{fill:url(#SVGID_00000150803075346590737840000017231418540473691553_);}
	.st49{fill:url(#SVGID_00000137816282950751072240000006421806797368223678_);}
	.st50{fill:url(#SVGID_00000100357874645309186160000000158559665758834855_);}
	.st51{fill:url(#SVGID_00000032622328096953036990000011146949477942412677_);}
	.st52{fill:url(#SVGID_00000045617169133759350330000003890983049794737804_);}
	.st53{fill:url(#SVGID_00000069395949583961539840000011168352264784422799_);}
	.st54{fill:url(#SVGID_00000084520920447576829740000001685209277893314180_);}
	.st55{fill:url(#SVGID_00000128478970176825270050000009514738593509585828_);}
	.st56{fill:url(#SVGID_00000178194370011511683520000011223333976595749821_);}
	.st57{fill:url(#SVGID_00000072973947432074129090000010473099947760022719_);}
	.st58{fill:url(#SVGID_00000159438305409345598260000017752959615120788408_);}
	.st59{fill:url(#SVGID_00000002348354820550725290000005576467300903252643_);}
	.st60{fill:url(#SVGID_00000172428966422318179040000007171590312180100778_);}
	.st61{fill:url(#SVGID_00000086673256229862063610000004994366535678141063_);}
	.st62{fill:url(#SVGID_00000058571551633733680950000002017098564202891424_);}
	.st63{fill:url(#SVGID_00000117667061875334350050000014700328482697798827_);}
	.st64{fill:none;}
</style>
<g>
	<defs>
		<rect id="SVGID_1_" width="1920" height="900"/>
	</defs>
	<clipPath id="SVGID_00000056423064665327864850000002266083650217167520_">
		<use xlink:href="#SVGID_1_"  style="overflow:visible;"/>
	</clipPath>
	<g style="clip-path:url(#SVGID_00000056423064665327864850000002266083650217167520_);">
		<rect class="st1" width="1920" height="900"/>
		<g>
			<polygon class="st2" points="188.6,759.1 749.2,411.5 1160.9,419.5 1805,776.2 1879.4,973.3 156,973.3 			"/>
			<polygon class="st3" points="1074.8,962.9 895.5,962.9 904.7,855.9 942.9,414.6 1014.8,414.6 1067.6,896.5 			"/>
			<polygon class="st4" points="1814.8,-6.2 1138.3,235.7 767.8,235.7 91.3,-6.2 			"/>
			<path class="st5" d="M1820-5.2l-676.4,241.9H772.9L96.5-5.2h249.9C430.1,33.7,704.2,154.4,927.2,179
				C1146,203,1390.8,50.4,1471.6-5.2C1471.6-5.2,1820-5.2,1820-5.2z"/>
			<path class="st6" d="M1692.3-5.2c0,0-510.3,233.6-605.8,234.6s-128.3-7-128.3-7s-32.8,7.9-128.3,7
				C734.4,228.5,224.2-5.2,224.2-5.2H96.5l676.4,241.9h370.6L1820-5.2H1692.3z"/>
			<polygon class="st5" points="1510.2,-5.2 1120.5,229.3 1143.4,229.3 1604.4,-5.2 			"/>
			<polygon class="st7" points="1510.2,-5.2 1495.7,-5.2 1119.6,224.3 1120.5,229.3 			"/>
			<polygon class="st5" points="406.3,-5.2 796,229.3 773.1,229.3 312.1,-5.2 			"/>
			<polygon class="st7" points="406.3,-5.2 424.1,-5.2 796.8,225.6 796,229.3 			"/>
			<path class="st4" d="M-12-47l-12,997l236.6,13l489.6-479.3l70.7-69.2V236.7L-12-47z M186.3,635.6c0,18.9-7.5,36.4-19.6,45.5
				l-5.3,4l-9.8,7.4L-16,804L-6,54l119.5,42.6l1.2,0.6l45.3,20.4c15.8,7,26.3,26.9,26.3,49.4V635.6z M526.2,493.6
				c-0.1,11.7-6.7,22.3-17.2,27.6l-4.7,2.5l-8.6,4.5L325,617.7l-13.5,7.1c-15,7.9-33.4,3.8-43.6-9.7c-2.3-3.2-4-6.8-5-10.6
				c-0.6-2.4-0.9-4.9-0.9-7.3V147.4c0-21.5,22.2-36.8,43.8-30l66.2,20.7l23.8,7.4l23.1,7.2l12.8,4l30.9,9.6l1.1,0.3l1.8,0.6
				l35.4,11.1l2.5,0.8c13.5,4.3,22.7,16.3,22.8,29.9L526.2,493.6L526.2,493.6z M720.5,407.6c0,6.2-3.5,11.9-9.1,14.8l-2.5,1.3
				l-4.5,2.4l-56.9,30.4l-18.6,9.9L607.5,478c-10.5,5.6-23-0.4-25.6-10.9c-0.3-1.3-0.5-2.6-0.5-3.9V222c0-11.5,11.7-19.7,23.1-16.1
				l46,14.6l21.3,6.8l11.9,3.8l3.4,1.1l0.6,0.2l20.9,6.6c7,2.2,11.9,8.7,11.9,16.1L720.5,407.6L720.5,407.6z"/>
			<path class="st8" d="M711.6,234.5l-111.7-35c-12.2-3.8-24.8,4.8-24.8,17v255c0,13.7,15.4,22.3,28.1,15.7l111.7-58.7
				c5.9-3,9.6-9.1,9.7-15.7V251.5C724.5,243.6,719.2,236.7,711.6,234.5z M720.5,407.6c0,6.2-3.5,11.9-9.1,14.8l-2.5,1.3l-4.5,2.4
				l-56.9,30.4l-18.6,9.9L607.5,478c-10.5,5.6-23-0.4-25.6-10.9c-0.3-1.3-0.5-2.6-0.5-3.9V222c0-11.5,11.7-19.7,23.1-16.1l46,14.6
				l21.3,6.8l11.9,3.8l3.4,1.1l0.6,0.2l20.9,6.6c7,2.2,11.9,8.7,11.9,16.1L720.5,407.6L720.5,407.6z"/>
			<polygon class="st9" points="-24,922 773,407 773,417 96.5,963 			"/>
			<path class="st4" d="M1764.1,683.1l-9.8-7.4l-5.3-4c-12.2-9.1-19.7-26.6-19.7-45.5V157.6c0-22.4,10.5-42.4,26.3-49.4l45.3-20.4
				l1.2-0.6L1947,26l4.6,296.8L1959-61l-820.1,296.5l-0.1,199.4l71.2,47.5l492.3,479.3L1939,974l3.5-181.1L1764.1,683.1z
				 M1335.1,463.1c0,1.3-0.2,2.6-0.5,3.9c-2.6,10.5-15.1,16.5-25.6,10.9l-63-33.6l-22.6-12l-11.4-6.2l-4.5-2.4l-2.5-1.3
				c-2-1.1-3.8-2.5-5.2-4.3c-2.5-3-3.8-6.7-3.8-10.5V255.1c0.1-7.4,4.9-13.9,12-16.1l20.9-6.7l0.6-0.2l4-1.3l9.5-3l21.4-6.8l1.6-0.5
				l22.8-7.3l23.2-7.4c9.1-3,18.9,1.8,22.2,10.8c0.6,1.8,0.9,3.6,0.9,5.4V463.1L1335.1,463.1z M1654.6,597.2c0,2.5-0.3,4.9-0.9,7.3
				c-4.8,19.7-28.8,30.7-48.6,20.3l-65.9-34.5l-52-27.3l-66.3-34.8l-7.9-4.2l-0.7-0.4l-4.7-2.5c-5.8-3-10.6-7.8-13.7-13.6
				c-2.3-4.3-3.5-9.2-3.5-14.1V209.1c0-13.6,9.2-25.7,22.9-30l4.3-1.3l33.6-10.5l1.8-0.6l1.1-0.3l3.1-1l84.2-26.3l11-3.4l28.6-8.9
				l26.6-8.3l3.3-1c21.4-6.9,43.7,8.3,43.7,29.9V597.2z"/>
			<path class="st8" d="M1619.5,105.5l-212.1,65.3c-14.7,4.5-24.6,17.3-24.6,31.7v300.8c0,12.2,7.1,23.3,18.5,29.2L1613.4,642
				c23.9,12.4,53.2-3.7,53.2-29.2V137.2C1666.6,114.4,1642.7,98.3,1619.5,105.5z M1654.6,597.2c0,2.5-0.3,4.9-0.9,7.3
				c-4.8,19.7-28.8,30.7-48.6,20.3l-65.9-34.5l-52-27.3l-66.3-34.8l-7.9-4.2l-0.7-0.4l-4.7-2.5c-5.8-3-10.6-7.8-13.7-13.6
				c-2.3-4.3-3.5-9.2-3.5-14.1V209.1c0-13.6,9.2-25.7,22.9-30l4.3-1.3l33.6-10.5l1.8-0.6l1.1-0.3l3.1-1l84.2-26.3l11-3.4l28.6-8.9
				l26.6-8.3l3.3-1c21.4-6.9,43.7,8.3,43.7,29.9V597.2L1654.6,597.2z"/>
			<path class="st8" d="M1764.1,683.1l-9.8-7.4l-5.3-4c-12.2-9.1-19.7-26.6-19.7-45.5V157.6c0-22.4,10.5-42.4,26.3-49.4l45.3-20.4
				l1.2-0.6l137.1-57.9L1939,20l-190.2,74.4c-16.8,7.5-28.1,28.5-28.1,52.3v123.2h-0.2v370.3h0.2v2c0,20,8.1,38.5,21.1,48.2
				L1959,805l-0.1-2L1764.1,683.1z"/>
			<path class="st8" d="M1316.6,199.5l-111.7,35c-7.6,2.2-12.9,9.1-13,17v161.3c0.1,6.6,3.8,12.7,9.7,15.7l111.7,58.7
				c12.7,6.6,28.1-2,28.1-15.7v-255C1341.4,204.3,1328.8,195.7,1316.6,199.5L1316.6,199.5z M1335.1,463.1c0,1.3-0.2,2.6-0.5,3.9
				c-2.6,10.5-15.1,16.5-25.6,10.9l-63-33.6l-22.6-12l-11.4-6.2l-4.5-2.4l-2.5-1.3c-2-1.1-3.8-2.5-5.2-4.3c-2.5-3-3.8-6.7-3.8-10.5
				V255.1c0.1-7.4,4.9-13.9,12-16.1l20.9-6.7l0.6-0.2l4-1.3l9.5-3l21.4-6.8l1.6-0.5l22.8-7.3l23.2-7.4c9.1-3,18.9,1.8,22.2,10.8
				c0.6,1.8,0.9,3.6,0.9,5.4V463.1z"/>
			<path class="st10" d="M1595.5,619.8c0,0-27.1-12.2-82.4-41.2s-90.3-49.3-90.3-49.3L1595.5,619.8L1595.5,619.8z"/>
			<polygon class="st9" points="1983.3,930 1119,411.5 1119,420.5 1839.2,972 			"/>
			<path class="st8" d="M249.6,588.5l0.2,24.3c0,0-0.9,17.9,15.3,27.6c10.3,6.8,23.2,8.1,34.6,3.4l26.5-13.5l-3.3-7.6
				c0,0-27.9,15.5-51.1-2.8c0,0-9.9-8.9-9.9-22.7l-0.2-8.7H249.6z"/>
			<path class="st8" d="M526.2,474.5l-0.1,22.5c0,0-2.2,16.1-17.2,24.3l6.2,11.3c0,0,19.8-8.2,18.5-29.2l-0.1-28.9L526.2,474.5
				L526.2,474.5z"/>
			<polygon class="st8" points="509,521.3 300.3,630.3 326.2,630.3 517.2,531.9 			"/>
			<path class="st8" d="M581,464.6c0,0,6.9,20.6,26.5,13.3l107.1-57.7c0,0,5.2-3.7,6.1-14.5v-21.4l3.6-0.1c0,0-0.3,34.2-3.8,36.3
				l-125,68.4c0,0-16.8,3.1-20.4-16L581,464.6L581,464.6z"/>
			<path class="st8" d="M771.6,233.6V425h371.2V233.6H771.6L771.6,233.6z M1136.5,386.8c0,13.2-7,24-15.6,24H795.3
				c-8.6,0-15.6-10.8-15.6-24V266.4c0-13.3,7-24,15.6-24h325.6c8.6,0,15.6,10.7,15.6,24V386.8z"/>
			<polygon class="st11" points="907.8,242.4 805.9,410.8 794.2,410.7 892.4,242.2 			"/>
			<polyline class="st11" points="821.1,410.8 924.8,242.4 936.5,242.5 831,410.6 			"/>
			<polygon class="st11" points="1073.2,242.6 971.3,411 959.6,410.8 1057.8,242.4 			"/>
			<polyline class="st11" points="986.5,411 1090.2,242.5 1101.9,242.6 996.4,410.8 			"/>
			<rect x="1341.2" y="251" class="st4" width="41.5" height="273.8"/>
			<rect x="1667.2" y="260.8" class="st4" width="52.9" height="450.5"/>
			<rect x="1335" y="248.5" class="st8" width="6.2" height="220.7"/>
			<rect x="1192" y="251.8" class="st8" width="3.8" height="155.2"/>
			<rect x="1382.8" y="209.1" class="st8" width="7.2" height="293.3"/>
			<rect x="1654.7" y="142.9" class="st8" width="11.8" height="457.3"/>
			<path class="st8" d="M1195.9,407c0,0,0.2,8.9,6.9,14.2L1309,478c0,0,20.9,6.9,26-13.1l4.6-0.2l1.6,4.5c0,0,3,17.9-17.1,20.1
				c0,0-125.8-62.4-128-66.1C1196.1,423.3,1189,401.5,1195.9,407L1195.9,407z"/>
			<path class="st8" d="M1389.3,492.9c1.6,10.3,6.8,19.6,14.6,26.4l208.9,108.8c0,0,32.3,5.6,41.9-28l7.6-3.8l4.1,3.8
				c0,0,9.6,49.7-40.8,45.9l-236.5-122.5c0,0-7.6-6.8-6.5-27.1L1389.3,492.9L1389.3,492.9z"/>
			<path class="st8" d="M1728.2,628.4c0,0,4,29,22.6,45.1L1959,779v26l-122-64l-97.3-51.7c0,0-21.2-15.5-19.2-49.2L1728.2,628.4
				L1728.2,628.4z"/>
			<path class="st4" d="M1325.2,489.3c0,0,13.5-1.5,16-14.2l11.8,12.3l-8.4,19.2L1325.2,489.3z"/>
			<path class="st4" d="M1626.3,646.3c0,0,35.5,0.2,41.2-33.5l11,58.9l-29.7-5.6L1626.3,646.3L1626.3,646.3z"/>
			<path class="st4" d="M1720.7,642.2c0,0-3,28.8,19,47.2l77.1,56.6l-104-47.6L1720.7,642.2z"/>
			<g class="st12">
				<path class="st10" d="M1456.7,166.7l-66.8,132.7V236l27.2-57l33.6-10.5l1.8-0.6l0,0l1.1-0.3l0,0L1456.7,166.7L1456.7,166.7z"/>
				<polygon class="st10" points="1551.9,137 1389.9,457.8 1389.9,440.3 1540.9,140.4 				"/>
				<path class="st10" d="M1607.1,119.7l-194.6,405.7l-0.7-0.4l-4.7-2.5c-5.8-3-10.6-7.8-13.7-13.6l187.1-381L1607.1,119.7
					L1607.1,119.7z"/>
				<polygon class="st10" points="1654.2,266 1654.2,386.9 1538.8,591.6 1486.7,564.3 				"/>
			</g>
			<polygon class="st13" points="1242.6,229.2 1195.5,345.6 1195.5,325.3 1233.1,232.2 			"/>
			<path class="st13" d="M1288.4,214.6l-89.1,204.9c-2.5-3-3.8-6.7-3.8-10.5v-24.2l68.5-162.4l1.6-0.5L1288.4,214.6L1288.4,214.6z"
				/>
			<path class="st13" d="M1334.6,223.3v59l-89.1,163.4l-22.6-12.1L1333.8,218C1334.4,219.7,1334.6,221.5,1334.6,223.3L1334.6,223.3z
				"/>
			<path class="st4" d="M156.1,704.2l19.4-14.2c0,0,20.9-15.4,20.2-47.7l9.7,1.7C205.5,643.9,220.4,701.8,156.1,704.2L156.1,704.2z"
				/>
			<path class="st4" d="M249.1,607.4c0,0,2.9,37.6,41.9,38.6l-41,19c0,0-8.5-25.2-8.5-26.4S249.1,607.4,249.1,607.4L249.1,607.4z"/>
			<path class="st4" d="M568.7,454.4c0,0-1.4,32.1,30.3,38.6l-30.1,16.3c0,0-7.7-22.6-7.7-23.8S568.7,454.4,568.7,454.4z"/>
			<path class="st4" d="M506.2,538.4c0,0,33.5-12.5,27.9-44l28.5,20.4c0,0-20.2,16.6-21.4,17.1S506.2,538.4,506.2,538.4z"/>
			<path class="st4" d="M1382.5,504.4c0,0,0,12.3,10.9,22.8c0,0-22.2-3.5-22.7-6.2S1382.5,504.4,1382.5,504.4L1382.5,504.4z"/>
			<rect x="1504.6" y="142.9" class="st8" width="11.5" height="440.2"/>
			<rect x="654" y="218.3" class="st8" width="6.8" height="237.9"/>
			<rect x="1252.5" y="221.4" class="st8" width="6.8" height="232.5"/>
			<rect x="517.6" y="341.1" class="st8" width="6.6" height="36.7"/>
			<rect x="264.2" y="339.7" class="st8" width="9.7" height="53.5"/>
			<rect x="584.1" y="343.9" class="st8" width="4.9" height="27.2"/>
			<rect x="716" y="336.6" class="st8" width="3.3" height="18.1"/>
			<rect x="1393.1" y="350.2" class="st8" width="6.6" height="36.7"/>
			<rect x="1643.5" y="348.8" class="st8" width="9.7" height="53.5"/>
			<rect x="1328.4" y="353" class="st8" width="4.9" height="27.2"/>
			<rect x="1198.1" y="345.7" class="st8" width="3.3" height="18.1"/>
			<rect x="1733.4" y="329.8" class="st8" width="14.5" height="83"/>
			<polygon class="st14" points="1153.8,364.1 1150.8,373 1926,657 1933,622 1712.4,548.9 1372.8,436.5 			"/>
			<path class="st15" d="M1153.8,364.1l-3,8.9L1926,654l7-32c-14.5-0.9-132.6-26.4-146.8-30.4c-55.9-15.6-73.8-42.7-73.8-42.7
				s-66.9-6-153.3-36s-141.3-46.8-162.8-57.9s-23.4-18.5-23.4-18.5s-26.6-0.8-120.8-32.5C1157.9,372.3,1153.8,364.1,1153.8,364.1
				L1153.8,364.1z"/>
			<rect x="1358" y="417.7" class="st16" width="8.7" height="52.9"/>
			<rect x="1687.5" y="529.9" class="st16" width="10.7" height="64"/>
			<rect x="526.2" y="278.6" class="st8" width="7.3" height="195.8"/>
			<rect x="400.2" y="141.6" class="st8" width="11.5" height="440.2"/>
			<rect x="575.2" y="284" class="st8" width="6.3" height="189"/>
			<polygon class="st13" points="396.7,146.7 262.9,409 262.9,360.5 373,139.3 			"/>
			<path class="st13" d="M432.6,157.9L269,476.1c-2.1-0.6-4.1-1.1-6.1-1.7v-14.6l156.9-305.9L432.6,157.9L432.6,157.9z"/>
			<path class="st10" d="M269,476.1l-6.1,11.9v-13.6C264.9,475,266.9,475.6,269,476.1z"/>
			<polygon class="st13" points="684.6,232.1 583.3,461.2 583.1,428.7 672.8,228.3 			"/>
			<polygon class="st13" points="721.5,278.7 721.5,305.9 648.6,456.9 630,466.8 			"/>
			<path class="st8" d="M509.1,170.8L297,105.5c-23.2-7.2-47.1,8.9-47.1,31.7v475.6c0,25.5,29.3,41.6,53.2,29.2l212.1-109.5
				c11.4-5.9,18.5-17,18.5-29.2V202.5C533.7,188.1,523.8,175.3,509.1,170.8z M525.3,494c-0.1,11.7-6.8,22.4-17.2,27.6l-4.7,2.5
				l-8.6,4.5l-170.7,89.5l-13.5,7.1c-15,7.9-33.4,3.8-43.6-9.7c-2.3-3.2-4-6.8-5-10.6c-0.6-2.4-0.9-4.9-0.9-7.3V147.7
				c0-21.5,22.2-36.8,43.8-30l66.2,20.7l23.8,7.4L418,153l12.8,4l30.9,9.6l1.1,0.3l1.8,0.6l35.5,11.1l2.5,0.8
				c13.5,4.3,22.7,16.4,22.7,29.9L525.3,494L525.3,494z"/>
			<polygon class="st17" points="801.9,214.3 801.9,226.4 555.5,-1.2 601.4,-1.2 608.1,5.9 799.3,211.5 			"/>
			
				<linearGradient id="SVGID_00000168081869466669097450000008458884492456661423_" gradientUnits="userSpaceOnUse" x1="524.8" y1="785.2" x2="803.5" y2="785.2" gradientTransform="matrix(1 0 0 -1 0 900)">
				<stop  offset="0" style="stop-color:#E6E6E6"/>
				<stop  offset="1" style="stop-color:#CCCCCC"/>
			</linearGradient>
			<polygon style="fill:url(#SVGID_00000168081869466669097450000008458884492456661423_);" points="794.2,228.6 524.8,1 557.1,1 
				803.5,228.6 			"/>
			<path class="st19" d="M803.5,216.6v12.1L557.1,1H603l6.7,7.2c-4.8,2.8-7.5,8.4-5.3,18.9c7,33.7,180.6,182.7,189.8,186.1
				c2.1,0.7,4.4,0.9,6.6,0.6L803.5,216.6L803.5,216.6z"/>
			<polygon class="st7" points="534.6,1 797.6,228.6 800.2,228.6 545.6,1 			"/>
			
				<linearGradient id="SVGID_00000036252169020588353320000003788239896595796658_" gradientUnits="userSpaceOnUse" x1="539.94" y1="863.9" x2="569.47" y2="863.9" gradientTransform="matrix(1 0 0 -1 0 900)">
				<stop  offset="0" style="stop-color:#FFFFFF"/>
				<stop  offset="1" style="stop-color:#E6E6E6"/>
			</linearGradient>
			
				<rect x="539.9" y="13" style="fill:url(#SVGID_00000036252169020588353320000003788239896595796658_);" width="29.5" height="46.2"/>
			
				<linearGradient id="SVGID_00000121966587292902018790000015637053574195116222_" gradientUnits="userSpaceOnUse" x1="569.47" y1="862.85" x2="576.98" y2="862.85" gradientTransform="matrix(1 0 0 -1 0 900)">
				<stop  offset="0" style="stop-color:#E6E6E6"/>
				<stop  offset="1" style="stop-color:#CCCCCC"/>
			</linearGradient>
			<polygon style="fill:url(#SVGID_00000121966587292902018790000015637053574195116222_);" points="577,19.4 577,61.3 573.2,60.2 
				569.5,59.2 569.5,13 			"/>
			
				<linearGradient id="SVGID_00000150788258621962257880000005931196016255999905_" gradientUnits="userSpaceOnUse" x1="539.94" y1="840.85" x2="576.98" y2="840.85" gradientTransform="matrix(1 0 0 -1 0 900)">
				<stop  offset="0" style="stop-color:#E6E6E6"/>
				<stop  offset="1" style="stop-color:#CCCCCC"/>
			</linearGradient>
			<polygon style="fill:url(#SVGID_00000150788258621962257880000005931196016255999905_);" points="577,60.2 547.3,60.2 
				543.6,59.2 539.9,58.1 569.5,58.1 			"/>
			<path class="st23" d="M577,47.6v13.7l-3.8-1.1h-26l-3.7-1.1h-3.7V32.5c2.6,5,6.3,10,11.7,13.2c7.3,4.2,12.9,5.6,17.9,4.8
				C572.2,50.1,574.7,49.1,577,47.6z"/>
			
				<linearGradient id="SVGID_00000007405125000117613300000002301149845803527553_" gradientUnits="userSpaceOnUse" x1="524.05" y1="783.9781" x2="590.8922" y2="783.9781" gradientTransform="matrix(1 0 0 -1 0 900)">
				<stop  offset="0" style="stop-color:#FFFFFF"/>
				<stop  offset="1" style="stop-color:#E6E6E6"/>
			</linearGradient>
			<path style="fill:url(#SVGID_00000007405125000117613300000002301149845803527553_);" d="M581.7,89.8c-2.6-7.1-5.4-14-8.3-20.9
				c-0.3-0.7-3.1-8.6-3.8-8.6h-22.2c0,0-28,66.8-22.5,88.1c2.8,11,11,19,22.9,21.7c3.8,0.9,7.6,1.4,11.5,1.6
				c7.1,0.3,14.3-0.9,20-4.9c9.1-6.3,11.1-18.6,11.6-28.6c0-0.7,0.1-1.4,0.1-2.1C591.4,119.9,587.2,104.9,581.7,89.8L581.7,89.8z
				 M551.5,162.8c-7-1.7-12.4-7.2-13.9-14.2c-1-4-0.4-8.4,0.3-12.6l0,0c0.2-1,0.4-2,0.6-3c1.4-6.7,3.1-13.4,5.1-19.9
				c4.7-15.2,10-30.3,14.4-45.6c0,1.8,1.2,4.1,1.7,5.8c1.1,3.7,2.1,7.3,3.2,11c2.5,8.8,6.1,17.3,9.1,25.9c3.4,9.8,6.1,19.7,5.7,30.3
				c-0.2,6.8-1.2,15.8-7.1,20.2c-2,1.4-4.3,2.4-6.7,2.8l0,0C559.7,164.2,555.5,163.9,551.5,162.8L551.5,162.8z"/>
			
				<linearGradient id="SVGID_00000124164007769909890330000007528639085328867730_" gradientUnits="userSpaceOnUse" x1="531.5161" y1="781.5865" x2="563.866" y2="781.5865" gradientTransform="matrix(1 0 0 -1 0 900)">
				<stop  offset="0" style="stop-color:#E6E6E6"/>
				<stop  offset="1" style="stop-color:#CCCCCC"/>
			</linearGradient>
			<path style="fill:url(#SVGID_00000124164007769909890330000007528639085328867730_);" d="M563.9,163.5
				c-0.5,0.2-16.9,6.6-29.3-7.6c-12.6-14.4,17.5-90.2,17.2-83.8s-14,49.9-13.9,63.9l0,0c-0.7,4.1-1.2,8.5-0.3,12.6
				c1.5,7,6.9,12.6,13.9,14.2C555.5,163.9,559.7,164.2,563.9,163.5L563.9,163.5z"/>
			
				<linearGradient id="SVGID_00000157283448150184387710000008952038116595163799_" gradientUnits="userSpaceOnUse" x1="558.45" y1="784.0395" x2="590.7501" y2="784.0395" gradientTransform="matrix(1 0 0 -1 0 900)">
				<stop  offset="0" style="stop-color:#E6E6E6"/>
				<stop  offset="1" style="stop-color:#CCCCCC"/>
			</linearGradient>
			<path style="fill:url(#SVGID_00000157283448150184387710000008952038116595163799_);" d="M590.7,138.1
				c-0.5,10.1-2.5,22.3-11.6,28.6c-5.7,3.9-12.8,5.1-20,4.9c17.3-4.3,23.5-17.5,23.2-33.2c-0.5-19-23.9-78.1-23.9-78.1h11
				c0,0-3.1,2.6-3.1,5.1s11,22.6,14.7,35.3C582.8,107.3,587.8,123,590.7,138.1L590.7,138.1z"/>
			
				<linearGradient id="SVGID_00000137839148575072262550000014242437184658371217_" gradientUnits="userSpaceOnUse" x1="570.26" y1="803.6248" x2="589.33" y2="803.6248" gradientTransform="matrix(1 0 0 -1 0 900)">
				<stop  offset="0" style="stop-color:#FFFFFF"/>
				<stop  offset="1" style="stop-color:#E6E6E6"/>
			</linearGradient>
			<path style="fill:url(#SVGID_00000137839148575072262550000014242437184658371217_);" d="M570.3,67.5c0,0,14.8,37.7,18,53.5
				s-1.2-16.7-5.5-28.2S570.3,67.5,570.3,67.5z"/>
			
				<linearGradient id="SVGID_00000031923845555213094330000003281731109535676600_" gradientUnits="userSpaceOnUse" x1="616.7" y1="805.95" x2="642.26" y2="805.95" gradientTransform="matrix(1 0 0 -1 0 900)">
				<stop  offset="0" style="stop-color:#FFFFFF"/>
				<stop  offset="1" style="stop-color:#E6E6E6"/>
			</linearGradient>
			
				<rect x="616.7" y="77" style="fill:url(#SVGID_00000031923845555213094330000003281731109535676600_);" width="25.6" height="34.1"/>
			
				<linearGradient id="SVGID_00000137094255412738559200000015860787874166933941_" gradientUnits="userSpaceOnUse" x1="642.27" y1="805.15" x2="648.77" y2="805.15" gradientTransform="matrix(1 0 0 -1 0 900)">
				<stop  offset="0" style="stop-color:#E6E6E6"/>
				<stop  offset="1" style="stop-color:#CCCCCC"/>
			</linearGradient>
			<polygon style="fill:url(#SVGID_00000137094255412738559200000015860787874166933941_);" points="648.8,81.7 648.8,112.7 
				645.5,111.9 642.3,111.1 642.3,77 			"/>
			
				<linearGradient id="SVGID_00000112602570838638769810000017938264093407367082_" gradientUnits="userSpaceOnUse" x1="616.7" y1="788.9" x2="648.75" y2="788.9" gradientTransform="matrix(1 0 0 -1 0 900)">
				<stop  offset="0" style="stop-color:#E6E6E6"/>
				<stop  offset="1" style="stop-color:#CCCCCC"/>
			</linearGradient>
			<polygon style="fill:url(#SVGID_00000112602570838638769810000017938264093407367082_);" points="648.8,111.9 623.1,111.9 
				619.9,111.1 616.7,110.3 642.3,110.3 			"/>
			<path class="st23" d="M648.8,102.6v10.1l-3.2-0.8h-22.5l-3.2-0.8h-3.2V91.4c2.4,4.2,5.9,7.5,10.1,9.7c6.3,3.1,11.2,4.1,15.5,3.6
				C644.6,104.4,646.8,103.7,648.8,102.6L648.8,102.6z"/>
			
				<linearGradient id="SVGID_00000144309964651837802100000009853843559098390946_" gradientUnits="userSpaceOnUse" x1="602.9944" y1="746.8367" x2="660.8444" y2="746.8367" gradientTransform="matrix(1 0 0 -1 0 900)">
				<stop  offset="0" style="stop-color:#FFFFFF"/>
				<stop  offset="1" style="stop-color:#E6E6E6"/>
			</linearGradient>
			<path style="fill:url(#SVGID_00000144309964651837802100000009853843559098390946_);" d="M652.8,133.7
				c-2.2-5.2-4.6-10.3-7.2-15.4c-0.2-0.5-2.7-6.3-3.3-6.3h-19.2c0,0-24.2,49.4-19.5,65.1c2.5,8.1,9.5,14,19.8,16
				c3.3,0.7,6.6,1.1,10,1.2c6.1,0.2,12.3-0.7,17.3-3.6c7.9-4.7,9.6-13.7,10.1-21.2c0-0.5,0.1-1.1,0.1-1.6
				C661.2,156,657.6,144.9,652.8,133.7L652.8,133.7z M626.7,187.7c-6.2-1.3-10.5-5.2-12-10.5c-0.8-3-0.4-6.2,0.3-9.3l0,0
				c0.2-0.8,0.3-1.5,0.5-2.2c1.2-5,2.7-9.9,4.5-14.7c4-11.3,8.6-22.4,12.4-33.7c0,1.3,1,3,1.5,4.3c0.9,2.7,1.8,5.4,2.8,8.1
				c2.2,6.5,5.3,12.8,7.9,19.1c2.9,7.2,5.3,14.5,5,22.4c-0.2,5.1-1,11.6-6.2,14.9c-1.8,1.1-3.7,1.8-5.8,2.1l0,0
				C633.9,188.7,630.2,188.5,626.7,187.7L626.7,187.7L626.7,187.7z"/>
			
				<linearGradient id="SVGID_00000009583968834780241700000006825371734866078855_" gradientUnits="userSpaceOnUse" x1="609.4293" y1="745.0993" x2="637.4001" y2="745.0993" gradientTransform="matrix(1 0 0 -1 0 900)">
				<stop  offset="0" style="stop-color:#E6E6E6"/>
				<stop  offset="1" style="stop-color:#CCCCCC"/>
			</linearGradient>
			<path style="fill:url(#SVGID_00000009583968834780241700000006825371734866078855_);" d="M637.4,188.2
				c-0.4,0.1-14.6,4.9-25.3-5.6C601.2,172,627.2,116,627,120.7s-12.1,36.9-12,47.2l0,0c-0.6,3.1-1.1,6.3-0.3,9.3
				c1.5,5.3,5.8,9.2,12,10.5C630.2,188.5,633.9,188.7,637.4,188.2L637.4,188.2z"/>
			
				<linearGradient id="SVGID_00000092429528382035842040000007183517237599321489_" gradientUnits="userSpaceOnUse" x1="632.74" y1="746.8367" x2="660.67" y2="746.8367" gradientTransform="matrix(1 0 0 -1 0 900)">
				<stop  offset="0" style="stop-color:#E6E6E6"/>
				<stop  offset="1" style="stop-color:#CCCCCC"/>
			</linearGradient>
			<path style="fill:url(#SVGID_00000092429528382035842040000007183517237599321489_);" d="M660.7,169.5
				c-0.5,7.4-2.2,16.5-10.1,21.2c-4.9,2.9-11.1,3.8-17.3,3.6c14.9-3.2,20.4-13,20-24.6c-0.4-14.1-20.7-57.7-20.7-57.7h9.5
				c0,0-2.7,1.9-2.7,3.8s9.5,16.7,12.6,26.1C653.8,146.7,658.1,158.2,660.7,169.5L660.7,169.5z"/>
			
				<linearGradient id="SVGID_00000154384654459182520090000009453387978894358714_" gradientUnits="userSpaceOnUse" x1="642.96" y1="761.4044" x2="659.47" y2="761.4044" gradientTransform="matrix(1 0 0 -1 0 900)">
				<stop  offset="0" style="stop-color:#FFFFFF"/>
				<stop  offset="1" style="stop-color:#E6E6E6"/>
			</linearGradient>
			<path style="fill:url(#SVGID_00000154384654459182520090000009453387978894358714_);" d="M643,117.2c0,0,12.8,27.8,15.6,39.6
				s-1-12.3-4.8-20.8S643,117.2,643,117.2L643,117.2z"/>
			
				<linearGradient id="SVGID_00000125590604575586943060000013165167180887839924_" gradientUnits="userSpaceOnUse" x1="719.25" y1="723.45" x2="737.15" y2="723.45" gradientTransform="matrix(1 0 0 -1 0 900)">
				<stop  offset="0" style="stop-color:#FFFFFF"/>
				<stop  offset="1" style="stop-color:#E6E6E6"/>
			</linearGradient>
			
				<rect x="719.2" y="165.9" style="fill:url(#SVGID_00000125590604575586943060000013165167180887839924_);" width="17.9" height="21.3"/>
			
				<linearGradient id="SVGID_00000092451202273625881320000003761644634392824475_" gradientUnits="userSpaceOnUse" x1="737.13" y1="722.95" x2="741.68" y2="722.95" gradientTransform="matrix(1 0 0 -1 0 900)">
				<stop  offset="0" style="stop-color:#E6E6E6"/>
				<stop  offset="1" style="stop-color:#CCCCCC"/>
			</linearGradient>
			<polygon style="fill:url(#SVGID_00000092451202273625881320000003761644634392824475_);" points="741.7,168.9 741.7,188.2 
				739.4,187.8 737.1,187.2 737.1,165.9 			"/>
			
				<linearGradient id="SVGID_00000109709345370718163360000008673406134162838149_" gradientUnits="userSpaceOnUse" x1="719.25" y1="712.7" x2="741.68" y2="712.7" gradientTransform="matrix(1 0 0 -1 0 900)">
				<stop  offset="0" style="stop-color:#E6E6E6"/>
				<stop  offset="1" style="stop-color:#CCCCCC"/>
			</linearGradient>
			<polygon style="fill:url(#SVGID_00000109709345370718163360000008673406134162838149_);" points="741.7,187.8 723.7,187.8 
				721.5,187.2 719.2,186.8 737.1,186.8 			"/>
			<path class="st23" d="M741.7,181.9v6.3l-2.3-0.5h-15.7l-2.2-0.5h-2.2V175c1.7,2.7,4.2,4.8,7.1,6.1c4.4,2,7.8,2.6,10.8,2.2
				C738.7,183.1,740.3,182.6,741.7,181.9L741.7,181.9z"/>
			
				<linearGradient id="SVGID_00000130624520366994320150000005812173167534188178_" gradientUnits="userSpaceOnUse" x1="709.6505" y1="686.5439" x2="750.1204" y2="686.5439" gradientTransform="matrix(1 0 0 -1 0 900)">
				<stop  offset="0" style="stop-color:#FFFFFF"/>
				<stop  offset="1" style="stop-color:#E6E6E6"/>
			</linearGradient>
			<path style="fill:url(#SVGID_00000130624520366994320150000005812173167534188178_);" d="M744.5,201.4c-1.6-3.2-3.2-6.5-5.1-9.6
				c-0.2-0.3-1.9-4-2.3-4h-13.4c0,0-17,30.8-13.6,40.6c1.7,5.1,6.7,8.8,13.8,10c2.3,0.4,4.7,0.7,7,0.7c4.3,0.1,8.6-0.4,12.1-2.2
				c5.5-2.9,6.7-8.6,7-13.2v-1C750.4,215.3,747.8,208.4,744.5,201.4z M726.2,235.1c-4.3-0.8-7.3-3.2-8.4-6.6
				c-0.5-1.9-0.4-3.9,0.2-5.8l0,0c0.1-0.5,0.2-0.9,0.3-1.4c0.8-3.1,1.9-6.2,3.1-9.2c2.8-7,6-14,8.7-21c0.2,0.9,0.5,1.9,1,2.7
				l1.9,5.1c1.5,4.1,3.7,8,5.5,12c2.1,4.5,3.7,9.1,3.5,14c-0.1,3.1-0.7,7.3-4.3,9.3c-1.2,0.7-2.6,1.1-4,1.3l0,0
				C731.3,235.8,728.7,235.6,726.2,235.1L726.2,235.1z"/>
			
				<linearGradient id="SVGID_00000126297949102704924910000001384982377975175826_" gradientUnits="userSpaceOnUse" x1="714.15" y1="685.4198" x2="733.74" y2="685.4198" gradientTransform="matrix(1 0 0 -1 0 900)">
				<stop  offset="0" style="stop-color:#E6E6E6"/>
				<stop  offset="1" style="stop-color:#CCCCCC"/>
			</linearGradient>
			<path style="fill:url(#SVGID_00000126297949102704924910000001384982377975175826_);" d="M733.7,235.4c-0.3,0.1-10.2,3-17.7-3.5
				s10.6-41.6,10.4-38.7s-8.5,23-8.4,29.5l0,0c-0.6,1.9-0.6,3.9-0.2,5.8c1,3.3,4,5.8,8.4,6.6C728.7,235.6,731.2,235.7,733.7,235.4
				L733.7,235.4z"/>
			
				<linearGradient id="SVGID_00000168839459189863295110000002145990733922919818_" gradientUnits="userSpaceOnUse" x1="730.47" y1="686.5316" x2="750.02" y2="686.5316" gradientTransform="matrix(1 0 0 -1 0 900)">
				<stop  offset="0" style="stop-color:#E6E6E6"/>
				<stop  offset="1" style="stop-color:#CCCCCC"/>
			</linearGradient>
			<path style="fill:url(#SVGID_00000168839459189863295110000002145990733922919818_);" d="M750,223.7c-0.3,4.6-1.5,10.3-7,13.2
				c-3.4,1.8-7.8,2.4-12.1,2.2c10.5-2,14.3-8.1,14-15.3c-0.3-8.8-14.5-36-14.5-36h6.7c0,0-1.9,1.2-1.9,2.4s6.6,10.4,8.8,16.3
				C746.4,212.1,748.4,217.8,750,223.7L750,223.7z"/>
			
				<linearGradient id="SVGID_00000095309517867083419430000001454320686835105713_" gradientUnits="userSpaceOnUse" x1="737.6" y1="695.5673" x2="749.1526" y2="695.5673" gradientTransform="matrix(1 0 0 -1 0 900)">
				<stop  offset="0" style="stop-color:#FFFFFF"/>
				<stop  offset="1" style="stop-color:#E6E6E6"/>
			</linearGradient>
			<path style="fill:url(#SVGID_00000095309517867083419430000001454320686835105713_);" d="M737.6,191.1c0,0,9,17.4,10.9,24.7
				s-0.7-7.7-3.3-13C743,198.7,740.5,194.8,737.6,191.1L737.6,191.1z"/>
			<polygon class="st19" points="1040.1,224 1040.1,236 1300.5,-2.3 1253.3,-6.2 1233.9,15.6 1042.7,221.2 			"/>
			
				<linearGradient id="SVGID_00000145037466139025969360000009786009220699669651_" gradientUnits="userSpaceOnUse" x1="-5577.6021" y1="783.3758" x2="-5282.3901" y2="783.3758" gradientTransform="matrix(-1 0 0 -1 -4242.29 900)">
				<stop  offset="0" style="stop-color:#E6E6E6"/>
				<stop  offset="1" style="stop-color:#CCCCCC"/>
			</linearGradient>
			<polygon style="fill:url(#SVGID_00000145037466139025969360000009786009220699669651_);" points="1049.3,238 1335.3,-4.8 
				1301.6,-3.6 1040.1,238 			"/>
			<path class="st7" d="M1040.1,225.9V238l246.4-227.6h-45.9l-6.7,7.2c4.8,2.8,7.4,8.4,5.2,18.9c-7,33.6-180.6,182.7-189.8,186.1
				c-2.1,0.7-4.4,0.9-6.6,0.6L1040.1,225.9L1040.1,225.9z"/>
			<polygon class="st7" points="1309,10.4 1045.9,238 1043.4,238 1298,10.4 			"/>
			
				<linearGradient id="SVGID_00000065052959578352015020000006035683323891360191_" gradientUnits="userSpaceOnUse" x1="-5545.9399" y1="854.6" x2="-5516.4102" y2="854.6" gradientTransform="matrix(-1 0 0 -1 -4242.29 900)">
				<stop  offset="0" style="stop-color:#FFFFFF"/>
				<stop  offset="1" style="stop-color:#E6E6E6"/>
			</linearGradient>
			
				<rect x="1274.1" y="22.3" style="fill:url(#SVGID_00000065052959578352015020000006035683323891360191_);" width="29.5" height="46.2"/>
			
				<linearGradient id="SVGID_00000018197145399287380080000015781438649024774843_" gradientUnits="userSpaceOnUse" x1="-5516.4102" y1="853.5" x2="-5508.8999" y2="853.5" gradientTransform="matrix(-1 0 0 -1 -4242.29 900)">
				<stop  offset="0" style="stop-color:#E6E6E6"/>
				<stop  offset="1" style="stop-color:#CCCCCC"/>
			</linearGradient>
			<polygon style="fill:url(#SVGID_00000018197145399287380080000015781438649024774843_);" points="1266.6,28.8 1266.6,70.7 
				1270.4,69.6 1274.1,68.5 1274.1,22.3 			"/>
			
				<linearGradient id="SVGID_00000065761546656713229310000004453773793404737967_" gradientUnits="userSpaceOnUse" x1="-5545.9399" y1="831.5" x2="-5508.8999" y2="831.5" gradientTransform="matrix(-1 0 0 -1 -4242.29 900)">
				<stop  offset="0" style="stop-color:#E6E6E6"/>
				<stop  offset="1" style="stop-color:#CCCCCC"/>
			</linearGradient>
			<polygon style="fill:url(#SVGID_00000065761546656713229310000004453773793404737967_);" points="1266.6,69.6 1296.3,69.6 
				1300,68.5 1303.7,67.4 1274.1,67.4 			"/>
			<path class="st23" d="M1266.6,57v13.7l3.8-1.1h25.9l3.7-1.1h3.7V41.9c-2.6,5-6.3,10-11.7,13.1c-7.3,4.2-12.9,5.6-17.9,4.8
				C1271.4,59.5,1268.9,58.5,1266.6,57z"/>
			
				<linearGradient id="SVGID_00000153678468469125032010000010064498147489223060_" gradientUnits="userSpaceOnUse" x1="-5561.8057" y1="774.6895" x2="-5495.0332" y2="774.6895" gradientTransform="matrix(-1 0 0 -1 -4242.29 900)">
				<stop  offset="0" style="stop-color:#FFFFFF"/>
				<stop  offset="1" style="stop-color:#E6E6E6"/>
			</linearGradient>
			<path style="fill:url(#SVGID_00000153678468469125032010000010064498147489223060_);" d="M1252.8,145.4c0,0.7,0,1.4,0.1,2.1
				c0.5,10.1,2.5,22.3,11.6,28.6c5.7,3.9,12.8,5.1,19.9,4.9c3.9-0.2,7.7-0.7,11.5-1.6c11.8-2.7,20-10.7,22.9-21.7
				c5.5-21.3-22.5-88.1-22.5-88.1h-22.2c-0.7,0-3.6,8-3.8,8.6c-3,6.9-5.8,13.9-8.3,20.9C1256.4,114.3,1252.2,129.3,1252.8,145.4z
				 M1279.7,172.9L1279.7,172.9c-2.4-0.4-4.7-1.4-6.7-2.9c-5.9-4.4-6.9-13.3-7.1-20.2c-0.3-10.6,2.3-20.5,5.7-30.3
				c3-8.6,6.6-17.1,9.1-25.9c1.1-3.7,2.1-7.3,3.2-11c0.5-1.7,1.7-4,1.7-5.8c4.4,15.3,9.7,30.4,14.4,45.6c2.1,6.5,3.8,13.2,5.1,19.9
				c0.2,1,0.4,2,0.6,3l0,0c0.7,4.1,1.2,8.5,0.3,12.5c-1.5,7-6.9,12.6-13.8,14.2C1288.1,173.2,1283.8,173.5,1279.7,172.9
				L1279.7,172.9L1279.7,172.9z"/>
			
				<linearGradient id="SVGID_00000109741241458976151000000003913547298045032846_" gradientUnits="userSpaceOnUse" x1="-5554.374" y1="772.1865" x2="-5522.0239" y2="772.1865" gradientTransform="matrix(-1 0 0 -1 -4242.29 900)">
				<stop  offset="0" style="stop-color:#E6E6E6"/>
				<stop  offset="1" style="stop-color:#CCCCCC"/>
			</linearGradient>
			<path style="fill:url(#SVGID_00000109741241458976151000000003913547298045032846_);" d="M1279.7,172.9
				c0.5,0.2,16.9,6.6,29.3-7.6c12.6-14.4-17.5-90.2-17.2-83.8c0.3,6.4,14,49.9,13.9,63.9l0,0c0.7,4.1,1.2,8.5,0.3,12.5
				c-1.5,7-6.9,12.6-13.8,14.2C1288.1,173.3,1283.8,173.5,1279.7,172.9L1279.7,172.9z"/>
			
				<linearGradient id="SVGID_00000129895437631455979420000008207982231453115011_" gradientUnits="userSpaceOnUse" x1="-5527.3901" y1="774.6395" x2="-5495.1201" y2="774.6395" gradientTransform="matrix(-1 0 0 -1 -4242.29 900)">
				<stop  offset="0" style="stop-color:#E6E6E6"/>
				<stop  offset="1" style="stop-color:#CCCCCC"/>
			</linearGradient>
			<path style="fill:url(#SVGID_00000129895437631455979420000008207982231453115011_);" d="M1252.9,147.5
				c0.5,10.1,2.5,22.3,11.6,28.6c5.7,3.9,12.8,5.1,19.9,4.9c-17.3-4.3-23.5-17.6-23.2-33.2c0.5-19,23.9-78.1,23.9-78.1h-11
				c0,0,3.1,2.6,3.1,5.1s-11,22.7-14.6,35.3C1260.7,116.6,1255.8,132.3,1252.9,147.5L1252.9,147.5z"/>
			
				<linearGradient id="SVGID_00000129205709147951066840000005019034706539197074_" gradientUnits="userSpaceOnUse" x1="-5515.6099" y1="794.3248" x2="-5496.5498" y2="794.3248" gradientTransform="matrix(-1 0 0 -1 -4242.29 900)">
				<stop  offset="0" style="stop-color:#FFFFFF"/>
				<stop  offset="1" style="stop-color:#E6E6E6"/>
			</linearGradient>
			<path style="fill:url(#SVGID_00000129205709147951066840000005019034706539197074_);" d="M1273.3,76.8c0,0-14.8,37.7-18,53.5
				s1.2-16.7,5.5-28.2S1273.3,76.8,1273.3,76.8z"/>
			
				<linearGradient id="SVGID_00000112632569779045666480000007765074243780598177_" gradientUnits="userSpaceOnUse" x1="-5415.3901" y1="752.3" x2="-5394.8901" y2="752.3" gradientTransform="matrix(-1 0 0 -1 -4242.29 900)">
				<stop  offset="0" style="stop-color:#FFFFFF"/>
				<stop  offset="1" style="stop-color:#E6E6E6"/>
			</linearGradient>
			
				<rect x="1152.6" y="134.6" style="fill:url(#SVGID_00000112632569779045666480000007765074243780598177_);" width="20.5" height="26.2"/>
			
				<linearGradient id="SVGID_00000182486934038909897110000018147659414942432409_" gradientUnits="userSpaceOnUse" x1="-5394.8599" y1="751.65" x2="-5389.6401" y2="751.65" gradientTransform="matrix(-1 0 0 -1 -4242.29 900)">
				<stop  offset="0" style="stop-color:#E6E6E6"/>
				<stop  offset="1" style="stop-color:#CCCCCC"/>
			</linearGradient>
			<polygon style="fill:url(#SVGID_00000182486934038909897110000018147659414942432409_);" points="1147.3,138.3 1147.3,162.1 
				1150,161.5 1152.6,160.9 1152.6,134.6 			"/>
			
				<linearGradient id="SVGID_00000180361893186409447680000005333267174036318385_" gradientUnits="userSpaceOnUse" x1="-5415.3901" y1="739.1" x2="-5389.6499" y2="739.1" gradientTransform="matrix(-1 0 0 -1 -4242.29 900)">
				<stop  offset="0" style="stop-color:#E6E6E6"/>
				<stop  offset="1" style="stop-color:#CCCCCC"/>
			</linearGradient>
			<polygon style="fill:url(#SVGID_00000180361893186409447680000005333267174036318385_);" points="1147.3,161.5 1168,161.5 
				1170.5,160.9 1173.1,160.3 1152.6,160.3 			"/>
			<path class="st23" d="M1147.3,154.3v7.8l2.6-0.6h18l2.6-0.6h2.6v-15.1c-1.9,3.2-4.7,5.8-8.1,7.5c-5.1,2.4-9,3.2-12.4,2.8
				C1150.7,155.7,1149,155.2,1147.3,154.3L1147.3,154.3z"/>
			
				<linearGradient id="SVGID_00000145041232335915388050000001476116744472274589_" gradientUnits="userSpaceOnUse" x1="-5426.3999" y1="706.7954" x2="-5379.98" y2="706.7954" gradientTransform="matrix(-1 0 0 -1 -4242.29 900)">
				<stop  offset="0" style="stop-color:#FFFFFF"/>
				<stop  offset="1" style="stop-color:#E6E6E6"/>
			</linearGradient>
			<path style="fill:url(#SVGID_00000145041232335915388050000001476116744472274589_);" d="M1137.7,204.5c0,0.4,0,0.8,0.1,1.2
				c0.4,5.7,1.8,12.7,8.1,16.3c4,2.2,8.9,2.9,13.9,2.8c2.7-0.1,5.4-0.4,8-0.9c8.2-1.5,13.9-6.1,15.9-12.3c3.8-12.1-15.7-50-15.7-50
				h-15.4c-0.5,0-2.5,4.5-2.7,4.9c-2.1,3.9-4,7.9-5.8,11.9C1140.3,186.9,1137.3,195.4,1137.7,204.5z M1156.4,220.1L1156.4,220.1
				c-1.6-0.2-3.2-0.8-4.7-1.6c-4.1-2.5-4.8-7.6-4.9-11.5c-0.2-6,1.6-11.6,4-17.2c2.1-4.9,4.6-9.7,6.3-14.7c0.7-2.1,1.5-4.2,2.2-6.2
				c0.3-1,1.2-2.3,1.2-3.3c3.1,8.7,6.7,17.2,10,25.9c1.4,3.7,2.6,7.5,3.6,11.3c0.1,0.6,0.3,1.1,0.4,1.7l0,0c0.6,2.3,0.7,4.8,0.2,7.1
				c-1.2,4.1-4.6,7.1-9.6,8.1C1162.2,220.4,1159.3,220.5,1156.4,220.1z"/>
			
				<linearGradient id="SVGID_00000111182031966405089710000008289553242214698927_" gradientUnits="userSpaceOnUse" x1="-5421.2202" y1="705.5096" x2="-5398.7402" y2="705.5096" gradientTransform="matrix(-1 0 0 -1 -4242.29 900)">
				<stop  offset="0" style="stop-color:#E6E6E6"/>
				<stop  offset="1" style="stop-color:#CCCCCC"/>
			</linearGradient>
			<path style="fill:url(#SVGID_00000111182031966405089710000008289553242214698927_);" d="M1156.4,220.1
				c0.3,0.1,11.7,3.7,20.3-4.3s-12.1-51.2-12-47.6s9.7,28.4,9.7,36.3l0,0c0.6,2.3,0.7,4.8,0.2,7.1c-1.2,4.1-4.6,7.1-9.6,8.1
				C1162.2,220.4,1159.3,220.5,1156.4,220.1L1156.4,220.1z"/>
			
				<linearGradient id="SVGID_00000176729270999733567350000012971999812265504691_" gradientUnits="userSpaceOnUse" x1="-5402.5098" y1="706.8454" x2="-5380.0801" y2="706.8454" gradientTransform="matrix(-1 0 0 -1 -4242.29 900)">
				<stop  offset="0" style="stop-color:#E6E6E6"/>
				<stop  offset="1" style="stop-color:#CCCCCC"/>
			</linearGradient>
			<path style="fill:url(#SVGID_00000176729270999733567350000012971999812265504691_);" d="M1137.8,205.7
				c0.4,5.7,1.8,12.7,8.1,16.3c4,2.2,8.9,2.9,13.9,2.8c-12-2.4-16.4-10-16.1-18.9c0.3-10.8,16.6-44.4,16.6-44.4h-7.7
				c0,0,2.1,1.5,2.2,2.9s-7.6,12.9-10.1,20.1C1143.3,188.2,1139.8,197.1,1137.8,205.7z"/>
			
				<linearGradient id="SVGID_00000115514761641404024390000015219220961069082516_" gradientUnits="userSpaceOnUse" x1="-5394.29" y1="717.9886" x2="-5381.0498" y2="717.9886" gradientTransform="matrix(-1 0 0 -1 -4242.29 900)">
				<stop  offset="0" style="stop-color:#FFFFFF"/>
				<stop  offset="1" style="stop-color:#E6E6E6"/>
			</linearGradient>
			<path style="fill:url(#SVGID_00000115514761641404024390000015219220961069082516_);" d="M1152,165.6c0,0-10.3,21.4-12.5,30.4
				s0.8-9.5,3.8-16C1145.8,175,1148.7,170.2,1152,165.6z"/>
			
				<linearGradient id="SVGID_00000003066609263954629770000014833779889432126903_" gradientUnits="userSpaceOnUse" x1="-5366.6299" y1="714.05" x2="-5348.73" y2="714.05" gradientTransform="matrix(-1 0 0 -1 -4242.29 900)">
				<stop  offset="0" style="stop-color:#FFFFFF"/>
				<stop  offset="1" style="stop-color:#E6E6E6"/>
			</linearGradient>
			
				<rect x="1106.4" y="175.3" style="fill:url(#SVGID_00000003066609263954629770000014833779889432126903_);" width="17.9" height="21.3"/>
			
				<linearGradient id="SVGID_00000117656994777676971380000011163587028416639892_" gradientUnits="userSpaceOnUse" x1="-5348.7402" y1="713.55" x2="-5344.2002" y2="713.55" gradientTransform="matrix(-1 0 0 -1 -4242.29 900)">
				<stop  offset="0" style="stop-color:#E6E6E6"/>
				<stop  offset="1" style="stop-color:#CCCCCC"/>
			</linearGradient>
			<polygon style="fill:url(#SVGID_00000117656994777676971380000011163587028416639892_);" points="1101.9,178.3 1101.9,197.6 
				1104.2,197.1 1106.4,196.6 1106.4,175.3 			"/>
			
				<linearGradient id="SVGID_00000040541056584998322030000018036903786369317810_" gradientUnits="userSpaceOnUse" x1="-5366.6299" y1="703.4" x2="-5344.2002" y2="703.4" gradientTransform="matrix(-1 0 0 -1 -4242.29 900)">
				<stop  offset="0" style="stop-color:#E6E6E6"/>
				<stop  offset="1" style="stop-color:#CCCCCC"/>
			</linearGradient>
			<polygon style="fill:url(#SVGID_00000040541056584998322030000018036903786369317810_);" points="1101.9,197.1 1119.9,197.1 
				1122.1,196.6 1124.3,196.1 1106.4,196.1 			"/>
			<path class="st23" d="M1101.9,191.3v6.3l2.3-0.5h15.7l2.2-0.5h2.2v-12.3c-1.7,2.7-4.2,4.8-7.1,6.1c-4.4,2-7.8,2.6-10.8,2.2
				C1104.9,192.4,1103.3,192,1101.9,191.3L1101.9,191.3z"/>
			
				<linearGradient id="SVGID_00000155128385679275047020000009933128523430968215_" gradientUnits="userSpaceOnUse" x1="-5376.2173" y1="677.1316" x2="-5335.7656" y2="677.1316" gradientTransform="matrix(-1 0 0 -1 -4242.29 900)">
				<stop  offset="0" style="stop-color:#FFFFFF"/>
				<stop  offset="1" style="stop-color:#E6E6E6"/>
			</linearGradient>
			<path style="fill:url(#SVGID_00000155128385679275047020000009933128523430968215_);" d="M1093.5,232.1c0,0.3,0,0.6,0.1,1
				c0.3,4.6,1.5,10.3,7,13.2c3.4,1.8,7.8,2.4,12.1,2.2c2.3-0.1,4.7-0.3,7-0.7c7.2-1.2,12.1-4.9,13.8-10c3.3-9.8-13.6-40.6-13.6-40.6
				h-13.4c-0.4,0-2.2,3.7-2.3,4c-1.8,3.2-3.5,6.4-5,9.6C1095.7,217.7,1093.2,224.6,1093.5,232.1L1093.5,232.1z M1109.8,244.8
				L1109.8,244.8c-1.4-0.2-2.8-0.6-4.1-1.3c-3.6-2.1-4.2-6.1-4.3-9.3c-0.2-4.9,1.4-9.5,3.5-14c1.8-4,4-7.9,5.5-12l1.9-5.1
				c0.5-0.8,0.8-1.7,1-2.7c2.7,7.1,5.9,14,8.7,21c1.2,3,2.3,6.1,3.1,9.2c0.1,0.4,0.2,0.9,0.3,1.4l0,0c0.6,1.9,0.6,3.9,0.2,5.8
				c-1,3.3-4,5.8-8.4,6.6C1114.9,244.9,1112.3,245,1109.8,244.8L1109.8,244.8z"/>
			
				<linearGradient id="SVGID_00000008127185648432332550000001066820501662171778_" gradientUnits="userSpaceOnUse" x1="-5371.7202" y1="676.0198" x2="-5352.1299" y2="676.0198" gradientTransform="matrix(-1 0 0 -1 -4242.29 900)">
				<stop  offset="0" style="stop-color:#E6E6E6"/>
				<stop  offset="1" style="stop-color:#CCCCCC"/>
			</linearGradient>
			<path style="fill:url(#SVGID_00000008127185648432332550000001066820501662171778_);" d="M1109.8,244.8c0.3,0.1,10.2,3,17.7-3.5
				s-10.6-41.6-10.4-38.7s8.5,23,8.4,29.5l0,0c0.6,1.9,0.6,3.9,0.2,5.8c-1,3.3-4,5.8-8.4,6.6C1114.9,244.9,1112.3,245,1109.8,244.8
				L1109.8,244.8z"/>
			
				<linearGradient id="SVGID_00000140736157589648516700000000260252971711268993_" gradientUnits="userSpaceOnUse" x1="-5355.3901" y1="677.2316" x2="-5335.8599" y2="677.2316" gradientTransform="matrix(-1 0 0 -1 -4242.29 900)">
				<stop  offset="0" style="stop-color:#E6E6E6"/>
				<stop  offset="1" style="stop-color:#CCCCCC"/>
			</linearGradient>
			<path style="fill:url(#SVGID_00000140736157589648516700000000260252971711268993_);" d="M1093.6,233c0.3,4.6,1.5,10.3,7,13.2
				c3.4,1.8,7.8,2.4,12.1,2.2c-10.5-2-14.3-8.1-14-15.3c0.3-8.8,14.4-36,14.4-36h-6.7c0,0,1.9,1.2,1.9,2.4s-6.6,10.4-8.8,16.3
				C1097.2,221.4,1095.2,227.1,1093.6,233L1093.6,233z"/>
			
				<linearGradient id="SVGID_00000000213762378185784460000009350723095493666949_" gradientUnits="userSpaceOnUse" x1="-5348.2598" y1="686.2673" x2="-5336.707" y2="686.2673" gradientTransform="matrix(-1 0 0 -1 -4242.29 900)">
				<stop  offset="0" style="stop-color:#FFFFFF"/>
				<stop  offset="1" style="stop-color:#E6E6E6"/>
			</linearGradient>
			<path style="fill:url(#SVGID_00000000213762378185784460000009350723095493666949_);" d="M1106,200.4c0,0-9,17.4-10.9,24.7
				s0.7-7.7,3.3-13C1100.6,208,1103.2,204.1,1106,200.4z"/>
			<rect x="111.4" y="12.7" class="st64" width="1693.6" height="937.1"/>
			<rect x="111.4" y="12.7" class="st64" width="1693.6" height="937.1"/>
			<path class="st8" d="M167.7,94.4L-9,28l-7,776L-6,54l119.5,42.6l1.2,0.6l45.3,20.4c15.8,7,26.3,26.9,26.3,49.4v468.6
				c0,18.9-7.5,36.4-19.6,45.5l-5.3,4l-9.8,7.4L-16,804l190.7-113.6c13-9.7,21.1-28.2,21.1-48.2V146.7
				C195.8,122.9,184.4,101.9,167.7,94.4z"/>
			<polygon class="st14" points="762.5,362.8 765.5,371.9 -7,661 -5,617 205.8,550.4 544.2,436.4 			"/>
			<path class="st15" d="M762.5,362.8l2.9,9L-3,660l-2-43c14.4-0.9,123.1-19.3,137.2-23.3c55.7-15.8,73.6-43.4,73.6-43.4
				s66.7-6.1,152.9-36.5c86.2-30.4,140.9-47.5,162.2-58.7s23.3-18.8,23.3-18.8s26.5-0.9,120.4-33S762.5,362.8,762.5,362.8z"/>
			<rect x="550.7" y="414.8" class="st16" width="8.7" height="53.6"/>
			
				<rect x="217.5" y="530" transform="matrix(0.999 -4.501428e-02 4.501428e-02 0.999 -25.095 10.6019)" class="st16" width="10.7" height="65"/>
			<path class="st8" d="M195.7,590.2v52c0,0,2,32.2-21.1,48.2L-16,804v-27l184.6-105.9c0,0,18.2-12.8,18.5-44.8l0.2-36L195.7,590.2z
				"/>
			<path class="st4" d="M174.7,690.4l-124,73.8c0,0,89.3,13.8,91.3,11.8s92-53,92-59S174.7,690.4,174.7,690.4z"/>
		</g>
	</g>
</g>
</svg>
