<svg id="fb0b33f9-a76a-4453-8763-1c7cc4609531" data-name="Layer 1" xmlns="http://www.w3.org/2000/svg" xmlns:xlink="http://www.w3.org/1999/xlink" width="80.64" height="197.35" viewBox="0 0 80.64 197.35">
  <defs>
    <style>
      .e669e65e-e143-4cc2-a7ac-2a77ccb5ae26 {
        fill: none;
      }

      .efaa2acf-70dd-4af1-ad66-352893ed9370 {
        opacity: 0.26;
      }

      .a2512b49-8f6c-4052-b6bc-0ba2a4b18c33, .a5ca53bb-8840-407b-b472-931b3eb0c1d5 {
        fill: #fbd3c7;
      }

      .a5ca53bb-8840-407b-b472-931b3eb0c1d5 {
        stroke: #453323;
      }

      .a18bbce7-eb07-4cbb-a582-9451bf012aa8, .a5ca53bb-8840-407b-b472-931b3eb0c1d5, .a9d020ab-0a82-431a-99d7-305a381f52eb, .e6a83320-d869-4419-930f-8035ff47b869, .eabeb01b-3905-4266-b9e4-c907e97bb927 {
        stroke-miterlimit: 10;
      }

      .a18bbce7-eb07-4cbb-a582-9451bf012aa8, .a5ca53bb-8840-407b-b472-931b3eb0c1d5, .a9d020ab-0a82-431a-99d7-305a381f52eb, .e6a83320-d869-4419-930f-8035ff47b869, .eabeb01b-3905-4266-b9e4-c907e97bb927, .eb15c946-4ad2-4984-b072-5cff32e9bb3e {
        stroke-width: 0.5px;
      }

      .aa852b7b-e9e6-4ca1-847c-8f8b7fe44b78 {
        fill: #e4a68d;
      }

      .eabeb01b-3905-4266-b9e4-c907e97bb927 {
        fill: #1f6fe5;
        stroke: #10226b;
      }

      .abb6b378-90fe-4775-9c4a-52045e092011 {
        fill: #1a4e99;
      }

      .eb15c946-4ad2-4984-b072-5cff32e9bb3e {
        fill: #df71e2;
        stroke: #710e7c;
      }

      .af9535e4-e0ab-4e77-aa9f-caf27b1abf9b, .e56b624c-8c9e-4487-80cb-886c13122254, .eb15c946-4ad2-4984-b072-5cff32e9bb3e, .f1b19469-dc35-4c27-816d-418c9d037c12 {
        stroke-linejoin: round;
      }

      .f1b19469-dc35-4c27-816d-418c9d037c12 {
        fill: #9b959a;
        stroke: #423a33;
      }

      .af9535e4-e0ab-4e77-aa9f-caf27b1abf9b, .e56b624c-8c9e-4487-80cb-886c13122254, .f1b19469-dc35-4c27-816d-418c9d037c12 {
        stroke-width: 0.75px;
      }

      .f1b27f37-0c8e-4e46-8971-d38b99351d88 {
        fill: #453323;
      }

      .a9d020ab-0a82-431a-99d7-305a381f52eb, .e1e012bb-5f04-4d08-94d1-06ffb5457bfc {
        fill: #61435b;
      }

      .a18bbce7-eb07-4cbb-a582-9451bf012aa8, .a9d020ab-0a82-431a-99d7-305a381f52eb {
        stroke: #1c101a;
      }

      .be811f4e-0ae3-4c9c-b85b-fc5b95b461c1 {
        fill: #2d1708;
      }

      .ba2d00cb-9410-4efb-9a07-4f5e139b6b94 {
        fill: #1c101a;
      }

      .ac8aee5c-cd0f-4912-8c80-e942b35c2720 {
        fill: #2c3581;
      }

      .b343d806-186a-44d4-b5f3-63be51399a65 {
        fill: #f8e1db;
      }

      .b3d3f458-7950-4f25-8400-b49d1bc6a5b3, .e6a83320-d869-4419-930f-8035ff47b869 {
        fill: #f9d1c6;
      }

      .e6a83320-d869-4419-930f-8035ff47b869 {
        stroke: #ba5817;
      }

      .f448ccff-6a97-4152-bf33-d6cefd1a099c {
        fill: #ba5817;
      }

      .bbdaa41e-6ba5-4832-b9bb-5b853783698d {
        fill: #d3978c;
      }

      .f3867cd7-7a12-4bda-9d86-2a3634e1aacd {
        fill: #fff;
      }

      .ea78efff-005f-40ec-8dff-f99e9ff34915 {
        fill: #4f4726;
      }

      .b9c3c6cd-305d-410b-9a7e-2685b53951ef {
        fill: #2b2716;
      }

      .b9c33408-96b3-47d2-bbfd-390d08a7830e {
        fill: #240d00;
      }

      .e4be65b9-3c3e-4ec2-adc1-7a1ba0e0015d {
        fill: #f5968e;
      }

      .e5d93859-6aaf-4b0a-9c90-a7d5961ba321 {
        fill: #721f33;
      }

      .ad681595-304e-4bfc-9f3a-b6d147b84083 {
        fill: #f4edef;
      }

      .faef24bb-08d7-4ff6-a178-eac9bf34456d {
        fill: #e03859;
      }

      .a90f11f1-cdbd-48f2-80a8-92fc226789fd {
        fill: #d26653;
      }

      .a18bbce7-eb07-4cbb-a582-9451bf012aa8 {
        fill: #adc7c9;
      }

      .af9535e4-e0ab-4e77-aa9f-caf27b1abf9b {
        fill: #686c70;
        stroke: #211f1c;
      }

      .e56b624c-8c9e-4487-80cb-886c13122254 {
        fill: #311415;
        stroke: #190500;
      }

      .a971122e-29f5-4bb3-ad4f-74f795756f33 {
        clip-path: url(#f0b97278-c766-4fd4-b7c4-bf7d85833e29);
      }
    </style>
    <clipPath id="f0b97278-c766-4fd4-b7c4-bf7d85833e29">
      <rect class="e669e65e-e143-4cc2-a7ac-2a77ccb5ae26" x="-1361.8" y="-1045.73" width="1600" height="900"/>
    </clipPath>
  </defs>
  <g>
    <ellipse class="efaa2acf-70dd-4af1-ad66-352893ed9370" cx="43.15" cy="178.39" rx="34.57" ry="7.3" transform="matrix(0.99, -0.14, 0.14, 0.99, -24.08, 7.61)"/>
    <g>
      <path class="a5ca53bb-8840-407b-b472-931b3eb0c1d5" d="M47.12,67.38a17.12,17.12,0,0,1,.27,5.45c-.65,3.18-1.64,7.38-2.58,8.52-1.56,1.9-11.18,1.66-12.88-2.1a13.18,13.18,0,0,1-.56-6.8,22.39,22.39,0,0,1,.56-2.73,14.37,14.37,0,0,1,1.52-3c2.8-4.16,6.53-3.51,9.53-1.86A44.44,44.44,0,0,1,47.12,67.38Z"/>
      <path class="aa852b7b-e9e6-4ca1-847c-8f8b7fe44b78" d="M47.12,68a12.72,12.72,0,0,1,.27,4.81c-7.65,4.37-13.25,1.71-16-.38a22.39,22.39,0,0,1,.56-2.73,14.37,14.37,0,0,1,1.52-3,22.34,22.34,0,0,1,2.75-.88c1.36-.3,4.17-.66,6.78-1A14.67,14.67,0,0,1,47.12,68Z"/>
      <g>
        <g>
          <path class="eabeb01b-3905-4266-b9e4-c907e97bb927" d="M72.8,96c-.34,6.45-1.7,26.39-1.84,28.5,0,.12,0,.18,0,.18a6.26,6.26,0,0,1-4.52,4.9c-3.94,1-12.69-1.6-12.69-1.6s-14.23-.21-8.68-36.29c0,0,0-13.75,11.4-15.54A16.8,16.8,0,0,1,59.54,76c.55,0,7.44,1,10.62,4S73.15,89.17,72.8,96Z"/>
          <path class="eabeb01b-3905-4266-b9e4-c907e97bb927" d="M48.44,72.25c.64-.07,9.9.48,13.14,4.93,0,0,1.64,3.31-2.9,4.31s-10.94-4.83-10.86-5.31S48.44,72.25,48.44,72.25Z"/>
          <path class="abb6b378-90fe-4775-9c4a-52045e092011" d="M71,124.48c0,.12,0,.18,0,.18a6.26,6.26,0,0,1-4.52,4.9c-3.94,1-12.69-1.6-12.69-1.6s-14.23-.21-8.68-36.29c0,0,0-13.75,11.4-15.54a1.57,1.57,0,0,0,2-.17l3.7,1.53a204.35,204.35,0,0,0-3,38.29,22,22,0,0,0,.86,6.83c.74,2.15,2.26,4.08,4.25,4.56C66.66,127.75,69,126.17,71,124.48Z"/>
        </g>
        <g>
          <path class="eabeb01b-3905-4266-b9e4-c907e97bb927" d="M72.7,116.28l-.8,9.85s-4.46,2.69-8.16.72l-1.11-9.5"/>
          <path class="abb6b378-90fe-4775-9c4a-52045e092011" d="M62.63,117.35a16,16,0,0,0,10.07-1.07l-1.16-.5"/>
          <path class="eabeb01b-3905-4266-b9e4-c907e97bb927" d="M67.24,117.15l1.08,3.48s2.58,3.34,3.23,0l-1.4-3.88Z"/>
        </g>
      </g>
      <g>
        <g>
          <g>
            <path class="a5ca53bb-8840-407b-b472-931b3eb0c1d5" d="M39.31,169.33c-.21,4.63-.31,7.79-.35,9.86-.15-2.23-.55-4.86-1.53-5.41-3.49-2-6.88,3.11-7.32-2.71-.22-3-.53-7.58-.81-11.53-.06-.84-.12-1.65-.17-2.42l-.4-5.84,10.05-.75.12,4.15.05,1.87Z"/>
            <path class="aa852b7b-e9e6-4ca1-847c-8f8b7fe44b78" d="M38.75,154.68a11.25,11.25,0,0,1-9.45,2.44c-.22-3.36-.39-5.84-.39-5.84l9.73-.75Z"/>
          </g>
          <path class="eb15c946-4ad2-4984-b072-5cff32e9bb3e" d="M39.05,169c-.2,4.53-.29,7.61-.33,9.64-.14-2.18-.44-5.42-1.47-5.29-3.14.4-6.62,3-7-2.65-.21-3-.51-7.4-.78-11.26-.2,2.23,2.29,3.33,2.44,3.13,0,0,4.8-.58,6.73-2.41Z"/>
        </g>
        <path class="f1b19469-dc35-4c27-816d-418c9d037c12" d="M28.65,160.29c0-.35.33-.53.55-.34.88.75,3.08,2,7.51.84a4.76,4.76,0,0,0,2-1.1c.22-.21.54,0,.57.31l.25,2.44a.5.5,0,0,1-.2.47,10,10,0,0,1-10,.33.28.28,0,0,1-.13-.11A4.41,4.41,0,0,1,28.65,160.29Z"/>
      </g>
      <g>
        <g>
          <g>
            <path class="a5ca53bb-8840-407b-b472-931b3eb0c1d5" d="M64.51,162.18c1.37,4.42,2.35,7.43,3,9.39-.89-2-2.16-4.38-3.27-4.57-3.94-.66-5.42,5.26-7.8-.07l-4.68-10.56-1-2.23-2.35-5.35,9.2-4.12,1.51,3.86.69,1.75Z"/>
            <path class="aa852b7b-e9e6-4ca1-847c-8f8b7fe44b78" d="M59,148.58A11.23,11.23,0,0,1,51,154.09c-1.35-3.08-2.34-5.37-2.34-5.37l8.89-4Z"/>
          </g>
          <path class="eb15c946-4ad2-4984-b072-5cff32e9bb3e" d="M64.17,162c1.35,4.32,2.3,7.26,3,9.18-.87-2-2.25-4.95-3.18-4.48-2.81,1.44-5.19,5.1-7.51-.1-1.21-2.73-3-6.79-4.56-10.33.57,2.17,3.29,2.36,3.36,2.12,0,0,4.32-2.18,5.51-4.56Z"/>
        </g>
        <path class="f1b19469-dc35-4c27-816d-418c9d037c12" d="M51.42,157.29c-.1-.33.13-.61.4-.5,1.08.4,3.57.8,7.35-1.76a4.82,4.82,0,0,0,1.56-1.73c.13-.28.49-.23.64.09l1.06,2.21a.51.51,0,0,1,0,.51,10,10,0,0,1-9.31,3.72.52.52,0,0,1-.16-.06A4.49,4.49,0,0,1,51.42,157.29Z"/>
      </g>
      <path class="a5ca53bb-8840-407b-b472-931b3eb0c1d5" d="M27.52,91.79a40.19,40.19,0,0,0-5.95,0c-1.67.43-5.41,5.31-6.54,7.1-1.91,3-6.8,15-6,23.58l4.67,1.89s5.27-10,9.46-16.38c.5-.75,5.38-8.09,5.95-8.53C29.08,99.46,31.06,95.08,27.52,91.79Z"/>
      <g>
        <path class="a5ca53bb-8840-407b-b472-931b3eb0c1d5" d="M14.58,121.56c1,.66,1.39,2.9,1.63,6.41-1.21,8.62-3.1,5.54-3.1,5.54s.48-4.2.26-4.35-2.89,4.6-2.62,7.5c0,.18-.73,1.29-2.45.56,0,0-.66-.25-.47-1.27a1.73,1.73,0,0,1-2.29-1.89s-2.4.49-1.65-3c0,0-.85-.28-.61-2.33.23-1.82,5.64-8.68,5.64-8.68"/>
        <g>
          <path class="a2512b49-8f6c-4052-b6bc-0ba2a4b18c33" d="M10.6,129.06a15.35,15.35,0,0,0-2.54,6.81"/>
          <path class="f1b27f37-0c8e-4e46-8971-d38b99351d88" d="M10.62,129.07c-1.36,2.08-1.73,4.5-2.53,6.81-.33-2.21,1.13-5.19,2.53-6.81Z"/>
        </g>
        <g>
          <path class="a2512b49-8f6c-4052-b6bc-0ba2a4b18c33" d="M8.37,127a15,15,0,0,0-2.49,6.72"/>
          <path class="f1b27f37-0c8e-4e46-8971-d38b99351d88" d="M8.39,127c-1.34,2-1.7,4.43-2.49,6.7-.35-2.13,1.11-5.14,2.49-6.7Z"/>
        </g>
        <g>
          <path class="a2512b49-8f6c-4052-b6bc-0ba2a4b18c33" d="M7.12,124.46c-1.08,1.37-1.71,2.34-3,6"/>
          <path class="f1b27f37-0c8e-4e46-8971-d38b99351d88" d="M7.14,124.47c-1.44,1.81-1.79,4.1-3,6a10.15,10.15,0,0,1,3-6Z"/>
        </g>
      </g>
      <path class="eb15c946-4ad2-4984-b072-5cff32e9bb3e" d="M25.51,74.7c-6.38,0-12.9,26.32-12.9,26.32s5.08,4.59,13.56,1.82l2.4-12.11Z"/>
      <g>
        <path class="a9d020ab-0a82-431a-99d7-305a381f52eb" d="M41.11,142.59l-.68-16.94-16.57-7v4.51a5.93,5.93,0,0,0-1.17,3.71c.26,1.8,2.06,24.35,2.06,24.35a11.09,11.09,0,0,0,10.36,4.31c7.12-.7,7-3.3,7-3.3s-1-9.62-.77-9.62"/>
        <path class="a9d020ab-0a82-431a-99d7-305a381f52eb" d="M36,143.73c.5.15,1.44,2.15,4.57,1.85l.84,9.45s.65,5,15,3.46c0,0,5.15-.91,5.84-3.76,0,0-.59-.3-1.4-13.2s-2.45-16.47-2.45-16.47l-20.76,2.11"/>
        <path class="be811f4e-0ae3-4c9c-b85b-fc5b95b461c1" d="M23.39,118.63v5.61s4.5,7,15.94,6.42,17.44-6.42,17.44-6.42l-.59-5.61Z"/>
        <path class="a9d020ab-0a82-431a-99d7-305a381f52eb" d="M44.76,126.29h0c0,.16.19,3.61.2,3.79h0l-1.39.36s0,0,0,0l-.23-3.93A7.68,7.68,0,0,1,44.76,126.29Z"/>
        <path class="a9d020ab-0a82-431a-99d7-305a381f52eb" d="M27.53,124.11a12.5,12.5,0,0,1,1.22.31s0,4.19,0,4.19l-1.56-.33Z"/>
        <g>
          <path class="e1e012bb-5f04-4d08-94d1-06ffb5457bfc" d="M33.53,132.26a35.7,35.7,0,0,0,.94,8.84"/>
          <path class="ba2d00cb-9410-4efb-9a07-4f5e139b6b94" d="M33.53,132.26c.33,3,.66,5.85.94,8.84a20.24,20.24,0,0,1-.94-8.84Z"/>
        </g>
        <path class="ac8aee5c-cd0f-4912-8c80-e942b35c2720" d="M52,128.65c.23-.07.45-.12.67-.17l.07.14A11.28,11.28,0,0,0,57.48,134c-2.74.07-5-2.72-5-5.34l.15.12-.59-.16Z"/>
      </g>
      <path class="eb15c946-4ad2-4984-b072-5cff32e9bb3e" d="M23.48,98.53l-2.82,18a19.93,19.93,0,0,0,16.91,10.32s16.21.2,20.44-9.22L55.14,92.27l-1.4-16.93-3.59.33s-13,9.5-18.83-.88l-.62-2.86H28L23.89,85.86Z"/>
      <path class="a9d020ab-0a82-431a-99d7-305a381f52eb" d="M34.75,79.75c.5-.21,2.23-1.61,5.76-.27s-.88,5.68-.88,5.68H35.75S30.59,81.48,34.75,79.75Z"/>
      <path class="eb15c946-4ad2-4984-b072-5cff32e9bb3e" d="M31.94,69.73c-.42.33-3.06,3.25-3.23,5.06s1.11,11.57,1.11,11.57l7-7.28a21.59,21.59,0,0,1-4.82-6.48Z"/>
      <path class="eb15c946-4ad2-4984-b072-5cff32e9bb3e" d="M39.47,79.24c-.33.13,6.11,7.86,6.11,7.86a48.56,48.56,0,0,0,5.1-12.34l-2.89-5S45.91,76.67,39.47,79.24Z"/>
      <g>
        <path class="a9d020ab-0a82-431a-99d7-305a381f52eb" d="M44.44,105.74l-.27.87h0C41.31,115.52,36.63,120,36.63,120A48.92,48.92,0,0,1,33,114.3c-.53-1-.93-1.81-1.24-2.53a12.19,12.19,0,0,1-1-3.23c.05-1.11.12-2.17.21-3.2s.16-1.89.26-2.78c.29-2.54.66-4.8,1.07-6.77.2-1,.42-1.93.64-2.8,1.41-5.55,2.93-8.23,2.87-8.63-.17-1.14,4.17-.74,4.17-.74a41.8,41.8,0,0,0,.64,5.71c.11.65.23,1.3.35,2,.36,1.9.79,3.83,1.22,5.64.15.63.3,1.25.45,1.84.54,2.2,1.05,4.1,1.4,5.36C44.26,105.14,44.44,105.74,44.44,105.74Z"/>
        <path class="b343d806-186a-44d4-b5f3-63be51399a65" d="M40.91,91.29a28.87,28.87,0,0,0-8.42,4.47c.21-1,.45-2,.67-2.9a33.06,33.06,0,0,1,7.4-3.53C40.67,90,40.79,90.63,40.91,91.29Z"/>
        <path class="b343d806-186a-44d4-b5f3-63be51399a65" d="M42.36,98.93c-3.13,1.39-8.3,3.92-11.21,6.41.07-1,.18-2.07.28-3A42.3,42.3,0,0,1,41.9,97C42.05,97.64,42.21,98.33,42.36,98.93Z"/>
        <path class="b343d806-186a-44d4-b5f3-63be51399a65" d="M44.18,105.74c-.09.29-.17.66-.27.94h0c-3.07,1.56-7.84,4.22-10.79,7.43-.52-1-.9-1.78-1.21-2.5a62.33,62.33,0,0,1,11.86-7.4C44.05,105.21,44.18,105.74,44.18,105.74Z"/>
      </g>
      <path class="eabeb01b-3905-4266-b9e4-c907e97bb927" d="M30.16,72c-2.79,2.2-3.12,20.15-7.49,31.76a24,24,0,0,0-.43,2.74,93.62,93.62,0,0,1-1.17-15.83,77.62,77.62,0,0,1,2.18-16.85S34.15,67.44,30.16,72Z"/>
      <path class="eabeb01b-3905-4266-b9e4-c907e97bb927" d="M60.82,76.81S52,80.42,55,97.79c0,0-.33,1.91-2.82.06,0,0-5.73-17-.51-22.71C51.66,75.14,57,73.67,60.82,76.81Z"/>
      <g>
        <path class="a5ca53bb-8840-407b-b472-931b3eb0c1d5" d="M61.55,98.45a45.82,45.82,0,0,1,5.27,3.38c1.28,1.31,2.36,7.5,2.54,9.64.31,3.59-.82,16.37-5.45,23.15l-5-1.06s-.09-11.34-.88-19.06c-.1-.91-1.07-9.81-1.37-10.5C56.66,104,56.91,99.21,61.55,98.45Z"/>
        <g>
          <path class="a5ca53bb-8840-407b-b472-931b3eb0c1d5" d="M59.93,128.78c-1.19.38-2.19,2.49-3.34,5.9-.92,8.84,1.84,6.3,1.84,6.3s.57-4.28.83-4.37,1.87,5.32.84,8.12c-.06.17.44,1.46,2.43,1.21,0,0,.75-.08.82-1.13a1.85,1.85,0,0,0,2.87-1.26s2.39,1.13,2.51-2.57c0,0,1,0,1.23-2.14.23-1.86-3.7-10.09-3.7-10.09"/>
          <g>
            <path class="a2512b49-8f6c-4052-b6bc-0ba2a4b18c33" d="M62.19,137.25a15.05,15.05,0,0,1,.93,7.42"/>
            <path class="f1b27f37-0c8e-4e46-8971-d38b99351d88" d="M62.22,137.24c1,2.23,1.77,5.13.88,7.42a32,32,0,0,0-.88-7.42Z"/>
          </g>
          <g>
            <path class="a2512b49-8f6c-4052-b6bc-0ba2a4b18c33" d="M65.07,135.78a14.79,14.79,0,0,1,.9,7.31"/>
            <path class="f1b27f37-0c8e-4e46-8971-d38b99351d88" d="M65.09,135.77c1,2.19,1.76,5.06.85,7.31a30.47,30.47,0,0,0-.85-7.31Z"/>
          </g>
          <g>
            <path class="a2512b49-8f6c-4052-b6bc-0ba2a4b18c33" d="M67,133.64c.78,1.64,1.19,2.76,1.57,6.76"/>
            <path class="f1b27f37-0c8e-4e46-8971-d38b99351d88" d="M67,133.62c1.08,2,1.94,4.57,1.52,6.78-.64-2.24-.64-4.65-1.52-6.78Z"/>
          </g>
        </g>
        <path class="eb15c946-4ad2-4984-b072-5cff32e9bb3e" d="M59.85,77.1c6.14,4.45,9.59,21.78,11.49,26.31a64.1,64.1,0,0,1-15.7,3.06L54,91.65S54.44,73.18,59.85,77.1Z"/>
      </g>
      <g>
        <g>
          <g>
            <path class="e6a83320-d869-4419-930f-8035ff47b869" d="M21.93,51a5.25,5.25,0,0,0-2.58-4.23c-2.54-1.47-3.94,3-2.61,6.62s4,4.36,5.16,3.24"/>
            <g>
              <g>
                <path class="b3d3f458-7950-4f25-8400-b49d1bc6a5b3" d="M20.79,54.59s-1.7-5.52-4.16-4.2"/>
                <path class="f448ccff-6a97-4152-bf33-d6cefd1a099c" d="M20.77,54.6c-.81-1.77-1.88-4.48-4.15-4.23,2.23-1.58,3.91,2.66,4.15,4.23Z"/>
              </g>
              <g>
                <path class="b3d3f458-7950-4f25-8400-b49d1bc6a5b3" d="M19.46,51.52s-1.4.38-1.27,3.27"/>
                <path class="f448ccff-6a97-4152-bf33-d6cefd1a099c" d="M19.46,51.55c-1.17.67-.79,2.16-1.24,3.24h0a2.25,2.25,0,0,1,0-1.9,2.06,2.06,0,0,1,1.27-1.39v0Z"/>
              </g>
            </g>
          </g>
          <path class="e6a83320-d869-4419-930f-8035ff47b869" d="M57.5,53.67c-2.33,10.87-11,17.62-20.45,17.84S17.21,65.74,19.52,50c.59-4,1.43-10.91.75-13.61-1.26-5-2.76-4.27,7.37-6.63C57.12,22.91,59.76,43.1,57.5,53.67Z"/>
          <path class="bbdaa41e-6ba5-4832-b9bb-5b853783698d" d="M52.06,35.39S34.15,40.63,23.4,38.46l-3.5,6.93-.57-16.47,18-3.79,18.27,5.94,3.23,14.77L54.57,56.26a20.9,20.9,0,0,0-1.86-9.6C50.49,42.27,52.06,35.39,52.06,35.39Z"/>
          <g>
            <g>
              <g>
                <ellipse class="f3867cd7-7a12-4bda-9d86-2a3634e1aacd" cx="41.89" cy="50.81" rx="3.96" ry="3.93" transform="translate(-1.16 0.98) rotate(-1.32)"/>
                <path class="ea78efff-005f-40ec-8dff-f99e9ff34915" d="M45.89,50.71c0,5.73-8.49,6.16-8.86.21.1-6,8.61-5.92,8.86-.21Zm-.1,0c-.26-5.08-7.76-4.91-7.76.17.27,5.1,7.71,4.91,7.76-.17Z"/>
              </g>
              <ellipse class="b9c3c6cd-305d-410b-9a7e-2685b53951ef" cx="40.52" cy="51.22" rx="2.26" ry="2.25" transform="translate(-1.17 0.95) rotate(-1.32)"/>
              <ellipse class="f3867cd7-7a12-4bda-9d86-2a3634e1aacd" cx="41.24" cy="49.47" rx="0.65" ry="0.64" transform="translate(-1.13 0.96) rotate(-1.32)"/>
            </g>
            <g>
              <g>
                <ellipse class="f3867cd7-7a12-4bda-9d86-2a3634e1aacd" cx="26.52" cy="50.72" rx="3.6" ry="3.54" transform="translate(-1.16 0.62) rotate(-1.32)"/>
                <path class="ea78efff-005f-40ec-8dff-f99e9ff34915" d="M30.17,50.63c0,5.21-7.81,5.64-8.14.19.09-5.45,7.91-5.39,8.14-.19Zm-.1,0c-.24-4.56-7-4.41-7,.16.21,4.56,7,4.4,7-.16Z"/>
              </g>
              <ellipse class="b9c3c6cd-305d-410b-9a7e-2685b53951ef" cx="25.56" cy="50.59" rx="2.16" ry="2.14" transform="translate(-1.16 0.6) rotate(-1.32)"/>
              <ellipse class="f3867cd7-7a12-4bda-9d86-2a3634e1aacd" cx="26.49" cy="49.21" rx="0.55" ry="0.61" transform="translate(-1.13 0.62) rotate(-1.32)"/>
            </g>
            <path class="ea78efff-005f-40ec-8dff-f99e9ff34915" d="M31.58,50C33,52,33,55.41,30.47,56.46l.38-.57c-.07,1.28,1.42,1.63,2.47,1.73v.08a6,6,0,0,1-1,.08,2,2,0,0,1-2.16-2,3.17,3.17,0,0,0,1.79-2.55,7.46,7.46,0,0,0-.41-3.21l.07,0Z"/>
            <path class="b9c3c6cd-305d-410b-9a7e-2685b53951ef" d="M39.38,42.71a1.85,1.85,0,0,1,1.79-2.51c2.18-.23,5.06,1.51,6.7,3.9a.35.35,0,0,1-.46.49C45.72,43.63,42.44,42.11,39.38,42.71Z"/>
            <path class="b9c3c6cd-305d-410b-9a7e-2685b53951ef" d="M29.27,41.54s.51-2.27-1.59-2.43c-1.81-.13-4.12,1.72-5.37,4.18-.16.31.14.67.4.47C24.06,42.73,26.71,41.07,29.27,41.54Z"/>
          </g>
          <path class="b9c33408-96b3-47d2-bbfd-390d08a7830e" d="M53.28,33.73s-11,1.87-15.66-1.59a7.4,7.4,0,0,1-7.3,1.23s.08,3.37-6.77,3.15c0,0-3.58,7.69-3.62,10.3,0,0-5.31-8.65-2.5-16.33s8.34-13,20.56-14.22,20.56,7.58,22.1,11.88l0-5s2,2.56,1.08,5.18c0,0,1.23-1.18,3.59.88,0,0-2.79,0-3.15,1.23a11.32,11.32,0,0,1,3.63,7c.79,4.9-.74,13.61-4.53,16.79,0,0-3.67-.4-4.87,2.13,0,0-2.08,1.59-.82-2.48s-3.92-11-2.1-19.91Z"/>
          <g>
            <path class="e6a83320-d869-4419-930f-8035ff47b869" d="M54.38,57s.56-2.81,4.63-4.29,5.32,3,2.65,6.72-6.75,4.41-8.28,3.27"/>
            <g>
              <g>
                <path class="b3d3f458-7950-4f25-8400-b49d1bc6a5b3" d="M55.41,60.63s3.56-5.6,7-4.25"/>
                <path class="f448ccff-6a97-4152-bf33-d6cefd1a099c" d="M55.39,60.61c1.42-2.19,4-5.71,7-4.26-3-.33-5.27,2.21-7,4.26Z"/>
              </g>
              <g>
                <path class="b3d3f458-7950-4f25-8400-b49d1bc6a5b3" d="M58,57.52s2,.38,1.27,3.32"/>
                <path class="f448ccff-6a97-4152-bf33-d6cefd1a099c" d="M58,57.49a2.18,2.18,0,0,1,1.29,3.35c-.16-.13-.07-.78-.12-1a6.93,6.93,0,0,0,0-.91A1.83,1.83,0,0,0,58,57.54v0Z"/>
              </g>
            </g>
          </g>
        </g>
        <path class="b9c33408-96b3-47d2-bbfd-390d08a7830e" d="M52.9,34s-16.42,7.17-29.76,2.85S44,26.74,44,26.74l12.57,4.47Z"/>
        <g>
          <path class="e4be65b9-3c3e-4ec2-adc1-7a1ba0e0015d" d="M40.82,59.78s-2.14,6.63-7.22,6.75c0,0-5.65-.32-6.18-7.62A12.78,12.78,0,0,0,40.82,59.78Z"/>
          <path class="e5d93859-6aaf-4b0a-9c90-a7d5961ba321" d="M40.83,59.66s-1.94,5.46-7,5.58a7.33,7.33,0,0,1-6.39-6.33A12.92,12.92,0,0,0,40.83,59.66Z"/>
          <path class="ad681595-304e-4bfc-9f3a-b6d147b84083" d="M39.07,60.47a6.11,6.11,0,0,1-4.39,2.34A6.29,6.29,0,0,1,29,59.63,13.2,13.2,0,0,0,39.07,60.47Z"/>
          <path class="e4be65b9-3c3e-4ec2-adc1-7a1ba0e0015d" d="M40.93,59.62a13.76,13.76,0,0,1-6.77,1.19,22.88,22.88,0,0,1-6.74-1.9S34.1,64,40.93,59.62Z"/>
          <path class="faef24bb-08d7-4ff6-a178-eac9bf34456d" d="M40.51,59a2.94,2.94,0,0,1,.57,1.67A1.52,1.52,0,0,0,40.51,59Z"/>
          <path class="faef24bb-08d7-4ff6-a178-eac9bf34456d" d="M28.14,58.06a2.77,2.77,0,0,0-.92,1.58A1.39,1.39,0,0,1,28.14,58.06Z"/>
          <path class="a90f11f1-cdbd-48f2-80a8-92fc226789fd" d="M37.16,64.24A3,3,0,0,0,34,63.61s-1.24-.87-3.59.34A5.55,5.55,0,0,0,37.16,64.24Z"/>
        </g>
      </g>
      <path class="a18bbce7-eb07-4cbb-a582-9451bf012aa8" d="M39,126.92l.29,3.74s-5.71,0-8.06-1l-.16-4.13S37,127.18,39,126.92Z"/>
      <g>
        <path class="af9535e4-e0ab-4e77-aa9f-caf27b1abf9b" d="M29.58,173.18c.28-.08-.37,2.21.72,3.36s6.36,0,8.14-2.66l.72-2.64s.94,1.15.65,4.26a14.27,14.27,0,0,1,1,3,5.08,5.08,0,0,1-.6,3.19,78.32,78.32,0,0,1-8.43,2c-3.19.46-13.17.51-14.92-2.38,0,0-1.84-4.79,7.2-5.8,0,0,3.39.74,3.77.24S26.86,173.9,29.58,173.18Z"/>
        <path class="e56b624c-8c9e-4487-80cb-886c13122254" d="M40.37,175.64c0,.47.31,1.8.29,2.23h0a7.19,7.19,0,0,1-.1,1,1.34,1.34,0,0,1-1,1.1,74.09,74.09,0,0,1-7.68,1.77c-3.2.47-13.18.51-14.92-2.39a1.38,1.38,0,0,1,0-.44h0c.09-.95.9-3.19,6.43-4.19l.71-.12.42,0,.33-.05.33,0,.45,0,.35,0c.29,0,.61-.09.92-.16h0a2.78,2.78,0,0,0,.88-.31.75.75,0,0,0,.13-.11c.06-.09,2.11-1.56,2.78-2.16.22-.2,7.93.46,8-.36l.54,0S40.23,170.79,40.37,175.64Z"/>
      </g>
      <g>
        <path class="af9535e4-e0ab-4e77-aa9f-caf27b1abf9b" d="M56.21,170c.24-.17.41,2.21,1.83,2.91s6-2.13,6.75-5.26l-.22-2.72s1.28.76,2.06,3.78a14.94,14.94,0,0,1,2,2.51,5.15,5.15,0,0,1,.52,3.2,80.25,80.25,0,0,1-7.27,4.73c-2.84,1.52-12.21,5-14.84,2.82,0,0-3.36-3.88,4.81-7.89,0,0,3.44-.47,3.62-1.06S53.9,171.55,56.21,170Z"/>
        <path class="e56b624c-8c9e-4487-80cb-886c13122254" d="M67.2,168.6c.17.44.91,1.59,1,2h0a6.94,6.94,0,0,1,.25,1A1.34,1.34,0,0,1,68,173a73.3,73.3,0,0,1-6.63,4.28c-2.85,1.52-12.22,4.95-14.84,2.81a1.75,1.75,0,0,1-.16-.41h0c-.24-.92-.24-3.3,4.62-6.11l.63-.36L52,173l.29-.16c.1,0,.2-.1.3-.15l.41-.19.32-.16c.25-.13.54-.29.81-.46h0a2.58,2.58,0,0,0,.73-.59.55.55,0,0,0,.08-.15c0-.11,1.46-2.17,1.89-3,.14-.26,7.62-2.26,7.4-3l.52-.16S65.42,164.09,67.2,168.6Z"/>
      </g>
    </g>
  </g>
  <g class="a971122e-29f5-4bb3-ad4f-74f795756f33">
    <rect class="e669e65e-e143-4cc2-a7ac-2a77ccb5ae26" x="-1397.44" y="-908.79" width="1608" height="913" transform="translate(-1186 -905.73) rotate(-179.89)"/>
  </g>
</svg>
