<svg id="a5b0e24e-41a0-4fd7-9b10-6b94e929b3e3" data-name="Layer 1" xmlns="http://www.w3.org/2000/svg" xmlns:xlink="http://www.w3.org/1999/xlink" width="80.64" height="197.35" viewBox="0 0 80.64 197.35">
  <defs>
    <style>
      .a0928df2-bda8-4756-a0ac-11d76c8b619b {
        fill: none;
      }

      .a23da613-f773-4545-bfd8-e96b45e9b3b1 {
        opacity: 0.26;
      }

      .a2f63dac-b639-4e37-96c4-6eda9ad67d96, .a5aa9cb4-fe61-43ae-8c51-6c4eb08e92c9 {
        fill: #fbd3c7;
      }

      .a2f63dac-b639-4e37-96c4-6eda9ad67d96 {
        stroke: #453323;
      }

      .a2d3c11b-8d0e-4a4c-a7a2-32f743866325, .a2f63dac-b639-4e37-96c4-6eda9ad67d96, .a930affa-5ced-4159-a0ed-9c645d3a2c2a, .ab0ac2bf-1f46-464f-a309-045c66b364cf, .ac433998-ce42-42cc-9298-277b167bff25, .ba5ab570-1636-456b-9165-905ab909e1b3, .f1b72ac9-c634-4562-8786-ecace098617e {
        stroke-miterlimit: 10;
      }

      .a2d3c11b-8d0e-4a4c-a7a2-32f743866325, .a2f63dac-b639-4e37-96c4-6eda9ad67d96, .a930affa-5ced-4159-a0ed-9c645d3a2c2a, .ab0ac2bf-1f46-464f-a309-045c66b364cf, .ac433998-ce42-42cc-9298-277b167bff25, .b22a5bcb-09cb-4dc0-a1cf-e0740b10516d, .ba5ab570-1636-456b-9165-905ab909e1b3, .f1b72ac9-c634-4562-8786-ecace098617e {
        stroke-width: 0.5px;
      }

      .bc392d5e-9557-4450-82d0-b62e498d134a {
        fill: #e4a68d;
      }

      .b22a5bcb-09cb-4dc0-a1cf-e0740b10516d {
        fill: #df71e2;
        stroke: #710e7c;
      }

      .b22a5bcb-09cb-4dc0-a1cf-e0740b10516d, .b4fec8d3-f911-4864-82e3-dc03421afb32, .fb3f15f1-5812-44ca-a26d-fadd09311fbe, .fbff37bb-c913-40e7-9a5a-3fa76f4ce71f {
        stroke-linejoin: round;
      }

      .b4fec8d3-f911-4864-82e3-dc03421afb32 {
        fill: #9b959a;
        stroke: #423a33;
      }

      .b4fec8d3-f911-4864-82e3-dc03421afb32, .fb3f15f1-5812-44ca-a26d-fadd09311fbe, .fbff37bb-c913-40e7-9a5a-3fa76f4ce71f {
        stroke-width: 0.75px;
      }

      .fbff37bb-c913-40e7-9a5a-3fa76f4ce71f {
        fill: #686c70;
        stroke: #211f1c;
      }

      .fb3f15f1-5812-44ca-a26d-fadd09311fbe {
        fill: #311415;
        stroke: #190500;
      }

      .f1b72ac9-c634-4562-8786-ecace098617e {
        fill: #e81e25;
      }

      .ab0ac2bf-1f46-464f-a309-045c66b364cf, .ba5ab570-1636-456b-9165-905ab909e1b3, .f1b72ac9-c634-4562-8786-ecace098617e {
        stroke: #a31e23;
      }

      .aa090f6b-379c-4cad-aa06-21f2e5a0b507 {
        fill: #c02126;
      }

      .ba5ab570-1636-456b-9165-905ab909e1b3 {
        fill: #e56125;
      }

      .ab0ac2bf-1f46-464f-a309-045c66b364cf {
        fill: #911b1e;
      }

      .a5e14256-b3f1-4d7b-9cca-e3fd616d1095 {
        fill: #453323;
      }

      .ac433998-ce42-42cc-9298-277b167bff25, .b6550ebf-0fcc-4461-b558-227d743ea2de {
        fill: #61435b;
      }

      .a2d3c11b-8d0e-4a4c-a7a2-32f743866325, .ac433998-ce42-42cc-9298-277b167bff25 {
        stroke: #1c101a;
      }

      .a0ad57b8-4055-4941-8ec3-586b0d3872ec {
        fill: #2d1708;
      }

      .a749be44-54c1-4d39-9050-a5c976b24dac {
        fill: #1c101a;
      }

      .b16b65b8-6a97-4f9a-87a3-43f0fd82209f {
        fill: #2c3581;
      }

      .af70a40f-163c-410c-94d4-e26452fc5d42 {
        fill: #f8e1db;
      }

      .a0725755-1cd9-4731-bf35-ae2a8109eeee {
        fill: #db9d8e;
      }

      .bfb8a9a3-166e-43f2-8418-cc147dbc22f4 {
        fill: #342517;
      }

      .edfb72e1-60e7-4ff8-aa08-7135f2f72f2f {
        fill: #f9d1c6;
      }

      .ee9a3461-a05d-4df0-b546-676215af9d06 {
        fill: #323232;
      }

      .bdaee1ff-318f-4152-96c3-0190a5bd39d9 {
        fill: #342516;
      }

      .bdae9424-47e4-4da7-b161-6257fbce6652 {
        fill: #661e1b;
      }

      .bb7fca08-ef5e-42b2-bb82-b552cf28ccd6 {
        fill: #d26653;
      }

      .a7217f86-0626-407d-abdb-f211f1c8c024 {
        fill: #fff;
      }

      .bd87e219-715c-4d38-80ec-7781b4532824 {
        fill: #f9988f;
      }

      .a930affa-5ced-4159-a0ed-9c645d3a2c2a {
        fill: #f9f6f2;
        stroke: #323232;
      }

      .eec1951b-ddd8-4c71-af5a-c02cfbbf55e8 {
        fill: #fdefec;
      }

      .a2d3c11b-8d0e-4a4c-a7a2-32f743866325 {
        fill: #adc7c9;
      }

      .b21bdba8-f515-4da0-8cdf-f2eed8013ef4 {
        clip-path: url(#a1c4eeaf-1713-472d-aae5-5cfff72ca6b7);
      }
    </style>
    <clipPath id="a1c4eeaf-1713-472d-aae5-5cfff72ca6b7">
      <rect class="a0928df2-bda8-4756-a0ac-11d76c8b619b" x="-1723.09" y="-1045.73" width="1600" height="900"/>
    </clipPath>
  </defs>
  <g>
    <ellipse class="a23da613-f773-4545-bfd8-e96b45e9b3b1" cx="39.38" cy="178.85" rx="34.38" ry="7.9" transform="translate(-11.3 2.87) rotate(-3.65)"/>
    <g>
      <g>
        <g>
          <g>
            <g>
              <path class="a2f63dac-b639-4e37-96c4-6eda9ad67d96" d="M60.82,164c1,3.6,1.8,6.05,2.31,7.65-.7-1.67-1.7-3.58-2.61-3.74-3.24-.57-4.56,4.22-6.43-.12-1-2.27-2.4-5.66-3.66-8.61-.26-.63-.52-1.23-.76-1.81L47.83,153l7.66-3.25,1.17,3.14.54,1.42Z"/>
              <path class="bc392d5e-9557-4450-82d0-b62e498d134a" d="M56.55,152.93a9.44,9.44,0,0,1-6.75,4.4L48,153l7.41-3.17Z"/>
            </g>
            <path class="b22a5bcb-09cb-4dc0-a1cf-e0740b10516d" d="M60.54,163.84c1,3.52,1.77,5.91,2.26,7.47-.68-1.63-1.76-4-2.53-3.66-2.35,1.15-4.37,4.1-6.19-.14-.95-2.23-2.34-5.53-3.56-8.42a2.49,2.49,0,0,0,2.73,1.75s3.59-1.73,4.63-3.65Z"/>
          </g>
          <path class="b4fec8d3-f911-4864-82e3-dc03421afb32" d="M50.13,159.93c-.08-.27.11-.5.34-.41.88.34,2.92.68,6.08-1.36a4,4,0,0,0,1.32-1.39c.12-.22.41-.18.53.08l.83,1.8a.42.42,0,0,1,0,.41A8.4,8.4,0,0,1,51.46,162a.29.29,0,0,1-.13-.05A3.57,3.57,0,0,1,50.13,159.93Z"/>
        </g>
        <g>
          <path class="fbff37bb-c913-40e7-9a5a-3fa76f4ce71f" d="M54.3,171.21c.2-.13.3,1.81,1.45,2.4s4.92-1.66,5.59-4.21l-.14-2.22s1,.64,1.64,3.12a12.07,12.07,0,0,1,1.57,2.07,4.19,4.19,0,0,1,.38,2.63,66,66,0,0,1-6,3.77c-2.35,1.2-10.06,3.88-12.17,2.1,0,0-2.69-3.22,4-6.39,0,0,2.82-.33,3-.81S52.39,172.49,54.3,171.21Z"/>
          <path class="fb3f15f1-5812-44ca-a26d-fadd09311fbe" d="M63.3,170.26c.13.36.72,1.31.82,1.65h0a4.9,4.9,0,0,1,.19.81,1.08,1.08,0,0,1-.44,1.1,59.83,59.83,0,0,1-5.48,3.41c-2.34,1.2-10,3.88-12.17,2.09a1.32,1.32,0,0,1-.12-.33h0c-.19-.76-.15-2.7,3.86-4.94l.52-.28.31-.15.24-.12.25-.12.34-.16.26-.12a7.16,7.16,0,0,0,.66-.36h0a2.67,2.67,0,0,0,.6-.48.75.75,0,0,0,.07-.12c0-.08,1.22-1.75,1.58-2.4.12-.21,6.26-1.74,6.09-2.39l.43-.13S61.91,166.54,63.3,170.26Z"/>
        </g>
      </g>
      <g>
        <path class="a2f63dac-b639-4e37-96c4-6eda9ad67d96" d="M45.14,86.69a12.7,12.7,0,0,1,.26,4.58c-.62,2.68-1.57,6.21-2.47,7.17-1.5,1.6-10.7,1.39-12.33-1.77A9.71,9.71,0,0,1,30.07,91a15.8,15.8,0,0,1,.53-2.29,11.86,11.86,0,0,1,1.45-2.5c2.68-3.51,6.26-3,9.13-1.57A44.76,44.76,0,0,1,45.14,86.69Z"/>
        <path class="bc392d5e-9557-4450-82d0-b62e498d134a" d="M45.14,87.23a9.44,9.44,0,0,1,.26,4C38.08,95,32.72,92.71,30.07,91a15.8,15.8,0,0,1,.53-2.29,11.86,11.86,0,0,1,1.45-2.5,21.28,21.28,0,0,1,2.64-.74c1.3-.25,4-.56,6.49-.83A14,14,0,0,1,45.14,87.23Z"/>
        <g>
          <g>
            <path class="f1b72ac9-c634-4562-8786-ecace098617e" d="M69.73,110.75c-.32,5.43-1.63,22.2-1.77,24a1.08,1.08,0,0,1,0,.16A5.46,5.46,0,0,1,63.63,139c-3.77.84-12.15-1.35-12.15-1.35s-13.63-.17-8.31-30.53c0,0,0-11.56,10.92-13.07A18.24,18.24,0,0,1,57,93.89c.53,0,7.13.84,10.17,3.37S70.06,105,69.73,110.75Z"/>
            <path class="f1b72ac9-c634-4562-8786-ecace098617e" d="M46.41,90.79c.61-.07,9.47.4,12.58,4.14,0,0,1.57,2.78-2.78,3.63s-10.48-4.07-10.39-4.47S46.41,90.79,46.41,90.79Z"/>
            <path class="aa090f6b-379c-4cad-aa06-21f2e5a0b507" d="M68,134.72a1.08,1.08,0,0,1,0,.16A5.46,5.46,0,0,1,63.63,139c-3.77.84-12.15-1.35-12.15-1.35s-13.63-.17-8.31-30.53c0,0,0-11.56,10.92-13.07a1.65,1.65,0,0,0,1.9-.14l3.54,1.28a152.11,152.11,0,0,0-2.85,32.21,16.36,16.36,0,0,0,.82,5.75A6,6,0,0,0,61.57,137C63.85,137.48,66.08,136.14,68,134.72Z"/>
          </g>
          <g>
            <path class="ba5ab570-1636-456b-9165-905ab909e1b3" d="M69.63,127.83l-.76,8.28s-4.28,2.26-7.81.61l-1.07-8"/>
            <path class="ab0ac2bf-1f46-464f-a309-045c66b364cf" d="M60,128.73a17.39,17.39,0,0,0,9.64-.9l-1.1-.42"/>
            <path class="f1b72ac9-c634-4562-8786-ecace098617e" d="M64.41,128.56l1,2.92s2.47,2.81,3.09,0l-1.33-3.26Z"/>
          </g>
        </g>
        <g>
          <g>
            <path class="a2f63dac-b639-4e37-96c4-6eda9ad67d96" d="M35.86,169.6c-.56,3.43-.91,5.77-1.12,7.31,0-1.68-.13-3.67-1-4.19-3.16-1.81-6.8,1.62-6.75-2.76,0-2.3.1-5.7.15-8.68,0-.63,0-1.24,0-1.82.05-2.52.09-4.39.09-4.39l9.63.47-.22,3.1-.1,1.4Z"/>
            <path class="bc392d5e-9557-4450-82d0-b62e498d134a" d="M36.51,158.62a13,13,0,0,1-9.2.86c.06-2.52.1-4.39.1-4.39l9.32.44Z"/>
          </g>
          <path class="b22a5bcb-09cb-4dc0-a1cf-e0740b10516d" d="M35.64,169.35c-.54,3.35-.88,5.64-1.09,7.15.05-1.64-4.21,0-5.2,0-3,0-2.31-2.49-2.25-6.77,0-2.24.09-5.57.15-8.47-.37,1.64,1.91,2.71,2.07,2.58,0,0,4.61.06,6.61-1.12Z"/>
        </g>
        <path class="a2f63dac-b639-4e37-96c4-6eda9ad67d96" d="M25,107.12a42.08,42.08,0,0,0-5.54,1.2c-1.46.69-3.82,5.42-4.46,7.11C13.86,118.26,12,129,14.71,135.9l4.77.61s2.62-9.21,5.07-15.27c.29-.72,3.16-7.69,3.59-8.16A5.53,5.53,0,0,0,25,107.12Z"/>
        <g>
          <path class="a2f63dac-b639-4e37-96c4-6eda9ad67d96" d="M19.69,134c1.06.34,1.95,2.09,3,4.91.83,7.29-1.63,5.15-1.63,5.15a21.66,21.66,0,0,0-.74-3.61c-.24-.09-1.65,4.33-.74,6.66.06.14-.38,1.19-2.15.95a.94.94,0,0,1-.73-.95,1.71,1.71,0,0,1-2.55-1.09s-2.12.88-2.23-2.15c0,0-.86-.06-1.09-1.79-.21-1.53,3.26-8.22,3.26-8.22"/>
          <g>
            <path class="a5aa9cb4-fe61-43ae-8c51-6c4eb08e92c9" d="M17.7,141a11.52,11.52,0,0,0-.82,6.08"/>
            <path class="a5e14256-b3f1-4d7b-9cca-e3fd616d1095" d="M17.72,141c-.78,2-.57,4-.81,6.06a4.7,4.7,0,0,1-.22-3.11,7.61,7.61,0,0,1,1-2.95Z"/>
          </g>
          <g>
            <path class="a5aa9cb4-fe61-43ae-8c51-6c4eb08e92c9" d="M15.14,139.7a11.2,11.2,0,0,0-.79,6"/>
            <path class="a5e14256-b3f1-4d7b-9cca-e3fd616d1095" d="M15.17,139.71c-.78,1.93-.56,3.95-.79,6a4.59,4.59,0,0,1-.23-3.07,7.37,7.37,0,0,1,1-2.9Z"/>
          </g>
          <g>
            <path class="a5aa9cb4-fe61-43ae-8c51-6c4eb08e92c9" d="M13.41,137.9c-.69,1.33-1.06,2.25-1.39,5.53"/>
            <path class="a5e14256-b3f1-4d7b-9cca-e3fd616d1095" d="M13.43,137.91c-.91,1.75-.71,3.71-1.38,5.52a7.63,7.63,0,0,1,1.38-5.52Z"/>
          </g>
        </g>
        <path class="b22a5bcb-09cb-4dc0-a1cf-e0740b10516d" d="M24.45,92.84C18.34,92.84,12.1,115,12.1,115s4.87,3.86,13,1.53l2.29-10.19Z"/>
        <g>
          <path class="ac433998-ce42-42cc-9298-277b167bff25" d="M39.88,150l-.68-14.25-16.3-5.9v3.79a4.58,4.58,0,0,0-1.15,3.12c.25,1.52,2,20.49,2,20.49S27,161.42,34,160.83s6.91-2.78,6.91-2.78-1-8.09-.76-8.09"/>
          <path class="ac433998-ce42-42cc-9298-277b167bff25" d="M36.59,149.2c.42.08,1.35,1.68,3.88,1.18l1.43,7.84s.93,4.13,12.48,1.69c0,0,4.13-1.19,4.47-3.63,0,0-.51-.2-2.19-10.93s-3.3-13.6-3.3-13.6L36.59,135.2"/>
          <path class="a0ad57b8-4055-4941-8ec3-586b0d3872ec" d="M22.42,129.81v4.72s4.31,5.9,15.27,5.39,16.69-5.39,16.69-5.39l-.57-4.72Z"/>
          <path class="ac433998-ce42-42cc-9298-277b167bff25" d="M42.88,136.25h0c0,.13.18,3,.19,3.19h0l-1.33.3h0l-.22-3.31A9.69,9.69,0,0,1,42.88,136.25Z"/>
          <path class="ac433998-ce42-42cc-9298-277b167bff25" d="M26.64,134.28c.17,0,1.17.26,1.17.26s0,3.53,0,3.53l-1.49-.28Z"/>
          <g>
            <path class="b6550ebf-0fcc-4461-b558-227d743ea2de" d="M34,141.27a46.52,46.52,0,0,0,.9,7.44"/>
            <path class="a749be44-54c1-4d39-9050-a5c976b24dac" d="M34,141.27a66.26,66.26,0,0,1,.9,7.44,17.57,17.57,0,0,1-.9-7.44Z"/>
          </g>
          <path class="b16b65b8-6a97-4f9a-87a3-43f0fd82209f" d="M49.83,138.23c.21-.07.42-.12.64-.17a10.9,10.9,0,0,0,4.59,4.7,4.72,4.72,0,0,1-4.83-4.48l.15.12c-.18-.05-.37-.1-.55-.17Z"/>
        </g>
        <path class="b22a5bcb-09cb-4dc0-a1cf-e0740b10516d" d="M22.51,112.89,19.81,128s4.39,8.18,16.19,8.69c0,0,15.52.17,19.56-7.76l-2.74-21.33L51.48,93.38,48,93.66s-12.46,8-18-.74l-.59-2.41H26.81L22.9,102.23Z"/>
        <path class="ac433998-ce42-42cc-9298-277b167bff25" d="M33.3,97.09a6.45,6.45,0,0,1,5.51-.22c3.37,1.12-.84,4.77-.84,4.77H34.26S29.31,98.55,33.3,97.09Z"/>
        <path class="b22a5bcb-09cb-4dc0-a1cf-e0740b10516d" d="M30.6,88.66c-.39.28-2.92,2.74-3.09,4.26s1.07,9.74,1.07,9.74l6.74-6.13a18.68,18.68,0,0,1-4.6-5.45Z"/>
        <path class="b22a5bcb-09cb-4dc0-a1cf-e0740b10516d" d="M37.81,96.66c-.31.11,5.86,6.62,5.86,6.62A38.37,38.37,0,0,0,48.55,92.9l-2.77-4.22A13.36,13.36,0,0,1,37.81,96.66Z"/>
        <g>
          <path class="ac433998-ce42-42cc-9298-277b167bff25" d="M42.57,119c-.08.24-.16.49-.25.73h0a28.1,28.1,0,0,1-7.22,11.24,40.68,40.68,0,0,1-3.53-4.77A22.63,22.63,0,0,1,30.39,124a9.46,9.46,0,0,1-1-2.71c0-.94.12-1.83.2-2.7s.15-1.59.25-2.34c.28-2.14.63-4,1-5.7.2-.84.4-1.62.61-2.35A74.87,74.87,0,0,1,34.26,101c-.17-1,4-.62,4-.62a30.66,30.66,0,0,0,.61,4.81c.1.54.22,1.09.34,1.64.34,1.6.75,3.22,1.16,4.75.15.53.29,1,.43,1.55.52,1.85,1,3.45,1.35,4.51Z"/>
          <path class="af70a40f-163c-410c-94d4-e26452fc5d42" d="M39.2,106.8a29.12,29.12,0,0,0-8.06,3.76c.19-.84.43-1.71.64-2.44a33.51,33.51,0,0,1,7.08-3C39,105.7,39.08,106.25,39.2,106.8Z"/>
          <path class="af70a40f-163c-410c-94d4-e26452fc5d42" d="M40.58,113.23c-3,1.17-7.94,3.3-10.73,5.39.07-.81.17-1.74.27-2.49a43,43,0,0,1,10-4.52C40.29,112.14,40.44,112.73,40.58,113.23Z"/>
          <path class="af70a40f-163c-410c-94d4-e26452fc5d42" d="M42.33,119c-.09.25-.17.55-.26.79h0c-2.94,1.31-7.51,3.55-10.33,6.25a20.77,20.77,0,0,1-1.16-2.11,61.49,61.49,0,0,1,11.36-6.22C42.2,118.52,42.33,119,42.33,119Z"/>
        </g>
        <path class="f1b72ac9-c634-4562-8786-ecace098617e" d="M28.9,90.55c-2.67,1.85-3,17-7.17,26.72a18.09,18.09,0,0,0-.41,2.3,70.27,70.27,0,0,1-1.12-13.32,57.93,57.93,0,0,1,2.09-14.17S32.72,86.73,28.9,90.55Z"/>
        <path class="f1b72ac9-c634-4562-8786-ecace098617e" d="M58.26,94.62s-8.43,3-5.58,17.65c0,0-.32,1.61-2.71,0,0,0-5.48-14.33-.48-19.11C49.49,93.21,54.6,92,58.26,94.62Z"/>
        <path class="b4fec8d3-f911-4864-82e3-dc03421afb32" d="M26.44,161.77a.35.35,0,0,1,.56-.19c.77.65,2.77,1.78,7.08,1.39a5.2,5.2,0,0,0,2-.61.35.35,0,0,1,.52.29l0,1.84a.35.35,0,0,1-.23.33,11.85,11.85,0,0,1-9.56-.77.29.29,0,0,1-.12-.1A2.77,2.77,0,0,1,26.44,161.77Z"/>
        <g>
          <path class="a2f63dac-b639-4e37-96c4-6eda9ad67d96" d="M56.12,113.4a41.64,41.64,0,0,1,4.37,3.6c1,1.28.92,6.57.72,8.37-.33,3-3.62,13.41-9.15,18.31L47.53,142s1.89-9.4,2.48-15.9c.07-.77.71-8.28.54-8.9A5.53,5.53,0,0,1,56.12,113.4Z"/>
          <g>
            <path class="a2f63dac-b639-4e37-96c4-6eda9ad67d96" d="M49.33,138.24c-1.19.14-2.5,1.73-4.18,4.37-2.4,7.18.64,5.5.64,5.5s1.28-3.46,1.55-3.49.82,4.68-.62,6.85c-.09.13.15,1.27,2.07,1.37a1,1,0,0,0,1-.81s1.9,1.37,2.93-.61c0,0,2.06,1.3,2.8-1.74,0,0,.93.11,1.53-1.58.55-1.5-1.72-8.91-1.72-8.91"/>
            <g>
              <path class="a5aa9cb4-fe61-43ae-8c51-6c4eb08e92c9" d="M50,145.6a11.13,11.13,0,0,1-.41,6.28"/>
              <path class="a5e14256-b3f1-4d7b-9cca-e3fd616d1095" d="M50,145.59c.52,2,.79,4.6-.47,6.28a24.82,24.82,0,0,0,.47-6.28Z"/>
            </g>
            <g>
              <path class="a5aa9cb4-fe61-43ae-8c51-6c4eb08e92c9" d="M52.94,144.82a10.85,10.85,0,0,1-.42,6.18"/>
              <path class="a5e14256-b3f1-4d7b-9cca-e3fd616d1095" d="M53,144.81c.52,1.94.78,4.54-.47,6.18a24,24,0,0,0,.47-6.18Z"/>
            </g>
            <g>
              <path class="a5aa9cb4-fe61-43ae-8c51-6c4eb08e92c9" d="M55.15,143.34c.45,1.48.64,2.48.3,5.84"/>
              <path class="a5e14256-b3f1-4d7b-9cca-e3fd616d1095" d="M55.18,143.34c.67,1.77,1,4.11.25,5.84-.24-2.06.21-3.78-.25-5.84Z"/>
            </g>
          </g>
          <path class="b22a5bcb-09cb-4dc0-a1cf-e0740b10516d" d="M58.23,95.47c5,4.62,5.24,19.49,6.24,23.53a69.58,69.58,0,0,1-15.3.13l1-12.51S53.82,91.4,58.23,95.47Z"/>
        </g>
        <g>
          <g>
            <path class="a2f63dac-b639-4e37-96c4-6eda9ad67d96" d="M21.54,71c.6,3,3,4.92,5.48,4.55s2.05-2.09,1.45-5.12-.74-2.75-2.65-4.4C21.62,62.38,20.94,67.91,21.54,71Z"/>
            <path class="a0725755-1cd9-4731-bf35-ae2a8109eeee" d="M24.69,66.89a1.25,1.25,0,0,0-1.05-.21,1.39,1.39,0,0,0-.74,1.16,7.82,7.82,0,0,0,.9,4.94,2.1,2.1,0,0,0,.5.68.77.77,0,0,0,.79.15.79.79,0,0,0,.4-.77,4.43,4.43,0,0,0-1-2.15,1.57,1.57,0,0,1-.25-.6.57.57,0,0,1,.23-.55.78.78,0,0,1,.5-.07,4.42,4.42,0,0,1,1,.29c.28-.45,0-1-.21-1.45A3.29,3.29,0,0,0,24.69,66.89Z"/>
          </g>
          <path class="a2f63dac-b639-4e37-96c4-6eda9ad67d96" d="M31.85,55.48C42,53,32.25,43.23,43.76,46.76c11.16,3.42,16,11,13.46,20.8a41.71,41.71,0,0,1-4.06,9.09C51,88.4,39.83,91.31,33.07,89.23a15.5,15.5,0,0,1-7.62-6.08C23,79.67,21.62,75.1,24,67.1,24,66.85,23.43,57.54,31.85,55.48Z"/>
          <path class="a0725755-1cd9-4731-bf35-ae2a8109eeee" d="M51.63,60.82s-3.37,2.61-15.91-1.21l.84-1.56s-1.44,2.1-9.1,1.17L23.7,67.79l3.42-19.21,27.1,5.85,2.86,5.34-1.66,4.92s-.39,10.74-1.82,14L53.35,78a19.15,19.15,0,0,1-1.17-8.12h0S49.33,70.17,51.63,60.82Z"/>
          <path class="bfb8a9a3-166e-43f2-8418-cc147dbc22f4" d="M53.37,58.64s.15,4.28-16.93.17c0,0,.49-.06,3.09-3.53-3.31,4.24-7.71,3.06-11.19,3.11l.07-5.32L23.7,67.79S23.37,63,23.47,61c0,0,0-5.56,1.71-8.62a17.68,17.68,0,0,0-1.92,2.86S22.73,46.44,35.2,43a7.75,7.75,0,0,0-4.92-.65s6.37-4,16.4-1.49c5.25,1.34,9.23,2.33,10.15,8,0,0,7.37-2.51,8,6,0,0-3.77-3.54-5.53-2.13,0,0,5,2.2,4.16,9.95-.78,7.33-4.06,11.82-9.26,16a14.29,14.29,0,0,1-.07-11.35L52,69.27S49.77,66.57,53.37,58.64Z"/>
          <g>
            <path class="a2f63dac-b639-4e37-96c4-6eda9ad67d96" d="M50.81,82.45c1.8,2.87,5,1.87,6.78-.49s3.75-7.53-.9-6.44a5.47,5.47,0,0,0-4,2.48"/>
            <path class="a0725755-1cd9-4731-bf35-ae2a8109eeee" d="M57.1,76.86a1,1,0,0,1,.86.34,1.6,1.6,0,0,1,0,1.37,8.07,8.07,0,0,1-2.86,3.88,1.84,1.84,0,0,1-.66.35.62.62,0,0,1-.65-.26.93.93,0,0,1,.06-.87,4.22,4.22,0,0,1,1.67-1.4,1.29,1.29,0,0,0,.44-.4.62.62,0,0,0,.08-.6.69.69,0,0,0-.33-.3,3.77,3.77,0,0,0-.87-.25c0-.52.47-.88.8-1.16A2.75,2.75,0,0,1,57.1,76.86Z"/>
          </g>
          <g>
            <g>
              <path class="edfb72e1-60e7-4ff8-aa08-7135f2f72f2f" d="M35.09,75.69c-2.77,1.18-4.11-1.24-3.8-2.16A2.55,2.55,0,0,1,32.92,72c1.42-.57,1.92-3.41,1.92-3.41"/>
              <path class="ee9a3461-a05d-4df0-b546-676215af9d06" d="M35.11,75.73a3.13,3.13,0,0,1-2.72.21A2.44,2.44,0,0,1,30.9,73.4,2.84,2.84,0,0,1,32,71.88c.43-.35.88-.36,1.27-.75a9,9,0,0,0,1.54-2.6l.1,0a6.09,6.09,0,0,1-.2,1.64,3.25,3.25,0,0,1-1.52,2.2,2.91,2.91,0,0,0-1.49,1.23c-.28,1.1,1,2.25,2.11,2.23a3.78,3.78,0,0,0,1.28-.21l0,.09Z"/>
            </g>
            <path class="bdaee1ff-318f-4152-96c3-0190a5bd39d9" d="M42.82,62.19s.27-1,1.78-.45,3,2.85,2.74,3.94C47.34,65.68,45.14,62.39,42.82,62.19Z"/>
            <path class="bdaee1ff-318f-4152-96c3-0190a5bd39d9" d="M35.45,60.75a1.46,1.46,0,0,0-1.16-1.34c-1.15-.33-3.06.45-3.4,1.22C30.89,60.63,33.93,59.86,35.45,60.75Z"/>
            <g>
              <path class="bdae9424-47e4-4da7-b161-6257fbce6652" d="M40.31,80.25c-1,1.06-4,4.4-7.31,4-2-.21-2.54-2-3.18-3.38-.16-.35-.31-.71-.46-1.08h0c-.07-.18-.15-.37-.23-.55a10,10,0,0,0-.69-1.39h0l-.2-.3a.83.83,0,0,1-.08-.12s2.43,2.32,11.29,2.44l.75,0,.29,0h.17Z"/>
              <path class="bb7fca08-ef5e-42b2-bb82-b552cf28ccd6" d="M30.6,81.79a2.23,2.23,0,0,1,2,0,4.42,4.42,0,0,1,3,1.23S32.45,84.18,30.6,81.79Z"/>
              <path class="a7217f86-0626-407d-abdb-f211f1c8c024" d="M40.49,79.85c-4.6,2.49-8.11,1.73-9.9.69-.76-.44-.39-1.88-1.72-2.26a4.13,4.13,0,0,1-.63-.69.83.83,0,0,1-.08-.12s2.43,2.32,11.29,2.44l.75,0Z"/>
              <path class="bd87e219-715c-4d38-80ec-7781b4532824" d="M40.31,80.25c-1,1.06-4,4.4-7.31,4-2-.21-2.54-2-3.18-3.38C32.3,84.29,35.11,84.22,40.31,80.25Z"/>
              <path class="bd87e219-715c-4d38-80ec-7781b4532824" d="M40.2,79.87c-7.06,1.56-10.52-.79-11.76-2h0l0,0a1.48,1.48,0,0,0-.17-.28.83.83,0,0,1-.08-.12s2.43,2.32,11.29,2.44Z"/>
              <path class="bb7fca08-ef5e-42b2-bb82-b552cf28ccd6" d="M40.36,79.18a.82.82,0,0,1,.29,1.37S41.65,79.29,40.36,79.18Z"/>
              <path class="bb7fca08-ef5e-42b2-bb82-b552cf28ccd6" d="M28.44,77.15s-.66,0-.45,1C28,78.12,27.48,77.11,28.44,77.15Z"/>
            </g>
            <g>
              <ellipse class="a930affa-5ced-4159-a0ed-9c645d3a2c2a" cx="41.86" cy="70.56" rx="3.24" ry="2.92" transform="translate(-38.77 85.75) rotate(-69.99)"/>
              <ellipse class="bdaee1ff-318f-4152-96c3-0190a5bd39d9" cx="41.02" cy="70.15" rx="1.98" ry="1.84" transform="translate(-38.93 84.7) rotate(-69.99)"/>
              <circle class="eec1951b-ddd8-4c71-af5a-c02cfbbf55e8" cx="42.42" cy="69.69" r="0.35" transform="translate(-37.51 86.04) rotate(-70.23)"/>
            </g>
            <g>
              <ellipse class="a930affa-5ced-4159-a0ed-9c645d3a2c2a" cx="32.09" cy="67.41" rx="3.24" ry="2.67" transform="translate(-42.23 74.5) rotate(-69.99)"/>
              <ellipse class="bdaee1ff-318f-4152-96c3-0190a5bd39d9" cx="31.36" cy="66.74" rx="1.98" ry="1.7" transform="translate(-42.08 73.37) rotate(-69.99)"/>
              <ellipse class="eec1951b-ddd8-4c71-af5a-c02cfbbf55e8" cx="32.67" cy="66.25" rx="0.35" ry="0.32" transform="translate(-40.76 74.28) rotate(-69.99)"/>
            </g>
          </g>
        </g>
        <path class="a2d3c11b-8d0e-4a4c-a7a2-32f743866325" d="M37.87,137l.27,3.39s-5.18,0-7.3-.88l-.29-3.68S36,137.21,37.87,137Z"/>
        <g>
          <path class="fbff37bb-c913-40e7-9a5a-3fa76f4ce71f" d="M26.44,175.48c.23,0-.49,1.76.3,2.79s5.16.57,6.85-1.45l.81-2.08s.67,1,.16,3.52a12.28,12.28,0,0,1,.55,2.54,4.2,4.2,0,0,1-.77,2.54,66.9,66.9,0,0,1-7,.89c-2.63.09-10.75-.74-11.92-3.25,0,0-1.08-4,6.36-4.08,0,0,2.69.89,3,.52S24.17,175.83,26.44,175.48Z"/>
          <path class="fb3f15f1-5812-44ca-a26d-fadd09311fbe" d="M35,178.42c0,.38.1,1.49,0,1.84h0a5.35,5.35,0,0,1-.17.82,1.1,1.1,0,0,1-.87.81,61.53,61.53,0,0,1-6.4.77c-2.63.1-10.75-.74-11.92-3.24a1.59,1.59,0,0,1,0-.36h0c.15-.76,1-2.51,5.58-2.84.19,0,.39,0,.59,0l.35,0h1.2c.24,0,.51,0,.76,0h0a2.16,2.16,0,0,0,.74-.18.24.24,0,0,0,.11-.08c.06-.06,1.85-1.07,2.46-1.51.19-.14,6.4,1.07,6.53.41l.44.07S35.31,174.46,35,178.42Z"/>
        </g>
      </g>
    </g>
  </g>
</svg>
