<svg id="bfe82757-c4eb-4d51-b991-928047a380db" data-name="Layer 1" xmlns="http://www.w3.org/2000/svg" xmlns:xlink="http://www.w3.org/1999/xlink" width="80.64" height="197.35" viewBox="0 0 80.64 197.35">
  <defs>
    <style>
      .fb755a7c-45db-40dd-afca-da2de02662da {
        fill: none;
      }

      .b80a3f34-9e3e-468b-9cbb-c747f0407e64 {
        opacity: 0.26;
      }

      .b21b27ab-741d-46fd-9f75-41ea7bd15d09 {
        fill: #342516;
      }

      .b4c4a56e-2dcc-451a-b016-c620b42c19d8, .e2bf6054-200d-4f90-90c1-74d3cfdae0b5 {
        fill: #fbd3c7;
      }

      .b4c4a56e-2dcc-451a-b016-c620b42c19d8 {
        stroke: #453323;
      }

      .a1acc669-3163-4991-bbed-57442bcf7e6d, .a1dd067d-4371-4cff-b64f-0112b80076af, .a3b15b56-63b4-4ab5-87b2-9d07776608af, .a8b3604b-c140-4ba4-91e7-05da785e8962, .ab0bff87-45d2-4c3a-852f-3d355527fb2e, .b4c4a56e-2dcc-451a-b016-c620b42c19d8, .bde3e47c-11bd-44d0-9e5a-7a229eeda4f8, .eabe5a63-f733-4478-ab95-8f240099bcc7, .ee5a7cdc-ef17-457e-af4f-475ad2755721, .fe31ce7f-3385-402b-9fee-e8efc82cbd22 {
        stroke-miterlimit: 10;
      }

      .a1acc669-3163-4991-bbed-57442bcf7e6d, .a1dd067d-4371-4cff-b64f-0112b80076af, .a3b15b56-63b4-4ab5-87b2-9d07776608af, .a55d4f1c-01ca-4a52-92a5-fcd4ae6f714b, .b4c4a56e-2dcc-451a-b016-c620b42c19d8, .eabe5a63-f733-4478-ab95-8f240099bcc7 {
        stroke-width: 0.5px;
      }

      .e6031b3f-1dc4-40d4-9f4b-0e69fe470de6 {
        fill: #e4a68d;
      }

      .a1acc669-3163-4991-bbed-57442bcf7e6d {
        fill: #50b72e;
        stroke: #00941d;
      }

      .a1dd067d-4371-4cff-b64f-0112b80076af {
        fill: #cf20e2;
        stroke: #a31e23;
      }

      .a55d4f1c-01ca-4a52-92a5-fcd4ae6f714b {
        fill: #df71e2;
        stroke: #710e7c;
      }

      .a55d4f1c-01ca-4a52-92a5-fcd4ae6f714b, .b02d8885-a3dd-4f53-a5e8-4af9feefb2ed, .b730eb02-b397-49f6-8d4e-b28d187e78ad, .ecefeb66-158a-45d5-9014-2f1d526c45a0 {
        stroke-linejoin: round;
      }

      .ecefeb66-158a-45d5-9014-2f1d526c45a0 {
        fill: #9b959a;
        stroke: #423a33;
      }

      .b02d8885-a3dd-4f53-a5e8-4af9feefb2ed, .b730eb02-b397-49f6-8d4e-b28d187e78ad, .ecefeb66-158a-45d5-9014-2f1d526c45a0 {
        stroke-width: 0.75px;
      }

      .b9d4d0de-6be8-40d6-8fbd-08a0180e89c6 {
        fill: #453323;
      }

      .a0a88b3e-1551-4347-b273-8bd2bb0ff4c5, .eabe5a63-f733-4478-ab95-8f240099bcc7 {
        fill: #61435b;
      }

      .eabe5a63-f733-4478-ab95-8f240099bcc7 {
        stroke: #1c101a;
      }

      .ad61a1e9-810b-4965-a840-c2973603854d {
        fill: #2d1708;
      }

      .e91dc18d-8a1c-4865-9378-07923cd5e7a1 {
        fill: #2c3581;
      }

      .fbb29f9d-55d1-4934-9e39-3c5757eb0ae7 {
        fill: #1c101a;
      }

      .a8b3604b-c140-4ba4-91e7-05da785e8962 {
        fill: #66bc2e;
        stroke: #2c6d03;
        stroke-width: 2px;
      }

      .b10d0465-29d5-47d9-8b8f-1f0add2dc6a9 {
        fill: #fffa71;
      }

      .f6c8407f-7432-4acf-b95f-89e499272d8b {
        fill: #cc0098;
      }

      .a8d777e8-3a08-4986-a5d9-9b22bf107895 {
        fill: #4a911d;
      }

      .ee5a7cdc-ef17-457e-af4f-475ad2755721 {
        fill: #f9dad2;
        stroke: #4c2606;
      }

      .b87d506c-b4b2-413c-ae89-66d42529007d {
        fill: #e3ae9f;
      }

      .fe31ce7f-3385-402b-9fee-e8efc82cbd22 {
        fill: #3e870f;
        stroke: #874a46;
        stroke-width: 0.25px;
      }

      .e61058ad-cedc-4914-92e5-385e66b79271 {
        fill: #b26b51;
      }

      .bde3e47c-11bd-44d0-9e5a-7a229eeda4f8 {
        fill: #e7d760;
        stroke: #baa73b;
      }

      .a3b15b56-63b4-4ab5-87b2-9d07776608af, .af063c65-974d-48b3-b157-5ea5692af357 {
        fill: #f9f6f2;
      }

      .a3b15b56-63b4-4ab5-87b2-9d07776608af {
        stroke: #323232;
      }

      .ab0bff87-45d2-4c3a-852f-3d355527fb2e, .e4dc9109-0ce4-4df2-8859-faaea5f91811 {
        fill: #3d2d16;
      }

      .ab0bff87-45d2-4c3a-852f-3d355527fb2e {
        stroke: #3d2d16;
      }

      .b590a215-2acd-4e45-a6b1-ed85bc03e92b {
        fill: #f58778;
      }

      .f2a84c3d-499f-4bf4-8a70-05134760fdae {
        fill: #580d0d;
      }

      .e73ed9dc-9ba0-4aa0-848c-dccb92fa94b1 {
        fill: #8c3d35;
      }

      .b02d8885-a3dd-4f53-a5e8-4af9feefb2ed {
        fill: #686c70;
        stroke: #211f1c;
      }

      .b730eb02-b397-49f6-8d4e-b28d187e78ad {
        fill: #311415;
        stroke: #190500;
      }

      .b7dd1769-8f53-4208-8aaa-b1f9903c63a3 {
        clip-path: url(#bd838b0d-4875-4007-b9c6-3316b6c81b90);
      }
    </style>
    <clipPath id="bd838b0d-4875-4007-b9c6-3316b6c81b90">
      <rect class="fb755a7c-45db-40dd-afca-da2de02662da" x="-1181.16" y="-1045.73" width="1600" height="900"/>
    </clipPath>
  </defs>
  <g>
    <ellipse class="b80a3f34-9e3e-468b-9cbb-c747f0407e64" cx="40.32" cy="179.18" rx="36.65" ry="6.09" transform="translate(-24.22 7.23) rotate(-7.89)"/>
    <g>
      <path class="b21b27ab-741d-46fd-9f75-41ea7bd15d09" d="M66.43,50.69S64.52,71.15,62.56,72s-10.93-4-10.93-4L41,69.45,26.08,68.07a41.7,41.7,0,0,1-.59-4.58A13.78,13.78,0,0,0,26,61.42S64,43.55,66.43,49.73Z"/>
      <path class="b4c4a56e-2dcc-451a-b016-c620b42c19d8" d="M45.81,62a18.48,18.48,0,0,1,.26,5.59c-.62,3.27-1.58,7.57-2.49,8.74-1.51,2-10.8,1.7-12.43-2.15a14.19,14.19,0,0,1-.54-7,21.15,21.15,0,0,1,.54-2.79,14.83,14.83,0,0,1,1.46-3.06c2.7-4.27,6.31-3.6,9.2-1.9A40.65,40.65,0,0,1,45.81,62Z"/>
      <path class="e6031b3f-1dc4-40d4-9f4b-0e69fe470de6" d="M45.81,62.68a13.7,13.7,0,0,1,.26,4.93c-7.38,4.48-12.79,1.76-15.46-.39a21.15,21.15,0,0,1,.54-2.79,14.83,14.83,0,0,1,1.46-3.06,19.83,19.83,0,0,1,2.66-.9c1.31-.3,4-.68,6.54-1A14.16,14.16,0,0,1,45.81,62.68Z"/>
      <g>
        <g>
          <path class="a1acc669-3163-4991-bbed-57442bcf7e6d" d="M70.61,91.36C70.28,98,69,118.44,68.83,120.6c0,.13,0,.19,0,.19s-.56,4-4.36,5-12.26-1.64-12.26-1.64S38.46,124,43.82,86.94c0,0,0-14.1,11-15.94a14.84,14.84,0,0,1,3-.19c.54,0,7.19,1,10.26,4.11S70.94,84.37,70.61,91.36Z"/>
          <path class="a1dd067d-4371-4cff-b64f-0112b80076af" d="M47.09,67c.62-.08,9.56.49,12.69,5,0,0,1.58,3.4-2.8,4.42s-10.57-4.95-10.49-5.44S47.09,67,47.09,67Z"/>
          <path class="a1acc669-3163-4991-bbed-57442bcf7e6d" d="M68.83,120.6c0,.13,0,.19,0,.19s-.56,4-4.36,5-12.26-1.64-12.26-1.64S38.46,124,43.82,86.94c0,0,0-14.1,11-15.94a1.46,1.46,0,0,0,1.93-.17l3.57,1.56a221.4,221.4,0,0,0-2.88,39.29,23.66,23.66,0,0,0,.83,7c.71,2.21,2.18,4.2,4.1,4.69C64.68,124,66.92,122.33,68.83,120.6Z"/>
        </g>
        <g>
          <path class="a1acc669-3163-4991-bbed-57442bcf7e6d" d="M70.51,112.19l-.77,10.11s-4.31,2.75-7.88.74l-1.07-9.75"/>
          <path class="a1acc669-3163-4991-bbed-57442bcf7e6d" d="M60.79,113.29a14.63,14.63,0,0,0,9.72-1.1l-1.11-.51"/>
          <path class="a1acc669-3163-4991-bbed-57442bcf7e6d" d="M65.24,113.09l1.05,3.56s2.49,3.43,3.11,0l-1.34-4Z"/>
        </g>
      </g>
      <g>
        <g>
          <g>
            <path class="b4c4a56e-2dcc-451a-b016-c620b42c19d8" d="M32.61,166.94c-.2,4.75-.29,8-.34,10.12-.14-2.29-.52-5-1.47-5.56-3.37-2-6.65,3.2-7.07-2.78-.21-3.12-.52-7.77-.79-11.82-.05-.87-.11-1.7-.16-2.49-.22-3.44-.38-6-.38-6l9.7-.77.11,4.26.06,1.92Z"/>
            <path class="e6031b3f-1dc4-40d4-9f4b-0e69fe470de6" d="M32.07,151.91a10.35,10.35,0,0,1-9.12,2.5c-.22-3.44-.38-6-.38-6l9.4-.77Z"/>
          </g>
          <path class="a55d4f1c-01ca-4a52-92a5-fcd4ae6f714b" d="M32.36,166.64c-.19,4.64-.28,7.81-.32,9.88-.14-2.23-.42-5.56-1.42-5.42-3,.4-6.39,3.12-6.79-2.72-.21-3-.5-7.59-.76-11.55-.19,2.29,2.21,3.42,2.36,3.21,0,0,4.63-.6,6.5-2.48Z"/>
        </g>
        <path class="ecefeb66-158a-45d5-9014-2f1d526c45a0" d="M22.32,157.66c0-.35.32-.54.53-.34.85.77,3,2,7.25.86a4.63,4.63,0,0,0,2-1.12c.21-.22.51-.05.55.3l.23,2.51a.5.5,0,0,1-.19.48,9.18,9.18,0,0,1-9.67.35.34.34,0,0,1-.12-.12A4.69,4.69,0,0,1,22.32,157.66Z"/>
      </g>
      <g>
        <g>
          <g>
            <path class="b4c4a56e-2dcc-451a-b016-c620b42c19d8" d="M63.7,160.76c1.24,4.59,2.13,7.71,2.72,9.75-.82-2.14-2-4.59-3.07-4.85-3.82-.9-5.38,5-7.58-.53-1.14-2.92-2.83-7.25-4.3-11-.32-.81-.62-1.58-.9-2.32l-2.17-5.6,9-3.65,1.38,4,.63,1.82Z"/>
            <path class="e6031b3f-1dc4-40d4-9f4b-0e69fe470de6" d="M58.67,146.58a10.38,10.38,0,0,1-8,5.14c-1.24-3.22-2.15-5.61-2.15-5.61l8.72-3.55Z"/>
          </g>
          <path class="a55d4f1c-01ca-4a52-92a5-fcd4ae6f714b" d="M63.38,160.55c1.21,4.48,2.07,7.53,2.66,9.52-.8-2.09-2.07-5.17-3-4.74-2.77,1.29-5.16,4.89-7.3-.55-1.11-2.86-2.76-7.1-4.19-10.8.5,2.25,3.13,2.6,3.21,2.36,0,0,4.24-2,5.46-4.32Z"/>
        </g>
        <path class="ecefeb66-158a-45d5-9014-2f1d526c45a0" d="M51.1,155c-.09-.35.14-.62.41-.49,1,.48,3.44,1,7.17-1.36a4.57,4.57,0,0,0,1.55-1.67c.14-.27.48-.2.62.13l1,2.32a.51.51,0,0,1,0,.51,9.15,9.15,0,0,1-9.12,3.24.34.34,0,0,1-.15-.07A4.75,4.75,0,0,1,51.1,155Z"/>
      </g>
      <path class="b4c4a56e-2dcc-451a-b016-c620b42c19d8" d="M25.87,86.23a33,33,0,0,0-5.37.87c-1.49.67-4.62,6.07-5.55,8-1.58,3.27-5.4,15.9-4.29,24.38L15,120.72S19.23,110,22.7,103c.42-.82,4.46-8.84,4.95-9.36C27.65,93.66,29.22,89,25.87,86.23Z"/>
      <g>
        <path class="b4c4a56e-2dcc-451a-b016-c620b42c19d8" d="M15.91,117.81c1,.54,1.67,2.59,2.33,5.83C18.17,131.68,16,129,16,129a26.17,26.17,0,0,0-.29-4c-.22-.13-2.15,4.43-1.54,7.1,0,.16-.52,1.23-2.24.67,0,0-.64-.2-.6-1.15A1.73,1.73,0,0,1,9,129.91s-2.2.6-1.93-2.71c0,0-.84-.21-.86-2.12,0-1.7,4.23-8.37,4.23-8.37"/>
        <g>
          <path class="e2bf6054-200d-4f90-90c1-74d3cfdae0b5" d="M13.1,125a13.27,13.27,0,0,0-1.55,6.45"/>
          <path class="b9d4d0de-6be8-40d6-8fbd-08a0180e89c6" d="M13.12,125c-1,2-1,4.27-1.54,6.44a5.5,5.5,0,0,1,.16-3.37A8.78,8.78,0,0,1,13.12,125Z"/>
        </g>
        <g>
          <path class="e2bf6054-200d-4f90-90c1-74d3cfdae0b5" d="M10.74,123.18a12.88,12.88,0,0,0-1.51,6.36"/>
          <path class="b9d4d0de-6be8-40d6-8fbd-08a0180e89c6" d="M10.76,123.19c-1,2-1,4.21-1.5,6.35a5.48,5.48,0,0,1,.13-3.32,8.74,8.74,0,0,1,1.37-3Z"/>
        </g>
        <g>
          <path class="e2bf6054-200d-4f90-90c1-74d3cfdae0b5" d="M9.25,120.93c-.84,1.34-1.31,2.27-2,5.77"/>
          <path class="b9d4d0de-6be8-40d6-8fbd-08a0180e89c6" d="M9.27,121c-1.13,1.78-1.15,3.89-2,5.76a8.61,8.61,0,0,1,2-5.76Z"/>
        </g>
      </g>
      <path class="a55d4f1c-01ca-4a52-92a5-fcd4ae6f714b" d="M25.4,70.09c-6.07.12-12.69,26.72-12.69,26.72s4.76,4.53,12.87,1.59l2.47-12.22Z"/>
      <path class="a55d4f1c-01ca-4a52-92a5-fcd4ae6f714b" d="M29.64,76c-6.07.11-1.88,15.48-1.88,15.48S32.51,96,40.63,93l7.28-13.85Z"/>
      <g>
        <path class="eabe5a63-f733-4478-ab95-8f240099bcc7" d="M53.1,117,24,114.8c-3.76-1-12,34.33-10.49,37.61,1.37,3,19,8.93,36.07,6.63s15.73-7.49,15.73-7.49-9.74-29.39-9.49-29.39"/>
        <path class="ad61a1e9-810b-4965-a840-c2973603854d" d="M22.81,110.28v5.17s4.43,4.6,15.48,4.34S55.13,117,55.13,117l-.57-2.42Z"/>
        <path class="eabe5a63-f733-4478-ab95-8f240099bcc7" d="M43.53,115.36h0c.05.17.19,3.7.19,3.89,0,0,0,0,0,0l-1.34.37h0l-.22-4A8.28,8.28,0,0,1,43.53,115.36Z"/>
        <path class="eabe5a63-f733-4478-ab95-8f240099bcc7" d="M31.79,115.2c.16,0,1.17.32,1.17.32s0,4.3,0,4.3l-1.5-.34Z"/>
        <path class="e91dc18d-8a1c-4865-9378-07923cd5e7a1" d="M50.54,124.88l.65-.16.06.14a11.54,11.54,0,0,0,4.57,5.54c-2.75,0-4.9-2.88-4.87-5.48l.15.12-.56-.16Z"/>
        <g>
          <path class="a0a88b3e-1551-4347-b273-8bd2bb0ff4c5" d="M28.8,121.25s.56-1.52.26-.76-7.19,30.64-7.19,30.64"/>
          <path class="fbb29f9d-55d1-4934-9e39-3c5757eb0ae7" d="M28.57,121.17l.34-.94h0c.87.35.25.09.45.16a2.72,2.72,0,0,0-.14.43c-2.13,8.33-5.3,21.83-7.35,30.3,2-8.55,4.94-22.62,7.05-30.93v0c.2.07-.42-.21.46.15v0l-.34,1-.47-.17Z"/>
        </g>
        <g>
          <path class="a0a88b3e-1551-4347-b273-8bd2bb0ff4c5" d="M36,122.17s.32-1.6.15-.79-2.81,31.53-2.8,31.46"/>
          <path class="fbb29f9d-55d1-4934-9e39-3c5757eb0ae7" d="M35.71,122.12s.21-1,.21-1l.47.1a3,3,0,0,0-.08.45c-.93,8.59-2.17,22.46-3,31.17.76-9,1.67-22.88,2.61-31.75-.42-.11.58.1.48.09v0l-.19,1-.49-.1Z"/>
        </g>
        <g>
          <path class="a0a88b3e-1551-4347-b273-8bd2bb0ff4c5" d="M45.68,122.21s0-1.64,0-.81,3.11,31.43,3.11,31.43"/>
          <path class="fbb29f9d-55d1-4934-9e39-3c5757eb0ae7" d="M45.43,122.2l0-1h0c.21,0-.47,0,.48,0,0-.08,0,0,0,.06s0,.29,0,.37c.69,8.6,2.06,22.45,2.86,31.17-.83-7.58-2.33-21.14-3.09-28.59-.05-.71-.28-2.39-.25-3.08v-.06c.94,0,.26,0,.47.05,0,0,0,1,0,1.06Z"/>
        </g>
      </g>
      <path class="eabe5a63-f733-4478-ab95-8f240099bcc7" d="M23.28,91.62,22.51,110s1.79,5.58,13.7,6.16c0,0,15.18-.33,20.41-5.78L53.86,85.5l-.09-15.24-4.73-1s-2.52,15.17-7.58,18.54c-3.22,2.15-9.67,3.22-12.9-1.08-2.88-3.84,1.7-21.12,1.7-21.12l-3,3.07L23.68,79.22Z"/>
      <path class="eabe5a63-f733-4478-ab95-8f240099bcc7" d="M33.87,74.71c.48-.21,2.15-1.65,5.56-.28s-.85,5.83-.85,5.83H34.83S29.84,76.49,33.87,74.71Z"/>
      <path class="a55d4f1c-01ca-4a52-92a5-fcd4ae6f714b" d="M31.15,64.43c-.4.34-2.95,3.33-3.12,5.2s1.08,11.86,1.08,11.86L35.91,74a22.15,22.15,0,0,1-4.65-6.65Z"/>
      <path class="a55d4f1c-01ca-4a52-92a5-fcd4ae6f714b" d="M38.42,74.18c-.32.14,5.91,8.08,5.91,8.08a51.6,51.6,0,0,0,4.92-12.67l-2.79-5.14S44.64,71.55,38.42,74.18Z"/>
      <path class="eabe5a63-f733-4478-ab95-8f240099bcc7" d="M32,88.75c0-.15,2.74-8.92,2.88-9.31,1.26-3.48,3.41-.26,3.41-.26,0,1.08.89,3.2,1.23,5.36.11.66.22,1.33.35,2,.07.43.16.87.24,1.31C40.35,89.37,31.77,89.51,32,88.75Z"/>
      <path class="a1acc669-3163-4991-bbed-57442bcf7e6d" d="M29.06,67c-2.7,2.25-6.25,12.59-5.95,28.08-.17.48,0,0-2.15-7.61a83.8,83.8,0,0,1,2.1-17.29S23.4,69.61,29.06,67Z"/>
      <path class="a1acc669-3163-4991-bbed-57442bcf7e6d" d="M59,71.69s-8.5,3.71-5.63,21.52c0,0-.32,2-2.72.07,0,0-5.24-18.16-.19-24A11.25,11.25,0,0,1,59,71.69Z"/>
      <g>
        <path class="b4c4a56e-2dcc-451a-b016-c620b42c19d8" d="M57.22,94.78a44.82,44.82,0,0,1,3.85,4.57c.82,1.6.34,8,0,10.2-.54,3.65-4.47,16.15-10.07,21.86l-4.14-2.19s2.51-11.34,3.59-19.22c.12-.94,1.31-10,1.21-10.8C51.67,99.2,53,94.48,57.22,94.78Z"/>
        <g>
          <path class="b4c4a56e-2dcc-451a-b016-c620b42c19d8" d="M48.85,124.54c-1.1.09-2.41,1.87-4.12,4.85-2.66,8.2.24,6.42.24,6.42s1.39-3.94,1.64-4,.47,5.49-1,7.92c-.09.15.06,1.49,1.82,1.71,0,0,.66.09.94-.89A1.57,1.57,0,0,0,51.1,140s1.81,1.62,2.69-1.87c0,0,.84.18,1.51-1.76.59-1.71-1-10.44-1-10.44"/>
          <g>
            <path class="e2bf6054-200d-4f90-90c1-74d3cfdae0b5" d="M49,133.08a16.52,16.52,0,0,1-.78,7.24"/>
            <path class="b9d4d0de-6be8-40d6-8fbd-08a0180e89c6" d="M49,133.08c.34,2.33.5,5.24-.82,7.23a40,40,0,0,0,.82-7.23Z"/>
          </g>
          <g>
            <path class="e2bf6054-200d-4f90-90c1-74d3cfdae0b5" d="M51.78,132.34a16,16,0,0,1-.78,7.13"/>
            <path class="b9d4d0de-6be8-40d6-8fbd-08a0180e89c6" d="M51.8,132.34c.34,2.3.5,5.17-.82,7.12a38.68,38.68,0,0,0,.82-7.12Z"/>
          </g>
          <g>
            <path class="e2bf6054-200d-4f90-90c1-74d3cfdae0b5" d="M53.89,130.76c.32,1.73.43,2.89-.09,6.76"/>
            <path class="b9d4d0de-6be8-40d6-8fbd-08a0180e89c6" d="M53.92,130.75c.5,2.15.76,4.77-.14,6.77-.13-2.25.42-4.59.14-6.77Z"/>
          </g>
        </g>
        <path class="a55d4f1c-01ca-4a52-92a5-fcd4ae6f714b" d="M60.15,73c4.72,5.91,3.93,24,4.66,29a58.37,58.37,0,0,1-15.42-.71l1.88-15.18S56,67.77,60.15,73Z"/>
      </g>
      <g>
        <g>
          <g>
            <g>
              <path class="a8b3604b-c140-4ba4-91e7-05da785e8962" d="M21.14,18.88c-1-2.59-3.67-4.29.46-5.17s9.25,3.1,9.25,3.1-1.57,5.4-5.7,6.28S22.12,21.46,21.14,18.88Z"/>
              <path class="a8b3604b-c140-4ba4-91e7-05da785e8962" d="M40.73,14.71c-1-2.59.13-5.09-4-4.21S31,16.78,31,16.78s5.12,4,9.25,3.09S41.71,17.3,40.73,14.71Z"/>
            </g>
            <ellipse class="b10d0465-29d5-47d9-8b8f-1f0add2dc6a9" cx="38.86" cy="18.12" rx="0.56" ry="0.67" transform="matrix(0.28, -0.96, 0.96, 0.28, 10.5, 50.27)"/>
            <ellipse class="b10d0465-29d5-47d9-8b8f-1f0add2dc6a9" cx="36.01" cy="17.77" rx="0.56" ry="0.67" transform="matrix(0.28, -0.96, 0.96, 0.28, 8.78, 47.28)"/>
            <ellipse class="b10d0465-29d5-47d9-8b8f-1f0add2dc6a9" cx="37.6" cy="14.78" rx="0.56" ry="0.67" transform="translate(12.8 46.66) rotate(-73.57)"/>
            <path class="b10d0465-29d5-47d9-8b8f-1f0add2dc6a9" d="M34.06,14.32a.51.51,0,0,1,.41-.69.74.74,0,0,1,.83.43.51.51,0,0,1-.41.69A.74.74,0,0,1,34.06,14.32Z"/>
            <ellipse class="b10d0465-29d5-47d9-8b8f-1f0add2dc6a9" cx="36.76" cy="12.55" rx="0.56" ry="0.67" transform="translate(14.33 44.26) rotate(-73.57)"/>
            <path class="b10d0465-29d5-47d9-8b8f-1f0add2dc6a9" d="M34.07,17.93a.76.76,0,0,0-.84-.42.55.55,0,0,0-.38.27c.34.21.73.42,1.15.64A.5.5,0,0,0,34.07,17.93Z"/>
            <path class="b10d0465-29d5-47d9-8b8f-1f0add2dc6a9" d="M36.58,19.21a.54.54,0,0,0-.3.15,8.65,8.65,0,0,0,1.14.29v0A.73.73,0,0,0,36.58,19.21Z"/>
            <path class="b10d0465-29d5-47d9-8b8f-1f0add2dc6a9" d="M34.57,11.92h0a6.23,6.23,0,0,0-.76.68.82.82,0,0,0,.35,0A.52.52,0,0,0,34.57,11.92Z"/>
            <path class="b10d0465-29d5-47d9-8b8f-1f0add2dc6a9" d="M32.64,15.16a.51.51,0,0,0,.41-.69.66.66,0,0,0-.39-.38c-.21.35-.38.69-.53,1A.69.69,0,0,0,32.64,15.16Z"/>
            <path class="b10d0465-29d5-47d9-8b8f-1f0add2dc6a9" d="M40.32,16.61a.75.75,0,0,0,.83.42.52.52,0,0,0,.4-.31c-.15-.25-.31-.51-.47-.79a.69.69,0,0,0-.35,0A.51.51,0,0,0,40.32,16.61Z"/>
            <path class="b10d0465-29d5-47d9-8b8f-1f0add2dc6a9" d="M41.57,18.14a.52.52,0,0,0-.41.69.64.64,0,0,0,.37.37,1.06,1.06,0,0,0,.67-.91A.81.81,0,0,0,41.57,18.14Z"/>
            <path class="b10d0465-29d5-47d9-8b8f-1f0add2dc6a9" d="M39.34,12.57a.51.51,0,0,0-.41.69.74.74,0,0,0,.83.43.62.62,0,0,0,.29-.15c0-.3-.1-.59-.15-.86A.78.78,0,0,0,39.34,12.57Z"/>
            <path class="b10d0465-29d5-47d9-8b8f-1f0add2dc6a9" d="M38.13,11.1a.74.74,0,0,0,.84.42.55.55,0,0,0,.43-.37,1.62,1.62,0,0,0-1.22-.5A.51.51,0,0,0,38.13,11.1Z"/>
            <ellipse class="b10d0465-29d5-47d9-8b8f-1f0add2dc6a9" cx="25.12" cy="21.04" rx="0.56" ry="0.67" transform="translate(-2.16 39.19) rotate(-73.57)"/>
            <ellipse class="b10d0465-29d5-47d9-8b8f-1f0add2dc6a9" cx="27.2" cy="19.39" rx="0.56" ry="0.67" transform="translate(0.91 40) rotate(-73.57)"/>
            <ellipse class="b10d0465-29d5-47d9-8b8f-1f0add2dc6a9" cx="23.86" cy="17.7" rx="0.56" ry="0.67" transform="translate(0.14 35.58) rotate(-73.57)"/>
            <path class="b10d0465-29d5-47d9-8b8f-1f0add2dc6a9" d="M26.56,15.92a.74.74,0,0,0-.83-.43.52.52,0,0,0-.42.69.75.75,0,0,0,.84.43A.51.51,0,0,0,26.56,15.92Z"/>
            <ellipse class="b10d0465-29d5-47d9-8b8f-1f0add2dc6a9" cx="23.02" cy="15.47" rx="0.56" ry="0.67" transform="matrix(0.28, -0.96, 0.96, 0.28, 1.67, 33.17)"/>
            <path class="b10d0465-29d5-47d9-8b8f-1f0add2dc6a9" d="M29.07,19a.52.52,0,0,1,.42-.69.73.73,0,0,1,.52.08c-.15.31-.33.64-.53,1A.7.7,0,0,1,29.07,19Z"/>
            <path class="b10d0465-29d5-47d9-8b8f-1f0add2dc6a9" d="M27.83,21.07a.73.73,0,0,1,.36,0,7.25,7.25,0,0,1-.76.7v0A.51.51,0,0,1,27.83,21.07Z"/>
            <path class="b10d0465-29d5-47d9-8b8f-1f0add2dc6a9" d="M24.47,14.17h0c.38.08.75.18,1.12.29a.63.63,0,0,1-.28.15A.75.75,0,0,1,24.47,14.17Z"/>
            <path class="b10d0465-29d5-47d9-8b8f-1f0add2dc6a9" d="M28.44,16.16a.74.74,0,0,1-.84-.42.51.51,0,0,1,.07-.48c.42.22.81.43,1.15.64A.53.53,0,0,1,28.44,16.16Z"/>
            <path class="b10d0465-29d5-47d9-8b8f-1f0add2dc6a9" d="M22.92,20.05a.51.51,0,0,1-.41.69.77.77,0,0,1-.56-.1l-.15-.86a.54.54,0,0,1,.29-.15A.72.72,0,0,1,22.92,20.05Z"/>
            <path class="b10d0465-29d5-47d9-8b8f-1f0add2dc6a9" d="M22.84,22.13a.73.73,0,0,1,.83.42.49.49,0,0,1-.05.46,1.56,1.56,0,0,1-1.21-.51A.54.54,0,0,1,22.84,22.13Z"/>
            <path class="b10d0465-29d5-47d9-8b8f-1f0add2dc6a9" d="M20.87,16.51a.74.74,0,0,1,.83.43.52.52,0,0,1-.41.69.88.88,0,0,1-.36,0l-.47-.79A.56.56,0,0,1,20.87,16.51Z"/>
            <path class="b10d0465-29d5-47d9-8b8f-1f0add2dc6a9" d="M20.82,14.77a.51.51,0,0,1-.41.69.8.8,0,0,1-.62-.15,1.06,1.06,0,0,1,.68-.91A.7.7,0,0,1,20.82,14.77Z"/>
          </g>
          <g>
            <g>
              <g>
                <path class="f6c8407f-7432-4acf-b95f-89e499272d8b" d="M38,16.5c-.12-1.05-4.37,0-4.37,0S38.08,17.55,38,16.5Z"/>
                <path class="a8d777e8-3a08-4986-a5d9-9b22bf107895" d="M36.17,14.36c-.46-.62-3,1.54-3,1.54S36.63,15,36.17,14.36Z"/>
              </g>
              <g>
                <path class="f6c8407f-7432-4acf-b95f-89e499272d8b" d="M24.76,19.31c-.64-.94,3.74-1.7,3.74-1.7S25.39,20.25,24.76,19.31Z"/>
                <path class="a8d777e8-3a08-4986-a5d9-9b22bf107895" d="M24.78,16.78c0-.71,3.64.13,3.64.13S24.82,17.48,24.78,16.78Z"/>
              </g>
            </g>
            <path class="a8b3604b-c140-4ba4-91e7-05da785e8962" d="M32.56,15.72A1.31,1.31,0,0,0,31.08,15l-1.53.32a.91.91,0,0,0-.74,1.23l.52,1.36a1.31,1.31,0,0,0,1.48.75l1.53-.32a.91.91,0,0,0,.73-1.23Z"/>
          </g>
        </g>
        <path class="b21b27ab-741d-46fd-9f75-41ea7bd15d09" d="M18.47,55.1s3.77,14.9-2,20.57c-1.82,1.8,13.38,7.71,15.94-7.09.25-1.44,1.78-4.95,1.35-6.07S18.47,55.1,18.47,55.1Z"/>
        <path class="ee5a7cdc-ef17-457e-af4f-475ad2755721" d="M26.82,25.34A14.68,14.68,0,0,0,19.44,36.9,14.44,14.44,0,0,1,19.27,40c-2,6-4.34,14.6,5.32,23.3,6.15,5.54,14.76,2.35,20.08-.51a13.67,13.67,0,0,0,7.16-10.08s7.2-.2,3.7-2.24-1.32.58-1.32.58L54,49.65S47.75,43.42,44.35,32c0,0-5.19-8.41-5.58-11a17.61,17.61,0,0,0-8.09,2.26C29.45,23.94,28.14,24.61,26.82,25.34Z"/>
        <path class="b87d506c-b4b2-413c-ae89-66d42529007d" d="M32.92,22.37S30.33,33.7,44.41,33.3c0,0-9.48-5.15-9.85-11.89"/>
        <path class="b87d506c-b4b2-413c-ae89-66d42529007d" d="M27,21.62s-3.21,9.06,8.41,10.08c0,0-7.3-5.14-7-10.71"/>
        <path class="b21b27ab-741d-46fd-9f75-41ea7bd15d09" d="M39.52,19.41c-.32.19-3.45.18,3.28,10L44.35,32a51.53,51.53,0,0,0,2.27,6.13c1.16,2.42,2.68,9.06,5.7,11.81L54.21,51s1.52-3.52,4.54-2.4-2,1-3.78,3.81c-1.32,2.07-2.51,9.71-6.41,7,0,0-14.29,14.3-3.87,22,0,0,12.66-16.51,15.48-8,3.28,9.82,10.62-12.39,10.63-27.86,0-13.71-7.93-28.61-18.63-30.23a34.55,34.55,0,0,0-14.31-.58C30.35,16.15,27,13.4,20.33,21.91c0,0-6.14,9.37-1.62,19.79l2.15-10s2.86-5.29,11-9.1c0,0,5.11-1.91,6.91-1.64C38.77,21,38.65,19.53,39.52,19.41Z"/>
        <path class="fe31ce7f-3385-402b-9fee-e8efc82cbd22" d="M38,14.75S48.43,14,53.12,19.47c4.85,5.7,5.53,12,4.36,29.28L59,49.92s8.38-32.55-12.59-35.53A32.51,32.51,0,0,0,38,14.75Z"/>
        <path class="b21b27ab-741d-46fd-9f75-41ea7bd15d09" d="M33.81,21.37s-3.58,12.77,12.7,10.75A13.54,13.54,0,0,1,38.7,20.36a24.14,24.14,0,0,0-2.7.36"/>
        <path class="b21b27ab-741d-46fd-9f75-41ea7bd15d09" d="M28.9,21.41s-5,7.91,6.39,9.87c0,0-2.93-3.79-1.48-9.91,0,0-2.74.07-3.3.05"/>
        <g>
          <g>
            <path class="ee5a7cdc-ef17-457e-af4f-475ad2755721" d="M53,48.38c1.72-1.89,3.31-2,4.6-1.49,1.67.63,2.18,2.42,1.28,5.14s-1.82,4-4.28,5.3-3.75,1.85-5.68-.11"/>
            <path class="e61058ad-cedc-4914-92e5-385e66b79271" d="M49.71,56.4a1.37,1.37,0,0,0,.87.09,5.25,5.25,0,0,0,.87-.21,2.76,2.76,0,0,0,1.44-1.08,2.67,2.67,0,0,0,.16-2.73c.16-.17.33-.33.5-.49A16.09,16.09,0,0,1,55,50.77a3.61,3.61,0,0,1,1.57-.87,1,1,0,0,1,.81.19.81.81,0,0,1,.38.77.83.83,0,0,0-.28-.88,1.2,1.2,0,0,0-.94-.31,3.6,3.6,0,0,0-1.72.86,10.62,10.62,0,0,0-1.39,1.29c-.15.16-.29.32-.43.49l-.06.09.06.17a2.85,2.85,0,0,1,.15.91A2.7,2.7,0,0,1,52.64,55a2.79,2.79,0,0,1-1.27,1,5.92,5.92,0,0,1-.81.27A1.45,1.45,0,0,1,49.71,56.4Zm4.86-.83a17,17,0,0,1-1.77.67,9.2,9.2,0,0,0,1.86-.46,3.66,3.66,0,0,0,1.61-1.11,3.36,3.36,0,0,0,.67-1.84,7.7,7.7,0,0,0-.12-1.92,13.28,13.28,0,0,1-.11,1.9A3.49,3.49,0,0,1,56,54.49,3.91,3.91,0,0,1,54.57,55.57Z"/>
          </g>
          <path class="bde3e47c-11bd-44d0-9e5a-7a229eeda4f8" d="M52.35,56.85s-2.6,3.42-.48,4.53,2.27-3.29,2.27-3.29-1.31,3.46-1.55,1.11Z"/>
        </g>
        <ellipse class="a3b15b56-63b4-4ab5-87b2-9d07776608af" cx="24.36" cy="40.62" rx="3.34" ry="3.6" transform="translate(-5.69 4.01) rotate(-8.42)"/>
        <ellipse class="ab0bff87-45d2-4c3a-852f-3d355527fb2e" cx="23.47" cy="40.51" rx="2.08" ry="2.14" transform="translate(-19.8 22.63) rotate(-37.46)"/>
        <ellipse class="af063c65-974d-48b3-b157-5ea5692af357" cx="25.64" cy="40.04" rx="0.77" ry="0.79" transform="translate(-5.59 4.19) rotate(-8.42)"/>
        <g>
          <path class="a3b15b56-63b4-4ab5-87b2-9d07776608af" d="M34.54,43.61a3.58,3.58,0,1,0,3-4.17A3.64,3.64,0,0,0,34.54,43.61Z"/>
          <ellipse class="ab0bff87-45d2-4c3a-852f-3d355527fb2e" cx="37.26" cy="43.38" rx="1.96" ry="2.01" transform="translate(-5.95 5.93) rotate(-8.42)"/>
          <ellipse class="af063c65-974d-48b3-b157-5ea5692af357" cx="39.52" cy="42.77" rx="0.72" ry="0.74" transform="translate(-5.84 6.25) rotate(-8.42)"/>
        </g>
        <path class="e4dc9109-0ce4-4df2-8859-faaea5f91811" d="M27.49,32.91a4.83,4.83,0,0,0-5.63,1.42s-.25-1.72,2.79-2.85C24.65,31.48,26.85,30.91,27.49,32.91Z"/>
        <path class="e4dc9109-0ce4-4df2-8859-faaea5f91811" d="M38.91,35.4a4.46,4.46,0,0,1,4.87,2.93s.77-1.65-1.75-3.61A2.27,2.27,0,0,0,38.91,35.4Z"/>
        <path class="b590a215-2acd-4e45-a6b1-ed85bc03e92b" d="M35.66,52.74s-3.48,5.3-7.37,5.39c-5.26.12-5.09-7-5.09-7l5.28,2Z"/>
        <path class="f2a84c3d-499f-4bf4-8a70-05134760fdae" d="M35.66,52.74s-3.92,4.48-8.17,3.95c-3-.39-4.28-5.82-4.28-5.82S28,54.46,35.66,52.74Z"/>
        <path class="e73ed9dc-9ba0-4aa0-848c-dccb92fa94b1" d="M28.75,42.08a4.14,4.14,0,0,1-1.08,2.73c-.55.7-1.56,1.1-1.84,2-.38,1.94,2,2.08,3.53,1.84l0,.09a3.39,3.39,0,0,1-3,.7c-2-.59-1.92-3.22-.22-4.13a4.57,4.57,0,0,0,2.46-3.18Z"/>
        <path class="af063c65-974d-48b3-b157-5ea5692af357" d="M24.4,51.67h0c0,1.33.74,2.74,3.15,3.16,2,.35,5.52.14,7.13-1.6.47-.51-.36-.12-.36-.12s-7.21.5-9.61-1.34"/>
        <path class="b590a215-2acd-4e45-a6b1-ed85bc03e92b" d="M35.29,52.91s-9.07.62-13-3C22.31,49.92,25.33,55.49,35.29,52.91Z"/>
        <path class="b87d506c-b4b2-413c-ae89-66d42529007d" d="M35.64,51.76s1.93.16.81,2A1.66,1.66,0,0,0,35.64,51.76Z"/>
        <path class="b87d506c-b4b2-413c-ae89-66d42529007d" d="M22.93,49.29s-.91.48-.24,2C22.69,51.33,21.25,49.84,22.93,49.29Z"/>
        <path class="b87d506c-b4b2-413c-ae89-66d42529007d" d="M30.79,56.2s-.62-.94-2.54-.65a2.83,2.83,0,0,0-2.81-.17S26.68,57.78,30.79,56.2Z"/>
      </g>
      <g>
        <path class="b02d8885-a3dd-4f53-a5e8-4af9feefb2ed" d="M22.52,172.51c.26-.07-.35,2.12.69,3.21s6.08,0,7.79-2.54l.68-2.52s.9,1.1.63,4.07a14.15,14.15,0,0,1,.95,2.89,4.9,4.9,0,0,1-.57,3,77.2,77.2,0,0,1-8.07,1.91c-3.05.43-12.59.48-14.26-2.29,0,0-1.76-4.58,6.88-5.54,0,0,3.25.7,3.61.23S19.92,173.2,22.52,172.51Z"/>
        <path class="b730eb02-b397-49f6-8d4e-b28d187e78ad" d="M32.83,174.86c0,.46.31,1.73.29,2.14h0a6.74,6.74,0,0,1-.1,1,1.27,1.27,0,0,1-.91,1,67.32,67.32,0,0,1-7.34,1.7c-3.06.44-12.6.49-14.27-2.28a1.84,1.84,0,0,1,0-.43h0c.09-.91.86-3.05,6.15-4l.68-.12.4-.05.31,0,.32,0,.44,0,.33,0,.88-.15h0a2.7,2.7,0,0,0,.85-.29.43.43,0,0,0,.12-.11c.06-.09,2-1.48,2.66-2.06.21-.19,7.59.44,7.65-.35l.52,0S32.7,170.23,32.83,174.86Z"/>
      </g>
      <g>
        <path class="b02d8885-a3dd-4f53-a5e8-4af9feefb2ed" d="M56.63,168.46c.23-.15.3,2.13,1.62,2.85s5.81-1.8,6.66-4.76l-.1-2.61s1.19.78,1.82,3.7a13.88,13.88,0,0,1,1.78,2.47,4.9,4.9,0,0,1,.37,3.08,78,78,0,0,1-7.12,4.24c-2.78,1.33-11.87,4.25-14.29,2.11,0,0-3.06-3.84,4.9-7.35,0,0,3.3-.31,3.5-.88S54.36,169.9,56.63,168.46Z"/>
        <path class="b730eb02-b397-49f6-8d4e-b28d187e78ad" d="M67.17,167.6c.15.43.81,1.56.92,2h0a6.88,6.88,0,0,1,.2,1,1.3,1.3,0,0,1-.55,1.27,71,71,0,0,1-6.5,3.82C58.46,177,49.37,179.87,47,177.73a1.6,1.6,0,0,1-.14-.4h0c-.19-.9-.09-3.17,4.66-5.66.2-.11.4-.22.62-.32l.36-.17.29-.14.29-.13.4-.17.31-.13c.25-.12.53-.26.79-.41h0a2.85,2.85,0,0,0,.72-.54.29.29,0,0,0,.08-.14c0-.1,1.48-2,1.92-2.77.15-.24,7.37-1.85,7.19-2.62L65,164S65.65,163.22,67.17,167.6Z"/>
      </g>
    </g>
  </g>
  <g class="b7dd1769-8f53-4208-8aaa-b1f9903c63a3">
    <rect class="fb755a7c-45db-40dd-afca-da2de02662da" x="-1216.8" y="-908.79" width="1608" height="913" transform="translate(-824.72 -905.38) rotate(-179.89)"/>
  </g>
</svg>
