<svg id="b6e091f6-5bd3-4024-9a2b-cca3315a6c6e" data-name="Layer 1" xmlns="http://www.w3.org/2000/svg" xmlns:xlink="http://www.w3.org/1999/xlink" width="912.9" height="508.68" viewBox="0 0 912.9 508.68">
  <defs>
    <style>
      .f6ad9799-1412-4b41-9dc9-c7900d4d631d {
        fill: none;
      }

      .a52efca6-c785-4c8a-ab72-237fa1c6f019 {
        fill: #951a1d;
      }

      .ad73dfab-dc8c-44f6-aea1-f10d596aa4a8 {
        fill: #7d1416;
      }

      .a2223669-600c-416c-85b2-761851a42aca {
        fill: #e7ad8d;
      }

      .e4c0c066-0ec8-41ca-bde0-2f7972dbd7c1 {
        fill: #d09d7c;
      }

      .fa6b7e92-e2a3-46b7-b9f8-733ad722ae6f {
        fill: #6f8289;
      }

      .b6e9e7dd-276a-42e0-9325-0a80058bcbd2 {
        fill: #212120;
        opacity: 0.37;
      }

      .a1f2754c-6776-4c6a-bc3a-9fc15888041f {
        fill: #868686;
      }

      .f0440fe2-a523-478a-b43d-aad7ece4ba9c {
        fill: #6d6d6d;
      }

      .e73ec00b-b773-45fb-a021-c0c46b4addfc {
        fill: #a81e22;
      }

      .b63cafe5-99af-41fa-8885-23de4e3db025 {
        fill: #58595b;
      }

      .a4f2d110-280a-47a8-bd90-e62cf8504e82 {
        fill: #ac9060;
      }

      .fea06887-70cc-414e-a8bd-72d77c407a1b {
        fill: #d7b777;
      }

      .fe751f29-4dba-4936-92ab-75c9d103af78 {
        fill: #e8c991;
      }

      .ee706256-33cb-4107-9516-45b3ce31c1e3 {
        fill: #f3d3a2;
      }

      .ab21181f-a3cb-4ff6-8c3a-92b607924f2b {
        fill: #b67656;
        stroke: #a44a24;
        stroke-miterlimit: 10;
        stroke-width: 3.24px;
      }

      .f94aa795-86ee-4d0a-bca0-f6fa8923cbe8 {
        fill: #7b7b7a;
      }

      .bcfd13f4-2300-4beb-9c92-2dace52d32f3 {
        fill: #a2a2a3;
      }

      .a75179c5-f216-4225-9d68-bfe37124d93c {
        fill: #cea852;
      }

      .f57f5ea2-9dba-44d0-8156-e59b5fd9953c {
        fill: #ac8841;
      }

      .b87b4ae4-0c5f-4dad-8e91-5efea988a4cb {
        fill: #f4f7f0;
      }

      .bbfbb4d8-39c7-4a74-b568-5d86be1e75c2 {
        fill: #adadad;
      }

      .e6cc1ec7-4b64-4ef7-be5e-cb7cd08a9c1c {
        fill: #787878;
      }

      .a3a3d84f-d454-45fa-b68f-82e0b5f5388b {
        clip-path: url(#af1c64c5-38ee-4109-ba7a-220e20117ae0);
      }

      .f7bde311-77f7-4f32-845f-48617eeb45ac {
        fill: url(#fd283dfa-e974-40ed-8b79-f30684265405);
      }

      .bea1e87e-cf7a-4c93-8810-ce389359c97c {
        fill: url(#a5b2dedc-28d1-439c-ad1e-f739b0b357c3);
      }

      .a15c90b1-3ade-4fb6-835f-e40178f04288 {
        fill: url(#a259904e-c914-4237-81b1-ebdb320eefa3);
      }
    </style>
    <clipPath id="af1c64c5-38ee-4109-ba7a-220e20117ae0">
      <rect class="f6ad9799-1412-4b41-9dc9-c7900d4d631d" x="-1665.28" y="-4.33" width="1600" height="900"/>
    </clipPath>
    <linearGradient id="fd283dfa-e974-40ed-8b79-f30684265405" x1="-768.96" y1="-305.63" x2="-835.34" y2="846.32" gradientTransform="matrix(1, 0, 0, -1, -167.21, 687.43)" gradientUnits="userSpaceOnUse">
      <stop offset="0" stop-color="#35b6e5"/>
      <stop offset="0.12" stop-color="#49bde8"/>
      <stop offset="0.72" stop-color="#a6def6"/>
    </linearGradient>
    <linearGradient id="a5b2dedc-28d1-439c-ad1e-f739b0b357c3" x1="-990.06" y1="1188.3" x2="-721.16" y2="-141.04" gradientTransform="matrix(1, 0, 0, -1, -166.51, 563.97)" gradientUnits="userSpaceOnUse">
      <stop offset="0.2" stop-color="#c5f7fd"/>
      <stop offset="0.34" stop-color="#b3f0fd"/>
      <stop offset="0.66" stop-color="#8ee1fd"/>
      <stop offset="0.83" stop-color="#80dbfd"/>
    </linearGradient>
    <linearGradient id="a259904e-c914-4237-81b1-ebdb320eefa3" x1="-1519.16" y1="350.5" x2="330.9" y2="350.5" gradientTransform="matrix(-0.98, 0, 0, 0.91, -1682.51, 45.43)" gradientUnits="userSpaceOnUse">
      <stop offset="0.2" stop-color="#68c1dd"/>
      <stop offset="0.83" stop-color="#68c1dd"/>
    </linearGradient>
  </defs>
  <g>
    <g>
      <g>
        <g>
          <path class="a52efca6-c785-4c8a-ab72-237fa1c6f019" d="M858.57,338.09l-15.68-20.77-229-23.75q-10.9,87.27-21.8,174.54l244.48,3.53Z"/>
          <path class="ad73dfab-dc8c-44f6-aea1-f10d596aa4a8" d="M858.57,338.09l-15.68-20.77-229-23.75L610.8,347l-22,112.78h34.5q8.83-54.3,17.68-108.61l213.64,14.89Q856.61,352.07,858.57,338.09Z"/>
          <g>
            <path class="ad73dfab-dc8c-44f6-aea1-f10d596aa4a8" d="M800.11,417.45l4.61-38.81-3.39-5.8A559,559,0,0,1,759,410.31l3.39,5.79Z"/>
            <path class="a2223669-600c-416c-85b2-761851a42aca" d="M801.46,375.81l-.63-2.93s-19.36-17-43.51-1.11L759,410.31Z"/>
            <path class="e4c0c066-0ec8-41ca-bde0-2f7972dbd7c1" d="M796.59,415l4.87-39.15s-19.57-17-44-1.08l1.66,38.54Z"/>
            <polygon class="fa6b7e92-e2a3-46b7-b9f8-733ad722ae6f" points="796.47 380.23 792.68 397.94 780.14 397.58 781.59 378.41 796.47 380.23"/>
            <polygon class="fa6b7e92-e2a3-46b7-b9f8-733ad722ae6f" points="762.51 378.85 763.91 396.85 776.4 397.88 777.53 378.69 762.51 378.85"/>
            <polygon class="fa6b7e92-e2a3-46b7-b9f8-733ad722ae6f" points="792.57 400.91 780.03 400.55 779.69 409.8 792.24 409.81 792.57 400.91"/>
            <polygon class="fa6b7e92-e2a3-46b7-b9f8-733ad722ae6f" points="764.36 400.1 776.9 400.46 776.56 409.71 764.03 409 764.36 400.1"/>
          </g>
          <g>
            <path class="ad73dfab-dc8c-44f6-aea1-f10d596aa4a8" d="M706.6,415.17l2.6-39-3.68-5.61a559.71,559.71,0,0,1-40.35,39.6l3.68,5.61Z"/>
            <path class="a2223669-600c-416c-85b2-761851a42aca" d="M705.8,373.52l-.78-2.9s-20.21-16-43.51,1.13l3.66,38.41Z"/>
            <path class="e4c0c066-0ec8-41ca-bde0-2f7972dbd7c1" d="M703,412.87l2.85-39.35s-20.42-15.95-44,1.19l3.64,38.41Z"/>
            <polygon class="fa6b7e92-e2a3-46b7-b9f8-733ad722ae6f" points="701.04 378.19 698.17 396.07 685.63 396.36 686.09 377.14 701.04 378.19"/>
            <polygon class="fa6b7e92-e2a3-46b7-b9f8-733ad722ae6f" points="667.07 378.56 669.39 396.46 681.92 396.85 682.05 377.63 667.07 378.56"/>
            <polygon class="fa6b7e92-e2a3-46b7-b9f8-733ad722ae6f" points="698.22 399.04 685.68 399.33 685.81 408.58 698.35 407.94 698.22 399.04"/>
            <polygon class="fa6b7e92-e2a3-46b7-b9f8-733ad722ae6f" points="670 399.69 682.54 399.4 682.68 408.65 670.14 408.6 670 399.69"/>
          </g>
          <polygon class="ad73dfab-dc8c-44f6-aea1-f10d596aa4a8" points="591.89 442.45 840.02 449.84 839.92 446.87 839.92 446.87 835.7 446.37 591.71 437.22 591.89 442.45"/>
          <polygon class="e4c0c066-0ec8-41ca-bde0-2f7972dbd7c1" points="596.08 441.11 841.96 446.72 842.98 441.86 841.46 441.82 839.92 441.78 595.83 435.88 596.08 441.11"/>
          <polygon class="b6e9e7dd-276a-42e0-9325-0a80058bcbd2" points="668.31 248.09 666.75 257.04 668.31 334.17 660.14 339.3 617.07 334.64 622.24 244.17 626.48 243.12 668.31 248.09"/>
        </g>
        <g>
          <path class="a52efca6-c785-4c8a-ab72-237fa1c6f019" d="M58.8,338.09l15.68-20.77,229-23.75q16.81,87.56,33.64,175.1l-256.32,3Z"/>
          <path class="ad73dfab-dc8c-44f6-aea1-f10d596aa4a8" d="M58.8,338.09l15.68-20.77,229-23.75q13.38,29.88,26.77,59.74l-49.55,2.87L64.38,363.85Z"/>
          <g>
            <path class="ad73dfab-dc8c-44f6-aea1-f10d596aa4a8" d="M160.51,416.9l2.6-35.52-2.48-9.1A143.54,143.54,0,0,1,120.06,411l5.83,6.38Z"/>
            <path class="a2223669-600c-416c-85b2-761851a42aca" d="M116.4,375l.72-2.91s19.86-16.41,43.52.19l-2.82,38.47Z"/>
            <path class="e4c0c066-0ec8-41ca-bde0-2f7972dbd7c1" d="M120.1,414.28,116.4,375s20.07-16.39,44,.23l-2.81,38.48Z"/>
            <polygon class="fa6b7e92-e2a3-46b7-b9f8-733ad722ae6f" points="121.25 379.57 124.51 397.38 137.06 397.4 136.18 378.19 121.25 379.57"/>
            <polygon class="fa6b7e92-e2a3-46b7-b9f8-733ad722ae6f" points="155.24 379.2 153.3 397.15 140.78 397.81 140.23 378.59 155.24 379.2"/>
            <polygon class="fa6b7e92-e2a3-46b7-b9f8-733ad722ae6f" points="124.53 400.35 137.08 400.37 137.14 409.62 124.6 409.26 124.53 400.35"/>
            <polygon class="fa6b7e92-e2a3-46b7-b9f8-733ad722ae6f" points="152.75 400.39 140.21 400.37 140.28 409.63 152.82 409.3 152.75 400.39"/>
          </g>
          <g>
            <path class="ad73dfab-dc8c-44f6-aea1-f10d596aa4a8" d="M261.65,416.71l2.59-35.52-2.48-9.1a143.42,143.42,0,0,1-40.56,38.69l5.83,6.38Z"/>
            <path class="a2223669-600c-416c-85b2-761851a42aca" d="M217.54,374.81l.71-2.91s19.87-16.41,43.53.19L259,410.56Z"/>
            <path class="e4c0c066-0ec8-41ca-bde0-2f7972dbd7c1" d="M221.24,414.09l-3.7-39.28s20.06-16.39,44,.24l-2.81,38.47Z"/>
            <polygon class="fa6b7e92-e2a3-46b7-b9f8-733ad722ae6f" points="222.39 379.38 225.65 397.19 238.19 397.21 237.32 378 222.39 379.38"/>
            <polygon class="fa6b7e92-e2a3-46b7-b9f8-733ad722ae6f" points="256.37 379.01 254.44 396.96 241.92 397.62 241.37 378.4 256.37 379.01"/>
            <polygon class="fa6b7e92-e2a3-46b7-b9f8-733ad722ae6f" points="225.67 400.16 238.22 400.18 238.28 409.43 225.74 409.07 225.67 400.16"/>
            <polygon class="fa6b7e92-e2a3-46b7-b9f8-733ad722ae6f" points="253.89 400.2 241.35 400.18 241.41 409.44 253.95 409.11 253.89 400.2"/>
          </g>
          <path class="a1f2754c-6776-4c6a-bc3a-9fc15888041f" d="M6.72,340q.88,5.82,1.76,11.63l301.59-12.76q-4.87-7.82-9.77-15.61Z"/>
          <path class="f0440fe2-a523-478a-b43d-aad7ece4ba9c" d="M81.2,254.07l-16.12,21.7L6.72,340l302.07-12.2-11.63-84.67Z"/>
          <path class="a1f2754c-6776-4c6a-bc3a-9fc15888041f" d="M904,336.94q-.88,5.82-1.76,11.63L600.65,335.81l9.77-15.61Z"/>
          <path class="f0440fe2-a523-478a-b43d-aad7ece4ba9c" d="M829.52,251l16.13,21.7L904,336.94l-302.06-12.2,11.62-84.67Z"/>
          <polygon class="ad73dfab-dc8c-44f6-aea1-f10d596aa4a8" points="325.49 442.82 77.33 449.47 77.44 446.5 77.44 446.5 81.66 446.01 325.68 437.59 325.49 442.82"/>
          <polygon class="e4c0c066-0ec8-41ca-bde0-2f7972dbd7c1" points="321.31 441.44 75.35 446.39 74.37 441.52 75.89 441.49 77.43 441.46 321.6 436.21 321.31 441.44"/>
        </g>
        <path class="e73ec00b-b773-45fb-a021-c0c46b4addfc" d="M592,468.67s43.91-236.79,53.32-267.55c0,0-125.46-141.46-191.32-156.83A440.14,440.14,0,0,0,379.1,91.57c-14.82,11.6-22.74,19.34-40.69,35.18S294,165.2,259.53,191.9c9,42.73,18.42,85.37,27.83,128,14.51,65.73,30.19,134.92,34.89,148.76Z"/>
        <path class="b63cafe5-99af-41fa-8885-23de4e3db025" d="M636.29,244.53q44.65.51,90.92,1.95,52.9,1.68,103.64,4.5-1-6.66-1.94-13.31L639,231.7Q637.66,238.12,636.29,244.53Z"/>
        <path class="b63cafe5-99af-41fa-8885-23de4e3db025" d="M272.07,248.6q-45,.5-91.55,2Q127.27,252.23,76.17,255q1-6.64,2-13.3l191.18-6Z"/>
        <path class="a52efca6-c785-4c8a-ab72-237fa1c6f019" d="M638.77,241.34s8.4-39.11,10.5-46c0,0-128.13-144.47-195.39-160.18q-37.28,25.68-75.56,54c-43.82,32.45-80.55,63.78-118.79,95.7l9.78,50.89L457.08,95.81Z"/>
        <g>
          <ellipse class="a52efca6-c785-4c8a-ab72-237fa1c6f019" cx="459.03" cy="153.15" rx="25.21" ry="23.85"/>
          <ellipse class="a4f2d110-280a-47a8-bd90-e62cf8504e82" cx="455.97" cy="145.92" rx="25.21" ry="23.85"/>
          <ellipse class="fea06887-70cc-414e-a8bd-72d77c407a1b" cx="455.97" cy="148.81" rx="25.21" ry="23.85"/>
          <ellipse class="fe751f29-4dba-4936-92ab-75c9d103af78" cx="455.97" cy="148.81" rx="20.62" ry="19.51"/>
          <ellipse class="ee706256-33cb-4107-9516-45b3ce31c1e3" cx="455.97" cy="148.09" rx="20.62" ry="18.79"/>
          <polygon class="f0440fe2-a523-478a-b43d-aad7ece4ba9c" points="456.25 150.79 460.57 150.84 467.73 144.17 458.18 147.12 456.25 150.79"/>
          <polygon class="f0440fe2-a523-478a-b43d-aad7ece4ba9c" points="455.21 151.2 453.68 146.47 455.21 133.85 456.74 146.47 455.21 151.2"/>
        </g>
        <g>
          <path class="a52efca6-c785-4c8a-ab72-237fa1c6f019" d="M513.57,468.67l18.82-148.39a110.31,110.31,0,0,0-34.5-29.67C485.34,272.8,466.5,266.55,454,275.77l47,192.9Z"/>
          <path class="a2223669-600c-416c-85b2-761851a42aca" d="M523,326.22l1.77-15.08S464.52,240,391.28,308.41l0,8.91Z"/>
          <path class="e4c0c066-0ec8-41ca-bde0-2f7972dbd7c1" d="M507.3,468.67l16.45-149.54s-60.36-70.07-132.5-1.81L403.8,468.67Z"/>
          <polygon class="ab21181f-a3cb-4ff6-8c3a-92b607924f2b" points="513.57 323.25 463.39 316.27 463.39 404.41 504.16 404.41 513.57 323.25"/>
          <polygon class="ab21181f-a3cb-4ff6-8c3a-92b607924f2b" points="502.35 413.41 464.26 414.25 464.96 459.77 498.53 459.44 502.35 413.41"/>
          <polygon class="ab21181f-a3cb-4ff6-8c3a-92b607924f2b" points="400.66 323.25 450.84 316.27 450.84 404.41 410.07 404.41 400.66 323.25"/>
          <polygon class="ab21181f-a3cb-4ff6-8c3a-92b607924f2b" points="411.88 413.41 449.97 414.25 449.28 459.77 415.7 459.44 411.88 413.41"/>
          <ellipse class="a2223669-600c-416c-85b2-761851a42aca" cx="455.55" cy="280.22" rx="17.25" ry="16.32"/>
          <ellipse class="e4c0c066-0ec8-41ca-bde0-2f7972dbd7c1" cx="455.55" cy="289.12" rx="17.25" ry="16.32"/>
        </g>
        <g>
          <g>
            <polygon class="a52efca6-c785-4c8a-ab72-237fa1c6f019" points="604.52 335.12 585.71 424.15 548.07 421.19 548.07 415.25 598.25 329.19 604.52 335.12"/>
            <polygon class="a2223669-600c-416c-85b2-761851a42aca" points="599.7 329.32 598.85 334.9 544.93 412.28 548.07 326.22 599.7 329.32"/>
            <polygon class="e4c0c066-0ec8-41ca-bde0-2f7972dbd7c1" points="599.11 332.5 582.57 418.22 544.93 415.25 548.07 329.19 599.11 332.5"/>
            <polygon class="fa6b7e92-e2a3-46b7-b9f8-733ad722ae6f" points="591.9 341.95 585.34 376.58 570.35 375.19 573.13 340.37 591.9 341.95"/>
            <polygon class="fa6b7e92-e2a3-46b7-b9f8-733ad722ae6f" points="584.49 381.35 578.54 413.08 567.1 412.05 570.12 379.46 584.49 381.35"/>
            <polygon class="fa6b7e92-e2a3-46b7-b9f8-733ad722ae6f" points="553.06 337.29 551.61 372.41 565.59 373.92 570.53 339.33 553.06 337.29"/>
            <polygon class="fa6b7e92-e2a3-46b7-b9f8-733ad722ae6f" points="552.23 377.06 551.21 409.27 562.62 410.61 566.68 378.15 552.23 377.06"/>
          </g>
          <g>
            <path class="a52efca6-c785-4c8a-ab72-237fa1c6f019" d="M605,301.89l8.72-56.61-6.1-5.12s-31.88,32.57-56.45,50.45l3.13,5.93Z"/>
            <path class="a2223669-600c-416c-85b2-761851a42aca" d="M609.13,244.29l-.68-4s-25.18-24.09-58.72-4v52.18Z"/>
            <path class="e4c0c066-0ec8-41ca-bde0-2f7972dbd7c1" d="M600.27,296.91l8.86-52.62s-25.45-24.08-59.39-4v52.18Z"/>
            <polygon class="fa6b7e92-e2a3-46b7-b9f8-733ad722ae6f" points="602.13 249.97 595.98 273.68 579.06 272.47 582.13 246.64 602.13 249.97"/>
            <polygon class="fa6b7e92-e2a3-46b7-b9f8-733ad722ae6f" points="556.33 246.13 557.17 270.54 573.99 272.66 576.63 246.79 556.33 246.13"/>
            <polygon class="fa6b7e92-e2a3-46b7-b9f8-733ad722ae6f" points="595.66 277.68 578.74 276.47 577.74 288.95 594.7 289.69 595.66 277.68"/>
            <polygon class="fa6b7e92-e2a3-46b7-b9f8-733ad722ae6f" points="557.59 274.96 574.51 276.17 573.51 288.65 556.63 286.96 557.59 274.96"/>
          </g>
        </g>
        <g>
          <g>
            <polygon class="a52efca6-c785-4c8a-ab72-237fa1c6f019" points="373.8 329.19 377.01 420.11 335.37 423.14 332.16 411.02 367.4 323.13 373.8 329.19"/>
            <polygon class="a2223669-600c-416c-85b2-761851a42aca" points="314.49 326.29 315.36 331.99 370.42 411.02 367.22 323.13 314.49 326.29"/>
            <polygon class="e4c0c066-0ec8-41ca-bde0-2f7972dbd7c1" points="315.1 329.54 331.99 417.08 370.42 414.05 367.22 326.16 315.1 329.54"/>
            <polygon class="fa6b7e92-e2a3-46b7-b9f8-733ad722ae6f" points="322.46 339.19 329.15 374.56 344.47 373.14 341.63 337.58 322.46 339.19"/>
            <polygon class="fa6b7e92-e2a3-46b7-b9f8-733ad722ae6f" points="330.03 379.43 336.1 411.83 347.79 410.78 344.7 377.5 330.03 379.43"/>
            <polygon class="fa6b7e92-e2a3-46b7-b9f8-733ad722ae6f" points="362.13 334.43 363.61 370.3 349.32 371.84 344.28 336.52 362.13 334.43"/>
            <polygon class="fa6b7e92-e2a3-46b7-b9f8-733ad722ae6f" points="362.98 375.05 364.02 407.95 352.37 409.31 348.22 376.16 362.98 375.05"/>
          </g>
          <g>
            <path class="a52efca6-c785-4c8a-ab72-237fa1c6f019" d="M370.6,292.82V235.23l-4.82-4s-24.53,40.34-49.63,58.6l3.2,6.06Z"/>
            <path class="a2223669-600c-416c-85b2-761851a42aca" d="M304.86,239.45l.7-4.08s25.71-24.6,60-4.12l0,53.29Z"/>
            <path class="e4c0c066-0ec8-41ca-bde0-2f7972dbd7c1" d="M313.91,293.19l-9.05-53.74s26-24.59,60.65-4.1v53.29Z"/>
            <polygon class="fa6b7e92-e2a3-46b7-b9f8-733ad722ae6f" points="312.01 245.25 318.29 269.47 335.57 268.23 332.44 241.86 312.01 245.25"/>
            <polygon class="fa6b7e92-e2a3-46b7-b9f8-733ad722ae6f" points="358.78 241.34 357.92 266.26 340.75 268.42 338.05 242.01 358.78 241.34"/>
            <polygon class="fa6b7e92-e2a3-46b7-b9f8-733ad722ae6f" points="318.62 273.56 335.9 272.32 336.92 285.06 319.6 285.82 318.62 273.56"/>
            <polygon class="fa6b7e92-e2a3-46b7-b9f8-733ad722ae6f" points="357.49 270.77 340.22 272.01 341.24 284.75 358.48 283.03 357.49 270.77"/>
          </g>
        </g>
        <g>
          <polygon class="f94aa795-86ee-4d0a-bca0-f6fa8923cbe8" points="452.85 24.02 454.31 55.63 667.87 214.4 677.02 199.97 452.85 24.02"/>
          <path class="f94aa795-86ee-4d0a-bca0-f6fa8923cbe8" d="M454.1,23.79c-.49,10.53.7,21.3.21,31.84-71.18,52.92-144,105.62-215.23,158.54l-9.16-14.43Z"/>
          <polygon class="bcfd13f4-2300-4beb-9c92-2dace52d32f3" points="453.82 12.88 224.78 191.85 229.92 199.74 454.1 23.79 453.82 12.88"/>
          <polygon class="bcfd13f4-2300-4beb-9c92-2dace52d32f3" points="453.82 12.88 681.89 191.76 676.75 199.64 452.57 23.69 453.82 12.88"/>
        </g>
      </g>
      <g>
        <rect class="a75179c5-f216-4225-9d68-bfe37124d93c" x="373.6" y="190.29" width="160.15" height="48.22"/>
        <rect class="f57f5ea2-9dba-44d0-8156-e59b5fd9953c" x="380.48" y="194.37" width="147.43" height="40.54"/>
        <g>
          <path class="b87b4ae4-0c5f-4dad-8e91-5efea988a4cb" d="M401.75,230.63a13.72,13.72,0,0,1-11.62-5.72,71.55,71.55,0,0,1,4.63-6.29c2.13,3.92,7.22,5.76,8.93,3.92,1.39-1.45,0-3.78-4.44-5.72-4.21-1.84-8.52-4-8.65-8.88-.1-2.81,1.66-7.21,7.54-7.6a12.5,12.5,0,0,1,12.31,7.25,48.75,48.75,0,0,0-6.53,3.82,4.83,4.83,0,0,0-4.07-3.29,1.63,1.63,0,0,0-1.8,1.89c.18,1.89,2.12,2.55,5.46,3.73,4.95,1.68,7.82,4.62,7.91,8.27C411.51,227.81,406.42,230.63,401.75,230.63Z"/>
          <path class="b87b4ae4-0c5f-4dad-8e91-5efea988a4cb" d="M428.5,228.91c-2.82,2.16-7.13,1.94-9.58.7-3.38-1.71-6.25-5-6.85-12.88-.65-8.13,2.55-12.92,6.06-14.77a10.37,10.37,0,0,1,9.49-.35c3.75,1.76,4.54,5.5,4.54,10.33a39.55,39.55,0,0,0-7.41.88c-.18-3.16-1-4.83-2.5-4.75s-3.93,2.73-3.84,8.27c.09,5.89,2,7.78,3.33,8.09,1.67.35,3.2-1.19,3.2-3.61a49.64,49.64,0,0,1,7.77-.48A9.63,9.63,0,0,1,428.5,228.91Z"/>
          <path class="b87b4ae4-0c5f-4dad-8e91-5efea988a4cb" d="M445.81,230.41a102.71,102.71,0,0,0,1.11-11.92,54.06,54.06,0,0,0-6.25-.13,67,67,0,0,0,1.48,12.88,83.81,83.81,0,0,0-9.07-.22c1.76-7.16,1.67-23.65.37-30.07,0,0,3.94-.13,8,.09a96.22,96.22,0,0,0-.83,12.92c1.48,0,3.84-.22,6.38-.48a114.43,114.43,0,0,0-.65-14.33,78,78,0,0,0,8,.4c-1.66,8.08-1.8,22.64.37,30.33C450.3,230,445.81,230.41,445.81,230.41Z"/>
          <path class="b87b4ae4-0c5f-4dad-8e91-5efea988a4cb" d="M465.85,230.71c-5.42,0-10.92-4.92-10.55-15.16.37-9.54,4.9-14.6,10-14.77,3.8-.14,9.08,3.29,10.46,14.15S471.31,230.71,465.85,230.71Zm-.74-21.54c-1.85.27-3.47,3.92-3.57,7.83-.09,4.48,1.49,8.48,4.36,8.44s4.11-3.74,3.42-8.93C468.76,212.6,467.1,208.82,465.11,209.17Z"/>
          <path class="b87b4ae4-0c5f-4dad-8e91-5efea988a4cb" d="M487.88,230.71c-5.42,0-10.92-4.92-10.55-15.16.37-9.54,4.9-14.6,10-14.77,3.8-.14,9.08,3.29,10.46,14.15S493.34,230.71,487.88,230.71Zm-.74-21.54c-1.85.27-3.47,3.92-3.56,7.83-.1,4.48,1.48,8.48,4.35,8.44s4.11-3.74,3.42-8.93C490.79,212.6,489.13,208.82,487.14,209.17Z"/>
          <path class="b87b4ae4-0c5f-4dad-8e91-5efea988a4cb" d="M498.52,231.33c1.62-6.6,1.21-23.12-.32-29.72a28.63,28.63,0,0,0,8-1.67c-.69,6.29-.93,17-.09,23.21a29.48,29.48,0,0,1,8.88-2,52.76,52.76,0,0,0,0,7.39A82.1,82.1,0,0,0,498.52,231.33Z"/>
        </g>
      </g>
    </g>
    <g>
      <polygon class="bbfbb4d8-39c7-4a74-b568-5d86be1e75c2" points="525.94 476.87 533.21 485.03 340.55 485.03 347.82 476.87 525.94 476.87"/>
      <rect class="e6cc1ec7-4b64-4ef7-be5e-cb7cd08a9c1c" x="340.55" y="485.03" width="192.67" height="8.16"/>
      <polygon class="bbfbb4d8-39c7-4a74-b568-5d86be1e75c2" points="514.26 466.12 520.58 473.21 353.18 473.21 359.5 466.12 514.26 466.12"/>
      <rect class="e6cc1ec7-4b64-4ef7-be5e-cb7cd08a9c1c" x="353.18" y="473.21" width="167.4" height="7.09"/>
    </g>
  </g>
  <g class="a3a3d84f-d454-45fa-b68f-82e0b5f5388b">
    <rect class="f7bde311-77f7-4f32-845f-48617eeb45ac" x="-2053.59" y="134.79" width="2160" height="417.85" transform="translate(-1947.18 687.43) rotate(-180)"/>
    <g>
      <rect class="bea1e87e-cf7a-4c93-8810-ce389359c97c" x="-2053.59" y="-3.7" width="2160.71" height="571.37" transform="translate(-1946.47 563.97) rotate(-180)"/>
      <path class="a15c90b1-3ade-4fb6-835f-e40178f04288" d="M-1767.72,405.81l-.11,162.09L42,568.72l.09-132.65-11.44.29L30,448.8H19.7l.35-19.4-60.57,1.44v16.1l-70.87.33-2.94-216.74-15.72-1.1-19,3.46v-2h2.74V228.7h-2.23V223h-1.19v6.23h-4.11v-5.12h-1.54v5.31l-3.44,1.09.34,1.65h.87v1.47l-3.26.36v11l-11.8-1.11v-2h-.69v1.66h-2.55v-19l-13.86-.55v-2.2h-1.37V216.4h1.2v-2h-4.12v8h-1v2.74h-8.72V221h-3.43v2.74h1.18l-.17,2.38-17.44,2,.15,28.38-10.63,1.27v3.3l-1.88,2,2.14,152.86-11.66-.73-7.19.17-.68-17.76-7.68-.73v-9.71l-32.7-.38v-4l-24.81-.21v-4h-2.76V355.11l-1.78-1.93V341h-7.45v-9.34h-3.06v.91h-3.77V317.75l-.86.73v2.94l-2.06.36v1.1h-2.57l-.17-1.84-1.37-.36v1.83l-3.59.18-.51-1.65-2.06-.18-.51,1.65-4.11.18.18-1.47-1.89.19v1.09h-3.42v-2.19l-.87-.37-.17-2.92h-1.54l-.36,5.49-4.26.18-.18-4.21-1,.18-.5,4-3.08.91-.17-4.94h-.68l-.18,5.12-3.24.56-.69-1.47v-2L-379,321l-.17,3.84.68,1.1-.17,8.6-5.65.37-1,8.6-.87.18-.69,1.46L-390,345l-.15-15.56-1.55.18-.52,16.11-15.24.72,1.5,75.05H-408v1.65l-.7.56.17,2.18,1,.38.32,15.93-2,.54v2h1.38l.16,5.86s-10.55-.17-11-.19c.52,0-.34,2.2-.34,2.2l-6,.18.86,2.19,1,.56h1.53l-.69,10.8-1.38.91v11.9h-2.55l-1.1-140.95-17.11-3.13v-8.41l-19.68-3.13v-1.29h-5.14l-.69.92-46.71,2v9.33L-535.45,336l.35-16.47-6.49-2.2-2.73-29.84-57.35.7-3.77,31.49-10.62.18.19-3.48-1.9.17-1.85-25.26-7.71-1.1.38-50-22.77.17L-664.26,242l0-71.77-10.44-3.12h-5.82V164.2h-1v2.56l-15.58-.56v-3.3h-1v2.93l-9.24-.55v1.83h-1.88v-1.65h-11.64l-14.21,5.13-19.5-1.48-5,2.56,1.78,151.21-13.87,2-.49-22.16-7.37.19,0-18.49-19.17-2.2.54-24.72-2.4-1.47-9.77-1.1,0-24.35-1.88-1.09s-8.73-1.48-8.21-1.48-25.31-20.86-25.31-20.86h-5.14l-25.51,20.48-1.22.37-.34,1.1-8,1.46.16,25.08-12.33,1.64.14,41.2-24.63.53-.69-7h-1.2l-.34,4.57H-926l.16,2.39L-970,300.07l-.18,6.59-13.72-1.46-.48-12.64-9.75-.37L-997.88,282l-.34-4.78h-2.21l-.87,3.85H-1005v-.91h-4.29v1.09l-23.27-2.94v-1.47h1.19v-3.1h-7.34v4.76l-6,.2v-2l-2.57-2.75-2.23.18v2.75l1.37.19-.68,2-1.38.19-.52,3.84.17,1.46-1.21-.17v3.47h-1v2.56h-10.61l.8,77.62h7l.15,24.88-4.1.38,0,30.2-3.61.17,0-18.11-2-.37-.18-5.86-18,1.1v-1.84h-18.14v1.63h-7.88l-.09-97.38-1.19-.92-2.25-.18-.17-.93-1.71-.35-.49-.74-5.3-.18-.18-1.1-3.78-.19V287.38l-6-3.11-36.82,1.25v-1.27h-4.09v1.09l-17.1-.19-.53,15-15.41.17.58,178.85-2.76-.19-.09-121.92-1.2-.18-.17-2.74-10.09.18v2.37h-2.91v-1.47H-1231v1.29h-1.72l.39-63.53-14-6.24.19-10.61-12.67-6.41-38.35.54v4.93l-2.56-.17-3.24-1.29v-1.64h-1.37l-.86.91-8.9-.2V271h.85l2-2.11-1.54-1.64L-1315,265h-2.58v-5.67h-1.87v6.05l-21.57-.39V263.3h-1.89v2.38l-2.91,1.29-.17,2,2.23,3.67-.36,8.23-1.71,1.1h-4.28l.18.73-1.56.18V295h-8.89v-1.63l-1.54-1.66-2.4,1.84-.39,60.77-2.57.73v13.73l-7.35.54.15,14.46-3.25.54-.34,7.52-1.88.73-.18,28-1.21.18.11,67.73-.66-.18-.53-1.82h-5.64v1.46c0,.72-.52.72-.52.72l-.17,1.84-10.79-.19.53-10.06s1.88-2,2.9-2.2l.34-1.27h-4.1v-1.28l-3.93.18v.54l-1.37.74-.17.55h-3.43l-.34-.93a4.67,4.67,0,0,0-1.88-1.09c-1.21-.36-1.87,1.47-1.87,1.47h-3.95l.52-11.17-2.06-.37.21-43-3.27-3.11h-10.94l-.27-107.83-3.6-.19v-9.88l-2.37.18-.18,2-1.53-.37.17-1.83-16.26.17-7-21.6-.34-3.66-.68-.73-.84-5.87-1,5.87-1,1.09-.52,3.3-6.17,22.5-38.67.91-5.15.18-5,4.21-.37,22.51-1.54.37-.69,1.82-1.54.2.11,79.63h-12l-7.71,5.48.16,11.54-3.59.54.17,11.17-6.35.18,0,33.31h-3.07v-4.58l-18.15-1.28v-7.86l-1.55-1.66h-2.39l-.34-17-6.49-4.59h-3.26v-1.64h1.73V421.72l-8.57-5-38.18.53v14.82l1.9,1.84-.18,2.92h-10.44l-.18,7.15,1,.73L-1645,446l-12.17,10.44-7,.18v16.29h-8.21l0,40.27h-14l.08-107.82h-13.86v-1.83h-1.89v2h-2.37V403.9H-1706v1.65h-4.27v-3.11h-1v2.93l-16.1.72v-2.38l-1.37-.55-.52.55-.32,1.47h-2.42v-3.67h-3.76v3.3h-2.56v-2h-4.1v1.84l-.7-.19-2.4-2.21v3.12Z"/>
    </g>
  </g>
</svg>
