<svg xmlns="http://www.w3.org/2000/svg" xmlns:xlink="http://www.w3.org/1999/xlink" width="653.31" height="374.58" viewBox="0 0 653.31 374.58">
  <defs>
    <style>
      .f0f70e01-a28e-43bb-b055-c5e01c009d73 {
        isolation: isolate;
      }

      .ba810c7f-86fc-4a5d-8ceb-627875b18c5e {
        opacity: 0.3;
      }

      .e88a331b-bde2-4641-9de5-dba7349873d4 {
        fill: #547c8c;
      }

      .e866d4d8-d78b-44bb-8458-e194218e5b92 {
        fill: #6d382d;
      }

      .f5bc04cc-05a5-4899-abcd-244d739ae3ab {
        fill: #8e4c46;
      }

      .a7c47c71-6158-4e17-b9bd-ff30085038f6 {
        fill: #ea323b;
      }

      .a1cd2d64-3d48-4ccc-af95-7758cc21c231 {
        fill: #6b0d16;
      }

      .a7e9630e-27c0-4b24-acc3-fdc93a01a6f1, .b7419314-e313-4471-b4a6-1e55ce9078c4, .b75f3a7e-1e33-43c1-b232-a716f1f31697, .b81c73c5-4c8f-486f-a6d3-c4b1d553fc01, .bcd98e15-997a-4be8-a8e0-9241bbb45dcf, .ed34a80f-65bd-4dac-919b-a6fbd901fbfd, .ef537f58-65aa-4b0a-bf5f-2fc057d0e63a, .facee7bd-d5c0-4103-b75d-d0935cad6f80 {
        fill: none;
      }

      .a7e9630e-27c0-4b24-acc3-fdc93a01a6f1, .b7419314-e313-4471-b4a6-1e55ce9078c4 {
        stroke: #353535;
      }

      .a7e9630e-27c0-4b24-acc3-fdc93a01a6f1, .a96b87df-6e44-448b-94eb-b0e87bf8e9b7, .a9ab11ef-14c2-4d67-8b10-08ce6bbaf21a, .b06bef6b-3bcb-49c4-9318-0bed6bfc6e57, .b7419314-e313-4471-b4a6-1e55ce9078c4, .b75f3a7e-1e33-43c1-b232-a716f1f31697, .b81c73c5-4c8f-486f-a6d3-c4b1d553fc01, .bbc9ab82-c72d-479f-81e5-570e2827637b, .bcd98e15-997a-4be8-a8e0-9241bbb45dcf, .bd66eb4c-fee2-4f34-87f2-f150aed37e7f, .ed34a80f-65bd-4dac-919b-a6fbd901fbfd, .ef537f58-65aa-4b0a-bf5f-2fc057d0e63a, .facee7bd-d5c0-4103-b75d-d0935cad6f80 {
        stroke-miterlimit: 10;
      }

      .a7e9630e-27c0-4b24-acc3-fdc93a01a6f1 {
        stroke-width: 0.15px;
      }

      .a96b87df-6e44-448b-94eb-b0e87bf8e9b7, .febfcfcb-0411-4016-ac71-535348042de6 {
        fill: #fff;
      }

      .b89d64f7-dc42-49bd-baec-c54668681050 {
        fill: #9dd3df;
      }

      .bcb54041-3dc2-447d-87f6-1c9e34f35974 {
        opacity: 0.5;
      }

      .ae4223dc-1c6d-4694-a8d3-bccfdf8038f0 {
        fill: #69c3e2;
      }

      .b5e22eda-c552-4007-a0af-02da4eeb1d6a {
        fill: #7c4340;
      }

      .ab33b4b2-cb3f-4f31-9c66-c2bddaced910, .af9d7566-79ca-41cc-9452-49bcc91c9539, .b6de7103-0ae0-4ebc-adb9-40b5f59a96b7 {
        fill: #8acfec;
      }

      .ab33b4b2-cb3f-4f31-9c66-c2bddaced910, .b6de7103-0ae0-4ebc-adb9-40b5f59a96b7 {
        mix-blend-mode: screen;
      }

      .b6de7103-0ae0-4ebc-adb9-40b5f59a96b7 {
        opacity: 0.33;
      }

      .adb11772-3467-4b76-b4e8-fe819a97b6a0 {
        fill: #353837;
      }

      .bc851a1c-83e4-4138-8ec2-ecf7df098746 {
        fill: #474948;
      }

      .ac8baf28-ca67-40f3-9aaf-58f7eff2cb73 {
        fill: #4d4f4e;
      }

      .bff1a12f-cabd-4c88-87d2-859e2b16ea1b {
        fill: #f4bb21;
      }

      .ab33b4b2-cb3f-4f31-9c66-c2bddaced910 {
        opacity: 0.35;
      }

      .ae926b63-273b-4fa5-86d7-61c1ca88d55e, .bd66eb4c-fee2-4f34-87f2-f150aed37e7f {
        fill: #7f35af;
      }

      .a47e0cef-0105-4b9f-b9ca-e2d6f4959751, .a9ab11ef-14c2-4d67-8b10-08ce6bbaf21a, .b06bef6b-3bcb-49c4-9318-0bed6bfc6e57 {
        fill: #f9dad2;
      }

      .a9ab11ef-14c2-4d67-8b10-08ce6bbaf21a, .b06bef6b-3bcb-49c4-9318-0bed6bfc6e57, .bcd98e15-997a-4be8-a8e0-9241bbb45dcf {
        stroke: #7f430d;
      }

      .a9ab11ef-14c2-4d67-8b10-08ce6bbaf21a, .b7419314-e313-4471-b4a6-1e55ce9078c4, .b81c73c5-4c8f-486f-a6d3-c4b1d553fc01, .bbc9ab82-c72d-479f-81e5-570e2827637b, .bd66eb4c-fee2-4f34-87f2-f150aed37e7f, .ef537f58-65aa-4b0a-bf5f-2fc057d0e63a, .facee7bd-d5c0-4103-b75d-d0935cad6f80 {
        stroke-width: 0.25px;
      }

      .b81c73c5-4c8f-486f-a6d3-c4b1d553fc01, .bd66eb4c-fee2-4f34-87f2-f150aed37e7f, .ed34a80f-65bd-4dac-919b-a6fbd901fbfd {
        stroke: #625f28;
      }

      .aad82cd6-4d14-43ca-9342-6cf453bc0c83 {
        fill: #602f20;
      }

      .e9429409-44a8-4847-b318-8f698e447ac5 {
        fill: #915244;
      }

      .e19cb43b-2f79-45b9-b0ec-cd2ebd22db2f {
        fill: #285b6d;
      }

      .fdfdb954-98ce-4f49-8fd8-f5b6ba66eb04 {
        fill: #f4bb67;
      }

      .b1e66e4b-09fb-469c-8aa4-6aa9ede6f249 {
        fill: #353535;
      }

      .f3792ba7-72a6-4d73-9a2d-771ad85354c3 {
        fill: #4c4e4f;
      }

      .fb7bc219-747e-4a9c-904b-b4718b66b920 {
        fill: #808384;
      }

      .ae96ada7-5d8e-4c8e-99aa-3859cb9cd14b {
        fill: #d16b07;
      }

      .fb9da786-fc32-4e8a-8f0f-978bf96a934b {
        fill: #f7a701;
      }

      .b9ce58e4-84b7-4de8-bf55-f544b8d37f01 {
        fill: #fbb100;
      }

      .b3c89507-89ea-467f-a9ef-17095c05fbb4 {
        fill: #4d5354;
      }

      .b454b731-9a31-4469-87de-0346008db32b {
        fill: #e89c04;
      }

      .b75f3a7e-1e33-43c1-b232-a716f1f31697, .ed34a80f-65bd-4dac-919b-a6fbd901fbfd {
        stroke-width: 0.5px;
      }

      .b75f3a7e-1e33-43c1-b232-a716f1f31697, .ef537f58-65aa-4b0a-bf5f-2fc057d0e63a {
        stroke: #683927;
      }

      .f4509d93-7bc5-44df-9fe9-79e802f4462a {
        fill: #a1bfce;
      }

      .a365aaf9-3b6c-4917-965d-c3578240aebe {
        fill: #495261;
      }

      .f3ac607e-10ff-4edf-aac9-934ec29b5f21 {
        fill: #333a44;
      }

      .b8dc0e65-07d3-4544-809a-5869142d8346 {
        fill: #323944;
      }

      .e9f890d0-baef-4963-ae0b-ebad8ecd2c74 {
        fill: #44413f;
      }

      .f06adbf1-c4a8-4935-a5de-e78399ca340c {
        fill: #9b4a3d;
      }

      .eb21c7ba-9d44-43fc-8006-2e6dfb52c85a {
        fill: #625f28;
      }

      .facee7bd-d5c0-4103-b75d-d0935cad6f80 {
        stroke: #5d228c;
      }

      .bbc9ab82-c72d-479f-81e5-570e2827637b {
        fill: #4f1812;
        stroke: #330904;
      }

      .a96b87df-6e44-448b-94eb-b0e87bf8e9b7, .b06bef6b-3bcb-49c4-9318-0bed6bfc6e57, .bcd98e15-997a-4be8-a8e0-9241bbb45dcf {
        stroke-width: 0.1px;
      }

      .a9e9106e-4d45-4389-a0f2-4e25e2b43154 {
        fill: #eab8ad;
      }

      .ef76ecce-0334-4595-bf14-b85f6a200b28 {
        fill: #7f430d;
      }

      .a100146b-b9be-4eaa-b828-d5cfaa883e5d {
        fill: #421111;
      }

      .a96b87df-6e44-448b-94eb-b0e87bf8e9b7 {
        stroke: #3d2d16;
      }

      .b6a38165-0ed9-428a-8317-d3cfa871e48a {
        fill: #3d2d16;
      }

      .a1bfbc5e-a5f1-4fcd-a228-19b81b91ad79 {
        fill: #8c3d35;
      }

      .a97765de-93cb-4e65-8150-445a937d838a {
        fill: #f9988f;
      }

      .fd21e221-1ca8-4bb9-b850-0cc00cf633c1 {
        fill: #d15346;
      }

      .a14b3810-b0ef-476c-baa8-70c6c21d07e8 {
        fill: #fff7f4;
      }

      .b907d093-1385-4298-b621-caa1ae796658 {
        fill: #d26653;
      }

      .fe30f68f-23db-4362-9c20-7ad1c57e2f4c {
        fill: #2b1d0b;
      }

      .efee2402-10b6-4c25-b2b3-cf33e9a409bf {
        fill: #bc7d71;
      }

      .a51fc9dd-fa46-4ff0-9f9f-1e40022308cf {
        fill: url(#f15353f5-9cd1-4683-aa98-73b18a17017d);
      }

      .ee32479b-5286-4c95-be2c-bf71e44d4ab6 {
        fill: #fefcfc;
      }

      .bd503bce-27ee-4be7-91b8-495bfc6cc731 {
        fill: #bddae0;
      }

      .bae40a9a-cf24-4431-9c84-5cd2c21d6a56 {
        fill: url(#b130e316-caff-481a-aeb2-fa28f19c55d7);
      }

      .a8224cd9-f241-4db5-817d-adb2afd9f63c {
        fill: url(#be1705f4-73d4-494d-981f-33ac58163047);
      }

      .a8445cd5-b3e2-4725-a5ca-20f709940213 {
        fill: #ffbb03;
      }

      .be312704-c86f-4f23-aaa5-ccf1f2e61d25 {
        fill: #e68705;
      }

      .a3680cee-3420-4af8-81dd-a104d4ea37cd {
        fill: #f8a400;
      }

      .e61e57a8-7f2b-4e17-999b-2b9c739c5ddf {
        fill: url(#a094a9d7-0dbd-4025-92fd-cd7063fb5915);
      }

      .b2319fae-51f4-4fe9-921a-85d291a0a72d {
        fill: #2c282c;
      }

      .a92b9236-9456-4cd7-a2af-75966261ea6d {
        fill: #f9f9f9;
      }

      .f9ce4a77-59d3-4742-bf17-f99e5e1de068 {
        fill: #0600fc;
      }
    </style>
    <linearGradient id="f15353f5-9cd1-4683-aa98-73b18a17017d" x1="272.82" y1="216.57" x2="272.82" y2="246.83" gradientUnits="userSpaceOnUse">
      <stop offset="0" stop-color="#76765b"/>
      <stop offset="0.14" stop-color="#635f45"/>
      <stop offset="0.34" stop-color="#4f452e"/>
      <stop offset="0.55" stop-color="#41331c"/>
      <stop offset="0.76" stop-color="#382812"/>
      <stop offset="1" stop-color="#35240f"/>
    </linearGradient>
    <radialGradient id="b130e316-caff-481a-aeb2-fa28f19c55d7" cx="258.11" cy="313.78" r="13.47" gradientUnits="userSpaceOnUse">
      <stop offset="0" stop-color="#ffff40"/>
      <stop offset="0.44" stop-color="#dae122"/>
      <stop offset="1" stop-color="#aebf00"/>
    </radialGradient>
    <radialGradient id="be1705f4-73d4-494d-981f-33ac58163047" cx="97.06" cy="121.46" r="13.47" gradientTransform="translate(-14.88 190.88)" xlink:href="#b130e316-caff-481a-aeb2-fa28f19c55d7"/>
    <linearGradient id="a094a9d7-0dbd-4025-92fd-cd7063fb5915" x1="83.74" y1="216.55" x2="83.74" y2="242.86" xlink:href="#f15353f5-9cd1-4683-aa98-73b18a17017d"/>
  </defs>
  <g class="f0f70e01-a28e-43bb-b055-c5e01c009d73">
    <g id="fb7c8975-a216-4151-b481-0bdc8408c7c1" data-name="Layer 1">
      <g>
        <g>
          <polygon class="ba810c7f-86fc-4a5d-8ceb-627875b18c5e" points="3.83 341.95 340.62 372.39 619.86 328.05 420.22 329.5 3.83 341.95"/>
          <path class="e88a331b-bde2-4641-9de5-dba7349873d4" d="M72.77,56.44,71,56.83c0,2.27.1,4.5.13,6.77q.54,27.36,1,54.72.3,16.58.62,33.14c.26,13.19.48,26.38.74,39.56a45,45,0,0,1,14.16-11.6c.91-.45,1.78-.87,2.66-1.26V53C84.66,54.05,78.79,55.18,72.77,56.44Z"/>
          <path class="e866d4d8-d78b-44bb-8458-e194218e5b92" d="M72.15,118.32A19.39,19.39,0,0,1,64.76,117a18.76,18.76,0,0,1-3.36-1.75,9.85,9.85,0,0,1-1-.68,17.84,17.84,0,0,1-2-1.75c-.06-3.72-.1-7.42-.16-11.14V100.6c0-1.17-.06-2.33-.06-3.5-.07-4.4-.13-8.78-.2-13.18-.06-5.35-.16-10.7-.23-16a17.63,17.63,0,0,1,4.86-3,15.24,15.24,0,0,1,3-.91,17.63,17.63,0,0,1,5.57-.36c0,2.34.1,4.7.13,7,.1,4.38.17,8.75.26,13.12,0,1.17,0,2.34.07,3.5v1c.1,5,.19,9.88.29,14.84,0,.29,0,.61,0,.9Q72,111.19,72.15,118.32Z"/>
          <path class="f5bc04cc-05a5-4899-abcd-244d739ae3ab" d="M77.46,42.41c-.81,3.41-1.26,6.61-1.75,9.24-1,.32-2,.68-2.94,1v3.76L71,56.83c0,2.27.1,4.5.13,6.77a17.63,17.63,0,0,0-5.57.36A23.59,23.59,0,0,1,77.46,42.41Z"/>
          <g>
            <g>
              <ellipse class="a7c47c71-6158-4e17-b9bd-ff30085038f6" cx="69.54" cy="216.77" rx="7.11" ry="6.06" transform="translate(-150.91 273.56) rotate(-86.66)"/>
              <path class="a1cd2d64-3d48-4ccc-af95-7758cc21c231" d="M75.51,217.12c-.23,3.92-3.12,6.94-6.46,6.74-2.87-.17-5.13-2.64-5.56-5.81a5.64,5.64,0,0,0,4.25,2.47c3.34.2,6.23-2.82,6.46-6.74a8.11,8.11,0,0,0-.06-1.64A7.82,7.82,0,0,1,75.51,217.12Z"/>
              <ellipse class="a7e9630e-27c0-4b24-acc3-fdc93a01a6f1" cx="69.54" cy="216.77" rx="7.11" ry="6.06" transform="translate(-150.91 273.56) rotate(-86.66)"/>
            </g>
            <ellipse class="febfcfcb-0411-4016-ac71-535348042de6" cx="71.67" cy="212.17" rx="1.36" ry="1.93" transform="translate(-122.9 101.29) rotate(-41.66)"/>
            <ellipse class="febfcfcb-0411-4016-ac71-535348042de6" cx="73.65" cy="214.8" rx="0.78" ry="1.11" transform="translate(-20.6 8.21) rotate(-5.6)"/>
          </g>
          <g>
            <path class="b89d64f7-dc42-49bd-baec-c54668681050" d="M298.68,52.65l-12-2.3s-11.67-2-18-2.76c-7.17-.9-13.72-1.52-20.08-2-1.71-.13-3.43-.23-5.15-.33-4.15-.22-8.27-.42-12.46-.52-1.72-.06-3.43-.09-5.19-.12-2.92-.07-5.9-.13-9-.17l-4.9-.09h-.29c-4.57-.07-9.47-.13-14.76-.13-1.65,0-3.37,0-5.15,0-4.35,0-8.92.07-13.79.17-1.68.06-3.4.09-5.19.16-7.39.26-15.37.68-24,1.33a583.83,583.83,0,0,0-58.8,7.48V178.51c.58-.26,1.17-.49,1.75-.71a.53.53,0,0,1,.2-.07c.64-.22,1.26-.45,1.88-.64a1,1,0,0,1,.42-.13,8.59,8.59,0,0,1,1.13-.36,4.24,4.24,0,0,1,.88-.23c.45-.13.87-.22,1.3-.32s.84-.16,1.23-.26a3,3,0,0,0,.32-.07,3.33,3.33,0,0,1,.72-.13l.87-.16,2.92-.29c5.77-.61,11.68-1.16,17.78-1.65h0c.58,0,1.13-.1,1.72-.13,2.43-.19,4.89-.39,7.39-.52l1.53-.1c1.65-.13,5-.32,5-.32s16.18-.71,16.25-.65l2.72-.1c.62,0,1.27,0,2-.06a3.74,3.74,0,0,0,.58,0h.23a3.76,3.76,0,0,0,.58,0c.2,0,.39,0,.59,0,.39,0,.77,0,1.16-.07l1.11-.1,6.48.07s2.73,0,4.12,0h2.76c.81,0,1.62,0,2.43,0a0,0,0,0,1,0,0s0,0,0,0l0,0h.13l0,0h0l0,0,0,0,0,0,0,0,0,0h.06a.46.46,0,0,1,.2,0,.06.06,0,0,1,.09,0,.1.1,0,0,1,.13,0,.11.11,0,0,1,.13,0,.11.11,0,0,1,.13,0,.15.15,0,0,1,.16,0s0,0,.07,0,0,0,.06,0a.73.73,0,0,1,.36,0,6.37,6.37,0,0,1,1.07,0c1.07,0,2.17,0,3.24,0,1.5,0,3,0,4.51.07h1l2.11.06c.45,0,.9,0,1.36,0l3.5.1h.29c2.79.1,5.61.19,8.47.32,1.91.07,3.86.17,5.8.3,0,0,0,0,.07,0h0a.06.06,0,0,1,.1,0s.06,0,.13,0a.36.36,0,0,0,.16,0c.49,0,1,.06,1.43.06.78,0,1.55.07,2.33.13l1.43.1s0,0,.06,0c1.4.07,2.79.13,4.16.23l4.12.29c.22,0,.42,0,.64,0,1.72.1,3.44.23,5.19.39.52,0,1,.07,1.53.1,3.66.29,7.33.65,10.93,1l5.15.55c2.21.23,4.42.49,6.62.75,2.56.26,5.09.58,7.59.9,2,.26,3.86.49,5.77.75,17.19,2.3,33.38,5.12,48.46,8.23q0-8.37.1-16.72c0-2.72.06-5.44.06-8.16v-.13c0-2.43,0-4.83.07-7.26,0-1.46,0-2.88,0-4.34,0-1.1,0-2.17,0-3.27,0-6.65.1-13.29.13-19.93.16-16.07.26-32.1.39-48.17v-.13c0-2.33,0-4.67.07-7L318,57.18C312.6,55.76,298.68,52.65,298.68,52.65Z"/>
            <g class="bcb54041-3dc2-447d-87f6-1c9e34f35974">
              <path class="ae4223dc-1c6d-4694-a8d3-bccfdf8038f0" d="M192.42,78.6l-24.56-3.82,9.46,66.16,15,.25C192.39,129.11,192.49,93.15,192.42,78.6Z"/>
              <path class="b5e22eda-c552-4007-a0af-02da4eeb1d6a" d="M329.82,99.05l-2.72-.46-24.92-4-2.72-.42L272,89.65l-2.69-.45L236.87,84l-2.72-.46-39-6.35-2.72-.45-26.56-4.31,9.65,70.76,16.85.29,2.78.06,38.94.72,2.79.06,32.3.59,2.79,0,27.44.52,2.78,0,40.21.74.55-45Zm10.56,44.74-10.56-.2-2.79,0-24.85-.45-2.78,0L272,142.59l-2.79,0-32.3-.59-2.79,0-38.94-.68-2.78-.07-15-.25-9.46-66.16,24.56,3.82,2.72.42,39,6.06,2.72.42,32.4,5.06L272,91l27.5,4.28,2.72.42,24.92,3.88,2.72.43,11.11,1.71Z"/>
              <g>
                <path class="af9d7566-79ca-41cc-9452-49bcc91c9539" d="M234.15,85.08V96.26c0,8.52,0,18.08,0,26.47v4.14c0,6.42,0,11.83,0,15.07l-14.77-.26-4.08-.06-20.09-.36V79Z"/>
                <path class="b6de7103-0ae0-4ebc-adb9-40b5f59a96b7" d="M195.14,127.85l39-39v7.39l-39,39Z"/>
                <polygon class="af9d7566-79ca-41cc-9452-49bcc91c9539" points="234.15 85.99 234.15 87.35 195.14 126.39 195.14 125.03 234.15 85.99"/>
                <polygon class="b6de7103-0ae0-4ebc-adb9-40b5f59a96b7" points="234.12 122.73 215.23 141.62 219.31 141.68 234.12 126.88 234.12 122.73"/>
              </g>
              <path class="af9d7566-79ca-41cc-9452-49bcc91c9539" d="M192.36,141.19l-15-.25-9.46-66.16,24.56,3.82C192.49,93.15,192.39,129.11,192.36,141.19Z"/>
              <g>
                <path class="af9d7566-79ca-41cc-9452-49bcc91c9539" d="M269.27,90.56v9.94c0,7.26,0,15.13-.07,22.33,0,8,0,15.16,0,19.73l-19.34-.36-13-.23V85.5L253,88l5.58.84,4.31.68,1.71.26Z"/>
                <path class="b6de7103-0ae0-4ebc-adb9-40b5f59a96b7" d="M258.58,88.87l-21.71,21.71v-6.22c5-5.15,12.18-12.54,16.13-16.33Z"/>
                <polygon class="b6de7103-0ae0-4ebc-adb9-40b5f59a96b7" points="264.6 89.81 236.87 117.54 236.87 115.57 262.88 89.55 264.6 89.81"/>
                <path class="b6de7103-0ae0-4ebc-adb9-40b5f59a96b7" d="M269.27,100.5c0,7.26,0,15.13-.07,22.33L249.83,142.2l-13-.23V132.9Z"/>
              </g>
              <g>
                <path class="af9d7566-79ca-41cc-9452-49bcc91c9539" d="M299.46,95.26c0,6.67,0,14.06,0,21.12,0,2.27,0,4.5,0,6.64,0,8.75,0,16.26,0,20l-19.67-.35-6.54-.1-1.23,0V91l8.36,1.29,9,1.4,2.95.45h0l2.59.42Z"/>
                <polygon class="b6de7103-0ae0-4ebc-adb9-40b5f59a96b7" points="289.29 93.67 271.96 111 271.96 100.67 280.31 92.28 289.29 93.67"/>
                <polygon class="b6de7103-0ae0-4ebc-adb9-40b5f59a96b7" points="294.86 94.54 272.18 117.22 271.96 117.03 271.96 114.4 292.24 94.12 292.27 94.12 294.86 94.54"/>
                <path class="b6de7103-0ae0-4ebc-adb9-40b5f59a96b7" d="M273.19,142.62l26.24-26.24c0,2.27,0,4.5,0,6.64l-19.7,19.7Z"/>
              </g>
              <g>
                <path class="af9d7566-79ca-41cc-9452-49bcc91c9539" d="M327.1,99.56v3.83c0,5.73,0,11.63,0,17.17v5.5c0,7.78,0,14.29,0,17.5l-17.17-.32-5.38-.1-2.3,0V95.68L317.35,98l7.32,1.14Z"/>
                <polygon class="b6de7103-0ae0-4ebc-adb9-40b5f59a96b7" points="324.67 99.17 302.18 121.66 302.18 113.2 317.35 98.04 324.67 99.17"/>
                <polygon class="b6de7103-0ae0-4ebc-adb9-40b5f59a96b7" points="302.18 126.88 327.1 101.96 327.1 103.39 302.18 128.3 302.18 126.88"/>
                <polygon class="b6de7103-0ae0-4ebc-adb9-40b5f59a96b7" points="327.06 120.56 327.06 126.06 309.86 143.24 304.48 143.14 327.06 120.56"/>
              </g>
              <path class="b5e22eda-c552-4007-a0af-02da4eeb1d6a" d="M236.87,85.5V142l-2.79,0c0-9.88.1-39.62.07-56.86Z"/>
              <path class="b5e22eda-c552-4007-a0af-02da4eeb1d6a" d="M195.14,79v62.24l-2.78-.07c0-12.08.13-48,.06-62.59Z"/>
              <path class="b5e22eda-c552-4007-a0af-02da4eeb1d6a" d="M272,91v51.61l-2.79,0c0-10.63.1-35.51.1-52Z"/>
              <path class="b5e22eda-c552-4007-a0af-02da4eeb1d6a" d="M302.18,95.68v47.43l-2.78,0c0-7.67.06-30.29.06-47.81Z"/>
              <path class="b5e22eda-c552-4007-a0af-02da4eeb1d6a" d="M329.82,100v43.6l-2.79,0c0-6.58.07-26.83.07-44Z"/>
            </g>
            <path class="adb11772-3467-4b76-b4e8-fe819a97b6a0" d="M244.5,140.42h65.85c4.14,0,7.49,4.18,7.49,9.35v32.15c0,5.17-3.36,9.35-7.5,9.35H234.08Z"/>
            <path class="bc851a1c-83e4-4138-8ec2-ecf7df098746" d="M238.22,140.43c.33,0,45.77,0,63.8,0a7.26,7.26,0,0,1,7.26,7.26v25a7.26,7.26,0,0,1-7.26,7.26H228.13Z"/>
            <path class="ac8baf28-ca67-40f3-9aaf-58f7eff2cb73" d="M209.13,140.43c.32,0,45.76,0,63.8,0a7.25,7.25,0,0,1,7.25,7.26v25a7.26,7.26,0,0,1-7.26,7.26H199Z"/>
            <path class="bff1a12f-cabd-4c88-87d2-859e2b16ea1b" d="M318.52,207.42c-30.36-4.28-80.64-10.24-136.07-11.08-43.25-.65-71.28,2.1-96.09,6.44-7.45,1.3-13.58,2.56-17.76,3.47-2.43-3.73-2.46-8.26-.19-11.28a8.83,8.83,0,0,1,4.73-3v.2l2.85-.59h.07a562.44,562.44,0,0,1,216.31-.19h.1a1.76,1.76,0,0,0,.39.06q13.13,2.63,24.69,5.45C317.87,200.42,318.19,203.88,318.52,207.42Z"/>
            <g class="bcb54041-3dc2-447d-87f6-1c9e34f35974">
              <g>
                <path class="b5e22eda-c552-4007-a0af-02da4eeb1d6a" d="M99.17,176.78V69.55A6.84,6.84,0,0,1,107,62.69L154.28,70a6.91,6.91,0,0,1,5.8,6.87v96.63Z"/>
                <path class="af9d7566-79ca-41cc-9452-49bcc91c9539" d="M157.36,82.09v91.56l-53.58,3.14V75.23c0-4,3.27-7.13,6.9-6.52l15.49,2.56,8,1.33,13.5,2.24,3.05.52,1.59.26A6.4,6.4,0,0,1,157.36,82.09Z"/>
                <path class="ab33b4b2-cb3f-4f31-9c66-c2bddaced910" d="M103.78,103c5.15-5,23-23,30.35-30.42l-8-1.33L103.78,93.63Z"/>
                <path class="ab33b4b2-cb3f-4f31-9c66-c2bddaced910" d="M150.69,75.36l-46.91,46.91v-4c12.57-12.31,35.54-34.73,43.86-43.44Z"/>
              </g>
              <path class="ab33b4b2-cb3f-4f31-9c66-c2bddaced910" d="M157.36,86.47v15.71c-13.83,13.8-42.05,42-53.58,53.55V140.05Z"/>
            </g>
            <path class="e88a331b-bde2-4641-9de5-dba7349873d4" d="M101.69,211.69l-1,40.33c-.06,2.82-2.07,5.09-4.47,5.09H68.48V224.26a4.22,4.22,0,0,0,.62,0c3.4,0,6.15-3.27,6.15-7.29s-2.75-7.29-6.15-7.29a4.22,4.22,0,0,0-.62,0v-2.65l28.61-.78C99.65,206.25,101.75,208.71,101.69,211.69Z"/>
            <g>
              <path class="febfcfcb-0411-4016-ac71-535348042de6" d="M162.31,43.52v127h-.06l0,0a0,0,0,0,0,0,0s0,0,0,0c-.81,0-1.62,0-2.43,0h-2.59V43.69c1.72-.07,3.4-.1,5-.17Z"/>
              <path class="febfcfcb-0411-4016-ac71-535348042de6" d="M181.23,43.39V170.88h-.45l-3.5-.1-1.2,0V43.36c1.72,0,3.4,0,5,0Z"/>
              <path class="febfcfcb-0411-4016-ac71-535348042de6" d="M201.16,43.62V171.85h-.1s0,0-.07,0l-1.42-.1c-.78-.06-1.56-.13-2.33-.13-.39,0-.85,0-1.27-.06v-128h.13l4.89.1Z"/>
              <path class="febfcfcb-0411-4016-ac71-535348042de6" d="M215.31,43.91V172.79h-.16c-1.68-.16-3.37-.29-5-.39V43.78c1.69,0,3.37.07,5,.13Z"/>
              <path class="febfcfcb-0411-4016-ac71-535348042de6" d="M232.91,44.76V174.44a.34.34,0,0,0-.17,0c-1.65-.2-3.33-.36-5-.52V44.43c1.66.1,3.34.2,5,.33Z"/>
            </g>
            <path class="ae926b63-273b-4fa5-86d7-61c1ca88d55e" d="M144.28,172c-.17,0-.33,0-.49,0-.68,0-1.39,0-2.07.06Z"/>
            <path class="ae926b63-273b-4fa5-86d7-61c1ca88d55e" d="M152.89,171.45h-.09c-2.34-.29-3.34-.85-3.83-1.36a.46.46,0,0,0,.2,0l0,0a1,1,0,0,0,.29.07s.2,0,2.46-.13a3.75,3.75,0,0,0,.75,1.16A1.23,1.23,0,0,0,152.89,171.45Z"/>
            <path class="febfcfcb-0411-4016-ac71-535348042de6" d="M195.75,164a56,56,0,0,1-4.17,5.57,8.34,8.34,0,0,1-2.11,1.88h-1c-1.53,0-3-.07-4.51-.07-1.07,0-2.17,0-3.24,0a6.37,6.37,0,0,0-1.07,0,.69.69,0,0,0-.35,0s0,0-.07,0,0,0-.06,0a.15.15,0,0,0-.16,0,.1.1,0,0,0-.13,0,.1.1,0,0,0-.13,0,.1.1,0,0,0-.13,0s-.07,0-.1,0a.48.48,0,0,0-.29,0s0,0-.07,0,0,0-.06,0h0a.23.23,0,0,0-.2,0s0,0-.06,0c-.81,0-1.62,0-2.43,0h-2.76c-1.39,0-2.75,0-4.11,0a3.76,3.76,0,0,0,0-.58c.2-4.8-2.85-9.3-4.15-11l-.06-.07a.63.63,0,0,0-.16-.23c-.2-.25-.33-.38-.33-.38a10.94,10.94,0,0,1-.9-1,69.69,69.69,0,0,1,9.68-.2,24.84,24.84,0,0,1,5.19.78,7,7,0,0,1,3,1.56s-.13-13.61,4.79-14.52c2.08-.39,4.22,2.79,6,6.61a83.18,83.18,0,0,1,4.14,11.6Z"/>
            <path class="febfcfcb-0411-4016-ac71-535348042de6" d="M196.73,171.19a2.48,2.48,0,0,1-.26.42l0,0-3.49-.1c-.46,0-.91,0-1.36,0l-2.11-.06a8.34,8.34,0,0,0,2.11-1.88,56,56,0,0,0,4.17-5.57l0-.07a83.18,83.18,0,0,0-4.14-11.6c-1.75-3.82-3.89-7-6-6.61-4.92.91-4.79,14.52-4.79,14.52a7,7,0,0,0-3-1.56,24.84,24.84,0,0,0-5.19-.78,69.69,69.69,0,0,0-9.68.2c-.68-.91-1.72-2.27-2.85-3.63-2-2.33-4.35-4.6-5.84-4.24-2.33.55-3,3.43-.22,5.89,0,0,0,0,0,0s.1.09.13.12a.71.71,0,0,1-.2-.12.08.08,0,0,1-.06,0,39.33,39.33,0,0,0-11.6-4.76c2.59-3.92,7.68-6.64,11.41-8.2a6.39,6.39,0,0,1,.81-.35c.55-.23,1-.39,1.49-.55-.36.42-.26,1.84,0,3.43.06.32.13.68.19,1s.13.68.23,1v0a2.09,2.09,0,0,0,.13.49,1,1,0,0,0,.1.45v0a6.13,6.13,0,0,0,.22.87c.29,1.13.52,1.94.52,1.94l2.63-3.43.81-1.07a12.09,12.09,0,0,0,1.36.2c.32.06.64.06.94.09h.09c2,2.27,4,4.6,6,6.87a18.26,18.26,0,0,0,8.56-6.41,15.24,15.24,0,0,0,2.3-4.83,18.06,18.06,0,0,0,.55-5.15c.35.1.68.23,1,.35a34.2,34.2,0,0,1,9.89,5.67,18.21,18.21,0,0,1,1.71,1.69,20.32,20.32,0,0,1,3.44,5.51C199.64,157.65,200,166.13,196.73,171.19Z"/>
            <path class="a9ab11ef-14c2-4d67-8b10-08ce6bbaf21a" d="M122.31,161.86c.06.06.16.13.23.19,1.94,1.65-.23,3-2.08,3.5,0,0-.06,0-.09-.06a3.91,3.91,0,0,0-1.4.16,1.76,1.76,0,0,0-.39.06c1.53,3.08-2.26,3.47-2.49,3.7-.45,2-4,1.36-5,1.16h0a1.48,1.48,0,0,0-.35-.06c-.17,1.78-2.92,2-4,1.55-.32-.13-.75-.87-1.1-2.07a14.4,14.4,0,0,1,3.4-13.87c5-5.21,13.74-4.86,17.33-4.5-.87.26-1.81.58-2.72.94a26.07,26.07,0,0,0-3.72,1.78C114.5,158.46,122.25,161.89,122.31,161.86Z"/>
            <path class="bd66eb4c-fee2-4f34-87f2-f150aed37e7f" d="M168.54,170.77a3.76,3.76,0,0,1,0,.58c-1.3,0-2.63,0-3.92.06-.78,0-1.56,0-2.3,0-1.07,0-2.11,0-3.14.06h-.56a3.89,3.89,0,0,0,.59,0l.58,0c.39,0,.78,0,1.17-.07l1.1-.1a27.61,27.61,0,0,0,4.57-.84Z"/>
            <path class="febfcfcb-0411-4016-ac71-535348042de6" d="M153.12,171.67q-4.12.11-8.36.3a2.58,2.58,0,0,0-.48,0l-2.56.09c-1.62.07-3.24.17-4.83.23-.55-3.14-2.11-6.22-1.72-7.39s3.44-4.73,3.82-5.15c1.17.17,2.27.36,3.34.62a36.4,36.4,0,0,1,3.76,1.07,4,4,0,0,1,.39-.91,1.31,1.31,0,0,0,.35,0,2.76,2.76,0,0,0-.12.33,3.56,3.56,0,0,0-.13.52,3.79,3.79,0,0,0-.13,1,3.08,3.08,0,0,0,0,.52,1.59,1.59,0,0,0,.06.38c0,.07,0,.17.07.23a.11.11,0,0,1,0,.07.74.74,0,0,0,.1.16s0,0,0,0a.94.94,0,0,0,.16.2,1.85,1.85,0,0,0,.33.29s0,.06,0,.09a2.85,2.85,0,0,0-.19,1.46.7.7,0,0,0,.06.33s0,.06,0,.13a1.79,1.79,0,0,0,.13.32.78.78,0,0,0,.22.39c.1.13.16.26.26.39s.23.19.33.29,0,.06.06.06,0,0,.07,0l.29.19a1.61,1.61,0,0,0,0,1.1c.07.13.1.29.2.49a1.93,1.93,0,0,0,.32.52c.49.51,1.49,1.07,3.83,1.36h.09A1.56,1.56,0,0,0,153.12,171.67Z"/>
            <path class="aad82cd6-4d14-43ca-9342-6cf453bc0c83" d="M205.38,138.6c-2.34-.26-4.77-.49-7.29-.62a131.93,131.93,0,0,0-16.43,0,.29.29,0,0,0,0,.16c-.35-.12-.68-.25-1-.35a12.43,12.43,0,0,0-1.33-.46c-.42-.12-.81-.25-1.13-.35l.77-.78a.94.94,0,0,0,.2-.16,27.45,27.45,0,0,0,5.34-8.94,4.4,4.4,0,0,0,.26-.65l-.16,1.26a4.31,4.31,0,0,0,4.57.07c.29-.16.58-.33.87-.52s.52-.42.78-.65a10.09,10.09,0,0,0,1.39-1.59,13.75,13.75,0,0,0,2.66-7.64,14,14,0,0,1,5.05,2.3C205.38,123.63,207.64,131.27,205.38,138.6Z"/>
            <path class="e9429409-44a8-4847-b318-8f698e447ac5" d="M316.72,185.67c0,3.53-.07,7.09-.1,10.62-5.86-1.26-14.29-2.95-24.59-4.44a1.76,1.76,0,0,1-.39-.06h-.09A562.49,562.49,0,0,0,75.23,192h-.07l-2.07.23c0-.36,0-.71,0-1.07a45,45,0,0,1,14.16-11.6c.9-.45,1.78-.87,2.65-1.26.59-.26,1.17-.49,1.75-.71a.4.4,0,0,1,.2-.07c.64-.23,1.26-.45,1.88-.65a1.13,1.13,0,0,1,.42-.13,8,8,0,0,1,1.13-.35,3.94,3.94,0,0,1,.88-.23c.45-.13.87-.23,1.29-.32s.84-.17,1.23-.26c.1,0,.23,0,.33-.07s.48-.09.71-.13.61-.13.87-.16l2.92-.29c5.77-.62,11.66-1.17,17.75-1.65h0c.58,0,1.13-.1,1.71-.13,2.43-.2,4.89-.39,7.39-.52l1.52-.1c1.65-.13,3.27-.23,5-.32l4.83-.23c.68,0,1.39,0,2.07-.06.16,0,.32,0,.49,0a2.58,2.58,0,0,1,.48,0q4.23-.2,8.36-.29l2.72-.1c.62,0,1.26,0,1.95-.06a3.74,3.74,0,0,0,.58,0h.78c1,0,2.07-.07,3.14-.07.74,0,1.52,0,2.3,0,1.29,0,2.59-.06,3.92-.06s2.72,0,4.11,0h2.76c.81,0,1.62,0,2.43,0,0,0,0,0,0,0s0,0,0,0a.11.11,0,0,1,.1,0,.12.12,0,0,1,.1,0h0l0,0,0,0,0,0,0,0a.1.1,0,0,1,.1,0,.34.34,0,0,1,.19,0s.06,0,.1,0a.09.09,0,0,1,.13,0,.09.09,0,0,1,.13,0,.09.09,0,0,1,.13,0,.12.12,0,0,1,.16,0s0,0,.06,0,0,0,.07,0a.53.53,0,0,1,.35,0,4.79,4.79,0,0,1,1.07,0c1.07,0,2.17,0,3.24,0,1.49,0,3,0,4.51.06h1c.71,0,1.39,0,2.11.07.45,0,.9,0,1.36,0l3.5.1h.29c2.78.09,5.6.19,8.45.32,1.91.07,3.86.16,5.8.29a.05.05,0,0,1,.07,0h0s.06,0,.1,0,.06,0,.13,0a.28.28,0,0,0,.16,0c.48,0,1,.06,1.42.06.78,0,1.56.06,2.34.13l1.42.1s0,0,.07,0c1.39.06,2.78.13,4.14.23l4.12.29c.22,0,.42,0,.65,0,1.71.1,3.43.23,5.18.39.52,0,1,.06,1.52.1,3.66.29,7.32.64,10.92,1,1.72.19,3.43.35,5.15.55,2.2.23,4.41.48,6.61.74,2.56.26,5.09.59,7.58.91,1.94.26,3.86.49,5.77.75C285.49,179.74,301.65,182.56,316.72,185.67Z"/>
            <path class="aad82cd6-4d14-43ca-9342-6cf453bc0c83" d="M218.4,160.33a60.61,60.61,0,0,1-1.68,12.22h-.07c-.49,0-1-.07-1.42-.07-.78-.06-1.56-.13-2.34-.13-.48-.06-1-.06-1.42-.09h-.16c-.07,0-.1,0-.13,0s-.07,0-.1,0,0,0,0,0a0,0,0,0,0-.07,0c-1.94-.13-3.89-.23-5.8-.29-2.85-.13-5.67-.23-8.45-.33h-.3l0,0a2.48,2.48,0,0,0,.26-.42c3.24-5.06,2.91-13.54,0-20.15a20.32,20.32,0,0,0-3.44-5.51,18.21,18.21,0,0,0-1.71-1.69,34.2,34.2,0,0,0-9.89-5.67.29.29,0,0,1,0-.16c3.14-.19,6.45-.29,9.92-.22,1.68,0,3.4,0,5.15.13.45,0,.9,0,1.36.06,2.52.13,4.95.36,7.29.62a19.92,19.92,0,0,1,6.09,2.13,14.16,14.16,0,0,1,4.34,3.73,8.48,8.48,0,0,1,.84,1.33C218.79,149.51,218.63,154,218.4,160.33Z"/>
            <path class="febfcfcb-0411-4016-ac71-535348042de6" d="M160.9,147.05l-3.44,4.5s-2.4-8.13-1.42-9.29c.87-.29,1.52-.52,1.87-.62Z"/>
            <path class="e19cb43b-2f79-45b9-b0ec-cd2ebd22db2f" d="M315.2,40.37a31,31,0,0,0-8.55-1.56c-3.08-.13-9-.35-13.8,2.82a15.59,15.59,0,0,0-2.56,2.17c-6.87-1.39-14.45-2.59-22.61-3.43a236.67,236.67,0,0,0-31.33-1.07V12.8c-18.4-.33-38-.1-58.58.87s-40,2.69-58.18,4.8v24A176.11,176.11,0,0,0,90.3,47.37c-5.38,1.36-10.4,2.91-15,4.53.49-2.62.94-5.83,1.75-9.23,1.52-6.61,4.31-13.9,10.92-18.89,22.32-16.85,49.76-18,119.54-21.06,54.14-2.33,80.9,3.4,91.75,9.66A19.48,19.48,0,0,1,304,16.3C309.83,22.71,313.62,33.14,315.2,40.37Z"/>
            <path class="fdfdb954-98ce-4f49-8fd8-f5b6ba66eb04" d="M649.48,116.86,329.26,43.57c-3.46-.77-6.9-1.58-10.36-2.36l-3.7-.84c-1.58-7.23-5.37-17.66-11.21-24.07Q424,40.69,550.6,73.35q43,11.18,84.79,22.87a35.59,35.59,0,0,1,14.09,20.64Z"/>
            <g>
              <path class="b1e66e4b-09fb-469c-8aa4-6aa9ede6f249" d="M397,366.47l-21.05.44c-.36.06-.69.09-1,.12l-.49,0c-.4,0-.79,0-1.18,0h-.3c-17.58-.24-31.94-20.47-33.68-46.31l12.27-1.8a66.23,66.23,0,0,1,1.28-14.18c1.9-9.86,6.72-22.52,18.66-31.14a46.64,46.64,0,0,1,13.31-6.61c-6.13,3.66-11.44,10-15.22,18a71,71,0,0,0-6.32,29.91c0,22.36,9.41,41.38,22.59,48.51A23.73,23.73,0,0,0,397,366.47Z"/>
              <path class="f3792ba7-72a6-4d73-9a2d-771ad85354c3" d="M431.48,314.92a74.39,74.39,0,0,1-2.76,20.25c-5,17.59-16.2,30.16-29.51,31.24h-.33l-1.87.06a23.73,23.73,0,0,1-11.18-3c-13.18-7.13-22.59-26.15-22.59-48.51A71,71,0,0,1,369.56,285c3.78-8,9.09-14.3,15.22-18a23.38,23.38,0,0,1,22.46-1.46C421.28,272,431.48,291.68,431.48,314.92Z"/>
              <path class="fb7bc219-747e-4a9c-904b-b4718b66b920" d="M418.44,315.54c0,16.46-8.53,29.91-19.3,30.8H399c-.3,0-.61,0-.93,0h-.19a14.28,14.28,0,0,1-6.69-1.82c-7.88-4.27-13.51-15.64-13.51-29,0-13,5.33-24.13,12.88-28.62a14.22,14.22,0,0,1,7.51-2.19C409.3,284.73,418.44,298.53,418.44,315.54Z"/>
              <path class="f3792ba7-72a6-4d73-9a2d-771ad85354c3" d="M409.34,316.16c0,8.09-4.19,14.7-9.49,15.14h-.09l-.45,0h-.1a7,7,0,0,1-3.29-.9c-3.87-2.09-6.64-7.68-6.64-14.26,0-6.39,2.62-11.86,6.33-14.07a7,7,0,0,1,3.7-1.08C404.85,301,409.34,307.8,409.34,316.16Z"/>
            </g>
            <g>
              <path class="b1e66e4b-09fb-469c-8aa4-6aa9ede6f249" d="M582.53,330.13l-13.71.29-.68.09-.32,0c-.26,0-.52,0-.77,0h-.19c-11.45-.17-20.8-13.8-21.94-31.22l8-1.22a46.62,46.62,0,0,1,.83-9.55c1.24-6.65,4.38-15.19,12.16-21a30.05,30.05,0,0,1,8.67-4.45c-4,2.46-7.46,6.71-9.91,12.1a49.11,49.11,0,0,0-4.13,20.16c0,15.08,6.13,27.9,14.72,32.71A15,15,0,0,0,582.53,330.13Z"/>
              <path class="f3792ba7-72a6-4d73-9a2d-771ad85354c3" d="M605,295.37c0,18.55-9.29,33.71-21,34.72h-.21l-1.22,0a15,15,0,0,1-7.28-2.05c-8.59-4.81-14.72-17.63-14.72-32.71a49.11,49.11,0,0,1,4.13-20.16c2.45-5.39,5.91-9.64,9.91-12.1a14.77,14.77,0,0,1,14.62-1C598.34,266.45,605,279.71,605,295.37Z"/>
              <path class="fb7bc219-747e-4a9c-904b-b4718b66b920" d="M596.49,295.8c0,11.09-5.56,20.16-12.57,20.76h-.13l-.6,0h-.13a9,9,0,0,1-4.35-1.22c-5.14-2.88-8.8-10.55-8.8-19.56,0-8.77,3.47-16.28,8.39-19.3a9.06,9.06,0,0,1,4.89-1.48C590.53,275,596.49,284.33,596.49,295.8Z"/>
              <path class="f3792ba7-72a6-4d73-9a2d-771ad85354c3" d="M590.56,296.21c0,5.45-2.73,9.91-6.18,10.21H584a4.46,4.46,0,0,1-2.14-.6c-2.52-1.42-4.32-5.19-4.32-9.62s1.7-8,4.12-9.48A4.39,4.39,0,0,1,584,286C587.64,286,590.56,290.58,590.56,296.21Z"/>
            </g>
            <path class="b1e66e4b-09fb-469c-8aa4-6aa9ede6f249" d="M351.75,306.9a73.4,73.4,0,0,0-1.27,14.81l-12.11,1.87Z"/>
            <path class="ae96ada7-5d8e-4c8e-99aa-3859cb9cd14b" d="M319.67,293.88v.45c-45.29,2.79-93.85,4.08-145.27,3.17-37.19-.64-72.76-2.39-106.58-4.92l.7-27c12.52,1,30,2.36,50.84,3.54,24.76,1.4,50,2.78,82.74,2.72,23.77,0,41.91-.83,59.31-1.58,23-1,42.59-2.28,57.67-3.41q.14,6.89.29,13.8C319.46,285.09,319.57,289.49,319.67,293.88Z"/>
            <path class="fb9da786-fc32-4e8a-8f0f-978bf96a934b" d="M318.43,207.47c-30.35-4.28-80.63-10.24-136.07-11.08-43.25-.65-71.27,2.1-96.09,6.44-7.45,1.3-13.57,2.56-17.75,3.47v.78l28.61-.78c2.56-.07,4.66,2.4,4.6,5.38l-1,40.33c-.06,2.82-2.07,5.09-4.47,5.09H68.52v8.52c41.44,3.56,86.34,5.77,134.29,5.77,41.43,0,80.5-1.62,117-4.38Q319.13,237.22,318.43,207.47Zm-9.33,47.88a5.28,5.28,0,0,1-5.18,5.38H258.76a5.26,5.26,0,0,1-5.19-5.25L252.41,214a5.32,5.32,0,0,1,5.31-5.58l46.3,1.14a5.31,5.31,0,0,1,5.08,5.38Z"/>
            <path class="b9ce58e4-84b7-4de8-bf55-f544b8d37f01" d="M445.33,301.13l-3.8.58q.18,5.46.35,10.92l-6.07.41a53.75,53.75,0,0,0-3.3-19.47c-.8-2.14-5.77-15.08-17.39-23.33a30.63,30.63,0,0,0-9.33-4.67,30.28,30.28,0,0,0-10.26-1,36.2,36.2,0,0,0-11.47,3,50.76,50.76,0,0,0-13,6.87,49.2,49.2,0,0,0-12.7,14.37,53,53,0,0,0-6.33,17.54,73.65,73.65,0,0,0-1.29,13.44c0,.57,0,1,0,1.37L338.56,323l-17.45,2.69-1.38-32,0-.45c-.2-8.78-.42-17.59-.62-26.37q-.65-29.79-1.34-59.55c-.33-3.53-.65-7-1-10.53.06,0,.1,0,.16,0l-.1-7.29c0-1.36,0-2.69-.06-4.05v-.33q0-8.35.1-16.71l128.32,7.29Z"/>
            <path class="b3c89507-89ea-467f-a9ef-17095c05fbb4" d="M319.67,294.33l-2.91.18c-44.46,2.66-92,3.88-142.36,3-37.19-.64-72.76-2.39-106.58-4.92l-8.33,3.5v27.08l3.11,3.11H321.07ZM113.11,318.27h-.2L69,317.14a5.37,5.37,0,0,1,.16-10.73h.13l43.9,1.17a5.35,5.35,0,0,1-.1,10.69Zm158.94.2H204.4a5,5,0,0,1,0-9.89h67.65a5,5,0,0,1,0,9.89Zm86.8-29.36-39.18,5.22,1.4,31.94,29.41-4.56Z"/>
            <path class="b9ce58e4-84b7-4de8-bf55-f544b8d37f01" d="M649.48,116.86q0,87.51-.07,175a13.8,13.8,0,0,1-11.21,11.76l-33.43,1.2h-.32a56.43,56.43,0,0,0,.32-6.16c0-20.76-9.95-37.61-22.22-37.61a14.34,14.34,0,0,0-8.17,2.66c-13.24,9.11-14,30.08-14,34.95a59.87,59.87,0,0,0,.43,7.52L499.18,309l.17-129.42,63.27,3.62,26.92,1.56,3,.16,27.31,1.59,2.82.16a4.27,4.27,0,0,0,4.5-4.31V133.28a4.3,4.3,0,0,0-3.46-4.27l-3.86-.75-30.26-5.77-90.19-17.17-23.94-4.56-3.73-.72-27.63-5.25L317.63,70.69l.1-13.61c-5.38-1.42-11.86-3-19.28-4.53a16.92,16.92,0,0,1,2.43-4.89c3.47.77,21.06,4.69,21.65,4.69.35-.06,7-2.46,6.73-8.78Z"/>
            <path class="b454b731-9a31-4469-87de-0346008db32b" d="M627.12,133.28v49.05a4.23,4.23,0,0,1-.29,1.59l-7-.52V131.92Z"/>
            <path class="b454b731-9a31-4469-87de-0346008db32b" d="M626.83,183.92a4.21,4.21,0,0,1-4.21,2.72l-2.82-.16-27.31-1.59-3-.16-26.92-1.56-63.27-3.62v-5.12l19.37,1.42,5.41.42,33.08,2.47,5.41.38,26.92,2,3,.23,27.31,2Z"/>
            <path class="b454b731-9a31-4469-87de-0346008db32b" d="M445.56,169.86v6.51l-128.7-7.29c0-2.75.06-5.54.06-8.29L363,164l6.49.45,56.62,4,6.49.45Z"/>
            <path class="b454b731-9a31-4469-87de-0346008db32b" d="M445.18,94.79V100l-12.86-2.26-6.42-1.14L370,86.76l-6.41-1.13L318.7,77.69c0-2.33,0-4.67.07-7Z"/>
            <path class="e9429409-44a8-4847-b318-8f698e447ac5" d="M445.18,94.79v206l27.64-2.36V100ZM468.54,288.6a3.7,3.7,0,0,1-3.34,3.69l-11.85,1.36A3.74,3.74,0,0,1,449.2,290q-.49-45-1-89.9a3.75,3.75,0,0,1,3.6-3.76l13-.49a3.69,3.69,0,0,1,3.85,3.73Q468.55,244.08,468.54,288.6Zm.55-106a4.05,4.05,0,0,1-4,4.08H452.31a4.06,4.06,0,0,1-4.08-4.08V108.4a4.07,4.07,0,0,1,5-4L466,107.53a4,4,0,0,1,3.11,4Z"/>
            <polygon class="b454b731-9a31-4469-87de-0346008db32b" points="368.82 86.76 368.82 164.48 362.41 164.03 362.41 85.63 368.82 86.76"/>
            <polygon class="b454b731-9a31-4469-87de-0346008db32b" points="431.19 97.78 431.19 168.95 424.77 168.5 424.77 96.64 431.19 97.78"/>
            <polygon class="b454b731-9a31-4469-87de-0346008db32b" points="524.13 114.33 524.13 176.27 518.72 175.85 518.72 113.33 524.13 114.33"/>
            <polygon class="b454b731-9a31-4469-87de-0346008db32b" points="562.62 121.42 562.62 179.13 557.21 178.74 557.21 120.42 562.62 121.42"/>
            <polygon class="b454b731-9a31-4469-87de-0346008db32b" points="592.49 126.9 592.49 181.36 589.54 181.13 589.54 126.35 592.49 126.9"/>
            <line class="ed34a80f-65bd-4dac-919b-a6fbd901fbfd" x1="524.13" y1="114.33" x2="524.13" y2="113.68"/>
            <line class="ed34a80f-65bd-4dac-919b-a6fbd901fbfd" x1="562.62" y1="183.4" x2="562.62" y2="183.17"/>
            <path class="e9429409-44a8-4847-b318-8f698e447ac5" d="M475.41,100.76V298.15l23.94-2.07V105.32Zm19.95,185.89a3.49,3.49,0,0,1-2.65,3.66l-9.53,1.33c-1.75.26-3.3-1.42-3.33-3.63q-.39-44.51-.78-89.06c0-2,1.26-3.63,2.88-3.72l10.37-.49c1.68-.06,3.11,1.59,3.11,3.69Q495.39,242.56,495.36,286.65Zm.07-103.9c0,2.17-1.43,3.89-3.21,3.89h-9.94c-1.79,0-3.21-1.72-3.21-3.89V112.06c0-2.49,1.94-4.37,3.95-3.76l10,2.92a3.8,3.8,0,0,1,2.46,3.79Z"/>
            <polygon class="b9ce58e4-84b7-4de8-bf55-f544b8d37f01" points="475.41 100.76 475.41 299.16 471.68 299.16 471.68 100.04 475.41 100.76"/>
            <path class="b454b731-9a31-4469-87de-0346008db32b" d="M627.12,133.28l-7.32-1.36-27.31-5-3-.55-26.92-4.92-5.41-1-33.08-6.09-5.41-1-19.37-3.57v-4.44l90.19,17.17,30.26,5.77,3.86.75A4.3,4.3,0,0,1,627.12,133.28Z"/>
            <g>
              <polygon class="af9d7566-79ca-41cc-9452-49bcc91c9539" points="619.8 131.92 619.8 183.4 604.22 182.24 600.07 181.94 592.49 181.36 592.49 126.9 606.75 129.53 612.93 130.66 616.01 131.21 617.66 131.53 619.8 131.92"/>
              <polygon class="b6de7103-0ae0-4ebc-adb9-40b5f59a96b7" points="612.93 130.96 592.49 151.37 592.49 144.05 606.75 129.82 612.93 130.96"/>
              <polygon class="b6de7103-0ae0-4ebc-adb9-40b5f59a96b7" points="619.8 138.22 592.49 165.49 592.49 176.51 619.8 149.2 619.8 138.22"/>
              <path class="b6de7103-0ae0-4ebc-adb9-40b5f59a96b7" d="M617.66,131.83,592.49,157V154.9c4.8-4.7,19.73-19.37,23.52-23.39Z"/>
              <path class="b6de7103-0ae0-4ebc-adb9-40b5f59a96b7" d="M619.8,162.51V167l-15.58,15.58-4.15-.29C604.28,178.06,616.27,166.08,619.8,162.51Z"/>
              <polygon class="b75f3a7e-1e33-43c1-b232-a716f1f31697" points="617.66 132.03 616.01 131.7 612.93 131.15 606.75 130.02 592.49 127.39 592.49 144.54 592.49 151.86 592.49 155.39 592.49 157.53 592.49 165.99 592.49 177 592.49 181.85 600.07 182.44 600.35 182.46 604.5 182.75 619.8 183.89 619.8 167.44 619.8 163 619.8 149.69 619.8 138.71 619.8 132.41 617.66 132.03"/>
            </g>
            <path class="f4509d93-7bc5-44df-9fe9-79e802f4462a" d="M238.21,294.16H115.63V212.65a199.08,199.08,0,0,1,122.58,0Z"/>
            <path class="e88a331b-bde2-4641-9de5-dba7349873d4" d="M309.1,214.92v40.43a5.28,5.28,0,0,1-5.18,5.38H258.76a5.26,5.26,0,0,1-5.19-5.25L252.41,214a5.32,5.32,0,0,1,5.31-5.58l46.3,1.14A5.31,5.31,0,0,1,309.1,214.92Z"/>
            <g>
              <g>
                <path class="a365aaf9-3b6c-4917-965d-c3578240aebe" d="M228.87,277.79c0,3.48-1.62,6.27-3.59,6.27H122.9c-2,0-3.59-2.79-3.59-6.27s1.62-6.33,3.59-6.33H225.28C227.25,271.46,228.87,274.31,228.87,277.79Z"/>
                <path class="a365aaf9-3b6c-4917-965d-c3578240aebe" d="M228.87,262.11c0,3.48-1.62,6.27-3.59,6.27H122.9c-2,0-3.59-2.79-3.59-6.27s1.62-6.33,3.59-6.33H225.28C227.25,255.78,228.87,258.63,228.87,262.11Z"/>
                <path class="a365aaf9-3b6c-4917-965d-c3578240aebe" d="M228.87,245.18c0,3.47-1.62,6.27-3.59,6.27H122.9c-2,0-3.59-2.8-3.59-6.27s1.62-6.33,3.59-6.33H225.28C227.25,238.85,228.87,241.7,228.87,245.18Z"/>
                <path class="a365aaf9-3b6c-4917-965d-c3578240aebe" d="M228.87,228.76c0,3.47-1.62,6.27-3.59,6.27H122.9c-2,0-3.59-2.8-3.59-6.27s1.62-6.28,3.59-6.28H225.28C227.25,222.48,228.87,225.28,228.87,228.76Z"/>
              </g>
              <path class="f3ac607e-10ff-4edf-aac9-934ec29b5f21" d="M228.29,274.68a2.36,2.36,0,0,0-1.62-.72H124.3c-2,0-3.6,2.85-3.6,6.32a9.17,9.17,0,0,0,.49,3.08,7.63,7.63,0,0,1-2-5.57c0-3.5,1.62-6.35,3.6-6.35H225.18C226.51,271.44,227.71,272.73,228.29,274.68Z"/>
              <path class="f3ac607e-10ff-4edf-aac9-934ec29b5f21" d="M228.29,259a2.36,2.36,0,0,0-1.62-.72H124.3c-2,0-3.6,2.85-3.6,6.32a9.17,9.17,0,0,0,.49,3.08,7.63,7.63,0,0,1-2-5.57c0-3.5,1.62-6.35,3.6-6.35H225.18C226.51,255.76,227.71,257.05,228.29,259Z"/>
              <path class="f3ac607e-10ff-4edf-aac9-934ec29b5f21" d="M228.29,242.05a2.39,2.39,0,0,0-1.62-.71H124.3c-2,0-3.6,2.85-3.6,6.32a9,9,0,0,0,.49,3.07,7.61,7.61,0,0,1-2-5.57c0-3.46,1.62-6.32,3.6-6.32H225.18C226.51,238.84,227.68,240.14,228.29,242.05Z"/>
              <path class="f3ac607e-10ff-4edf-aac9-934ec29b5f21" d="M228.29,225.66a2.49,2.49,0,0,0-1.62-.68H124.3c-2,0-3.6,2.79-3.6,6.28a9,9,0,0,0,.49,3.08,7.64,7.64,0,0,1-2-5.6c0-3.47,1.62-6.26,3.6-6.26H225.18C226.51,222.48,227.71,223.78,228.29,225.66Z"/>
            </g>
            <path class="b8dc0e65-07d3-4544-809a-5869142d8346" d="M276.49,313.51a4.71,4.71,0,0,1-4.44,5H204.4a5,5,0,0,1,0-9.89h67.65A4.7,4.7,0,0,1,276.49,313.51Z"/>
            <path class="b8dc0e65-07d3-4544-809a-5869142d8346" d="M118.42,313.06a5.31,5.31,0,0,1-5.31,5.21h-.2L69,317.14a5.37,5.37,0,0,1,.16-10.73h.13l43.9,1.17A5.35,5.35,0,0,1,118.42,313.06Z"/>
            <line class="b81c73c5-4c8f-486f-a6d3-c4b1d553fc01" x1="440.84" y1="312.41" x2="440.84" y2="312.37"/>
            <path class="b81c73c5-4c8f-486f-a6d3-c4b1d553fc01" d="M286.63,49.7a2.66,2.66,0,0,0-.16.55"/>
            <path class="b81c73c5-4c8f-486f-a6d3-c4b1d553fc01" d="M285,60.06v-.19"/>
            <path class="b81c73c5-4c8f-486f-a6d3-c4b1d553fc01" d="M297.26,59.51a8.31,8.31,0,0,0,0,1"/>
            <path class="b81c73c5-4c8f-486f-a6d3-c4b1d553fc01" d="M329.26,43.57v-.06"/>
            <path class="e9f890d0-baef-4963-ae0b-ebad8ecd2c74" d="M135.17,164.93c-.39,1.17,1.17,4.25,1.72,7.39-1.69.1-3.31.2-5,.33a33.48,33.48,0,0,0-3.56-8c-2.92,1.69-5.77,2.37-7.91.91,1.85-.49,4-1.85,2.08-3.5a5.65,5.65,0,0,1,1-.45c.91-.36,1.85-.68,2.72-.94h.07a30.14,30.14,0,0,1,8.74-1.17,37.4,37.4,0,0,1,3.92.29C138.61,160.2,135.63,163.67,135.17,164.93Z"/>
            <path class="b81c73c5-4c8f-486f-a6d3-c4b1d553fc01" d="M158.24,141.54l-.33.1"/>
            <path class="febfcfcb-0411-4016-ac71-535348042de6" d="M131.93,172.65l-1.52.09c-2.5.13-5,.33-7.39.52-.58,0-1.13.1-1.71.13h0a17.93,17.93,0,0,1-5.18-4c.23-.23,4-.62,2.49-3.7a3.1,3.1,0,0,0,1.88-.16c2.14,1.46,5,.78,7.91-.91A33.48,33.48,0,0,1,131.93,172.65Z"/>
            <path class="b81c73c5-4c8f-486f-a6d3-c4b1d553fc01" d="M176.28,136.46s.59.13,1.59.42v0a.68.68,0,0,1,.33.1"/>
            <line class="b81c73c5-4c8f-486f-a6d3-c4b1d553fc01" x1="157.91" y1="141.64" x2="157.85" y2="141.54"/>
            <path class="b81c73c5-4c8f-486f-a6d3-c4b1d553fc01" d="M177.87,136.78v.1a2.94,2.94,0,0,1-.1.52"/>
            <path class="b81c73c5-4c8f-486f-a6d3-c4b1d553fc01" d="M154.58,156.54h-.07"/>
            <path class="b81c73c5-4c8f-486f-a6d3-c4b1d553fc01" d="M189.44,171.45c-.1.06-.2.09-.26.13"/>
            <path class="b81c73c5-4c8f-486f-a6d3-c4b1d553fc01" d="M162.94,158.1l-.55.06"/>
            <path class="b81c73c5-4c8f-486f-a6d3-c4b1d553fc01" d="M216.72,172.55c0,.06,0,.13,0,.19"/>
            <path class="b81c73c5-4c8f-486f-a6d3-c4b1d553fc01" d="M194.88,117.41c-.36-.1-.68-.16-1-.23A19.07,19.07,0,0,0,191,117s0,0,0,0h-.13a16.44,16.44,0,0,0-3.17.3"/>
            <path class="febfcfcb-0411-4016-ac71-535348042de6" d="M180.66,137.82a18.06,18.06,0,0,1-.55,5.15c-2.27,8.13-9.92,10.92-10.86,11.24-2-2.27-4-4.6-6-6.87a14.78,14.78,0,0,0,4-.29c1.59-.32,6.25-1.26,8.88-5.41a10.55,10.55,0,0,0,1.58-4.24.72.72,0,0,0,.23-.23c.07-.06.1-.1.16-.16h0c.32.1.71.23,1.13.35A12.43,12.43,0,0,1,180.66,137.82Z"/>
            <path class="f06adbf1-c4a8-4935-a5de-e78399ca340c" d="M213.08,167.48a79.18,79.18,0,0,0,.65-12.31c0-4.3-1.17-8.29-5.16-10.46,4.08,2.13,5.35,6.11,5.41,10.45a77.62,77.62,0,0,1-.41,12.38l-.49-.06Z"/>
            <path class="f06adbf1-c4a8-4935-a5de-e78399ca340c" d="M195,121c5,1.21,7.93,6.51,7,11.45l-.49-.1c1.07-4.76-1.7-10-6.51-11.35Z"/>
            <path class="b81c73c5-4c8f-486f-a6d3-c4b1d553fc01" d="M120,154.21a.56.56,0,0,0-.16.13"/>
            <path class="eb21c7ba-9d44-43fc-8006-2e6dfb52c85a" d="M119.18,165.83a8,8,0,0,1-5.57-8.22,7.86,7.86,0,0,0,5.63,8l-.06.24Z"/>
            <path class="eb21c7ba-9d44-43fc-8006-2e6dfb52c85a" d="M116,169.52a12.69,12.69,0,0,1-5.85-8.94,12.54,12.54,0,0,0,6,8.71l-.12.23Z"/>
            <path class="eb21c7ba-9d44-43fc-8006-2e6dfb52c85a" d="M106.27,163.31a10.49,10.49,0,0,0,4.8,7.15l-.13.22a10.65,10.65,0,0,1-4.67-7.37Z"/>
            <polygon class="eb21c7ba-9d44-43fc-8006-2e6dfb52c85a" points="111.14 170.78 111.04 170.57 111.25 170.56 111.14 170.78 111.14 170.78"/>
            <path class="b81c73c5-4c8f-486f-a6d3-c4b1d553fc01" d="M139,159.75l0,0"/>
            <path class="b1e66e4b-09fb-469c-8aa4-6aa9ede6f249" d="M152.25,326.28a28.07,28.07,0,0,0,5.6,8.11,28.48,28.48,0,0,0,11.79,7.12l36.4-.61a22.91,22.91,0,0,0,13.32-6.31,22.19,22.19,0,0,0,5.29-8.31Z"/>
            <path class="b1e66e4b-09fb-469c-8aa4-6aa9ede6f249" d="M462.94,311.08a27.26,27.26,0,0,1-3,12.15c-6.28,12.18-19.6,15-21.57,15.35-3.86,0-7.75,0-11.6,0a82,82,0,0,0,2.72-21.16c0-24.26-10.08-44.8-23.94-51.51a38.14,38.14,0,0,1,10.56,4.92c18.56,12.44,19.7,37.49,19.83,41.8l4.92-.3Z"/>
            <path class="b81c73c5-4c8f-486f-a6d3-c4b1d553fc01" d="M463,309.49a12.44,12.44,0,0,1,0,1.59"/>
            <path class="b81c73c5-4c8f-486f-a6d3-c4b1d553fc01" d="M426.75,338.62h-1.46"/>
            <path class="b9ce58e4-84b7-4de8-bf55-f544b8d37f01" d="M290.29,43.8a18.12,18.12,0,0,0-3.76,6.45h-.06c-5.61-1-11.67-2-18-2.76-7.16-.9-13.7-1.52-20-2-1.72-.13-3.43-.23-5.15-.33-4.15-.22-8.26-.42-12.44-.51-1.72-.07-3.44-.1-5.19-.13-2.91-.07-5.89-.13-9-.17l-4.89-.09h-.29c-4.57-.07-9.46-.13-14.74-.13-1.66,0-3.37,0-5.15,0-4.35,0-8.91.06-13.77.16-1.69.06-3.41.09-5.19.16-7.38.26-15.35.68-24,1.33a582.91,582.91,0,0,0-58.74,7.48c-5.67,1-11.53,2.17-17.56,3.44V52.94c1-.36,2-.72,3-1,4.6-1.62,9.62-3.17,15-4.53a176.11,176.11,0,0,1,29.29-4.93v-24c18.21-2.11,37.64-3.79,58.18-4.8s40.18-1.2,58.58-.87V39.3a236.67,236.67,0,0,1,31.33,1.07C275.84,41.21,283.42,42.41,290.29,43.8Z"/>
            <path class="a47e0cef-0105-4b9f-b9ca-e2d6f4959751" d="M177.77,137.4a10.55,10.55,0,0,1-1.58,4.24c-2.63,4.15-7.29,5.09-8.88,5.41a14.78,14.78,0,0,1-4,.29h-.09c-.3,0-.62,0-.94-.09a12.09,12.09,0,0,1-1.36-.2c-.94-1.78-1.85-3.59-2.79-5.38a17,17,0,0,0,5,1.14,24.11,24.11,0,0,0,13.57-4.51,9.55,9.55,0,0,0,.94-.74A.67.67,0,0,1,177.77,137.4Z"/>
            <path class="b1e66e4b-09fb-469c-8aa4-6aa9ede6f249" d="M154.51,156.54c-3.43-.06-6.44,1.33-7.87,3.73l-.16.29a4,4,0,0,0-.39.91,36.4,36.4,0,0,0-3.76-1.07c-1.07-.26-2.17-.45-3.34-.62a37.4,37.4,0,0,0-3.92-.29,30.14,30.14,0,0,0-8.74,1.17h-.07c-.87.26-1.81.58-2.72.94a5.65,5.65,0,0,0-1,.45c-.07-.06-.17-.13-.23-.19s-7.81-3.4-2.49-7.52a26.07,26.07,0,0,1,3.72-1.78c.91-.36,1.85-.68,2.72-.94h.07a31.23,31.23,0,0,1,16-.26,39.33,39.33,0,0,1,11.6,4.76.08.08,0,0,0,.06,0,.71.71,0,0,0,.2.12s0,0,0,0a.18.18,0,0,0,.1.06A.67.67,0,0,0,154.51,156.54Z"/>
            <path class="facee7bd-d5c0-4103-b75d-d0935cad6f80" d="M162.94,158.1c2.75-.23,14.61-1.13,17.88,2.14,0,0-.13-13.61,4.79-14.52"/>
            <path class="facee7bd-d5c0-4103-b75d-d0935cad6f80" d="M189.47,171.45a8.34,8.34,0,0,0,2.11-1.88,56,56,0,0,0,4.17-5.57l0-.07"/>
            <path class="facee7bd-d5c0-4103-b75d-d0935cad6f80" d="M168.54,170.77c.2-4.8-2.85-9.3-4.15-11l-.06-.07a.63.63,0,0,0-.16-.23"/>
            <path class="facee7bd-d5c0-4103-b75d-d0935cad6f80" d="M180.66,137.82a18.06,18.06,0,0,1-.55,5.15c-2.27,8.13-9.92,10.92-10.86,11.24-2-2.27-4-4.6-6-6.87a14.78,14.78,0,0,0,4-.29c1.59-.32,6.25-1.26,8.88-5.41a10.55,10.55,0,0,0,1.58-4.24.72.72,0,0,0,.23-.23c.07-.06.1-.1.16-.16h0c.32.1.71.23,1.13.35A12.43,12.43,0,0,1,180.66,137.82Z"/>
            <g>
              <path class="bbc9ab82-c72d-479f-81e5-570e2827637b" d="M148.41,121.22l-2.14-2.62c-.78-1.1-1.43-2.21-2-3.21-.13-.23-.26-.45-.39-.65a.22.22,0,0,1-.06-.13c-4.47-8.16-3.89-13.54-3-16.23a1.42,1.42,0,0,1,.13-.35,6.51,6.51,0,0,1,.81-1.66l4.21,1.33,1.56.49v.26l.19,4.31,0,1,.19,5.51,0,.52v0l.39,10.17Z"/>
              <g>
                <path class="b06bef6b-3bcb-49c4-9318-0bed6bfc6e57" d="M150.16,129.39a2.72,2.72,0,0,1-2.76.29,1.11,1.11,0,0,1-.29-.1,5.39,5.39,0,0,1-.74-.45,8.37,8.37,0,0,1-2.53-2.95c-2.66-4.89-2.66-9.62-1.1-11a.53.53,0,0,1,.19-.2,1.61,1.61,0,0,1,.94-.26,1.23,1.23,0,0,1,.32,0l.33.1c1.72.62,3,3,3.82,5.12a25.34,25.34,0,0,1,1.2,3.79Z"/>
                <path class="a9e9106e-4d45-4389-a0f2-4e25e2b43154" d="M142.48,118.28c-.15.09,2.72-2.79,5.22,4.94,0,0-1.29.53-.43,1.56s2.19,1.85,1.33,2a2.48,2.48,0,0,1-3.07-1.42,3.15,3.15,0,0,1,.08-2.68C146.36,121.63,142.65,118.18,142.48,118.28Z"/>
                <path class="ef76ecce-0334-4595-bf14-b85f6a200b28" d="M142.49,118.27c3-2.09,4.48,2.87,5.29,5-.76.33-.95,1-.32,1.57.48.63,2.76,2.08.64,2.17a2.45,2.45,0,0,1-2.56-1.62,2.89,2.89,0,0,0,1.53,1.32,2.24,2.24,0,0,0,1,0c.3,0,.85-.08.65-.25-.38-.51-1-1-1.43-1.52a1,1,0,0,1,.39-1.81,17.54,17.54,0,0,0-1.78-3.71c-.91-1.35-2-2-3.41-1.18Z"/>
              </g>
              <path class="b06bef6b-3bcb-49c4-9318-0bed6bfc6e57" d="M189,106.84c-.06,1.16-.16,2.2-.23,3.08,0,0,0,.22,0,.64v.07a62.36,62.36,0,0,1-1,8c-.26,1.46-.62,3-1.07,4.67-.36,1.36-.81,2.75-1.33,4.14a28,28,0,0,1-5.6,9.59l-.78.78h0l-.16.16a1.57,1.57,0,0,1-.23.2v0a.94.94,0,0,0-.2.16,10,10,0,0,1-.94.75,24.15,24.15,0,0,1-13.57,4.5,16.8,16.8,0,0,1-5-1.13s-.06,0-.09-.07h0a.11.11,0,0,1-.09,0h0s-.09,0-.13-.07a10.07,10.07,0,0,1-1.58-.74,18.15,18.15,0,0,1-7.52-6.9,24.8,24.8,0,0,1-2.3-5.12c0-.13-.1-.23-.13-.36-.36-1-.65-2-.91-3.07,0,0,0,0,0,0-.26-1-.48-2-.68-2.94v0c-.16-.84-.32-1.65-.45-2.43v0c-.16-.94-.29-1.78-.39-2.62V118c-.13-.94-.23-1.81-.26-2.59a4.9,4.9,0,0,1-.07-.62c0-.19,0-.35,0-.51-.35-6-.32-6.77-.29-8.36a24.8,24.8,0,0,1,.71-4.15,28.75,28.75,0,0,1,1.36-4c2.47-5.93,7.94-12.86,19.93-12.8,10.3.1,16.1,3,19.34,7,.29.36.58.72.84,1.1C189,97.41,189.23,102.82,189,106.84Z"/>
              <g>
                <path class="a100146b-b9be-4eaa-b828-d5cfaa883e5d" d="M175.67,109.64a12.74,12.74,0,0,0-2.22-1.73,10.2,10.2,0,0,0-2.59-1.14,9.41,9.41,0,0,0-1.42-.3,4.22,4.22,0,0,0-1.5.12,4.34,4.34,0,0,0-2.49,1.8l.06.1c.47-.16.9-.33,1.32-.45a11.61,11.61,0,0,1,1.26-.24,10.32,10.32,0,0,1,2.55-.06,8.54,8.54,0,0,1,1.29.29,12.59,12.59,0,0,1,1.26.44,14.62,14.62,0,0,1,2.41,1.27Z"/>
                <path class="a100146b-b9be-4eaa-b828-d5cfaa883e5d" d="M147.06,110.5a10.58,10.58,0,0,1,1.58-2,7.89,7.89,0,0,1,2-1.54,6.89,6.89,0,0,1,1.21-.52,3.66,3.66,0,0,1,1.37-.14,4.37,4.37,0,0,1,2.67,1.34l0,.11c-.46-.08-.88-.17-1.29-.22a9.6,9.6,0,0,0-1.19,0,9.19,9.19,0,0,0-2.31.36,6.58,6.58,0,0,0-1.08.5,9.13,9.13,0,0,0-1,.64,11.38,11.38,0,0,0-1.86,1.62Z"/>
              </g>
              <g>
                <ellipse class="a96b87df-6e44-448b-94eb-b0e87bf8e9b7" cx="170.54" cy="116.49" rx="5.21" ry="4.32" transform="translate(47.06 282.03) rotate(-87.62)"/>
                <ellipse class="b6a38165-0ed9-428a-8317-d3cfa871e48a" cx="169.82" cy="117.63" rx="3.59" ry="3.2" transform="translate(45.23 282.41) rotate(-87.62)"/>
                <ellipse class="febfcfcb-0411-4016-ac71-535348042de6" cx="170.88" cy="114.29" rx="0.87" ry="0.68" transform="translate(25 259.13) rotate(-78.57)"/>
              </g>
              <g>
                <ellipse class="a96b87df-6e44-448b-94eb-b0e87bf8e9b7" cx="152.77" cy="116.58" rx="5.42" ry="4.32" transform="translate(29.94 264.36) rotate(-87.62)"/>
                <ellipse class="b6a38165-0ed9-428a-8317-d3cfa871e48a" cx="152.29" cy="117.88" rx="3.73" ry="3.22" transform="translate(28.18 265.14) rotate(-87.62)"/>
                <ellipse class="febfcfcb-0411-4016-ac71-535348042de6" cx="154.04" cy="114.76" rx="0.9" ry="0.68" transform="translate(32.98 263.9) rotate(-87.62)"/>
              </g>
              <g>
                <path class="a1bfbc5e-a5f1-4fcd-a228-19b81b91ad79" d="M153.3,131.57a4.81,4.81,0,0,0,.43.55,11.27,11.27,0,0,0,5.4,3.47,8.13,8.13,0,0,0,5.23-.68,8.23,8.23,0,0,0,3.86-3.73c.32-.54.66-1.16,1.07-1.87,0,0,.1-.13-.1-.12l-.33.09A26.76,26.76,0,0,1,160,131.7a21.23,21.23,0,0,1-6.54-.28.19.19,0,0,0-.21.08A.08.08,0,0,0,153.3,131.57Z"/>
                <path class="a97765de-93cb-4e65-8150-445a937d838a" d="M153.73,132.1c1,1.24,3.1,3.47,5.5,4.12a7.07,7.07,0,0,0,5.22-.68,8.09,8.09,0,0,0,3.67-4.19,10.41,10.41,0,0,1-6.16,4.14C158,136.19,154.69,133.12,153.73,132.1Z"/>
                <path class="fd21e221-1ca8-4bb9-b850-0cc00cf633c1" d="M153.29,131.5a20.38,20.38,0,0,0,8.51.47,15.9,15.9,0,0,0,7.39-2.78,1.92,1.92,0,0,0-.46,0,25,25,0,0,1-8.69,2.47,20.23,20.23,0,0,1-6.61-.39C153.34,131.27,153.31,131.44,153.29,131.5Z"/>
                <path class="a14b3810-b0ef-476c-baa8-70c6c21d07e8" d="M167.79,130.16a22.52,22.52,0,0,1-12.74,1.74s1.8,2,6.06,1.73C166,133.25,167.79,130.16,167.79,130.16Z"/>
                <path class="b907d093-1385-4298-b621-caa1ae796658" d="M161.46,135.6a8.33,8.33,0,0,0,3.45-1.28,4.06,4.06,0,0,0-3.93-.26c-.16.05.91-.26-.25-.32a3.45,3.45,0,0,0-2.79,1.29A5.31,5.31,0,0,0,161.46,135.6Z"/>
              </g>
              <path class="fe30f68f-23db-4362-9c20-7ad1c57e2f4c" d="M152,128.4s12.34-1.7,17.79-1.52c0,0,3.24,1.71,4.3,3.24,0,0-.84,1.55-2.27,1.26l-3-1.78s-8.6,3.87-15.68,1.66a14.72,14.72,0,0,0-1.84,1.87c-.33.43-2.52-.61-1.12-2.46Z"/>
              <g>
                <path class="a47e0cef-0105-4b9f-b9ca-e2d6f4959751" d="M160.55,120.07s-.32,1.79-1.38,1.94-3.29,2.29-2.64,4.42c1,3.16,6.21,1.39,6.5-.14l.67-1.34Z"/>
                <path class="efee2402-10b6-4c25-b2b3-cf33e9a409bf" d="M156.77,122.76c-.64,1.62-1,4.35,1.24,4.85,1.8.32,4,0,5.23-1.53a3.4,3.4,0,0,1-2.34,1.68c-4,.93-5.73-1.36-4.13-5Z"/>
              </g>
              <path class="a9e9106e-4d45-4389-a0f2-4e25e2b43154" d="M144.6,102.68s7.61,3.64,20.07,1.92c11.31-1.56,12.49-2.19,12.49-2.19s-1.57,9,4,10.85c0,0,3.35,8.15,4.72,9L189.38,108l-3.95-11.65-23.93-5.9-16.28,9.32Z"/>
              <g>
                <path class="bbc9ab82-c72d-479f-81e5-570e2827637b" d="M194.4,100.3c-.19,4.86-2.52,14.22-2.52,14.22l0,.17-.43,3.27v0l0,.1L191,121l-.16,1.27-.19.06-2.17.55-1.79.46-.45.13s-.1-.17-.23-.46a8,8,0,0,1-.48-1s0,0,0-.06c-1-2.14-2.63-6.16-2-9.33,0,0-7.19.61-4.63-12.48A47,47,0,0,1,182,95.51a26.5,26.5,0,0,1,3.2-3.6,10.65,10.65,0,0,1,1.59-1.23,2.42,2.42,0,0,1,.75-.32C191.07,89.35,194.57,96.51,194.4,100.3Z"/>
                <path class="bbc9ab82-c72d-479f-81e5-570e2827637b" d="M187.61,89.93a2.45,2.45,0,0,1-.07.42A7.17,7.17,0,0,1,186.05,93a32.4,32.4,0,0,1-2.52,2.85c-2.27,2.34-4.64,4.31-4.64,4.31-2.88,1.72-21.74,4.6-29.93,2.89l-1.27-.29a17.4,17.4,0,0,1-2.88-.94.75.75,0,0,1-.23-.07c-2-.87-3.2-1.94-3.69-3.14a2.29,2.29,0,0,0-.1-.23,5.53,5.53,0,0,1,.33-4.27,17.41,17.41,0,0,1,4.31-7.2,15.86,15.86,0,0,1,2.3-1.91c2.94-2,7.32-3.82,13.89-4.79C179.22,77.55,187.61,89.93,187.61,89.93Z"/>
              </g>
              <g>
                <path class="b06bef6b-3bcb-49c4-9318-0bed6bfc6e57" d="M195.47,118.41a13.7,13.7,0,0,1-2.65,7.65,8.52,8.52,0,0,1-3,2.75,4.3,4.3,0,0,1-4.57-.06l.17-1.27.58-4.31A.35.35,0,0,1,186,123a22.18,22.18,0,0,1,1.75-4.34c1-1.78,2.34-3.53,4.09-4a.26.26,0,0,1,.16-.07C194.08,114.17,195.41,115.82,195.47,118.41Z"/>
                <path class="a9e9106e-4d45-4389-a0f2-4e25e2b43154" d="M194.47,118.2c.19.11-3.26-3-6.32,4.53,0,0,1.57.65.52,1.61s-2.64,1.68-1.61,1.91a3.08,3.08,0,0,0,3.71-1.16,2.71,2.71,0,0,0-.08-2.71C189.78,121.25,194.28,118.09,194.47,118.2Z"/>
                <path class="ef76ecce-0334-4595-bf14-b85f6a200b28" d="M190.79,125.09a3,3,0,0,1-3.93,1.15.24.24,0,0,1-.17-.27c.44-.68,1.2-1,1.75-1.57.86-.68.36-1.27-.45-1.6,1-2.51,3.32-6.8,6.48-4.61-3.17-1.92-5.21,2.08-6.2,4.59l-.07-.16a1.55,1.55,0,0,1,.92.84c.14.5-.26.87-.54,1.09-.57.51-1.4.82-1.81,1.44,0,.16.23.2.41.23a3.45,3.45,0,0,0,3.61-1.13Z"/>
              </g>
            </g>
            <path class="facee7bd-d5c0-4103-b75d-d0935cad6f80" d="M142.33,151.36c2.59-3.92,7.68-6.64,11.41-8.2a6.39,6.39,0,0,1,.81-.35c.55-.23,1-.39,1.49-.55-.37.43-.26,1.84,0,3.43.46,2.67,1.4,5.86,1.4,5.86l3.44-4.5"/>
            <path class="facee7bd-d5c0-4103-b75d-d0935cad6f80" d="M180.66,137.82c.35.1.68.23,1,.35a34.2,34.2,0,0,1,9.89,5.67,18.21,18.21,0,0,1,1.71,1.69,20.32,20.32,0,0,1,3.44,5.51c2.91,6.61,3.24,15.09,0,20.15a2.48,2.48,0,0,1-.26.42l0,0"/>
            <g>
              <path class="a47e0cef-0105-4b9f-b9ca-e2d6f4959751" d="M169.25,170.9l-.71-.13-1.94-.33a27.61,27.61,0,0,1-4.57.84l-1.1.1c-.39,0-.78,0-1.17.07l-.58,0a3.89,3.89,0,0,1-.59,0h-.22a3.74,3.74,0,0,1-.58,0,50.25,50.25,0,0,1-5.09-.26c-1.17-.09-1.88-.22-1.88-.22a5.28,5.28,0,0,1-1.62-.88l0,0a2.9,2.9,0,0,1-.52-.55c-.1-.2-.13-.36-.2-.49a1.61,1.61,0,0,1,0-1.1l-.29-.19s0,0-.07,0,0,0-.06-.06-.23-.2-.33-.29-.16-.26-.26-.39a2.56,2.56,0,0,1-.22-.39c0-.13-.1-.23-.13-.32s0-.1,0-.13a1.55,1.55,0,0,1-.06-.33,2.85,2.85,0,0,1,.19-1.46s0-.06,0-.09a1.85,1.85,0,0,1-.33-.29.94.94,0,0,1-.16-.2s0,0,0,0a.74.74,0,0,1-.1-.16v-.07h0c0-.06,0-.16-.07-.23a1.59,1.59,0,0,1-.06-.38,3.08,3.08,0,0,1,0-.52,3.79,3.79,0,0,1,.13-1,3.56,3.56,0,0,1,.13-.52,2.76,2.76,0,0,1,.12-.33,1.31,1.31,0,0,1-.35,0h-.07a6.33,6.33,0,0,1-1.26-.36,0,0,0,0,1,0,0,.25.25,0,0,0-.13-.06s0-.07-.07-.07a4,4,0,0,1-.26-.35.67.67,0,0,1-.13-.39.9.9,0,0,1,0-.26.36.36,0,0,1,0-.16.23.23,0,0,1,0-.17,1.09,1.09,0,0,1,.29-.61.73.73,0,0,1,.19-.26,3.36,3.36,0,0,1,.52-.39,6.41,6.41,0,0,1,.78-.32,73.12,73.12,0,0,1,7.87-.81,23.9,23.9,0,0,1,2.63,0h.25a.51.51,0,0,1,.26,0,3.3,3.3,0,0,1,.78.13,1.13,1.13,0,0,1,.33.13l.35.09a13.24,13.24,0,0,1,1.27.62.16.16,0,0,1,.12.06c.91.46,1.92,1,2.76,1.56l1.36.84.06.07c.07,0,.1.06.13.06a2.2,2.2,0,0,0,.39.26.56.56,0,0,1,.16.13s.07,0,.1,0A10.38,10.38,0,0,1,169.25,170.9Z"/>
              <path class="ef76ecce-0334-4595-bf14-b85f6a200b28" d="M155.81,156.16a35,35,0,0,0-6.6.58c-.68,0-1.41.17-2,.2l-.81.23-.76.32c-.2.17-.61.39-.7.64a1.41,1.41,0,0,0-.33,1.17,1.11,1.11,0,0,0,.43.79c-.06,0,.13,0,.13.07a3.15,3.15,0,0,0,1.28.4h.07a2.69,2.69,0,0,1-1.38-.4s-.08,0-.11,0h0s0-.07-.05-.05h0a1.34,1.34,0,0,1-.45-1.06,1.69,1.69,0,0,1,.36-.94,1,1,0,0,1,.33-.35s.39-.3.4-.3a8.41,8.41,0,0,1,1.6-.55,20.09,20.09,0,0,1,2-.19,32.23,32.23,0,0,1,6.62-.51Z"/>
              <path class="ef76ecce-0334-4595-bf14-b85f6a200b28" d="M146.83,160.59c1.92,0,3.82-.24,5.74-.33a31.5,31.5,0,0,1-5.74.33Z"/>
              <path class="ef76ecce-0334-4595-bf14-b85f6a200b28" d="M158.46,156.58a3.42,3.42,0,0,1-1.1-.27,3.62,3.62,0,0,1,1.1.27Z"/>
              <path class="ef76ecce-0334-4595-bf14-b85f6a200b28" d="M161.77,158.16a42.36,42.36,0,0,1,4.21,2.7,10.46,10.46,0,0,0-.94-.56,5.24,5.24,0,0,0-.67-.45h0s-.09-.09-.05-.06-2.57-1.62-2.54-1.63Z"/>
              <path class="ef76ecce-0334-4595-bf14-b85f6a200b28" d="M146.45,162.41c0,1.66,1.28,2.21,2.76,2a34.93,34.93,0,0,0,3.94-.7c-2,.48-6.68,2.14-6.7-1.3Z"/>
              <path class="ef76ecce-0334-4595-bf14-b85f6a200b28" d="M147.74,167.4a3.39,3.39,0,0,1-.52-3,4.46,4.46,0,0,0,.52,3Z"/>
              <path class="ef76ecce-0334-4595-bf14-b85f6a200b28" d="M148.2,167.78c1.53.49,3.14-.22,4.63-.58-1.39.55-3.18,1.12-4.63.58Z"/>
              <path class="bcd98e15-997a-4be8-a8e0-9241bbb45dcf" d="M155.84,171.58a28.18,28.18,0,0,1-3-.13"/>
              <path class="bcd98e15-997a-4be8-a8e0-9241bbb45dcf" d="M166.86,170.7a43.23,43.23,0,0,1-4.83.58"/>
              <path class="bcd98e15-997a-4be8-a8e0-9241bbb45dcf" d="M146.83,156.9h.43c.35,0,1-.06,1.91-.19h0c.71-.1,1.62-.2,2.75-.39.1,0,.17,0,.26,0,.62-.09,1.2-.12,1.72-.16h.1"/>
              <path class="bcd98e15-997a-4be8-a8e0-9241bbb45dcf" d="M156.39,156.19l.46.09a27,27,0,0,1,2.62.75,3.49,3.49,0,0,1,.62.26.16.16,0,0,1,.12.06,6.56,6.56,0,0,1,.81.39"/>
              <path class="bcd98e15-997a-4be8-a8e0-9241bbb45dcf" d="M166.27,160.82s-.9-.58-2.1-1.3"/>
              <path class="a47e0cef-0105-4b9f-b9ca-e2d6f4959751" d="M164.17,159.52c-.75-.42-1.62-.94-2.4-1.36-.26-.16-.49-.29-.75-.42a10.47,10.47,0,0,0-2.2-1.07l-.35-.09a1.13,1.13,0,0,0-.33-.13,3.3,3.3,0,0,0-.78-.13.51.51,0,0,0-.26,0,2.36,2.36,0,0,0-.71-.09,3.57,3.57,0,0,0-.58,0,2.23,2.23,0,0,0-.68,0,6.73,6.73,0,0,0-1.1,0c-2.79-2.46-2.11-5.34.22-5.89s6.77,5.34,8.69,7.87a10.94,10.94,0,0,0,.9,1S164,159.27,164.17,159.52Z"/>
              <path class="bcd98e15-997a-4be8-a8e0-9241bbb45dcf" d="M164.17,159.52c-.75-.42-1.62-.94-2.4-1.36-.26-.16-.49-.29-.75-.42a10.47,10.47,0,0,0-2.2-1.07l-.35-.09a1.13,1.13,0,0,0-.33-.13,3.3,3.3,0,0,0-.78-.13.51.51,0,0,0-.26,0,2.36,2.36,0,0,0-.71-.09,3.57,3.57,0,0,0-.58,0,2.23,2.23,0,0,0-.68,0,6.73,6.73,0,0,0-1.1,0c-2.79-2.46-2.11-5.34.22-5.89s6.77,5.34,8.69,7.87a10.94,10.94,0,0,0,.9,1S164,159.27,164.17,159.52Z"/>
            </g>
            <g>
              <path class="af9d7566-79ca-41cc-9452-49bcc91c9539" d="M362.34,85.75v78.4l-27.31-2-5-.35-13.18-.94c0-2.43,0-4.89.06-7.32,0-1.46,0-2.89,0-4.35,0-1.1,0-2.17,0-3.27,0-6.64.09-13.28.12-19.92q.25-24.1.39-48.24L358.16,85Z"/>
              <path class="b6de7103-0ae0-4ebc-adb9-40b5f59a96b7" d="M362.34,85.75v14.67c-6.15,6.25-36.9,37.49-45.35,45.55,0-6.64.09-13.28.12-19.92l41.05-41Z"/>
              <path class="b6de7103-0ae0-4ebc-adb9-40b5f59a96b7" d="M362.41,103.79v4.31l-.07.07-45.42,45.42c0-1.46,0-2.89,0-4.35Z"/>
              <polygon class="b6de7103-0ae0-4ebc-adb9-40b5f59a96b7" points="362.34 129.51 362.34 134.86 335.03 162.2 330.04 161.85 362.34 129.51"/>
            </g>
            <g>
              <ellipse class="a51fc9dd-fa46-4ff0-9f9f-1e40022308cf" cx="272.82" cy="237.03" rx="15.9" ry="20.46"/>
              <ellipse class="ee32479b-5286-4c95-be2c-bf71e44d4ab6" cx="271.16" cy="238.95" rx="12.48" ry="16.06"/>
              <ellipse class="bd503bce-27ee-4be7-91b8-495bfc6cc731" cx="271.16" cy="238.95" rx="11.23" ry="14.45"/>
              <ellipse class="ee32479b-5286-4c95-be2c-bf71e44d4ab6" cx="274.93" cy="230.91" rx="4.28" ry="5.93" transform="translate(-83.84 244.54) rotate(-42.2)"/>
              <ellipse class="ee32479b-5286-4c95-be2c-bf71e44d4ab6" cx="279.17" cy="240" rx="2.14" ry="2.97" transform="translate(-22.01 28.27) rotate(-5.58)"/>
            </g>
            <rect class="bae40a9a-cf24-4431-9c84-5cd2c21d6a56" x="239.73" y="308.78" width="36.76" height="9.98" rx="1.54"/>
            <rect class="a8224cd9-f241-4db5-817d-adb2afd9f63c" x="63.8" y="307.35" width="36.76" height="9.98" rx="1.54" transform="translate(16.15 -3.81) rotate(2.94)"/>
            <g>
              <g>
                <g>
                  <ellipse class="a8445cd5-b3e2-4725-a5ca-20f709940213" cx="254.52" cy="22.16" rx="11.62" ry="9.9" transform="translate(193.16 270.17) rotate(-81.08)"/>
                  <path class="be312704-c86f-4f23-aaa5-ccf1f2e61d25" d="M264.17,23.67c-1,6.34-6.18,10.8-11.58,9.95-4.64-.73-7.92-5.12-8.13-10.35A9.23,9.23,0,0,0,251,28c5.41.85,10.59-3.61,11.58-9.95a12.71,12.71,0,0,0,.15-2.67A12.71,12.71,0,0,1,264.17,23.67Z"/>
                  <ellipse class="b7419314-e313-4471-b4a6-1e55ce9078c4" cx="254.52" cy="22.16" rx="11.62" ry="9.9" transform="translate(193.16 270.17) rotate(-81.08)"/>
                </g>
                <ellipse class="febfcfcb-0411-4016-ac71-535348042de6" cx="258.71" cy="15.02" rx="2.23" ry="3.16" transform="translate(40.78 155.24) rotate(-36.08)"/>
                <ellipse class="febfcfcb-0411-4016-ac71-535348042de6" cx="261.52" cy="19.61" rx="1.28" ry="1.82"/>
              </g>
              <g>
                <g>
                  <ellipse class="a7c47c71-6158-4e17-b9bd-ff30085038f6" cx="274.75" cy="25.33" rx="6.98" ry="5.95" transform="translate(207.12 292.83) rotate(-81.08)"/>
                  <path class="a1cd2d64-3d48-4ccc-af95-7758cc21c231" d="M280.54,26.24c-.6,3.81-3.71,6.49-7,6-2.78-.44-4.75-3.07-4.88-6.22a5.54,5.54,0,0,0,3.93,2.83c3.24.51,6.36-2.17,6.95-6a7.32,7.32,0,0,0,.09-1.61A7.6,7.6,0,0,1,280.54,26.24Z"/>
                  <ellipse class="b7419314-e313-4471-b4a6-1e55ce9078c4" cx="274.75" cy="25.33" rx="6.98" ry="5.95" transform="translate(207.12 292.83) rotate(-81.08)"/>
                </g>
                <ellipse class="febfcfcb-0411-4016-ac71-535348042de6" cx="277.26" cy="21.04" rx="1.34" ry="1.9" transform="translate(40.79 167.32) rotate(-36.08)"/>
                <ellipse class="febfcfcb-0411-4016-ac71-535348042de6" cx="278.95" cy="23.8" rx="0.77" ry="1.09"/>
              </g>
            </g>
            <g>
              <g>
                <g>
                  <ellipse class="a8445cd5-b3e2-4725-a5ca-20f709940213" cx="106.42" cy="32.02" rx="7.86" ry="9.22" transform="translate(-3.68 16.89) rotate(-8.92)"/>
                  <path class="be312704-c86f-4f23-aaa5-ccf1f2e61d25" d="M98.77,33.22c.79,5,4.9,8.56,9.19,7.89,3.68-.58,6.28-4.06,6.44-8.21a7.34,7.34,0,0,1-5.18,3.74c-4.29.67-8.4-2.87-9.19-7.9a10.87,10.87,0,0,1-.12-2.12A10.12,10.12,0,0,0,98.77,33.22Z"/>
                  <ellipse class="b7419314-e313-4471-b4a6-1e55ce9078c4" cx="106.42" cy="32.02" rx="7.86" ry="9.22" transform="translate(-3.68 16.89) rotate(-8.92)"/>
                </g>
                <ellipse class="febfcfcb-0411-4016-ac71-535348042de6" cx="103.1" cy="26.35" rx="2.51" ry="1.77" transform="translate(21.09 94.15) rotate(-53.92)"/>
                <ellipse class="febfcfcb-0411-4016-ac71-535348042de6" cx="100.87" cy="30" rx="1.02" ry="1.44"/>
              </g>
              <g>
                <g>
                  <ellipse class="a7c47c71-6158-4e17-b9bd-ff30085038f6" cx="90.37" cy="34.54" rx="4.72" ry="5.54" transform="matrix(0.99, -0.16, 0.16, 0.99, -4.26, 14.43)"/>
                  <path class="a1cd2d64-3d48-4ccc-af95-7758cc21c231" d="M85.77,35.26c.48,3,3,5.14,5.52,4.74a5,5,0,0,0,3.88-4.93,4.41,4.41,0,0,1-3.12,2.24c-2.57.4-5-1.72-5.52-4.74a6.86,6.86,0,0,1-.07-1.27A6.09,6.09,0,0,0,85.77,35.26Z"/>
                  <ellipse class="b7419314-e313-4471-b4a6-1e55ce9078c4" cx="90.37" cy="34.54" rx="4.72" ry="5.54" transform="matrix(0.99, -0.16, 0.16, 0.99, -4.26, 14.43)"/>
                </g>
                <ellipse class="febfcfcb-0411-4016-ac71-535348042de6" cx="88.38" cy="31.13" rx="1.51" ry="1.06" transform="translate(11.17 84.22) rotate(-53.92)"/>
                <ellipse class="febfcfcb-0411-4016-ac71-535348042de6" cx="87.04" cy="33.32" rx="0.61" ry="0.87"/>
              </g>
            </g>
            <path class="a3680cee-3420-4af8-81dd-a104d4ea37cd" d="M529.16,307.22l-30,1.75c-12.09.72-24.17,1.4-36.25,2.11l-22.1,1.29-.45-11.11,3.66-.42,27.63-2.36v.68h3.73v-1l23.78-2.07h.16l3.73-.49v10l25.75-1.46C528.9,305.18,529,306.19,529.16,307.22Z"/>
            <path class="b454b731-9a31-4469-87de-0346008db32b" d="M532.16,300.34l22.46.11-.39.36c1.2-13.62,4.46-28,13.61-38.57a21.59,21.59,0,0,1,18.61-7.4,22.32,22.32,0,0,1,17.34,10c-6.06-9-17.46-12-27.46-8.33-9.69,4.14-14.57,14.67-17.71,24.13A91.63,91.63,0,0,0,555,300.87l0,.36h-.37l-22.46.11v-1Z"/>
            <path class="b454b731-9a31-4469-87de-0346008db32b" d="M351.59,271.05c18.15-26.67,58.11-28.75,78.62-3.77a49.57,49.57,0,0,1,11.38,27.45A49.32,49.32,0,0,0,430,267.45c-12.9-15.57-35.71-21.42-54.5-14a49,49,0,0,0-23.11,18.19l-.82-.56Z"/>
            <g>
              <g>
                <ellipse class="a7c47c71-6158-4e17-b9bd-ff30085038f6" cx="298.48" cy="220.19" rx="5.54" ry="4.72" transform="translate(61.27 505.32) rotate(-86.66)"/>
                <path class="a1cd2d64-3d48-4ccc-af95-7758cc21c231" d="M303.13,220.46c-.18,3-2.43,5.4-5,5.25a4.94,4.94,0,0,1-4.33-4.53,4.41,4.41,0,0,0,3.32,1.93c2.6.15,4.85-2.2,5-5.25a6,6,0,0,0-.05-1.28A6.13,6.13,0,0,1,303.13,220.46Z"/>
                <ellipse class="a7e9630e-27c0-4b24-acc3-fdc93a01a6f1" cx="298.48" cy="220.19" rx="5.54" ry="4.72" transform="translate(61.27 505.32) rotate(-86.66)"/>
              </g>
              <ellipse class="febfcfcb-0411-4016-ac71-535348042de6" cx="300.14" cy="216.6" rx="1.06" ry="1.51" transform="translate(-68.08 254.27) rotate(-41.66)"/>
              <ellipse class="febfcfcb-0411-4016-ac71-535348042de6" cx="301.68" cy="218.65" rx="0.61" ry="0.87" transform="translate(-19.89 30.47) rotate(-5.6)"/>
            </g>
            <g>
              <ellipse class="e61e57a8-7f2b-4e17-999b-2b9c739c5ddf" cx="83.74" cy="234.34" rx="13.83" ry="17.79"/>
              <ellipse class="ee32479b-5286-4c95-be2c-bf71e44d4ab6" cx="82.3" cy="236.01" rx="10.85" ry="13.97"/>
              <ellipse class="bd503bce-27ee-4be7-91b8-495bfc6cc731" cx="82.3" cy="236.01" rx="9.77" ry="12.57"/>
              <ellipse class="ee32479b-5286-4c95-be2c-bf71e44d4ab6" cx="85.58" cy="229.01" rx="3.72" ry="5.16" transform="translate(-131.66 116.85) rotate(-42.2)"/>
              <ellipse class="ee32479b-5286-4c95-be2c-bf71e44d4ab6" cx="89.26" cy="236.92" rx="1.86" ry="2.58" transform="translate(-22.61 9.8) rotate(-5.58)"/>
            </g>
            <g>
              <path class="ac8baf28-ca67-40f3-9aaf-58f7eff2cb73" d="M173.94,56.23c.28,2.71-7.3,5.54-9.42,6.32-4.1,1.53-7.18,1.94-19.54,3.27-6.43.69-9.66,1-10.36,1.06-7.76.22-19.59-.84-20-3.86-.35-2.44,6.9-5.3,8.38-5.89,7.28-2.88,10.19-1.28,20.62-2.54s12.94-3.52,20.69-2.42C165.5,52.34,173.65,53.5,173.94,56.23Z"/>
              <path class="b2319fae-51f4-4fe9-921a-85d291a0a72d" d="M173.94,56.22c.29,2.71-7.3,5.54-9.4,6.34-4.1,1.51-7.19,1.92-19.56,3.24-6.43.71-9.64,1-10.35,1.08-5.5.16-13.06-.33-17.13-1.72A66.9,66.9,0,0,0,133,66.42c.71,0,3.92-.39,10.35-1.08,12.36-1.32,15.45-1.73,19.56-3.27,2.1-.77,9.69-3.6,9.4-6.31-.12-1.19-1.76-2.1-3.65-2.73C171.16,53.65,173.77,54.71,173.94,56.22Z"/>
              <path class="b2319fae-51f4-4fe9-921a-85d291a0a72d" d="M142.43,46.18,140.7,58.12a8.57,8.57,0,0,0,9.08-1.3l-4.29-11.07Z"/>
            </g>
            <path class="b6de7103-0ae0-4ebc-adb9-40b5f59a96b7" d="M270.24,47.24,133.4,184.09c-30.29,3.11-57.31,7.42-57.31,7.42H76s-1.36.16-2.07.22a9.39,9.39,0,0,0,0-1.06s-.12-7.16-.29-15.88c28.55-29.12,102.83-102.57,131.6-131l7.13.1h.26l4.89.09c3.08,0,6.06.1,9,.17,1.75,0,3.5.06,5.19.12,4.21.1,8.29.3,12.44.52,1.71.1,3.43.2,5.15.33,6.35.45,12.93,1.07,20,2C269.6,47.15,269.92,47.18,270.24,47.24Z"/>
            <path class="b6de7103-0ae0-4ebc-adb9-40b5f59a96b7" d="M281.22,48.86,147.39,182.69l-4.54.39L277.65,48.27C278.89,48.47,280.08,48.66,281.22,48.86Z"/>
            <path class="b6de7103-0ae0-4ebc-adb9-40b5f59a96b7" d="M112.33,49.34,71.9,89.77c0-2.85-.1-5.67-.13-8.52l30.39-30.39C105.63,50.31,109,49.79,112.33,49.34Z"/>
            <path class="b6de7103-0ae0-4ebc-adb9-40b5f59a96b7" d="M318.31,76v1.36c0,2,0,3.92-.06,5.87l-98.72,98.71q-3.34-.24-6.73-.39Z"/>
            <path class="b75f3a7e-1e33-43c1-b232-a716f1f31697" d="M362.48,100.53V85.85l-4.18-.74-40.66-7.19c-.1,16.06-.23,32.17-.39,48.23,0,6.65-.09,13.29-.13,19.93,0,1.1,0,2.17,0,3.27,0,1.46,0,2.88,0,4.34,0,2.43,0,4.89-.07,7.32l13.19.94,5,.36,27.31,1.94v-56l.06-.06V103.9l-.06.06Z"/>
            <g>
              <polygon class="af9d7566-79ca-41cc-9452-49bcc91c9539" points="424.77 96.64 424.77 168.5 407.34 167.24 388.52 165.91 368.82 164.48 368.82 86.76 403.39 92.85 411.33 94.28 420.95 95.96 424.77 96.64"/>
              <polygon class="b6de7103-0ae0-4ebc-adb9-40b5f59a96b7" points="411.33 94.28 368.82 136.78 368.82 127.42 403.39 92.85 411.33 94.28"/>
              <polygon class="b6de7103-0ae0-4ebc-adb9-40b5f59a96b7" points="424.77 96.64 424.77 103.25 368.82 159.2 368.82 148.09 420.95 95.96 424.77 96.64"/>
              <polygon class="b6de7103-0ae0-4ebc-adb9-40b5f59a96b7" points="369.47 164.51 424.77 109.21 424.77 106.91 368.82 162.86 369.47 164.51"/>
              <polygon class="b6de7103-0ae0-4ebc-adb9-40b5f59a96b7" points="424.77 129.65 424.77 149.81 407.34 167.24 388.52 165.91 424.77 129.65"/>
              <polygon class="b75f3a7e-1e33-43c1-b232-a716f1f31697" points="411.61 94.62 403.67 93.2 369.1 87.11 369.1 127.77 369.1 137.13 369.1 148.44 369.1 159.55 369.1 164.83 388.8 166.25 407.62 167.58 425.05 168.84 425.05 150.15 425.05 130 425.05 109.56 425.05 107.26 425.05 103.6 425.05 96.99 421.23 96.31 411.61 94.62"/>
            </g>
            <g>
              <polygon class="af9d7566-79ca-41cc-9452-49bcc91c9539" points="444.05 100.04 444.05 169.86 431.19 168.95 431.19 97.78 444.05 100.04"/>
              <polygon class="b6de7103-0ae0-4ebc-adb9-40b5f59a96b7" points="444.05 100.43 444.05 105.36 431.19 118.22 431.19 113.29 444.05 100.43"/>
              <polygon class="b6de7103-0ae0-4ebc-adb9-40b5f59a96b7" points="431.19 153.3 444.05 140.44 444.05 113.94 431.19 126.8 431.19 153.3"/>
              <polygon class="b6de7103-0ae0-4ebc-adb9-40b5f59a96b7" points="431.19 154.73 444.05 141.87 444.05 145.11 431.19 158 431.19 154.73"/>
              <polygon class="b75f3a7e-1e33-43c1-b232-a716f1f31697" points="431.75 113.29 431.75 118.22 431.75 168.95 444.61 169.86 444.61 145.11 444.61 141.87 444.61 140.44 444.61 113.94 444.61 105.36 444.61 100.43 444.61 100.04 431.75 97.78 431.75 113.29"/>
            </g>
            <g>
              <path class="af9d7566-79ca-41cc-9452-49bcc91c9539" d="M468,111.48v71.08a4.06,4.06,0,0,1-4,4.08H451.17a4.07,4.07,0,0,1-4.08-4.08V108.4a4.07,4.07,0,0,1,5-4l12.74,3.08a4,4,0,0,1,2.2,1.39A3.94,3.94,0,0,1,468,111.48Z"/>
              <path class="b6de7103-0ae0-4ebc-adb9-40b5f59a96b7" d="M468,111.48v3.37l-20.87,20.83v-6.8l20-20A3.94,3.94,0,0,1,468,111.48Z"/>
              <path class="b6de7103-0ae0-4ebc-adb9-40b5f59a96b7" d="M468,126v22.07c-5.41,5.37-15.59,15.55-20.87,20.83v-22Z"/>
              <polygon class="b6de7103-0ae0-4ebc-adb9-40b5f59a96b7" points="447.09 176.95 467.96 156.12 467.96 157.81 447.09 178.64 447.09 176.95"/>
              <path class="b75f3a7e-1e33-43c1-b232-a716f1f31697" d="M465.19,107.53l-12.74-3.08a4.07,4.07,0,0,0-5,4v74.16a4.07,4.07,0,0,0,4.08,4.08h12.74a4.06,4.06,0,0,0,4.05-4.08V111.48a3.94,3.94,0,0,0-.91-2.56A4,4,0,0,0,465.19,107.53Z"/>
            </g>
            <g>
              <path class="af9d7566-79ca-41cc-9452-49bcc91c9539" d="M495.43,115v67.26c0,2.16-1.43,3.86-3.21,3.86h-9.94a2.91,2.91,0,0,1-2.34-1.22,4.17,4.17,0,0,1-.87-2.64V112c0-2.47,1.94-4.34,3.95-3.73l10,2.9a3,3,0,0,0,.48.16A4,4,0,0,1,495.43,115Z"/>
              <path class="b6de7103-0ae0-4ebc-adb9-40b5f59a96b7" d="M495.43,115v.61c-4.28,4.43-12.57,13-16.36,16.54v-6.43l14.38-14.34A4,4,0,0,1,495.43,115Z"/>
              <path class="b6de7103-0ae0-4ebc-adb9-40b5f59a96b7" d="M495.43,150.87c-2,2-11.31,11.27-16.36,16.34V145.38L495.43,129Z"/>
              <polygon class="b6de7103-0ae0-4ebc-adb9-40b5f59a96b7" points="479.07 172.31 495.43 156 495.43 154.71 479.07 171.02 479.07 172.31"/>
              <path class="b6de7103-0ae0-4ebc-adb9-40b5f59a96b7" d="M495.43,169.69v5.07c-2,2.07-8,8.27-11.47,11.63h-1.68a2.89,2.89,0,0,1-2.34-1.23Z"/>
              <path class="b75f3a7e-1e33-43c1-b232-a716f1f31697" d="M493.27,110.94a3.49,3.49,0,0,1-.49-.16l-9.94-2.91c-2-.61-4,1.26-4,3.75v70.46a4.2,4.2,0,0,0,.88,2.65,2.88,2.88,0,0,0,2.33,1.23h10c1.78,0,3.21-1.71,3.21-3.88V114.56A4,4,0,0,0,493.27,110.94Z"/>
            </g>
            <g>
              <polygon class="af9d7566-79ca-41cc-9452-49bcc91c9539" points="518.72 113.39 518.72 175.92 499.35 174.49 499.35 109.83 505.34 110.93 511.14 112 518.72 113.39"/>
              <polygon class="b6de7103-0ae0-4ebc-adb9-40b5f59a96b7" points="499.35 123.76 511.14 112 505.34 110.93 499.35 116.89 499.35 123.76"/>
              <polygon class="b6de7103-0ae0-4ebc-adb9-40b5f59a96b7" points="499.35 131.5 517.69 113.2 517.23 113.13 499.35 131.01 499.35 131.5"/>
              <polygon class="b6de7103-0ae0-4ebc-adb9-40b5f59a96b7" points="518.72 126.87 518.72 149.35 499.35 168.72 499.35 146.24 518.72 126.87"/>
              <polygon class="b75f3a7e-1e33-43c1-b232-a716f1f31697" points="518.24 113.33 518.15 113.31 511.7 112.13 505.9 111.06 499.91 109.96 499.91 117.02 499.91 123.89 499.91 131.14 499.91 131.63 499.91 146.37 499.91 168.85 499.91 174.62 519.28 176.05 519.28 149.48 519.28 127 519.28 113.52 518.24 113.33 518.24 113.33"/>
            </g>
            <g>
              <polygon class="af9d7566-79ca-41cc-9452-49bcc91c9539" points="557.21 120.42 557.21 178.74 535.63 177.12 524.13 176.27 524.13 114.33 542.34 117.7 547.78 118.67 555.53 120.1 557.21 120.42"/>
              <polygon class="b6de7103-0ae0-4ebc-adb9-40b5f59a96b7" points="547.78 118.67 524.13 142.32 524.13 135.91 542.34 117.7 547.78 118.67"/>
              <polygon class="b6de7103-0ae0-4ebc-adb9-40b5f59a96b7" points="557.21 120.42 524.13 153.5 524.13 151.46 555.53 120.1 557.21 120.42"/>
              <polygon class="b6de7103-0ae0-4ebc-adb9-40b5f59a96b7" points="557.21 124.99 557.21 125.83 524.13 158.94 524.13 158.07 557.21 124.99"/>
              <polygon class="b6de7103-0ae0-4ebc-adb9-40b5f59a96b7" points="557.21 137.59 524.13 170.67 524.13 176.27 535.63 177.12 557.21 155.54 557.21 137.59"/>
              <polygon class="b75f3a7e-1e33-43c1-b232-a716f1f31697" points="547.78 118.67 542.34 117.7 524.13 114.33 524.13 135.91 524.13 142.32 524.13 151.46 524.13 153.5 524.13 158.07 524.13 158.94 524.13 176.27 535.63 177.12 557.21 178.74 557.21 155.54 557.21 137.59 557.21 125.83 557.21 124.99 557.21 120.42 555.53 120.1 547.78 118.67"/>
            </g>
            <g>
              <polygon class="af9d7566-79ca-41cc-9452-49bcc91c9539" points="589.54 126.35 589.54 181.13 562.62 179.13 562.62 121.42 569.17 122.62 574.32 123.56 583.68 125.28 589.54 126.35"/>
              <path class="b6de7103-0ae0-4ebc-adb9-40b5f59a96b7" d="M574.32,123.56l-11.7,11.7v-5.93c2-2,4.57-4.67,6.55-6.71Z"/>
              <polygon class="b6de7103-0ae0-4ebc-adb9-40b5f59a96b7" points="589.54 126.35 589.54 126.45 562.62 153.4 562.62 146.37 583.68 125.28 589.54 126.35"/>
              <polygon class="b6de7103-0ae0-4ebc-adb9-40b5f59a96b7" points="589.54 129.95 589.54 135.62 562.62 162.54 562.62 156.9 589.54 129.95"/>
              <polygon class="b6de7103-0ae0-4ebc-adb9-40b5f59a96b7" points="589.54 142.94 589.54 145.59 562.62 172.52 562.62 169.86 589.54 142.94"/>
              <polygon class="b6de7103-0ae0-4ebc-adb9-40b5f59a96b7" points="589.54 147.12 589.54 149.77 562.62 176.73 562.62 174.07 589.54 147.12"/>
              <polygon class="b75f3a7e-1e33-43c1-b232-a716f1f31697" points="574.32 123.65 569.17 122.71 562.62 121.51 562.62 129.42 562.62 135.35 562.62 146.46 562.62 153.49 562.62 156.99 562.62 162.63 562.62 169.95 562.62 172.6 562.62 174.16 562.62 176.82 562.62 179.21 589.54 181.22 589.54 149.86 589.54 147.21 589.54 145.68 589.54 143.03 589.54 135.7 589.54 130.03 589.54 126.54 589.54 126.44 583.68 125.37 574.32 123.65"/>
            </g>
            <line class="ef537f58-65aa-4b0a-bf5f-2fc057d0e63a" x1="329.26" y1="43.57" x2="649.48" y2="116.86"/>
            <g>
              <g>
                <path class="a92b9236-9456-4cd7-a2af-75966261ea6d" d="M139.71,38.41a6.89,6.89,0,0,1-6.05-2.85,37,37,0,0,1,2.24-3.47c1.16,2.06,3.8,3,4.64,1.93.68-.8-.07-2-2.38-3s-4.43-2-4.6-4.61a3.91,3.91,0,0,1,3.7-4.23,6.34,6.34,0,0,1,6.44,3.67A24.05,24.05,0,0,0,140.44,28a2.5,2.5,0,0,0-2.15-1.69.86.86,0,0,0-.88,1.05c.13,1,1.14,1.33,2.86,1.9,2.57.81,4.09,2.34,4.21,4.3C144.64,36.71,142.1,38.32,139.71,38.41Z"/>
                <path class="a92b9236-9456-4cd7-a2af-75966261ea6d" d="M149.72,37.92a3.87,3.87,0,0,1-4.48-3.2c-.78-3.35.72-6.87,3.16-7.33a3.82,3.82,0,0,1,4.43,3.05,16.49,16.49,0,0,0-3.09,1c-.07-.64-.36-1.29-1-1.17s-1.16,1.27-1.06,2.62.73,2.34,1.46,2.26,1-.63,1-1.48c0,0,1.67-.27,3.44-.39A4.18,4.18,0,0,1,149.72,37.92Z"/>
                <path class="a92b9236-9456-4cd7-a2af-75966261ea6d" d="M158.86,37.15c1.12-3.59.53-6.81-.45-7.06-.53-.12-1,.18-1.35.74a54.34,54.34,0,0,0,.58,6.68,24.21,24.21,0,0,0-3.2.38,126.19,126.19,0,0,0-1.07-18c1.88-.47,3.9-.93,3.9-.93-.19,2.07-.3,5.56-.26,9.08a3.57,3.57,0,0,1,2.83-.91c2.88.35,3.81,4.29,2.66,10.42A26.75,26.75,0,0,0,158.86,37.15Z"/>
                <path class="a92b9236-9456-4cd7-a2af-75966261ea6d" d="M168.18,37.35a4,4,0,0,1-4.33-3.29c-.81-3.26.65-7.25,3.61-7.38,2.12-.1,4,1.91,4.35,5.16C172.09,34.68,170.85,37.07,168.18,37.35Zm-.64-7.17c-1,.13-1.57,1.81-1.25,3.29.23,1.25.91,1.74,1.55,1.65.94-.13,1.39-1.38,1.25-2.63C168.92,31,168.25,30.11,167.54,30.18Z"/>
                <path class="a92b9236-9456-4cd7-a2af-75966261ea6d" d="M177,37a4,4,0,0,1-4.34-3.3c-.81-3.26.65-7.25,3.61-7.38,2.13-.1,4.05,1.91,4.36,5.17C180.89,34.35,179.65,36.74,177,37Zm-.65-7.17c-1,.13-1.56,1.8-1.25,3.28.24,1.25.92,1.75,1.55,1.65,1-.13,1.4-1.38,1.26-2.63C177.72,30.68,177.05,29.78,176.34,29.86Z"/>
                <path class="a92b9236-9456-4cd7-a2af-75966261ea6d" d="M181.47,37a65.58,65.58,0,0,0-.89-18.18,23.93,23.93,0,0,0,3.71-.8,107.06,107.06,0,0,0,1.21,18.49C183.54,36.69,181.47,37,181.47,37Z"/>
                <path class="a92b9236-9456-4cd7-a2af-75966261ea6d" d="M199.16,35.57a12.9,12.9,0,0,1-7.22.07A45.17,45.17,0,0,0,191.26,21c3.74-1.18,8.62-1.18,9.35,2.73a3.85,3.85,0,0,1-2.18,4.2,3.56,3.56,0,0,1,3.37,2.86A3.89,3.89,0,0,1,199.16,35.57Zm-4.52-11.46c.18,1,.31,2.07.42,3.18,1.32-.26,2.32-.87,2.35-1.84C197.44,24.27,196.37,23.64,194.64,24.11Zm.61,5.56c.09,1.21.13,2.34.12,3.22,2.2.13,3.17-.73,3-1.89C198.2,30,197.11,29.49,195.25,29.67Z"/>
                <path class="a92b9236-9456-4cd7-a2af-75966261ea6d" d="M208.15,35.8c0-.35,0-.73,0-1.09a3.81,3.81,0,0,1-2.93.89c-2.9-.27-3.77-4.67-2.15-10.31l3.4.49c-1,3.35-.91,6.85.23,7a1.36,1.36,0,0,0,1.35-.67c-.16-2.36-.46-4.81-.8-6.86a13,13,0,0,0,3.26-.43,44.71,44.71,0,0,0,.55,10.59A14.74,14.74,0,0,0,208.15,35.8Z"/>
                <g>
                  <path class="a92b9236-9456-4cd7-a2af-75966261ea6d" d="M187.25,18.14a3,3,0,0,0-3-3.12,3.33,3.33,0,0,0-.93.14,21.14,21.14,0,0,1-3.16.68,3,3,0,0,0-2.51,3.57c.25,1.18.48,2.71.66,4.37a6.93,6.93,0,0,0-2.21-.39h0a6.28,6.28,0,0,0-4.28,2,6.72,6.72,0,0,0-4.51-1.7h0a6.22,6.22,0,0,0-4.09,1.83,5.81,5.81,0,0,0-3.09-1.33H160c0-1.93.12-3.7.23-4.94A3,3,0,0,0,157.27,16a3,3,0,0,0-.66.07s-2.05.47-4,.95a3,3,0,0,0-2.2,3.31c.18,1.22.34,2.68.49,4.24a6.39,6.39,0,0,0-1.75-.27,6.81,6.81,0,0,0-1.33.13,5.7,5.7,0,0,0-1.39.47,3.33,3.33,0,0,0-.13-.45A9.38,9.38,0,0,0,138,19.18a9.51,9.51,0,0,0-1.05.06,7,7,0,0,0-4.11,12.06c-.51.74-1.21,1.82-1.77,2.83a3,3,0,0,0,.22,3.2,9.9,9.9,0,0,0,8.1,4.05h.44a8.33,8.33,0,0,0,5-1.9,6.81,6.81,0,0,0,4.31,1.45,6.71,6.71,0,0,0,.93-.06,7.84,7.84,0,0,0,2.48-.7,3,3,0,0,0,1.9.69,3.29,3.29,0,0,0,.54-.05,22.17,22.17,0,0,1,2.77-.33,2.93,2.93,0,0,0,1.27-.34,24.11,24.11,0,0,1,2.89.36,2.88,2.88,0,0,0,.59.06,3,3,0,0,0,1.65-.5,2.73,2.73,0,0,0,.48-.48,7.09,7.09,0,0,0,3.16.77,5.53,5.53,0,0,0,.71,0,6.72,6.72,0,0,0,3.9-1.71A7,7,0,0,0,176.59,40a5.33,5.33,0,0,0,.71,0,6.93,6.93,0,0,0,2.39-.71,2.89,2.89,0,0,0,1.78.66l.38,0s2.05-.27,4-.48a3,3,0,0,0,2.06-1.18,2.93,2.93,0,0,0,.53-2.31A105.53,105.53,0,0,1,187.25,18.14Z"/>
                  <path class="a92b9236-9456-4cd7-a2af-75966261ea6d" d="M222,29.92l.13-.2a2.94,2.94,0,0,0,.26-2.52c-1.2-3.42-3.76-5.38-7-5.38l-.67,0a7,7,0,0,0-2.37.62,2.93,2.93,0,0,0-1.79-.61,2.83,2.83,0,0,0-.91.14,10.49,10.49,0,0,1-2.35.29,3,3,0,0,0-1.47.39l-2.29-.32-.2,0c-1-3.15-3.83-5-7.88-5a17,17,0,0,0-5,.82,3,3,0,0,0-2,3.49,42.46,42.46,0,0,1,.65,13.5,3,3,0,0,0,2,3.34,15.89,15.89,0,0,0,9.09-.11,7.8,7.8,0,0,0,1.9-1A5.52,5.52,0,0,0,205,38.55a5.63,5.63,0,0,0,.71,0,7.1,7.1,0,0,0,1.22-.11,2.87,2.87,0,0,0,1.26.29,2.64,2.64,0,0,0,.74-.1,12,12,0,0,1,2.25-.3,3,3,0,0,0,1.44-.46,8.47,8.47,0,0,0,3.21.64H216c4-.11,6.75-2.54,6.71-5.92A5.13,5.13,0,0,0,222,29.92Z"/>
                </g>
                <path class="a92b9236-9456-4cd7-a2af-75966261ea6d" d="M216,35.58a5.25,5.25,0,0,1-4.51-2.1,16.26,16.26,0,0,1,2-2.54c.86,1.6,2.32,1.95,2.66,1.51s.06-1-1.5-1.58S212,29.5,211.85,28c-.12-1.26.6-2.94,3.08-3.15,2.67-.21,4,1.58,4.67,3.38a9.5,9.5,0,0,0-3,1c-.78-1.82-1.93-1.7-1.81-1,.36,2,5,1.4,5,4.45C219.81,34.49,218.09,35.53,216,35.58Z"/>
              </g>
              <g>
                <path class="f9ce4a77-59d3-4742-bf17-f99e5e1de068" d="M139.71,38.41a6.89,6.89,0,0,1-6.05-2.85,37,37,0,0,1,2.24-3.47c1.16,2.06,3.8,3,4.64,1.93.68-.8-.07-2-2.38-3s-4.43-2-4.6-4.61a3.91,3.91,0,0,1,3.7-4.23,6.34,6.34,0,0,1,6.44,3.67A24.05,24.05,0,0,0,140.44,28a2.5,2.5,0,0,0-2.15-1.69.86.86,0,0,0-.88,1.05c.13,1,1.14,1.33,2.86,1.9,2.57.81,4.09,2.34,4.21,4.3C144.64,36.71,142.1,38.32,139.71,38.41Z"/>
                <path class="f9ce4a77-59d3-4742-bf17-f99e5e1de068" d="M149.72,37.92a3.87,3.87,0,0,1-4.48-3.2c-.78-3.35.72-6.87,3.16-7.33a3.82,3.82,0,0,1,4.43,3.05,16.49,16.49,0,0,0-3.09,1c-.07-.64-.36-1.29-1-1.17s-1.16,1.27-1.06,2.62.73,2.34,1.46,2.26,1-.63,1-1.48c0,0,1.67-.27,3.44-.39A4.18,4.18,0,0,1,149.72,37.92Z"/>
                <path class="f9ce4a77-59d3-4742-bf17-f99e5e1de068" d="M158.86,37.15c1.12-3.59.53-6.81-.45-7.06-.53-.12-1,.18-1.35.74a54.34,54.34,0,0,0,.58,6.68,24.21,24.21,0,0,0-3.2.38,126.19,126.19,0,0,0-1.07-18c1.88-.47,3.9-.93,3.9-.93-.19,2.07-.3,5.56-.26,9.08a3.57,3.57,0,0,1,2.83-.91c2.88.35,3.81,4.29,2.66,10.42A26.75,26.75,0,0,0,158.86,37.15Z"/>
                <path class="f9ce4a77-59d3-4742-bf17-f99e5e1de068" d="M168.18,37.35a4,4,0,0,1-4.33-3.29c-.81-3.26.65-7.25,3.61-7.38,2.12-.1,4,1.91,4.35,5.16C172.09,34.68,170.85,37.07,168.18,37.35Zm-.64-7.17c-1,.13-1.57,1.81-1.25,3.29.23,1.25.91,1.74,1.55,1.65.94-.13,1.39-1.38,1.25-2.63C168.92,31,168.25,30.11,167.54,30.18Z"/>
                <path class="f9ce4a77-59d3-4742-bf17-f99e5e1de068" d="M177,37a4,4,0,0,1-4.34-3.3c-.81-3.26.65-7.25,3.61-7.38,2.13-.1,4.05,1.91,4.36,5.17C180.89,34.35,179.65,36.74,177,37Zm-.65-7.17c-1,.13-1.56,1.8-1.25,3.28.24,1.25.92,1.75,1.55,1.65,1-.13,1.4-1.38,1.26-2.63C177.72,30.68,177.05,29.78,176.34,29.86Z"/>
                <path class="f9ce4a77-59d3-4742-bf17-f99e5e1de068" d="M181.47,37a65.58,65.58,0,0,0-.89-18.18,23.93,23.93,0,0,0,3.71-.8,107.06,107.06,0,0,0,1.21,18.49C183.54,36.69,181.47,37,181.47,37Z"/>
                <path class="f9ce4a77-59d3-4742-bf17-f99e5e1de068" d="M199.16,35.57a12.9,12.9,0,0,1-7.22.07A45.17,45.17,0,0,0,191.26,21c3.74-1.18,8.62-1.18,9.35,2.73a3.85,3.85,0,0,1-2.18,4.2,3.56,3.56,0,0,1,3.37,2.86A3.89,3.89,0,0,1,199.16,35.57Zm-4.52-11.46c.18,1,.31,2.07.42,3.18,1.32-.26,2.32-.87,2.35-1.84C197.44,24.27,196.37,23.64,194.64,24.11Zm.61,5.56c.09,1.21.13,2.34.12,3.22,2.2.13,3.17-.73,3-1.89C198.2,30,197.11,29.49,195.25,29.67Z"/>
                <path class="f9ce4a77-59d3-4742-bf17-f99e5e1de068" d="M208.15,35.8c0-.35,0-.73,0-1.09a3.81,3.81,0,0,1-2.93.89c-2.9-.27-3.77-4.67-2.15-10.31l3.4.49c-1,3.35-.91,6.85.23,7a1.36,1.36,0,0,0,1.35-.67c-.16-2.36-.46-4.81-.8-6.86a13,13,0,0,0,3.26-.43,44.71,44.71,0,0,0,.55,10.59A14.74,14.74,0,0,0,208.15,35.8Z"/>
                <path class="f9ce4a77-59d3-4742-bf17-f99e5e1de068" d="M216,35.58a5.25,5.25,0,0,1-4.51-2.1,16.26,16.26,0,0,1,2-2.54c.86,1.6,2.32,1.95,2.66,1.51s.06-1-1.5-1.58S212,29.5,211.85,28c-.12-1.26.6-2.94,3.08-3.15,2.67-.21,4,1.58,4.67,3.38a9.5,9.5,0,0,0-3,1c-.78-1.82-1.93-1.7-1.81-1,.36,2,5,1.4,5,4.45C219.81,34.49,218.09,35.53,216,35.58Z"/>
              </g>
            </g>
            <g>
              <g>
                <path class="af9d7566-79ca-41cc-9452-49bcc91c9539" d="M468.71,199.86v0l0,32.93v33.06c0,7.59,0,15.15,0,22.73a3.68,3.68,0,0,1-3.33,3.68l-11.86,1.36A3.74,3.74,0,0,1,449.3,290c0-1.45,0-2.9-.06-4.36,0-2.32,0-4.68-.07-7,0-3.3-.06-6.56-.09-9.85,0-.87,0-1.74,0-2.62-.06-4.55-.09-9.07-.16-13.62-.1-10.85-.23-21.73-.35-32.58-.07-6.52-.17-13-.23-19.56a3.75,3.75,0,0,1,3.59-3.75l13-.48A3.68,3.68,0,0,1,468.71,199.86Z"/>
                <path class="b6de7103-0ae0-4ebc-adb9-40b5f59a96b7" d="M468.71,199.57l0,33-19.8,19.8c-.1-10.89-.23-21.81-.35-32.69Z"/>
                <path class="b6de7103-0ae0-4ebc-adb9-40b5f59a96b7" d="M468.68,246.45v2.49c-5.22,5.38-15.46,15.84-19.6,19.76,0-.87,0-1.75,0-2.62Z"/>
                <path class="b6de7103-0ae0-4ebc-adb9-40b5f59a96b7" d="M468.68,259.05v6.74c-4.93,5.15-14.49,15.19-19.44,19.82,0-2.33,0-4.69-.07-7Z"/>
              </g>
              <path class="b75f3a7e-1e33-43c1-b232-a716f1f31697" d="M464.75,196.33l-13,.49a3.75,3.75,0,0,0-3.6,3.76c.07,6.54.17,13.09.23,19.63q.19,16.33.36,32.69c.06,4.57.09,9.1.16,13.67,0,.87,0,1.75,0,2.62,0,3.31.07,6.58.1,9.89,0,2.33.06,4.69.06,7,0,1.45.07,2.91.07,4.37a3.74,3.74,0,0,0,4.15,3.66l11.85-1.36a3.69,3.69,0,0,0,3.34-3.69c0-7.62,0-15.2,0-22.81V233.1l0-33v0A3.69,3.69,0,0,0,464.75,196.33Z"/>
            </g>
            <g>
              <path class="af9d7566-79ca-41cc-9452-49bcc91c9539" d="M495.43,198.43v8c0,7.8,0,15.64,0,23.45V247c0,9.11,0,18.18,0,27.28v12.41a3.49,3.49,0,0,1-2.65,3.66l-9.53,1.33a2.41,2.41,0,0,1-1.36-.19,3.35,3.35,0,0,1-1.68-2,3.56,3.56,0,0,1-.29-1.46c-.07-8.42-.17-16.84-.23-25.27,0-1.07,0-2.14,0-3.21s0-2.36,0-3.56v-1.78c0-2.79-.06-5.57-.06-8.39-.06-7.71-.16-15.46-.23-23.2s-.13-15.74-.19-23.65c0-2,1.26-3.63,2.88-3.72l10.37-.49C494,194.68,495.43,196.33,495.43,198.43Z"/>
              <g>
                <path class="b6de7103-0ae0-4ebc-adb9-40b5f59a96b7" d="M495.59,195.84c0,7.93,0,15.9,0,23.84l-16.17,16.17c-.06-7.84-.16-15.71-.23-23.58Z"/>
                <path class="b6de7103-0ae0-4ebc-adb9-40b5f59a96b7" d="M495.43,227.55v2l-15.84,15.84v-1.78C483.25,240.09,492.25,230.79,495.43,227.55Z"/>
                <path class="b6de7103-0ae0-4ebc-adb9-40b5f59a96b7" d="M495.43,233.13v3.24l-15.78,15.77c0-1.06,0-2.13,0-3.2Z"/>
                <path class="b6de7103-0ae0-4ebc-adb9-40b5f59a96b7" d="M495.4,263.65v3.07c-2.08,2.27-9.37,10.21-13.55,14.13a3.35,3.35,0,0,1-1.68-2Z"/>
              </g>
              <path class="b75f3a7e-1e33-43c1-b232-a716f1f31697" d="M492.32,194.52,482,195c-1.62.09-2.88,1.75-2.88,3.72.06,7.91.13,15.78.19,23.65s.17,15.49.23,23.2c0,2.82,0,5.6.06,8.39v1.78c0,1.2,0,2.4,0,3.57s0,2.13,0,3.2c.06,8.43.16,16.85.23,25.27a3.56,3.56,0,0,0,.29,1.46,3.35,3.35,0,0,0,1.68,2,2.41,2.41,0,0,0,1.36.19l9.53-1.33a3.49,3.49,0,0,0,2.65-3.66V274c0-9.1,0-18.17,0-27.27V229.67c0-7.81,0-15.65,0-23.45v-8C495.43,196.11,494,194.46,492.32,194.52Z"/>
            </g>
            <path class="ef537f58-65aa-4b0a-bf5f-2fc057d0e63a" d="M318.44,56.63l-.09,13.61c0,1.91,0,3.85,0,5.76v1.36c0,2,0,3.92-.06,5.87q-.19,21.13-.36,42.31c0,6.64-.09,13.28-.13,19.92,0,1.11,0,2.17,0,3.28,0,1.45,0,2.88,0,4.34,0,2.43,0,4.82-.07,7.25v.13c0,2.73,0,5.45-.06,8.17,0,5.57-.07,11.14-.07,16.71h-.06c0,3.47-.07,6.94-.1,10.4-5.86-1.26-14.29-2.94-24.59-4.43a1.14,1.14,0,0,1-.35-.07h-.13a561.09,561.09,0,0,0-72.74-9.3q-3.34-.24-6.73-.39c-9.59-.48-19.51-.74-29.71-.71-10.79,0-23.2.78-35.7,1.85l-4.54.39c-3.21.29-6.41.61-9.56.94C103,187.13,76,191.44,76,191.44h-.1s-1.36.16-2.07.22c0-.35,0-.71,0-1.07,0,0-.13-7.16-.29-15.87-.1-8-.26-17.3-.42-23.55-.17-11-.43-22.1-.62-33.15-.16-9.42-.36-18.82-.55-28.25,0-2.85-.1-5.67-.13-8.52-.13-6-.23-12-.36-18,0-2.26-.09-4.5-.09-6.77l1.75-.39c6-1.26,11.89-2.39,17.56-3.43v.1q5.88-1.06,11.53-2c3.47-.55,6.87-1.07,10.17-1.52,13.87-1.94,26.28-3.21,37-4,8.62-.64,16.59-1.07,24-1.32,1.75-.07,3.46-.1,5.15-.17,4.86-.09,9.43-.16,13.77-.16,1.78,0,3.53,0,5.18,0,2.63,0,5.15,0,7.62,0l7.12.09h.26l4.89.1c3.08,0,6.06.1,9,.16,1.75,0,3.5.07,5.18.13,4.21.1,8.29.29,12.44.52,1.72.1,3.44.2,5.15.32,6.35.46,12.93,1.07,20.06,2,.32,0,.64.07,1,.13,2.2.32,4.92.71,7.51,1.1,1.24.2,2.43.39,3.57.59,3.37.51,6,.93,6,.93l12,2.31S313.07,55.21,318.44,56.63Z"/>
            <g>
              <path class="e866d4d8-d78b-44bb-8458-e194218e5b92" d="M304,62.27c0,2.91-.06,5.86-.1,8.78,0,1.49,0,3,0,4.44,0,.74,0,1.49,0,2.23,0,2.69-.07,5.38-.1,8.1v1c0,1.72,0,3.44-.06,5.15-.07,7.16-.13,14.36-.23,21.52-1.1.81-9.17,6.44-17.85,3.53a16.65,16.65,0,0,1-5.93-3.53V62.27a23.4,23.4,0,0,1,12.05-3.4,24.74,24.74,0,0,1,5.58.64A22.29,22.29,0,0,1,304,62.27Z"/>
              <path class="f5bc04cc-05a5-4899-abcd-244d739ae3ab" d="M329.26,43.57c.26,6.32-6.38,8.72-6.73,8.78-.59,0-18.18-3.92-21.65-4.69a16.92,16.92,0,0,0-2.43,4.89,23.56,23.56,0,0,0-1.19,7,24.74,24.74,0,0,0-5.58-.64,22.52,22.52,0,0,0-6.67,1,30.38,30.38,0,0,1,1.46-9.62h.06a18.12,18.12,0,0,1,3.76-6.45,15.59,15.59,0,0,1,2.56-2.17c4.79-3.17,10.72-3,13.8-2.82a31,31,0,0,1,8.55,1.56c1.2.26,2.4.55,3.6.84h.1C322.36,42,325.8,42.8,329.26,43.57Z"/>
            </g>
          </g>
        </g>
        <g>
          <ellipse class="f3792ba7-72a6-4d73-9a2d-771ad85354c3" cx="395.92" cy="297.27" rx="1.65" ry="1.81"/>
          <ellipse class="f3792ba7-72a6-4d73-9a2d-771ad85354c3" cx="405.66" cy="299.21" rx="1.65" ry="1.81"/>
          <ellipse class="f3792ba7-72a6-4d73-9a2d-771ad85354c3" cx="410.74" cy="305.48" rx="1.65" ry="1.81"/>
          <ellipse class="f3792ba7-72a6-4d73-9a2d-771ad85354c3" cx="412.64" cy="313.75" rx="1.65" ry="1.81"/>
          <ellipse class="f3792ba7-72a6-4d73-9a2d-771ad85354c3" cx="412.01" cy="323.29" rx="1.65" ry="1.81"/>
          <ellipse class="f3792ba7-72a6-4d73-9a2d-771ad85354c3" cx="407.08" cy="331.08" rx="1.65" ry="1.81"/>
          <ellipse class="f3792ba7-72a6-4d73-9a2d-771ad85354c3" cx="397.06" cy="334.26" rx="1.65" ry="1.81"/>
          <ellipse class="f3792ba7-72a6-4d73-9a2d-771ad85354c3" cx="389.11" cy="326.95" rx="1.65" ry="1.81"/>
          <ellipse class="f3792ba7-72a6-4d73-9a2d-771ad85354c3" cx="386.24" cy="315.65" rx="1.65" ry="1.81"/>
          <ellipse class="f3792ba7-72a6-4d73-9a2d-771ad85354c3" cx="388.15" cy="305.32" rx="1.65" ry="1.81"/>
        </g>
        <g>
          <ellipse class="f3792ba7-72a6-4d73-9a2d-771ad85354c3" cx="581.52" cy="281.85" rx="1.24" ry="1.36"/>
          <ellipse class="f3792ba7-72a6-4d73-9a2d-771ad85354c3" cx="588.83" cy="283.31" rx="1.24" ry="1.36"/>
          <ellipse class="f3792ba7-72a6-4d73-9a2d-771ad85354c3" cx="592.64" cy="288.01" rx="1.24" ry="1.36"/>
          <ellipse class="f3792ba7-72a6-4d73-9a2d-771ad85354c3" cx="594.07" cy="294.21" rx="1.24" ry="1.36"/>
          <ellipse class="f3792ba7-72a6-4d73-9a2d-771ad85354c3" cx="593.59" cy="301.37" rx="1.24" ry="1.36"/>
          <ellipse class="f3792ba7-72a6-4d73-9a2d-771ad85354c3" cx="589.89" cy="307.22" rx="1.24" ry="1.36"/>
          <ellipse class="f3792ba7-72a6-4d73-9a2d-771ad85354c3" cx="582.38" cy="309.61" rx="1.24" ry="1.36"/>
          <ellipse class="f3792ba7-72a6-4d73-9a2d-771ad85354c3" cx="576.41" cy="304.12" rx="1.24" ry="1.36"/>
          <ellipse class="f3792ba7-72a6-4d73-9a2d-771ad85354c3" cx="574.26" cy="295.65" rx="1.24" ry="1.36"/>
          <ellipse class="f3792ba7-72a6-4d73-9a2d-771ad85354c3" cx="575.69" cy="287.89" rx="1.24" ry="1.36"/>
        </g>
      </g>
    </g>
  </g>
</svg>
