<svg xmlns="http://www.w3.org/2000/svg" xmlns:xlink="http://www.w3.org/1999/xlink" width="1600" height="900" viewBox="0 0 1600 900">
  <defs>
    <style>
      .f11454a9-cf69-4a77-af12-055caa0bee7b {
        fill: none;
      }

      .b7db02c4-8daf-4b44-9a54-c50ec054b312 {
        isolation: isolate;
      }

      .a0b87318-2ade-40e4-af85-846ea61f711a {
        clip-path: url(#fe6f96fd-143f-4192-a72a-866c435397ab);
      }

      .ae61f38a-3b48-4e09-a43c-4adec847ffb6 {
        fill: url(#ae79f993-ab09-4ece-a1cc-b79af1645cfe);
      }

      .fcccbdfd-dff4-435f-a98c-778009adc127 {
        fill: url(#b67fefd8-56e2-4369-87c0-4bf18497c173);
      }

      .a8faae93-dfcc-4a27-a18e-66e71c1630d4 {
        fill: url(#be56eecc-f538-4cd2-bbf3-6f3b0cb4ee46);
      }

      .f5791598-d6ec-49e5-ac76-16e1989ce5db {
        fill: url(#a80bdd34-b653-48ce-bd56-1883e4f21d36);
      }

      .a8ea7711-8537-4517-884c-8e4c83f3c703 {
        clip-path: url(#e52f6705-ba81-4f6f-a4fb-1cf26fe89911);
      }

      .a409e373-bc10-479b-95a7-6cde5c807109 {
        fill: #5c9942;
      }

      .a4ec81a7-821c-4720-91a1-d508feb7a4b0 {
        fill: #569b44;
      }

      .ae2764e7-0918-4558-af53-9d9a7529c1a3 {
        fill: #0c0c0d;
      }

      .bd60b318-7058-4b6e-83b4-e93f17178ebd {
        fill: #dbd9d8;
      }

      .b621238b-7b5c-42e3-84de-1be333f89db7 {
        fill: #252528;
      }

      .efcb000b-e5a9-440b-8fc9-215f61e3dd7b {
        fill: #fffafc;
      }

      .bea81c40-6780-4e8b-a46d-d30ebad36515 {
        fill: url(#ac9b12cf-bb99-4eea-a862-c8fa3f7d1431);
      }

      .e4a22d9d-3edf-4d33-824b-589f4032ef2d {
        fill: #aa895b;
      }

      .a36da7c0-e42f-4996-b7a9-97dc3f99b424 {
        fill: #d18c5e;
      }

      .a869d85c-cca6-48f7-bc1d-e63ad40ddfb3 {
        fill: #c19867;
      }

      .b89b9e43-69c5-437c-bb6b-95295d84e68e {
        opacity: 0.6;
      }

      .e6356999-ccb6-48ab-8d56-743a6e6cb485 {
        fill: #7a5d2a;
      }

      .a1d0633d-298c-4733-a917-1691e9d1ec51 {
        fill: #8c5b48;
      }

      .f2516c77-425f-44be-b302-21c17a7d0306 {
        fill: #704e18;
      }

      .aff02d87-acb0-4a49-ae77-e54885c4a391 {
        fill: #723b17;
      }

      .e794706e-9dd8-4e1b-8012-5c3c759f238c {
        opacity: 0.41;
      }

      .a5f01ef6-52cc-4387-abec-13e4a67afc29 {
        fill: #666;
      }

      .f05faa53-e909-4a28-bd5b-63005937e941 {
        fill: #e6e6e6;
      }

      .bf6e4ec0-451d-4abc-8925-c22db1c44b63 {
        fill: #1a1a1a;
      }

      .f26980c1-4ec2-4f1a-8bfe-83951cf3d0ef {
        fill: #58595b;
      }

      .b9ea8182-70c8-4327-b244-c036082ece87 {
        stroke: #64bb4f;
        stroke-miterlimit: 10;
        stroke-width: 0.49px;
        fill: url(#a6f3965c-7434-4df1-9305-0dbec9e21f39);
      }

      .a309df81-ef0f-4a50-8ef7-37241cd1d5a0 {
        fill: #70b644;
      }

      .e9f7796a-7864-4574-9251-3cd534126afe {
        fill: url(#e03fc582-3653-4305-9979-334a43f64704);
      }

      .e5d47f20-a628-475b-9b7f-23fd472c161b {
        fill: #d77d4f;
      }

      .ada6fa57-3f46-421e-86c6-8d5db5f40619 {
        fill: #579943;
      }

      .ffe526d5-db98-42ed-8e47-810b4cf756e0 {
        fill: #5aa846;
      }

      .f4d0740b-59d7-4ba6-b03d-f6f0fd74d8bd {
        fill: #87c444;
      }

      .abf3c916-3b31-4d93-bbee-a18cb7cd6949 {
        fill: #cea852;
      }

      .a5c5863e-22df-4996-ad36-9fa85c2c9158, .b2455575-556d-42f4-8311-bfaf2354c8ed {
        fill: #959595;
      }

      .b2455575-556d-42f4-8311-bfaf2354c8ed {
        opacity: 0.24;
      }

      .aa745bf5-0ed7-4751-82c5-82d4368b2664 {
        fill: #cd8751;
      }

      .aaaafa30-2121-44dd-b37a-8cff3be5e19c {
        fill: #231f20;
      }

      .aaaafa30-2121-44dd-b37a-8cff3be5e19c, .e53d4eb2-18f3-443a-88f6-5583e084166c {
        opacity: 0.3;
      }

      .f02d074b-6b54-4394-8017-ed2eeb57776d {
        fill: #519b44;
      }

      .b3b4a82c-c0e5-4dba-9862-a282119994ae {
        fill: #98c948;
      }

      .b3b89798-8141-45be-ab6a-8db9b9dec1e5 {
        fill: #8b421f;
      }

      .a98944a4-a962-4384-8e8f-a62d350404d4 {
        fill: #54883e;
      }

      .a4bd554d-3e10-430f-8587-707787bc8c64, .bf5c7b9b-e6e1-41b0-9706-e1f92f1664d0 {
        mix-blend-mode: multiply;
      }

      .a4bd554d-3e10-430f-8587-707787bc8c64 {
        opacity: 0.15;
      }

      .afa67433-76dd-4e11-b646-b85a0282cec7 {
        fill: #b21414;
      }

      .b8aabee9-0271-46f9-b89b-ab31b5290c6b {
        fill: #cc2727;
      }

      .a636a3ca-23f4-4840-9f5c-ba86d94a9f4f, .e53d4eb2-18f3-443a-88f6-5583e084166c {
        mix-blend-mode: overlay;
      }

      .aaba48be-0eee-4ac5-b1ef-13f70a28ab28 {
        fill: #fff;
      }

      .a636a3ca-23f4-4840-9f5c-ba86d94a9f4f {
        opacity: 0.5;
      }

      .b7dca69c-871d-4826-a68c-f9a66f2a343d {
        fill: #5cc1ff;
      }

      .fef994d8-ed00-4bef-9c04-863c070a0469 {
        fill: #c7d9f9;
      }

      .f0a6ffc3-319f-4e0a-9281-bb4c2ef0e6e7 {
        fill: #ffdb45;
      }

      .bea96d92-37cd-42fc-87b8-f38c19c2baad {
        fill: #ffe876;
      }

      .f71f2a45-e4c7-4a86-b65e-d0f9add574e1 {
        fill: #b0d80b;
      }

      .b4a2c108-f7fc-4ffd-aa43-aabe2c8e36d1 {
        fill: #d83535;
      }

      .a828a149-4a34-49f5-9a15-a379d1df43b0 {
        fill: #f26d6d;
      }

      .eae8b3eb-5f84-4661-a5a1-ee3925e37b6b {
        fill: #25893d;
      }
    </style>
    <clipPath id="fe6f96fd-143f-4192-a72a-866c435397ab">
      <rect class="f11454a9-cf69-4a77-af12-055caa0bee7b" x="1700" width="1600" height="900"/>
    </clipPath>
    <linearGradient id="ae79f993-ab09-4ece-a1cc-b79af1645cfe" x1="2596.32" y1="-301.3" x2="2529.94" y2="850.64" gradientTransform="matrix(1, 0, 0, -1, -167.21, 696.09)" gradientUnits="userSpaceOnUse">
      <stop offset="0" stop-color="#35b6e5"/>
      <stop offset="0.12" stop-color="#49bde8"/>
      <stop offset="0.72" stop-color="#a6def6"/>
    </linearGradient>
    <linearGradient id="b67fefd8-56e2-4369-87c0-4bf18497c173" x1="2375.22" y1="1192.62" x2="2644.12" y2="-136.71" gradientTransform="matrix(1, 0, 0, -1, -166.51, 572.63)" gradientUnits="userSpaceOnUse">
      <stop offset="0.2" stop-color="#c5f7fd"/>
      <stop offset="0.34" stop-color="#b3f0fd"/>
      <stop offset="0.66" stop-color="#8ee1fd"/>
      <stop offset="0.83" stop-color="#80dbfd"/>
    </linearGradient>
    <linearGradient id="be56eecc-f538-4cd2-bbf3-6f3b0cb4ee46" x1="1846.12" y1="354.83" x2="3696.18" y2="354.83" gradientTransform="matrix(-0.98, 0, 0, 0.91, 4975.09, 45.92)" gradientUnits="userSpaceOnUse">
      <stop offset="0.2" stop-color="#68c1dd"/>
      <stop offset="0.83" stop-color="#68c1dd"/>
    </linearGradient>
    <linearGradient id="a80bdd34-b653-48ce-bd56-1883e4f21d36" x1="3337.56" y1="239.74" x2="3456.87" y2="154.47" gradientTransform="matrix(-1, 0, 0, 1, 4950.59, 0)" gradientUnits="userSpaceOnUse">
      <stop offset="0" stop-color="#91d5e3" stop-opacity="0.44"/>
      <stop offset="0.17" stop-color="#a4dce8" stop-opacity="0.61"/>
      <stop offset="0.37" stop-color="#b6e3ed" stop-opacity="0.78"/>
      <stop offset="0.55" stop-color="#c4e8f1" stop-opacity="0.9"/>
      <stop offset="0.7" stop-color="#ccebf3" stop-opacity="0.97"/>
      <stop offset="0.81" stop-color="#cfecf4"/>
    </linearGradient>
    <clipPath id="e52f6705-ba81-4f6f-a4fb-1cf26fe89911">
      <rect class="f11454a9-cf69-4a77-af12-055caa0bee7b" width="1600" height="900"/>
    </clipPath>
    <linearGradient id="ac9b12cf-bb99-4eea-a862-c8fa3f7d1431" x1="4257.36" y1="448.03" x2="4260.16" y2="750.15" gradientTransform="matrix(1, 0, 0, -1, -3567.83, 1295.34)" gradientUnits="userSpaceOnUse">
      <stop offset="0.29" stop-color="#609351"/>
      <stop offset="0.73" stop-color="#6bb25e"/>
      <stop offset="1" stop-color="#70bf64"/>
    </linearGradient>
    <linearGradient id="a6f3965c-7434-4df1-9305-0dbec9e21f39" x1="3606.43" y1="392.37" x2="3450.05" y2="613.7" gradientTransform="matrix(-1, 0, 0, 1, 4950.59, 0)" gradientUnits="userSpaceOnUse">
      <stop offset="0.09" stop-color="#57bd89"/>
      <stop offset="0.24" stop-color="#59b484"/>
      <stop offset="0.5" stop-color="#5ca97f"/>
    </linearGradient>
    <linearGradient id="e03fc582-3653-4305-9979-334a43f64704" x1="3536.71" y1="549" x2="3819.69" y2="549" gradientTransform="matrix(-1, 0.03, 0.03, 1, 4933.27, 18.7)" gradientUnits="userSpaceOnUse">
      <stop offset="0.08" stop-color="#29b473"/>
      <stop offset="0.17" stop-color="#24b06d"/>
      <stop offset="0.64" stop-color="#0a9b50"/>
      <stop offset="0.9" stop-color="#009345"/>
    </linearGradient>
  </defs>
  <g class="b7db02c4-8daf-4b44-9a54-c50ec054b312">
    <g id="ad964ffb-8278-420e-85cb-13649a82dd22" data-name="Layer 1">
      <g class="a0b87318-2ade-40e4-af85-846ea61f711a">
        <rect class="ae61f38a-3b48-4e09-a43c-4adec847ffb6" x="1311.69" y="139.12" width="2160" height="417.85" transform="translate(4783.38 696.09) rotate(-180)"/>
        <g>
          <rect class="fcccbdfd-dff4-435f-a98c-778009adc127" x="1311.69" y="0.63" width="2160.71" height="571.37" transform="translate(4784.09 572.63) rotate(-180)"/>
          <path class="a8faae93-dfcc-4a27-a18e-66e71c1630d4" d="M1597.56,410.14l-.11,162.09,1809.85.82.09-132.66-11.44.3-.7,12.44H3385l.35-19.4-60.56,1.44,0,16.1-70.87.33-2.94-216.74-15.72-1.1-19,3.46v-2H3219V233h-2.23v-5.68h-1.19v6.23h-4.11v-5.13h-1.53v5.31l-3.43,1.09.33,1.65h.87V238l-3.26.36v11l-11.81-1.11v-2h-.7v1.65h-2.56v-19l-13.86-.56v-2.19h-1.37v-5.32h1.21v-2h-4.11v8.05h-1v2.75h-8.71V225.3H3158V228h1.18l-.17,2.38-17.44,2,.15,28.37-10.62,1.27v3.31l-1.88,2,2.14,152.86-11.66-.74-7.18.18-.69-17.76-7.68-.73v-9.71l-32.7-.38v-4l-24.81-.21v-4h-2.76V359.43l-1.78-1.92V345.34h-7.45V336h-3.06v.91h-3.77V322.08l-.86.73v2.94l-2.06.36v1.09h-2.57l-.17-1.83-1.37-.37v1.84l-3.58.18-.52-1.65-2.06-.19-.51,1.66-4.11.18.18-1.47-1.89.19v1.09h-3.42v-2.2l-.87-.36-.17-2.93h-1.54l-.35,5.49-4.27.18-.18-4.21-1,.18-.49,4-3.09.91-.17-4.94h-.68l-.18,5.12-3.24.56-.69-1.47v-2l-1.72.18-.17,3.85.68,1.09-.17,8.61-5.65.36-1,8.61-.87.18-.69,1.46-3.07-.17-.15-15.57-1.55.19-.52,16.1-15.24.73,1.5,75h-2.06v1.65l-.7.56.17,2.18,1,.38.32,15.93-2,.54v2h1.38l.16,5.86s-10.55-.17-11-.19c.52,0-.34,2.2-.34,2.2l-6,.18.86,2.18,1,.56h1.53l-.69,10.81-1.38.91v11.9h-2.56L2938,342.55l-17.11-3.13V331l-19.68-3.13v-1.29h-5.14l-.68.92-46.72,2v9.34l-18.84,1.46.35-16.47-6.49-2.2L2821,291.78l-57.34.71L2759.84,324l-10.62.17.19-3.47-1.9.17-1.85-25.26-7.71-1.1.38-50-22.77.17L2701,246.34l.05-71.78-10.44-3.11h-5.82v-2.93h-1v2.56l-15.58-.55v-3.3h-1v2.92l-9.24-.55v1.84h-1.88v-1.66h-11.65l-14.21,5.13-19.5-1.48-5,2.56,1.78,151.21-13.87,2-.49-22.16-7.37.19,0-18.49-19.17-2.2.54-24.72-2.4-1.47-9.77-1.1,0-24.35-1.88-1.1s-8.73-1.47-8.21-1.47-25.31-20.87-25.31-20.87h-5.14L2489,232l-1.22.37-.34,1.1-8,1.45.17,25.09-12.34,1.64.14,41.19-24.63.54-.69-7h-1.2l-.34,4.56h-1.2l.16,2.4-44.14,1.07-.18,6.59-13.72-1.46-.48-12.64-9.75-.37-3.77-10.25-.33-4.77h-2.22l-.87,3.85h-3.75v-.91h-4.29v1.09l-23.28-2.94v-1.47h1.19V278h-7.34v4.76l-6,.19v-2l-2.57-2.74-2.23.18v2.74l1.38.2-.69,2-1.38.18-.52,3.85.17,1.46-1.21-.17v3.47h-1v2.56h-10.61l.8,77.62h7l.15,24.88-4.1.38,0,30.2-3.61.17,0-18.11-2.05-.37-.18-5.86-18,1.1v-1.84h-18.14v1.64h-7.88l-.09-97.38-1.19-.92-2.25-.18-.16-.93-1.72-.35L2250,304l-5.3-.19-.18-1.09-3.78-.19V291.7l-6-3.11-36.82,1.26v-1.27h-4.09v1.1l-17.11-.19-.53,15-15.41.18.58,178.85-2.76-.2-.09-121.91-1.2-.18-.17-2.74-10.09.17V361h-2.91v-1.47h-9.92v1.28h-1.72l.39-63.53-14-6.23.19-10.61-12.67-6.42-38.35.55v4.92l-2.56-.17-3.24-1.29v-1.63h-1.37l-.86.91-8.89-.2v-1.82h.85l2-2.11-1.54-1.64-2.14-2.3h-2.57v-5.67h-1.87v6l-21.57-.38v-1.64h-1.89V270l-2.91,1.28-.17,2,2.23,3.66-.36,8.23-1.71,1.11h-4.28l.18.72-1.56.19v12.08h-8.89v-1.64l-1.54-1.65-2.4,1.83-.39,60.78-2.57.72v13.73l-7.35.55.16,14.46-3.26.54-.34,7.52-1.88.72-.18,28-1.21.18.11,67.73-.66-.18-.53-1.82h-5.64v1.45c0,.73-.52.73-.52.73l-.17,1.83-10.79-.18.53-10.07s1.88-2,2.9-2.19l.34-1.28h-4.1v-1.29l-3.93.18v.55l-1.37.74-.17.55h-3.43l-.34-.93a4.54,4.54,0,0,0-1.88-1.09c-1.21-.36-1.87,1.47-1.87,1.47h-4l.52-11.17-2.06-.37.21-43-3.27-3.11h-10.94l-.27-107.83-3.6-.18v-9.88l-2.37.18-.18,2-1.53-.36.17-1.83-16.25.17-7-21.6-.33-3.67-.69-.73L1900,274l-1,5.86-1,1.1-.52,3.3-6.17,22.5-38.67.91-5.15.18-5,4.21-.37,22.51-1.54.37-.69,1.82-1.54.2.11,79.62h-12l-7.71,5.48.16,11.54-3.59.54.17,11.17-6.35.18,0,33.31h-3.06v-4.58l-18.14-1.28V465l-1.55-1.65H1784l-.34-17-6.49-4.59h-3.26v-1.64h1.73V426l-8.57-4.94-38.18.53v14.82l1.9,1.83-.18,2.93h-10.44l-.17,7.15,1,.73-.67,1.27-12.17,10.43-7,.18,0,16.3h-8.21l0,40.27h-14.05l.08-107.81h-13.86v-1.83h-1.9v2h-2.37v-1.65h-1.56v1.65H1655v-3.11h-1v2.93l-16.1.72V408l-1.38-.55-.52.55-.32,1.47h-2.41v-3.66h-3.76v3.3h-2.56v-2h-4.1V409l-.7-.18-2.4-2.21v3.12Z"/>
          <path class="f5791598-d6ec-49e5-ac76-16e1989ce5db" d="M1597.58,199.93c-.91-2.86-23.29-15.47-46-10.62-23.57,7.34-33.35,21.85-10.63,23.51a209.29,209.29,0,0,0,46.86-2.08C1593.27,209.92,1600.45,209,1597.58,199.93Z"/>
        </g>
      </g>
      <g class="a8ea7711-8537-4517-884c-8e4c83f3c703">
        <g>
          <rect class="f11454a9-cf69-4a77-af12-055caa0bee7b" width="1600" height="900"/>
          <path class="a409e373-bc10-479b-95a7-6cde5c807109" d="M58.65,724.9l1-2.56s2-5.11-3.73-2.7c0,0-4-3.81-6.26.19,0,0-2.47-4.14-4.52,1,0,0-10.76-3.73-7.42,3.25,0,0-9.27-3-7.12,4.63,0,0-12.69-2.76-7.32,7.56l42.53-1.08s-2.49-3.09-2.73-4.21-3.49-1.58-3.49-1.58,4.75.14,4.51-1-4.75-.14-4.75-.14,6-1.3,4-3.21S58.65,724.9,58.65,724.9Z"/>
          <rect class="f11454a9-cf69-4a77-af12-055caa0bee7b" width="1600" height="900"/>
          <path class="a4ec81a7-821c-4720-91a1-d508feb7a4b0" d="M330.28,846.09l992.05-.88v10.87q-479.14,5.2-958.16,1.51-165-1.27-329.88-3.6,4.56-18.37,9.14-36.76a645.31,645.31,0,0,0,128.13,28.23A706.11,706.11,0,0,0,330.28,846.09Z"/>
          <rect class="f11454a9-cf69-4a77-af12-055caa0bee7b" x="219.66" y="566.79" width="1133.03" height="145.04" transform="translate(1572.35 1278.62) rotate(-180)"/>
          <g>
            <rect class="ae2764e7-0918-4558-af53-9d9a7529c1a3" x="1170.6" y="703.23" width="131.96" height="17.21" transform="translate(2473.15 1423.66) rotate(-180)"/>
            <rect class="ae2764e7-0918-4558-af53-9d9a7529c1a3" x="867.04" y="703.23" width="153.86" height="17.21" transform="translate(1887.94 1423.66) rotate(-180)"/>
            <rect class="bd60b318-7058-4b6e-83b4-e93f17178ebd" x="1020.9" y="703.23" width="149.7" height="17.21" transform="translate(2191.49 1423.66) rotate(-180)"/>
            <rect class="bd60b318-7058-4b6e-83b4-e93f17178ebd" x="700.57" y="703.23" width="166.47" height="17.21" transform="translate(1567.61 1423.66) rotate(-180)"/>
            <rect class="bd60b318-7058-4b6e-83b4-e93f17178ebd" x="364.83" y="703.23" width="166.47" height="17.21" transform="translate(896.14 1423.66) rotate(-180)"/>
            <rect class="ae2764e7-0918-4558-af53-9d9a7529c1a3" x="529.25" y="703.23" width="171.33" height="17.21" transform="translate(1229.82 1423.66) rotate(-180)"/>
            <rect class="ae2764e7-0918-4558-af53-9d9a7529c1a3" x="214.35" y="703.23" width="171.33" height="17.21" transform="translate(600.02 1423.66) rotate(-180)"/>
            <polygon class="b621238b-7b5c-42e3-84de-1be333f89db7" points="1302.56 703.23 1292.71 696.89 1162.17 696.89 1170.6 703.23 1302.56 703.23"/>
            <path class="efcb000b-e5a9-440b-8fc9-215f61e3dd7b" d="M1170.6,703.23l-8.43-6.34-146.28.48,5.17,5.86Z"/>
            <path class="b621238b-7b5c-42e3-84de-1be333f89db7" d="M1020.27,703.23l-4.7-5.55-150.65-.79,2.12,6.34Z"/>
            <polygon class="efcb000b-e5a9-440b-8fc9-215f61e3dd7b" points="867.04 703.23 864.92 696.89 702.32 696.89 700.57 703.23 867.04 703.23"/>
            <polygon class="b621238b-7b5c-42e3-84de-1be333f89db7" points="702.32 696.89 539.64 696.89 529.25 703.23 700.57 703.23 702.32 696.89"/>
            <polygon class="efcb000b-e5a9-440b-8fc9-215f61e3dd7b" points="539.64 696.89 397.51 696.89 385.67 703.23 531.3 703.23 539.64 696.89"/>
            <polygon class="b621238b-7b5c-42e3-84de-1be333f89db7" points="385.67 703.23 276.43 703.23 281.92 696.89 397.51 696.89 385.67 703.23"/>
            <polygon class="efcb000b-e5a9-440b-8fc9-215f61e3dd7b" points="1350.4 703.23 1302.56 703.23 1292.71 696.89 1350.4 696.89 1350.4 703.23"/>
          </g>
          <rect class="bea81c40-6780-4e8b-a46d-d30ebad36515" x="-388.31" y="573.1" width="2159.38" height="149.14" transform="translate(1382.76 1295.34) rotate(-180)"/>
          <rect class="a4ec81a7-821c-4720-91a1-d508feb7a4b0" x="-35.16" y="802.32" width="1074.21" height="71.98" transform="translate(1003.89 1676.63) rotate(-180)"/>
          <g>
            <polygon class="e4a22d9d-3edf-4d33-824b-589f4032ef2d" points="1773.57 551.16 1773.57 613.71 1011.85 613.71 1011.85 554.39 1773.57 551.16"/>
            <rect class="a36da7c0-e42f-4996-b7a9-97dc3f99b424" x="1011.85" y="543.61" width="761.72" height="7.03" transform="translate(2785.41 1094.25) rotate(-180)"/>
            <rect class="a869d85c-cca6-48f7-bc1d-e63ad40ddfb3" x="1011.85" y="536.65" width="761.72" height="13.99" transform="translate(2785.41 1087.29) rotate(-180)"/>
            <g>
              <g class="b89b9e43-69c5-437c-bb6b-95295d84e68e">
                <rect class="e6356999-ccb6-48ab-8d56-743a6e6cb485" x="1509.86" y="558.06" width="14.24" height="7.81"/>
                <rect class="e6356999-ccb6-48ab-8d56-743a6e6cb485" x="1502.74" y="567.78" width="14.24" height="7.81"/>
              </g>
              <g class="b89b9e43-69c5-437c-bb6b-95295d84e68e">
                <rect class="e6356999-ccb6-48ab-8d56-743a6e6cb485" x="1454.12" y="588.43" width="14.24" height="7.81"/>
                <rect class="e6356999-ccb6-48ab-8d56-743a6e6cb485" x="1447" y="598.15" width="14.24" height="7.81"/>
              </g>
              <g class="b89b9e43-69c5-437c-bb6b-95295d84e68e">
                <rect class="e6356999-ccb6-48ab-8d56-743a6e6cb485" x="1311.88" y="559.02" width="14.24" height="7.81"/>
                <rect class="e6356999-ccb6-48ab-8d56-743a6e6cb485" x="1304.76" y="568.74" width="14.24" height="7.81"/>
              </g>
              <g class="b89b9e43-69c5-437c-bb6b-95295d84e68e">
                <rect class="e6356999-ccb6-48ab-8d56-743a6e6cb485" x="1168.85" y="562.92" width="14.24" height="7.81"/>
                <rect class="e6356999-ccb6-48ab-8d56-743a6e6cb485" x="1161.72" y="572.64" width="14.24" height="7.81"/>
              </g>
              <g class="b89b9e43-69c5-437c-bb6b-95295d84e68e">
                <rect class="e6356999-ccb6-48ab-8d56-743a6e6cb485" x="1251.24" y="579.67" width="14.24" height="7.81"/>
                <rect class="e6356999-ccb6-48ab-8d56-743a6e6cb485" x="1244.11" y="589.38" width="14.24" height="7.81"/>
              </g>
              <g class="b89b9e43-69c5-437c-bb6b-95295d84e68e">
                <rect class="e6356999-ccb6-48ab-8d56-743a6e6cb485" x="1032.55" y="562.92" width="14.24" height="7.81"/>
                <rect class="e6356999-ccb6-48ab-8d56-743a6e6cb485" x="1025.43" y="572.64" width="14.24" height="7.81"/>
              </g>
              <g class="b89b9e43-69c5-437c-bb6b-95295d84e68e">
                <rect class="e6356999-ccb6-48ab-8d56-743a6e6cb485" x="1531.1" y="587.48" width="14.24" height="7.81"/>
              </g>
              <g class="b89b9e43-69c5-437c-bb6b-95295d84e68e">
                <rect class="e6356999-ccb6-48ab-8d56-743a6e6cb485" x="1592.87" y="593.29" width="14.24" height="7.81"/>
                <rect class="e6356999-ccb6-48ab-8d56-743a6e6cb485" x="1585.75" y="603.01" width="14.24" height="7.81"/>
              </g>
            </g>
          </g>
          <g>
            <polygon class="e4a22d9d-3edf-4d33-824b-589f4032ef2d" points="-360.31 547.77 -360.31 615.18 1050.94 612.73 1050.94 551.13 -360.31 547.77"/>
            <rect class="a1d0633d-298c-4733-a917-1691e9d1ec51" x="-360.31" y="547.77" width="2175" height="8.12"/>
            <rect class="a869d85c-cca6-48f7-bc1d-e63ad40ddfb3" x="-377.31" y="538.09" width="1416.14" height="11.5"/>
            <g class="b89b9e43-69c5-437c-bb6b-95295d84e68e">
              <g>
                <g>
                  <rect class="f2516c77-425f-44be-b302-21c17a7d0306" x="464.75" y="565.25" width="16.3" height="7.66"/>
                  <rect class="f2516c77-425f-44be-b302-21c17a7d0306" x="472.9" y="574.79" width="16.3" height="7.66"/>
                </g>
                <g>
                  <rect class="f2516c77-425f-44be-b302-21c17a7d0306" x="517.09" y="585.06" width="16.3" height="7.66"/>
                  <rect class="f2516c77-425f-44be-b302-21c17a7d0306" x="525.24" y="594.59" width="16.3" height="7.66"/>
                </g>
                <g>
                  <rect class="f2516c77-425f-44be-b302-21c17a7d0306" x="679.86" y="556.19" width="16.3" height="7.66"/>
                  <rect class="f2516c77-425f-44be-b302-21c17a7d0306" x="688.01" y="565.73" width="16.3" height="7.66"/>
                </g>
                <g>
                  <rect class="f2516c77-425f-44be-b302-21c17a7d0306" x="703.54" y="565.02" width="16.3" height="7.66"/>
                  <rect class="f2516c77-425f-44be-b302-21c17a7d0306" x="711.69" y="574.56" width="16.3" height="7.66"/>
                </g>
                <g>
                  <rect class="f2516c77-425f-44be-b302-21c17a7d0306" x="609.26" y="581.45" width="16.3" height="7.66"/>
                  <rect class="f2516c77-425f-44be-b302-21c17a7d0306" x="617.41" y="590.99" width="16.3" height="7.66"/>
                </g>
                <g>
                  <rect class="f2516c77-425f-44be-b302-21c17a7d0306" x="999.51" y="575.02" width="16.3" height="7.66"/>
                  <rect class="f2516c77-425f-44be-b302-21c17a7d0306" x="1007.65" y="584.56" width="16.3" height="7.66"/>
                </g>
                <rect class="f2516c77-425f-44be-b302-21c17a7d0306" x="429.01" y="599.12" width="16.3" height="7.66"/>
                <rect class="f2516c77-425f-44be-b302-21c17a7d0306" x="302.02" y="569.79" width="16.3" height="7.66"/>
                <g>
                  <rect class="f2516c77-425f-44be-b302-21c17a7d0306" x="338.32" y="594.82" width="16.3" height="7.66"/>
                  <rect class="f2516c77-425f-44be-b302-21c17a7d0306" x="346.47" y="604.36" width="16.3" height="7.66"/>
                </g>
                <g>
                  <rect class="f2516c77-425f-44be-b302-21c17a7d0306" x="181.66" y="565.02" width="16.3" height="7.66"/>
                  <rect class="f2516c77-425f-44be-b302-21c17a7d0306" x="189.81" y="574.56" width="16.3" height="7.66"/>
                </g>
              </g>
            </g>
            <g class="b89b9e43-69c5-437c-bb6b-95295d84e68e">
              <g>
                <g>
                  <rect class="aff02d87-acb0-4a49-ae77-e54885c4a391" x="20.71" y="555.83" width="16.3" height="7.66"/>
                  <rect class="aff02d87-acb0-4a49-ae77-e54885c4a391" x="28.86" y="565.37" width="16.3" height="7.66"/>
                </g>
                <g>
                  <rect class="aff02d87-acb0-4a49-ae77-e54885c4a391" x="44.39" y="564.66" width="16.3" height="7.66"/>
                  <rect class="aff02d87-acb0-4a49-ae77-e54885c4a391" x="52.54" y="574.2" width="16.3" height="7.66"/>
                </g>
                <g>
                  <rect class="aff02d87-acb0-4a49-ae77-e54885c4a391" x="340.35" y="574.66" width="16.3" height="7.66"/>
                  <rect class="aff02d87-acb0-4a49-ae77-e54885c4a391" x="348.5" y="584.2" width="16.3" height="7.66"/>
                </g>
              </g>
            </g>
          </g>
          <g class="e794706e-9dd8-4e1b-8012-5c3c759f238c">
            <path class="a5f01ef6-52cc-4387-abec-13e4a67afc29" d="M368.11,513.16h10.46v-4.67a2.84,2.84,0,0,1-1.52-2.48,3,3,0,0,1,6.06,0,2.84,2.84,0,0,1-1.52,2.48v4.67h87.8v-4.67a2.84,2.84,0,0,1-1.52-2.48,3,3,0,0,1,6.06,0,2.84,2.84,0,0,1-1.52,2.48v4.67h87.8v-4.67a2.84,2.84,0,0,1-1.52-2.48,3,3,0,0,1,6.06,0,2.84,2.84,0,0,1-1.52,2.48v4.67H651v-4.67a2.84,2.84,0,0,1-1.52-2.48,3,3,0,0,1,6.06,0,2.84,2.84,0,0,1-1.52,2.48v4.67h87.8v-4.67a2.84,2.84,0,0,1-1.52-2.48,3,3,0,0,1,6.06,0,2.84,2.84,0,0,1-1.52,2.48v4.67h87.8v-4.67a2.84,2.84,0,0,1-1.52-2.48,3,3,0,0,1,6.06,0,2.84,2.84,0,0,1-1.52,2.48v4.67h87.8v-4.67A2.84,2.84,0,0,1,922,506a3,3,0,0,1,6.06,0,2.84,2.84,0,0,1-1.52,2.48v4.67h59v4.29h-59v18.6h-3v-18.6h-87.8v18.6h-3v-18.6h-87.8v18.6h-3v-18.6h-87.8v18.6h-3v-18.6h-87.8v18.6h-3v-18.6h-87.8v18.6h-3v-18.6h-87.8v18.6h-3v-18.6H368.11Z"/>
            <path class="f05faa53-e909-4a28-bd5b-63005937e941" d="M745.41,506.21c-1.32,1.11-3.64-1-2.38-2.19C744.47,502.66,746.73,505.11,745.41,506.21Z"/>
            <path class="f05faa53-e909-4a28-bd5b-63005937e941" d="M654.59,506.21c-1.32,1.11-3.64-1-2.38-2.19C653.65,502.66,655.91,505.11,654.59,506.21Z"/>
            <path class="f05faa53-e909-4a28-bd5b-63005937e941" d="M563.77,506.18c-1.32,1.11-3.64-1-2.38-2.19C562.83,502.63,565.09,505.08,563.77,506.18Z"/>
            <path class="f05faa53-e909-4a28-bd5b-63005937e941" d="M836.23,506.18c-1.32,1.11-3.64-1-2.38-2.19C835.29,502.63,837.55,505.08,836.23,506.18Z"/>
            <path class="bf6e4ec0-451d-4abc-8925-c22db1c44b63" d="M922,513.16h1.52v-4.67a2.79,2.79,0,0,1,.27-5.09,2.62,2.62,0,0,0-.27,1.18,2.94,2.94,0,0,0,3,2.86,3.21,3.21,0,0,0,1.25-.25,3,3,0,0,1-2.76,1.68,3.08,3.08,0,0,1-.61-.06v27.24h-.9v-18.6h-87.8V516H922Z"/>
            <path class="bf6e4ec0-451d-4abc-8925-c22db1c44b63" d="M740.33,516v-2.86h1.52v-4.64a2.78,2.78,0,0,1,.27-5.08,2.55,2.55,0,0,0-.27,1.17,2.94,2.94,0,0,0,3,2.86,3.21,3.21,0,0,0,1.25-.25,3,3,0,0,1-2.76,1.68,4.07,4.07,0,0,1-.61,0v27.23h-.9V517.45h-87.8V516Z"/>
            <path class="bf6e4ec0-451d-4abc-8925-c22db1c44b63" d="M649.51,516v-2.86H651v-4.64a2.79,2.79,0,0,1,.26-5.08,2.68,2.68,0,0,0-.26,1.17,2.94,2.94,0,0,0,3,2.86,3.21,3.21,0,0,0,1.25-.25,3,3,0,0,1-2.76,1.68,4.07,4.07,0,0,1-.61,0v27.23H651V517.45h-87.8V516Z"/>
            <path class="bf6e4ec0-451d-4abc-8925-c22db1c44b63" d="M558.69,516v-2.86h1.52v-4.67a2.79,2.79,0,0,1,.26-5.09,2.75,2.75,0,0,0-.26,1.18,2.94,2.94,0,0,0,3,2.86,3.21,3.21,0,0,0,1.25-.25,3,3,0,0,1-2.76,1.68,3.08,3.08,0,0,1-.61-.06v27.24h-.9v-18.6h-87.8V516Z"/>
            <path class="bf6e4ec0-451d-4abc-8925-c22db1c44b63" d="M467.87,513.16h1.52v-4.67a2.79,2.79,0,0,1,.26-5.09,2.75,2.75,0,0,0-.26,1.18,2.94,2.94,0,0,0,3,2.86,3.21,3.21,0,0,0,1.25-.25,3,3,0,0,1-2.76,1.68,3.08,3.08,0,0,1-.61-.06v27.24h-.9v-18.6h-87.8V516h86.28Z"/>
            <path class="bf6e4ec0-451d-4abc-8925-c22db1c44b63" d="M831.15,516v-2.86h1.52v-4.67a2.79,2.79,0,0,1,.27-5.09,2.62,2.62,0,0,0-.27,1.18,2.94,2.94,0,0,0,3,2.86,3.21,3.21,0,0,0,1.25-.25,3,3,0,0,1-2.76,1.68,3.08,3.08,0,0,1-.61-.06v27.24h-.9v-18.6h-87.8V516Z"/>
          </g>
          <g class="e794706e-9dd8-4e1b-8012-5c3c759f238c">
            <path class="a5f01ef6-52cc-4387-abec-13e4a67afc29" d="M-234.68,513h10.45v-4.67a2.85,2.85,0,0,1-1.51-2.48,3,3,0,0,1,3-2.86,2.94,2.94,0,0,1,3,2.86,2.85,2.85,0,0,1-1.51,2.48V513h87.79v-4.67a2.85,2.85,0,0,1-1.51-2.48,3,3,0,0,1,3-2.86,2.94,2.94,0,0,1,3,2.86,2.83,2.83,0,0,1-1.51,2.48V513h87.79v-4.67a2.85,2.85,0,0,1-1.51-2.48,3,3,0,0,1,3-2.86,2.94,2.94,0,0,1,3,2.86,2.83,2.83,0,0,1-1.51,2.48V513H48.23v-4.67a2.85,2.85,0,0,1-1.51-2.48,3,3,0,0,1,6.05,0,2.83,2.83,0,0,1-1.51,2.48V513h87.79v-4.67a2.85,2.85,0,0,1-1.51-2.48,3,3,0,0,1,6.05,0,2.83,2.83,0,0,1-1.51,2.48V513h87.79v-4.67a2.85,2.85,0,0,1-1.51-2.48,3,3,0,0,1,6,0,2.83,2.83,0,0,1-1.51,2.48V513h87.79v-4.67a2.85,2.85,0,0,1-1.51-2.48,3,3,0,0,1,6.06,0,2.84,2.84,0,0,1-1.52,2.48V513h59v4.29h-59v18.6h-3v-18.6H232.9v18.6h-3v-18.6H142.08v18.6h-3v-18.6H51.26v18.6h-3v-18.6H-39.56v18.6h-3v-18.6h-87.79v18.6h-3v-18.6H-221.2v18.6h-3v-18.6h-10.45Z"/>
            <path class="f05faa53-e909-4a28-bd5b-63005937e941" d="M142.62,506.07c-1.32,1.11-3.64-1-2.38-2.19C141.68,502.52,143.94,505,142.62,506.07Z"/>
            <path class="f05faa53-e909-4a28-bd5b-63005937e941" d="M51.8,506.07c-1.32,1.11-3.64-1-2.38-2.19C50.86,502.52,53.12,505,51.8,506.07Z"/>
            <path class="f05faa53-e909-4a28-bd5b-63005937e941" d="M233.44,506c-1.32,1.11-3.64-1-2.38-2.19C232.5,502.49,234.76,504.94,233.44,506Z"/>
            <path class="bf6e4ec0-451d-4abc-8925-c22db1c44b63" d="M319.18,513h1.51v-4.67a2.79,2.79,0,0,1,.27-5.08,2.68,2.68,0,0,0-.27,1.17,3,3,0,0,0,3,2.86,3.21,3.21,0,0,0,1.25-.25,3,3,0,0,1-2.76,1.68,3.08,3.08,0,0,1-.61-.06v27.24h-.91v-18.6H232.9v-1.43h86.28Z"/>
            <path class="bf6e4ec0-451d-4abc-8925-c22db1c44b63" d="M137.54,515.88V513h1.51v-4.64a2.79,2.79,0,0,1,.27-5.08,2.72,2.72,0,0,0-.27,1.17,3,3,0,0,0,3,2.86,3.21,3.21,0,0,0,1.25-.25,3,3,0,0,1-2.76,1.68,4.07,4.07,0,0,1-.61-.05v27.23h-.91V517.31H51.26v-1.43Z"/>
            <path class="bf6e4ec0-451d-4abc-8925-c22db1c44b63" d="M46.72,515.88V513h1.51v-4.64a2.79,2.79,0,0,1,.27-5.08,2.72,2.72,0,0,0-.27,1.17,3,3,0,0,0,3,2.86,3.21,3.21,0,0,0,1.25-.25,3,3,0,0,1-2.76,1.68,4.07,4.07,0,0,1-.61-.05v27.23h-.91V517.31H-39.56v-1.43Z"/>
            <path class="bf6e4ec0-451d-4abc-8925-c22db1c44b63" d="M228.36,515.88V513h1.51v-4.67a2.79,2.79,0,0,1,.27-5.08,2.68,2.68,0,0,0-.27,1.17,3,3,0,0,0,3,2.86,3.21,3.21,0,0,0,1.25-.25,3,3,0,0,1-2.76,1.68,3.08,3.08,0,0,1-.61-.06v27.24h-.91v-18.6H142.08v-1.43Z"/>
          </g>
          <g class="e794706e-9dd8-4e1b-8012-5c3c759f238c">
            <path class="a5f01ef6-52cc-4387-abec-13e4a67afc29" d="M1273.07,514.47h10.46v-4.68a2.82,2.82,0,0,1-1.51-2.47,3,3,0,0,1,6,0,2.82,2.82,0,0,1-1.51,2.47v4.68h87.79v-4.68a2.82,2.82,0,0,1-1.51-2.47,3,3,0,0,1,6.05,0,2.82,2.82,0,0,1-1.51,2.47v4.68h87.79v-4.68a2.82,2.82,0,0,1-1.51-2.47,3,3,0,0,1,6,0,2.82,2.82,0,0,1-1.51,2.47v4.68H1556v-4.68a2.82,2.82,0,0,1-1.51-2.47,3,3,0,0,1,6,0,2.82,2.82,0,0,1-1.51,2.47v4.68h87.79v-4.68a2.82,2.82,0,0,1-1.51-2.47,3,3,0,0,1,6,0,2.82,2.82,0,0,1-1.51,2.47v4.68h87.79v-4.68a2.82,2.82,0,0,1-1.51-2.47,3,3,0,0,1,6.05,0,2.82,2.82,0,0,1-1.51,2.47v4.68h87.79v-4.68a2.82,2.82,0,0,1-1.51-2.47,3,3,0,0,1,6,0,2.82,2.82,0,0,1-1.51,2.47v4.68h59v4.29h-59v18.6h-3v-18.6h-87.79v18.6h-3v-18.6h-87.79v18.6h-3v-18.6H1559v18.6h-3v-18.6H1468.2v18.6h-3v-18.6h-87.79v18.6h-3v-18.6h-87.79v18.6h-3v-18.6h-10.46Z"/>
            <path class="f05faa53-e909-4a28-bd5b-63005937e941" d="M1559.56,507.52c-1.32,1.11-3.64-1-2.39-2.19C1558.62,504,1560.88,506.42,1559.56,507.52Z"/>
            <path class="f05faa53-e909-4a28-bd5b-63005937e941" d="M1468.74,507.49c-1.33,1.1-3.64-1-2.39-2.19C1467.8,503.94,1470.06,506.39,1468.74,507.49Z"/>
            <path class="bf6e4ec0-451d-4abc-8925-c22db1c44b63" d="M1645.3,517.33v-2.86h1.51v-4.64a2.79,2.79,0,0,1,.27-5.08,2.68,2.68,0,0,0-.27,1.17,3,3,0,0,0,3,2.86,3.19,3.19,0,0,0,1.24-.25,3,3,0,0,1-2.76,1.68,3,3,0,0,1-.6-.06v27.24h-.91V518.76H1559v-1.43Z"/>
            <path class="bf6e4ec0-451d-4abc-8925-c22db1c44b63" d="M1554.48,517.33v-2.86H1556v-4.64a2.79,2.79,0,0,1,.27-5.08,2.68,2.68,0,0,0-.27,1.17,3,3,0,0,0,3,2.86,3.19,3.19,0,0,0,1.24-.25,3,3,0,0,1-2.76,1.68,3,3,0,0,1-.6-.06v27.24H1556V518.76H1468.2v-1.43Z"/>
            <path class="bf6e4ec0-451d-4abc-8925-c22db1c44b63" d="M1463.66,517.33v-2.86h1.51v-4.68a2.82,2.82,0,0,1-1.51-2.47,2.86,2.86,0,0,1,1.78-2.61,2.76,2.76,0,0,0-.27,1.18,3,3,0,0,0,3,2.86,3.19,3.19,0,0,0,1.24-.25,3,3,0,0,1-2.76,1.68,3,3,0,0,1-.6-.06v27.24h-.91v-18.6h-87.79v-1.43Z"/>
            <path class="bf6e4ec0-451d-4abc-8925-c22db1c44b63" d="M1372.84,514.47h1.51v-4.68a2.82,2.82,0,0,1-1.51-2.47,2.86,2.86,0,0,1,1.78-2.61,2.76,2.76,0,0,0-.27,1.18,3,3,0,0,0,3,2.86,3.19,3.19,0,0,0,1.24-.25,3,3,0,0,1-2.76,1.68,3,3,0,0,1-.6-.06v27.24h-.91v-18.6h-87.79v-1.43h86.28Z"/>
          </g>
          <g class="e794706e-9dd8-4e1b-8012-5c3c759f238c">
            <path class="a5f01ef6-52cc-4387-abec-13e4a67afc29" d="M665.74,514.47H676.2v-4.68a2.81,2.81,0,0,1-1.52-2.47,3,3,0,0,1,6.06,0,2.82,2.82,0,0,1-1.51,2.47v4.68H767v-4.68a2.81,2.81,0,0,1-1.52-2.47,3,3,0,0,1,6.06,0,2.82,2.82,0,0,1-1.51,2.47v4.68h87.79v-4.68a2.81,2.81,0,0,1-1.52-2.47,3,3,0,0,1,6.06,0,2.82,2.82,0,0,1-1.51,2.47v4.68h87.79v-4.68a2.81,2.81,0,0,1-1.52-2.47,3,3,0,0,1,6.06,0,2.82,2.82,0,0,1-1.51,2.47v4.68h87.79v-4.68a2.81,2.81,0,0,1-1.52-2.47,3,3,0,0,1,6.06,0,2.82,2.82,0,0,1-1.51,2.47v4.68h87.79v-4.68a2.81,2.81,0,0,1-1.52-2.47,3,3,0,0,1,6.06,0,2.82,2.82,0,0,1-1.51,2.47v4.68h87.79v-4.68a2.81,2.81,0,0,1-1.52-2.47,3,3,0,0,1,6.06,0,2.82,2.82,0,0,1-1.51,2.47v4.68h59v4.29h-59v18.6h-3v-18.6h-87.79v18.6h-3v-18.6h-87.79v18.6h-3v-18.6H951.69v18.6h-3v-18.6H860.87v18.6h-3v-18.6H770.05v18.6h-3v-18.6H679.23v18.6h-3v-18.6H665.74Z"/>
            <path class="f05faa53-e909-4a28-bd5b-63005937e941" d="M1043,507.52c-1.32,1.11-3.63-1-2.38-2.19C1042.1,504,1044.36,506.42,1043,507.52Z"/>
            <path class="f05faa53-e909-4a28-bd5b-63005937e941" d="M952.22,507.52c-1.32,1.11-3.63-1-2.38-2.19C951.28,504,953.54,506.42,952.22,507.52Z"/>
            <path class="f05faa53-e909-4a28-bd5b-63005937e941" d="M861.4,507.49c-1.32,1.1-3.63-1-2.38-2.19C860.46,503.94,862.72,506.39,861.4,507.49Z"/>
            <path class="f05faa53-e909-4a28-bd5b-63005937e941" d="M1133.86,507.49c-1.32,1.1-3.63-1-2.38-2.19C1132.92,503.94,1135.18,506.39,1133.86,507.49Z"/>
            <path class="bf6e4ec0-451d-4abc-8925-c22db1c44b63" d="M1219.6,514.47h1.52v-4.68a2.81,2.81,0,0,1-1.52-2.47,2.87,2.87,0,0,1,1.79-2.61,2.76,2.76,0,0,0-.27,1.18,2.94,2.94,0,0,0,3,2.86,3.19,3.19,0,0,0,1.24-.25,3,3,0,0,1-2.76,1.68,2.91,2.91,0,0,1-.6-.06v27.24h-.91v-18.6h-87.79v-1.43h86.27Z"/>
            <path class="bf6e4ec0-451d-4abc-8925-c22db1c44b63" d="M1038,517.33v-2.86h1.52v-4.64a2.78,2.78,0,0,1,.27-5.08,2.68,2.68,0,0,0-.27,1.17,2.94,2.94,0,0,0,3,2.86,3.19,3.19,0,0,0,1.24-.25,3,3,0,0,1-2.76,1.68,2.91,2.91,0,0,1-.6-.06v27.24h-.91V518.76H951.69v-1.43Z"/>
            <path class="bf6e4ec0-451d-4abc-8925-c22db1c44b63" d="M947.14,517.33v-2.86h1.52v-4.64a2.78,2.78,0,0,1,.27-5.08,2.68,2.68,0,0,0-.27,1.17,2.94,2.94,0,0,0,3,2.86,3.19,3.19,0,0,0,1.24-.25,3,3,0,0,1-2.76,1.68,2.91,2.91,0,0,1-.6-.06v27.24h-.91V518.76H860.87v-1.43Z"/>
            <path class="bf6e4ec0-451d-4abc-8925-c22db1c44b63" d="M856.32,517.33v-2.86h1.52v-4.68a2.81,2.81,0,0,1-1.52-2.47,2.87,2.87,0,0,1,1.79-2.61,2.76,2.76,0,0,0-.27,1.18,2.94,2.94,0,0,0,3,2.86,3.19,3.19,0,0,0,1.24-.25,3,3,0,0,1-2.76,1.68,2.91,2.91,0,0,1-.6-.06v27.24h-.91v-18.6H770.05v-1.43Z"/>
            <path class="bf6e4ec0-451d-4abc-8925-c22db1c44b63" d="M765.5,514.47H767v-4.68a2.81,2.81,0,0,1-1.52-2.47,2.87,2.87,0,0,1,1.79-2.61,2.76,2.76,0,0,0-.27,1.18,2.94,2.94,0,0,0,3,2.86,3.19,3.19,0,0,0,1.24-.25,3,3,0,0,1-2.76,1.68,2.91,2.91,0,0,1-.6-.06v27.24H767v-18.6H679.23v-1.43H765.5Z"/>
            <path class="bf6e4ec0-451d-4abc-8925-c22db1c44b63" d="M1128.78,517.33v-2.86h1.52v-4.68a2.81,2.81,0,0,1-1.52-2.47,2.87,2.87,0,0,1,1.79-2.61,2.76,2.76,0,0,0-.27,1.18,2.94,2.94,0,0,0,3,2.86,3.19,3.19,0,0,0,1.24-.25,3,3,0,0,1-2.76,1.68,2.91,2.91,0,0,1-.6-.06v27.24h-.91v-18.6h-87.79v-1.43Z"/>
          </g>
          <rect class="f26980c1-4ec2-4f1a-8bfe-83951cf3d0ef" x="263.89" y="720.44" width="1075.77" height="81.89" transform="translate(1603.55 1522.76) rotate(-180)"/>
          <path class="b9ea8182-70c8-4327-b244-c036082ece87" d="M1444.93,612.9s17.32-101.95,0-182.63-31.45-57-38.1-11.21-12.89,157.44,2.24,193.84S1444.93,612.9,1444.93,612.9Z"/>
          <rect class="a309df81-ef0f-4a50-8ef7-37241cd1d5a0" x="-388.93" y="668.82" width="2160.62" height="241.61" transform="translate(1382.76 1579.24) rotate(-180)"/>
          <path class="e9f7796a-7864-4574-9251-3cd534126afe" d="M1409.94,680.5s1.88-19.16-14-12.7c-16.41-13.53-42.13-11.2-49.39,6.23-15.2-23.36-26.89-27-46.36-17.46-25.54-18.27-48.14,4.54-48.82,20.23-16.58-14.32-41.15-16-55.79,1.62-25.39-16.07-51.06-11.84-64.22,9.32,137.32,13.78,283.29,6.54,283.29,6.54Z"/>
          <polygon class="e5d47f20-a628-475b-9b7f-23fd472c161b" points="1339.66 720.44 1183.13 720.44 1107.24 802.32 1339.66 802.32 1339.66 720.44"/>
          <path class="ada6fa57-3f46-421e-86c6-8d5db5f40619" d="M1198.53,648.93s63.25,18.1,52.69,39c-16,15.74-30.46,27.52-15,30.8s70.36,1.38,65.35,29.06c14,23.14,2.52,108.69,29.46,111.32,85.8,8.37,434.17,123.32,440,0,1.5-31.65,0-136.88,0-210.12Z"/>
          <path class="ffe526d5-db98-42ed-8e47-810b4cf756e0" d="M1162.28,719.74s77,3,91.84-15a8.88,8.88,0,0,0,2.24-5.3c.44-11.35,1.27-3.74,2.61-7.64.68-2-19.61-16.14-10.14-16.07,6.52,0,43.13.76,47.34-10.87.79-2.18,1-6.29-5-13.69l-176.29-3.42-16.59,2.73q4.77,4.14,9.52,8.51A425.58,425.58,0,0,1,1162.28,719.74Z"/>
          <path class="f4d0740b-59d7-4ba6-b03d-f6f0fd74d8bd" d="M748.22,719.75s-158,3-188.36-14.76c-27.51-16,79-26.55,36.45-29.5s-133.67-8.86-66.84-17.71l316-8.85,6.08,3s0,8.85-6.08,8.85S748.22,719.75,748.22,719.75Z"/>
          <path class="a4ec81a7-821c-4720-91a1-d508feb7a4b0" d="M888.71,637.12s5.9-4.68,5.9-8.85c0-2.95-3-5.9-5.9-2.95,0,0-3-14.75-8.85-5.9,0,0,0-8.85-5.9,3,0,0-12.28-16.49-8.85,3,0,0-12.74-14.58-11.81,5.9,0,0-23.6-20.13-17.7,8.85,0,0-26.56-5.9-17.71,14.76,0,0-32.46,0-26.56,14.75,0,0-12-6.83-14.75-5.9-8.85,3,2.95,11.8,2.95,11.8s-12.89.31-14.75,5.91c-2.95,8.85,8.85,11.8,8.85,11.8s-143.16,8.14-168.2,20.66c-41.31,20.65,56.07,47.21,56.07,47.21,37.59-3.39,65.8-7.29,85.06-10.33,10.76-1.7,32-5.22,63.46-9.64,14.61-2.05,13.6-1.79,22.14-3.05,64.23-9.48,70.68-16.59,72.83-22,1.3-3.28.68-8.88-1.52-19.9-2.07-10.34-8.77-32.46-8.77-32.46s5.82-5.9,5.82-8.85-5.91-5.9-5.91-5.9,8.95-2.95,8.95-5.9-8.95,0-8.95,0,9-2.24,9.4-6.72a3.06,3.06,0,0,0-.45-2.14C901.09,631.06,889.75,636.61,888.71,637.12Z"/>
          <path class="f4d0740b-59d7-4ba6-b03d-f6f0fd74d8bd" d="M885.76,648.93s5.9-4.68,5.9-8.86c0-3-2.95-5.9-5.9-3,0,0-3-14.75-8.85-5.9,0,0,0-8.85-5.9,2.95,0,0-12.28-16.49-8.86,3,0,0-12.73-14.58-11.8,5.91,0,0-17.7-17.19-11.8,11.8,0,0-20.66-3-11.81,11.8,0,0-20.65-5.9-17.7,8.85,0,0-12-.93-14.75,0-8.86,3-5.91,17.71-5.91,17.71s0,5.9,8.86,8.85c.19.07.29.13.29.2.05,3-186.93.35-189.15,20.46-.86,7.77,24,17.67,41.5,21.58,22.54,5.05,36,.87,64.71-3,33.5-4.53,117.95-12.74,135.68-14.47a65.91,65.91,0,0,0,28.35-10.85s16.82-11.4,20.51-27.58a21,21,0,0,0,.19-8.36,17.56,17.56,0,0,0-1-3.13c1.34-5.35.38-8.43-.73-10.24-1.75-2.85-5.91-5.9-5.91-5.9h0s8.94-3,8.94-5.9-8.94,0-8.94,0,11.9-3,8.94-8.85S885.76,648.93,885.76,648.93Z"/>
          <path class="a4ec81a7-821c-4720-91a1-d508feb7a4b0" d="M1076.79,650.68l-2.86-6.91s-5.7-13.8,5.71-10.35c0,0,5.71-13.81,11.41-3.45,0,0,2.86-13.81,8.56,0,0,0,18-17.87,14.73,4.87,0,0,15.62-14.82,14.71,9.14,0,0,21.92-16.25,16.21,17.66,0,0,17.12-24.77,26.35,13.2,0,0,36.42-31.07,33.57,13.81,0,0,32.9-22.27,19.3,7.85,0,0,20.65-7.85,14.94,9.41,0,0,8.56,3.46,8.56,6.91,0,14.64-14.27,6.9-14.27,6.9s11.42,13.81-2.85,6.91c11.41,20.71-11.41,17.26-11.41,17.26s39.94,3.45,65.62,13.81,17.12,27.61,5.71,24.16c46,3.91,79,31.16,82.74,62.14,4.22,35.14-30.41,65.6-36,70.54-44.37,39-75.44,7.51-192.24,10.89-84.62,2.45-138,18.47-213.69-17.91-3.23-1.55-6.1-3.17-8.86-4.83L808.59,844c34.23,6.9,245.46-9.1,276.76-55.23,23.18-34.18-12.89-66.41-14.27-75.95-1.76-12.15,5.71-24.17,5.71-24.17s-5.71-13.81-5.71-17.26,5.71-6.9,5.71-6.9-8.56,3.45-8.56,0,8.56-3.45,8.56-3.45-11.42,0-8.56-6.91S1076.79,650.68,1076.79,650.68Z"/>
          <path class="a309df81-ef0f-4a50-8ef7-37241cd1d5a0" d="M891,659.6l1.94-4.18s3.89-8.36-3.88-6.27c0,0-3.88-8.35-7.76-2.09,0,0-1.95-8.35-5.83,0,0,0-12.27-10.81-10,3,0,0-10.62-9-10,5.53,0,0-14.91-9.83-11,10.7,0,0-5.49-13.74-11.77,9.24,0,0-23.61-3-20.66,11.81,0,0-23.61,0-11.8,8.85,0,0-3,5.9,2.95,5.9,0,0,81.57-14.55,79.67-11.8s8.2-7.66,8.2-7.66,3.89-8.36,3.89-10.45S891,668,891,668s5.83,2.09,5.83,0-5.83-2.09-5.83-2.09,7.77,0,5.83-4.18A4.1,4.1,0,0,0,891,659.6Z"/>
          <path class="a409e373-bc10-479b-95a7-6cde5c807109" d="M876.78,674.68l1-3.82s1.91-7.66-5.82-3.11c0,0-6.38-4.64-8.84,1.48,0,0-4.31-5.39-6.22,2.26,0,0-16-3.18-9.9,6.07,0,0-13.74-2.48-9.2,8,0,0-18.54-1.44-8.9,12.15L889,687.84s-4.14-3.9-4.7-5.44-5.26-1.57-5.26-1.57,6.77-.72,6.21-2.26-6.77.73-6.77.73,8.28-3,5.09-5.34S876.78,674.68,876.78,674.68Z"/>
          <polygon class="f4d0740b-59d7-4ba6-b03d-f6f0fd74d8bd" points="618.47 731.68 46.86 734.3 50.84 798.57 657.16 798.57 706.31 765.12 618.47 731.68"/>
          <path class="abf3c916-3b31-4d93-bbee-a18cb7cd6949" d="M550,688.41s103.06,18.3,68.68,23.71-1007,10.12-1007,10.12l-.62-53.42Z"/>
          <path class="abf3c916-3b31-4d93-bbee-a18cb7cd6949" d="M1273.06,711c-33.09,0-70.9,2.54-73.8,15.39-.31,1.37-1.39,8,14.43,19.86,38.93,29.15,90.13,22.16,136,20.64,25.63-.85-12.13,2.06,138.93,11.15,0,0,133.42,8,284,12.11h0l-.88-113.56q-574.2-16.08-576.06,9.6Q1194.93,695.77,1273.06,711Z"/>
          <polygon class="a5c5863e-22df-4996-ad36-9fa85c2c9158" points="705.71 754.75 249.35 746.08 249.51 802.04 787.39 802.04 705.71 754.75"/>
          <path class="a409e373-bc10-479b-95a7-6cde5c807109" d="M352,720l1-2.55s2.05-5.12-3.73-2.7c0,0-4-3.82-6.26.18,0,0-2.46-4.14-4.51,1,0,0-10.76-3.73-7.43,3.25,0,0-9.26-3-7.12,4.63,0,0-12.69-2.76-7.31,7.56l42.53-1.08s-2.49-3.09-2.74-4.21-3.49-1.58-3.49-1.58,4.76.14,4.52-1-4.76-.14-4.76-.14,6-1.3,4-3.2S352,720,352,720Z"/>
          <path class="a409e373-bc10-479b-95a7-6cde5c807109" d="M244,729l1-2.56s2.05-5.12-3.73-2.7c0,0-4-3.82-6.26.18,0,0-2.47-4.14-4.51,1,0,0-10.76-3.72-7.43,3.26,0,0-9.27-3-7.12,4.62,0,0-12.69-2.76-7.32,7.56l42.54-1.07s-2.5-3.1-2.74-4.21-3.49-1.59-3.49-1.59,4.75.14,4.51-1-4.75-.14-4.75-.14,6-1.3,4-3.21S244,729,244,729Z"/>
          <path class="a409e373-bc10-479b-95a7-6cde5c807109" d="M175.92,730.36l1-2.56s2.05-5.11-3.73-2.7c0,0-4-3.82-6.26.18,0,0-2.47-4.14-4.51,1,0,0-10.76-3.73-7.43,3.25,0,0-9.27-3-7.12,4.62,0,0-12.69-2.76-7.31,7.56l42.53-1.07s-2.5-3.1-2.74-4.21-3.49-1.59-3.49-1.59,4.76.15,4.52-1-4.76-.14-4.76-.14,6-1.3,4-3.21S175.92,730.36,175.92,730.36Z"/>
          <path class="a409e373-bc10-479b-95a7-6cde5c807109" d="M158.17,722.35s-.72-2.88-4.06-1.3c-4.16-2.24-6.19-.34-6.24,1-3.18-2.47-6.31.14-6.23,1.37-3.1-3.59-5.34-2.73-7.23-1-4.5-2.24-6.78-.57-6.81,1.15-4.49-2.86-5.73,4.66-5.73,4.66h37.91Z"/>
          <path class="a409e373-bc10-479b-95a7-6cde5c807109" d="M226.71,724.39s-2.57-6.25-6.69-1c.16,6,.16,7.88.16,7.88l6.76-.07Z"/>
          <path class="a409e373-bc10-479b-95a7-6cde5c807109" d="M161.89,723.06s-2.68-2.09-5,0a49,49,0,0,1-5.69,1l21.49.76v-6.47s-1.86-2.64-4.37,0c-1.95,2.79-1.11,2.93-1.11,2.93a3,3,0,0,0-3.76,0l-1.53,1.81"/>
          <path class="a409e373-bc10-479b-95a7-6cde5c807109" d="M356,725.44s5.07-.09,4.81,2.52c2.49-1.7,4.06,1.57,4.06,1.57,1.57-1.44,4.58,0,4.58,0l5.75.66-17.79.13Z"/>
          <path class="a409e373-bc10-479b-95a7-6cde5c807109" d="M317,724.21s-2.08-3-4.57,0c-2.48-.43-5.86,1-5.15,2.53-3.48-1.26-5.05,1.14-5.05,1.14s-3.4-.44-4.19,1.65c-2.61-1.31-4.57-1.31-5.1,0-3.92-.39-9.94.79-9.94.79l33.71,1Z"/>
          <polygon class="a4ec81a7-821c-4720-91a1-d508feb7a4b0" points="644 746.56 61.05 742.41 61.05 751.5 671.43 754.15 644 746.56"/>
          <polygon class="f4d0740b-59d7-4ba6-b03d-f6f0fd74d8bd" points="1036.52 923.68 -388.31 896.35 -378.22 829.07 835.52 830.85 1036.52 923.68"/>
          <path class="b2455575-556d-42f4-8311-bfaf2354c8ed" d="M899,674.59s86.53,80.21-425.1,71.57L29.08,743.5l-4.42,76h0S174,818.27,287,817.68c295.75-1.55,350,1.06,470.72-7.74,67-4.87,121.06-10.83,154.09-14.77,92.23.39,152.29-35.5,157.51-72.18,2.14-15-6.09-33-30.45-54.17C899.75,667.49,899,674.59,899,674.59Z"/>
          <path class="a5c5863e-22df-4996-ad36-9fa85c2c9158" d="M1004.92,669.62s107,91.57-464.06,76.54c-889-2.1-929.12-3.75-929.12-3.75l-.67,77.06,1373.78-2.69s314.2-23.69,175.58-148C1000.28,668,1004.92,669.62,1004.92,669.62Z"/>
          <path class="a4ec81a7-821c-4720-91a1-d508feb7a4b0" d="M501.1,732.22s-929.4-11-903.52,10.19c20.06,1.28,1100.51,6.67,1127.34,1.65S825.64,737.21,842.24,729c17-3.88,52.71-14.69,62.51-33.07,0,0,4.14-13.09-5.74-21.33-4.8.29,18.45,31.16-66.16,47.1s-199.26,19-204.8,15.77-55,3-54.61-3.41C566.27,731.72,501.1,732.22,501.1,732.22Z"/>
          <rect class="aa745bf5-0ed7-4751-82c5-82d4368b2664" x="1422.91" y="621.65" width="8.78" height="27.2" transform="translate(2854.59 1270.51) rotate(-180)"/>
          <path class="f11454a9-cf69-4a77-af12-055caa0bee7b" d="M642.81,640.07c-3.18,1.63-27.9,20.66-27.9,20.66H795a28.8,28.8,0,0,1,22.91-5.9l-3.55-4.91-167.64,1.6Z"/>
          <path class="aaaafa30-2121-44dd-b37a-8cff3be5e19c" d="M642.81,640.07l-27.9,20.66H795s6.94-8.19,22.91-5.9l-3.55-4.91-167.64,1.6Z"/>
          <rect class="f11454a9-cf69-4a77-af12-055caa0bee7b" x="-35.64" y="136.94" width="1608" height="913" transform="translate(1535.58 1188.36) rotate(-179.89)"/>
          <ellipse class="aa745bf5-0ed7-4751-82c5-82d4368b2664" cx="1477.43" cy="722.13" rx="24.31" ry="4.99"/>
          <path class="f4d0740b-59d7-4ba6-b03d-f6f0fd74d8bd" d="M1771.07,774.06c-15-2.15-31.72,10.2-121.87,0s-176.82-11.93-214.57-13-196.72-5.47-213.47-6.92-8.68,16.79,33.57,28.24,43.48,34.16,9.75,42.26-207.16,33.59-129.91,34.48,636.5,0,636.5,0l1.5-52.33"/>
          <path class="abf3c916-3b31-4d93-bbee-a18cb7cd6949" d="M1772.61,804.67h0c-41.33-.87-162.79-3.62-215.8-6.88-64.4-4-201.46-21.42-224.22-8.83s19.44,39.64,42.06,40.26-12.48,2.49-56.65,5.41-42.46,24.49-42.46,24.49h495.53"/>
          <ellipse class="aa745bf5-0ed7-4751-82c5-82d4368b2664" cx="1629.44" cy="704.19" rx="92.22" ry="15.74"/>
          <g>
            <path class="f02d074b-6b54-4394-8017-ed2eeb57776d" d="M1570.65,664.21c-6.1,61.33-18.44,109.2,34.43,99.35,56.51,4.31,44.09-34.58,36.83-101.65-6.32-58.28-23.12-132.25-39.29-125.14C1587.65,543.35,1576.44,605.87,1570.65,664.21Z"/>
            <path class="b3b4a82c-c0e5-4dba-9862-a282119994ae" d="M1570.65,664.21c-6.1,61.33-18.44,109.2,34.43,99.35-27.94-23.12-27.17-32.28-21.07-93.61,5.79-58.34,9.18-98,18.61-133.18C1587.65,543.35,1576.44,605.87,1570.65,664.21Z"/>
          </g>
          <g>
            <rect class="b3b89798-8141-45be-ab6a-8db9b9dec1e5" x="1486.67" y="799.24" width="8.64" height="46.53" transform="translate(2983.31 1642.62) rotate(179.91)"/>
            <path class="f02d074b-6b54-4394-8017-ed2eeb57776d" d="M1455.69,720c-6.1,61.33-18.44,109.2,34.43,99.36,56.51,4.3,44.09-34.59,36.83-101.65-6.32-58.29-23.12-132.26-39.29-125.15C1472.69,599.13,1461.48,661.64,1455.69,720Z"/>
            <path class="b3b4a82c-c0e5-4dba-9862-a282119994ae" d="M1455.69,720c-6.1,61.33-18.44,109.2,34.43,99.36-27.94-23.13-27.17-32.29-21.07-93.61,5.79-58.34,9.18-98,18.61-133.19C1472.69,599.13,1461.48,661.64,1455.69,720Z"/>
            <path class="a98944a4-a962-4384-8e8f-a62d350404d4" d="M1490.12,819.34c56.51,4.3,44.09-34.59,36.83-101.65-6.32-58.29-23.12-132.26-39.29-125.15C1513.43,637.17,1533.86,832.71,1490.12,819.34Z"/>
          </g>
          <ellipse class="aa745bf5-0ed7-4751-82c5-82d4368b2664" cx="1413.47" cy="743.49" rx="21.76" ry="7.25"/>
          <ellipse class="abf3c916-3b31-4d93-bbee-a18cb7cd6949" cx="523.4" cy="705.26" rx="23.59" ry="4.2"/>
          <g>
            <g class="a4bd554d-3e10-430f-8587-707787bc8c64">
              <ellipse cx="1376.88" cy="713.26" rx="73.48" ry="16.22"/>
            </g>
            <ellipse class="afa67433-76dd-4e11-b646-b85a0282cec7" cx="1376.88" cy="708.25" rx="71.82" ry="15.85"/>
            <path class="b8aabee9-0271-46f9-b89b-ab31b5290c6b" d="M1304.24,705.18c0,21.12,145.29,21.12,145.29,0S1304.24,684.06,1304.24,705.18Z"/>
            <g class="e53d4eb2-18f3-443a-88f6-5583e084166c">
              <path class="aaba48be-0eee-4ac5-b1ef-13f70a28ab28" d="M1361.06,690.18l-50.37,20.42c-2.72-1.67-4.25-3.55-4.25-5.65C1306.44,696.32,1332,691.4,1361.06,690.18Z"/>
            </g>
            <g class="a636a3ca-23f4-4840-9f5c-ba86d94a9f4f">
              <path class="aaba48be-0eee-4ac5-b1ef-13f70a28ab28" d="M1436.93,696.53c6.55,2.19,10.51,5,10.51,8.29,0,10.16-36.71,15-71.58,14.47Z"/>
            </g>
            <path class="b7dca69c-871d-4826-a68c-f9a66f2a343d" d="M1334.08,658.69a6.63,6.63,0,0,1,5.29-1.57l37.59,5.29v1.74l-37.83-5.33a4.95,4.95,0,0,0-5.62,4.91v29.73c-.67.43-1,.28-1.71,0V663.73A6.7,6.7,0,0,1,1334.08,658.69Z"/>
            <g class="bf5c7b9b-e6e1-41b0-9706-e1f92f1664d0">
              <path class="fef994d8-ed00-4bef-9c04-863c070a0469" d="M1331.8,693.46V663.73a7.07,7.07,0,0,1,.13-1.3l1.58,3.66v27.37C1332.84,693.89,1332.47,693.74,1331.8,693.46Z"/>
            </g>
            <g class="bf5c7b9b-e6e1-41b0-9706-e1f92f1664d0">
              <polygon class="fef994d8-ed00-4bef-9c04-863c070a0469" points="1376.71 664.11 1349.15 660.23 1359.29 659.92 1376.73 662.38 1376.71 664.11"/>
            </g>
            <g class="bf5c7b9b-e6e1-41b0-9706-e1f92f1664d0">
              <path class="fef994d8-ed00-4bef-9c04-863c070a0469" d="M1322.38,714.1l49.85-9.07a.61.61,0,0,1-.13-.35c0-.29.26-.56.69-.79l-41-10.43h1.71l40.06,10.11a11.51,11.51,0,0,1,3.31-.43,11,11,0,0,1,3.59.52l49.67-7.62.85.75-49.57,7.41a.66.66,0,0,1,.24.48c0,.27-.21.52-.58.74l42,10.11-1.28.29-41.51-10.07a11.37,11.37,0,0,1-3.44.47,10.17,10.17,0,0,1-3.88-.64l-49.87,8.84Z"/>
            </g>
            <path class="f0a6ffc3-319f-4e0a-9281-bb4c2ef0e6e7" d="M1322.38,714.1c.69.79,1.11.49,1.71,0V676.16a5,5,0,0,1,4.27-4.91l96-13.31a4.95,4.95,0,0,1,5.61,4.92v33.75a1.42,1.42,0,0,0,1.71,0V662.86a6.66,6.66,0,0,0-7.56-6.62l-96,13.31a6.69,6.69,0,0,0-5.74,6.61Z"/>
            <polygon class="bea96d92-37cd-42fc-87b8-f38c19c2baad" points="1412.27 659.62 1377.31 664.46 1377.46 662.71 1398.75 659.76 1412.27 659.62"/>
            <path class="f71f2a45-e4c7-4a86-b65e-d0f9add574e1" d="M1379,703l.74-41c.07-3.87-5.78-3.92-5.72,0l.61,41A2.19,2.19,0,0,0,1379,703Z"/>
            <g class="bf5c7b9b-e6e1-41b0-9706-e1f92f1664d0">
              <path class="fef994d8-ed00-4bef-9c04-863c070a0469" d="M1376.88,659.59a4.94,4.94,0,0,1,2.09.4,2.84,2.84,0,0,1,.55.8c-.2.51-1.3.9-2.64.9s-2.46-.4-2.63-.91a2.41,2.41,0,0,1,.51-.77A4.88,4.88,0,0,1,1376.88,659.59Z"/>
            </g>
            <g class="e53d4eb2-18f3-443a-88f6-5583e084166c">
              <polygon class="aaba48be-0eee-4ac5-b1ef-13f70a28ab28" points="1379.18 665.75 1378.45 703.65 1377.28 704.47 1377.01 666.74 1379.18 665.75"/>
            </g>
            <g class="bf5c7b9b-e6e1-41b0-9706-e1f92f1664d0">
              <polygon class="fef994d8-ed00-4bef-9c04-863c070a0469" points="1379.54 664.11 1374.23 676.37 1374.19 673.64 1378.03 663.55 1379.54 664.11"/>
            </g>
            <path class="f0a6ffc3-319f-4e0a-9281-bb4c2ef0e6e7" d="M1375.19,664a.86.86,0,0,1-.74.85l-5.07.7a.85.85,0,0,1-1-.71.86.86,0,0,1,.73-1l5.07-.7A.86.86,0,0,1,1375.19,664Z"/>
            <path class="b4a2c108-f7fc-4ffd-aa43-aabe2c8e36d1" d="M1372.17,656c0,6.25,9.42,6.25,9.42,0S1372.17,649.78,1372.17,656Z"/>
            <g>
              <path class="a828a149-4a34-49f5-9a15-a379d1df43b0" d="M1372.17,656a5.6,5.6,0,0,1,.07-.84l8.8,3.17a4.25,4.25,0,0,1-1.85,1.81l-6.88-2.9A5.41,5.41,0,0,1,1372.17,656Z"/>
              <path class="a828a149-4a34-49f5-9a15-a379d1df43b0" d="M1381.59,656a5.55,5.55,0,0,1,0,.72l-8.7-3.27a4.22,4.22,0,0,1,1.44-1.44l7.17,2.75A5.35,5.35,0,0,1,1381.59,656Z"/>
            </g>
            <g class="a636a3ca-23f4-4840-9f5c-ba86d94a9f4f">
              <path class="aaba48be-0eee-4ac5-b1ef-13f70a28ab28" d="M1381.21,655.91a4.5,4.5,0,0,1-.23,1.42c-1.45-3.11-4.7-4.06-8.08-3.17C1374.46,650.25,1381.21,650.83,1381.21,655.91Z"/>
            </g>
            <g class="bf5c7b9b-e6e1-41b0-9706-e1f92f1664d0">
              <path class="fef994d8-ed00-4bef-9c04-863c070a0469" d="M1374.78,652.21c0,.37.94.68,2.1.68s2.11-.31,2.11-.68-.94-.68-2.11-.68S1374.78,651.83,1374.78,652.21Z"/>
            </g>
            <path class="f0a6ffc3-319f-4e0a-9281-bb4c2ef0e6e7" d="M1374.46,649.87a2.42,2.42,0,0,0,4.84,0A2.42,2.42,0,0,0,1374.46,649.87Z"/>
            <path class="b7dca69c-871d-4826-a68c-f9a66f2a343d" d="M1379,662.7l1.78.25,36.6,5.15a6.7,6.7,0,0,1,5.73,6.62v40.81a1.23,1.23,0,0,1-1.71,0V674.72a5,5,0,0,0-4.25-4.91L1379,664.44l-.28,0a.86.86,0,0,1,.24-1.7Z"/>
            <g class="bf5c7b9b-e6e1-41b0-9706-e1f92f1664d0">
              <path class="fef994d8-ed00-4bef-9c04-863c070a0469" d="M1379,664.44l-.28,0a.85.85,0,0,1-.73-.85,1,1,0,0,1,.06-.3l29.43,5.2Z"/>
            </g>
            <g class="e53d4eb2-18f3-443a-88f6-5583e084166c">
              <path class="aaba48be-0eee-4ac5-b1ef-13f70a28ab28" d="M1379.08,649.79a2.45,2.45,0,0,1-.08.62,3.08,3.08,0,0,0-3.77-2A2.19,2.19,0,0,1,1379.08,649.79Z"/>
            </g>
            <g class="e53d4eb2-18f3-443a-88f6-5583e084166c">
              <path class="aaba48be-0eee-4ac5-b1ef-13f70a28ab28" d="M1374.7,650.1a4.12,4.12,0,0,0,3.2,1.76A2.12,2.12,0,0,1,1374.7,650.1Z"/>
            </g>
            <g class="e53d4eb2-18f3-443a-88f6-5583e084166c">
              <path class="aaba48be-0eee-4ac5-b1ef-13f70a28ab28" d="M1372.67,656.93c2.13,2.27,3.87,2.58,6.47,2.67A4.05,4.05,0,0,1,1372.67,656.93Z"/>
            </g>
            <path class="bea96d92-37cd-42fc-87b8-f38c19c2baad" d="M1338.3,669.87l-9.94,1.38a5,5,0,0,0-4.27,4.91V714.1c-.6.49-1,.79-1.71,0V676.16a6.69,6.69,0,0,1,5.74-6.61l10.49-1.46Z"/>
          </g>
          <path class="eae8b3eb-5f84-4661-a5a1-ee3925e37b6b" d="M1477.41,848.29c33.65-19.35,69.92-5.43,69.92-5.43-16.82-7.13-4.73-38.7,38.91-35.65-2-16.78,20.25-29.56,59-18.24a9.83,9.83,0,0,0,1.66,2.44c1.53,1.61,3.48,2.84,5.1,4.37a9.93,9.93,0,0,0,5.71,2.8l-3,70.42-311.36-.67C1363.84,855.76,1443.76,831.32,1477.41,848.29Z"/>
          <path class="eae8b3eb-5f84-4661-a5a1-ee3925e37b6b" d="M10.06,846c26.24-15.09,54.53-4.24,54.53-4.24-13.12-5.56-3.69-30.18,30.34-27.8-1.56-13.09,15.79-23,46-14.22a7.89,7.89,0,0,0,1.3,1.9c1.2,1.26,2.71,2.22,4,3.41a7.78,7.78,0,0,0,4.45,2.18l-2.37,54.92-242.81-.53C-78.5,851.77-16.18,832.71,10.06,846Z"/>
          <path class="eae8b3eb-5f84-4661-a5a1-ee3925e37b6b" d="M137.34,805c1.21-.7,2.2-1.64,3.37-2.39.54-.35,1.44-.47.32-.38a9.1,9.1,0,0,0,5.39-2.32c30.62-9.14,48.21.87,46.64,14,34-2.38,43.46,22.24,30.35,27.8,0,0,28.29-10.85,54.53,4.24,26.24-13.24,88.55,5.82,104.54,15.62l-242.8.53L137.21,805Z"/>
          <path class="eae8b3eb-5f84-4661-a5a1-ee3925e37b6b" d="M1117.73,844.35c26.24-15.09,54.53-4.23,54.53-4.23-13.12-5.56-3.69-30.18,30.34-27.8-1.56-13.09,15.78-23.05,46-14.22a7.83,7.83,0,0,0,1.3,1.89c1.19,1.26,2.71,2.22,4,3.42a7.8,7.8,0,0,0,4.46,2.18L1256,860.51l-242.8-.53C1029.17,850.18,1091.49,831.12,1117.73,844.35Z"/>
          <rect class="f11454a9-cf69-4a77-af12-055caa0bee7b" x="-388.31" y="139.12" width="2160" height="720" transform="translate(1383.38 998.24) rotate(-180)"/>
          <rect class="a5c5863e-22df-4996-ad36-9fa85c2c9158" x="-5.43" y="612.65" width="1020.02" height="140.55"/>
          <rect class="f11454a9-cf69-4a77-af12-055caa0bee7b" width="1600" height="900"/>
          <g>
            <path class="b3b4a82c-c0e5-4dba-9862-a282119994ae" d="M1072.09,631.24l-1.93-4.18s-3.85-8.35,3.86-6.26c0,0,3.85-8.36,7.7-2.09,0,0,1.92-8.36,5.77,0,0,0,12.18-10.82,9.94,2.95,0,0,10.54-9,9.93,5.53,0,0,14.8-9.83,11,10.69,0,0,11.55-15,17.78,8,0,0,24.58-18.81,22.66,8.35,0,0,22.2-13.48,13,4.75,0,0,13.93-4.75,10.08,5.7,0,0,5.78,2.09,5.78,4.18,0,8.86-9.63,4.18-9.63,4.18s7.7,8.35-1.92,4.18c7.7,12.53-100.09-9-98.21-6.27s-5.78-16.72-5.78-16.72-3.85-8.35-3.85-10.44,3.85-4.18,3.85-4.18-5.78,2.09-5.78,0,5.78-2.09,5.78-2.09-7.7,0-5.78-4.18A4,4,0,0,1,1072.09,631.24Z"/>
            <path class="f4d0740b-59d7-4ba6-b03d-f6f0fd74d8bd" d="M1076.89,648.93l-2.33-6.29s-4.66-12.59,4.66-9.44c0,0,4.66-12.59,9.32-3.15,0,0,2.33-12.59,7,0,0,0,14.74-16.29,12,4.44,0,0,12.75-13.51,12,8.33,0,0,17.9-14.81,13.24,16.11,0,0,14-22.59,21.52,12,0,0,29.74-28.32,27.41,12.58,0,0,26.86-20.3,15.76,7.16,0,0,16.85-7.16,12.19,8.58,0,0,9.5,6.16,7,6.29-55,2.89,9.32,31.47,30.29,40.91s14,25.17,4.66,22c0,0,65.06,5.91,67.56,56.64,2.33,47.2-53.58,73-186.38,74.23-137.45,1.29-204.18-5.67-222.82-18.25l-108.3-51.44c62.52-2.52,107.11-2.89,138-2.68a264.61,264.61,0,0,0,48.25-3.88c24.1-4.17,50.86-9.14,77.4-31,13.68-11.28,30.62-25.25,33-47.78,1.67-15.78-3.93-34.64-5.71-40.61a132.58,132.58,0,0,0-8.39-21.37c-8.24-2.42-12.73-9.46-11.94-14.52.56-3.63,3.76-5.72,4.66-6.29,0,0-7,3.14-7,0s7-3.15,7-3.15-6.34,0-7.26-3.52a4.66,4.66,0,0,1,.27-2.77C1070.84,649.62,1073.64,648.33,1076.89,648.93Z"/>
            <path class="a409e373-bc10-479b-95a7-6cde5c807109" d="M1084.67,651.44l-2.19-3.27s-4.37-6.54,4.37-4.91c0,0,4.38-6.54,8.75-1.63,0,0,2.19-6.55,6.56,0,0,0,13.82-8.47,11.28,2.31,0,0,12-7,11.28,4.32,0,0,16.79-7.69,12.42,8.37,0,0,49.1,4.75,51.84,14.29L1077.76,668s2.54-5.08,2.54-6.72,4.37-3.27,4.37-3.27-6.56,1.64-6.56,0,6.56-1.63,6.56-1.63-8.75,0-6.56-3.28S1084.67,651.44,1084.67,651.44Z"/>
            <path class="aaaafa30-2121-44dd-b37a-8cff3be5e19c" d="M1423.33,657.92l-256.25,2s3-2.64-7.61-14.93c145.71,1.1,232.33,4.19,232.33,4.19l1.7-14.66,20.69-.24Z"/>
          </g>
          <g>
            <path class="aa745bf5-0ed7-4751-82c5-82d4368b2664" d="M1340.42,739c32.67,11.88,12.86,26.2-16.41,25.75s-46.17-6.5-42.84-1.86-8.49,6.16-24.51,3.76-23-7.58-27.71-11.79c-3.37-3-9.78-12.75,10.37-14.13s13.09-6.63,12.89-9.79c-.41-6.72,33.09-8.81,53.77-3.31A279.6,279.6,0,0,1,1340.42,739Z"/>
            <ellipse class="aa745bf5-0ed7-4751-82c5-82d4368b2664" cx="1191.89" cy="805.64" rx="78.56" ry="31.43"/>
            <ellipse class="aa745bf5-0ed7-4751-82c5-82d4368b2664" cx="1066.13" cy="839.8" rx="15.71" ry="4.49"/>
            <ellipse class="abf3c916-3b31-4d93-bbee-a18cb7cd6949" cx="1289.32" cy="735.26" rx="7.86" ry="3.37"/>
          </g>
          <rect class="f11454a9-cf69-4a77-af12-055caa0bee7b" width="1600" height="900"/>
          <rect class="f11454a9-cf69-4a77-af12-055caa0bee7b" width="1600" height="900"/>
        </g>
      </g>
    </g>
  </g>
</svg>
