<svg id="fc538ece-1e31-499f-92f9-de2830c2aba8" data-name="Layer 1" xmlns="http://www.w3.org/2000/svg" xmlns:xlink="http://www.w3.org/1999/xlink" width="1920" height="900" viewBox="0 0 1600 900">
  <defs>
    <style>
      .b66e96f9-f4e2-47b7-812c-7d3d12c45069 {
        fill: none;
      }

      .e13314e8-7a71-4888-b8f0-ee1b6a028cb5 {
        clip-path: url(#acda7949-a9dd-40ff-b879-b1c73642691d);
      }

      .e4d19dd8-9df9-4260-a765-e41640c968c1 {
        fill: url(#f101c4a3-74dd-4087-a90c-7fcc93c0ce28);
      }

      .bb56e814-953b-49e2-9122-7e4d2c4992f7 {
        fill: url(#b400ac7b-fc5c-4255-90b4-06a46570cab6);
      }

      .bde715fe-70bd-4113-826c-2828983d6836 {
        fill: url(#b5431093-feae-4467-9533-556cd0ba1ede);
      }

      .a81b6166-aa01-4f19-8056-028490b7b75f {
        fill: url(#f90747c8-964b-4246-97e6-de4c675ef8d9);
      }

      .fac33496-f50a-4ca5-88b3-5a31ab769215 {
        fill: url(#abe84f6e-ccb2-4d28-ac4e-1ca15eafdd19);
      }

      .f77a2f3f-212c-4ad1-8c28-8f929cf2eb43 {
        fill: url(#ff5b4b40-3a1d-412d-a37e-17bd69b49a35);
      }

      .b7c6087f-c55b-43bc-8fd9-fd2f57a463ce {
        fill: url(#f2961dc0-9604-4470-9d6f-19330afa8e85);
      }

      .fa9cdc6b-17d7-49f3-a1a7-e0e54396e517 {
        fill: url(#ecf09e30-b2e4-4980-bb47-3d5a7a35a255);
      }

      .ba8071fe-5de7-4bd1-9a41-6e23c7dc4eeb {
        fill: url(#f7c57bf4-be19-478d-95bc-8809f305aafa);
      }

      .b6a4b949-f33f-4dc2-93a0-b6bf17c9b43e {
        fill: url(#f2a6bc97-0b3a-4cfa-9e3c-92569a142ebc);
      }

      .ed268d52-0c2c-4396-ab9d-ed8bc7cfb8db {
        fill: url(#a98ef16d-c5db-4112-9d70-02fde58cc06d);
      }

      .b7f507e0-1ce4-4ace-8b99-516f4cb87703 {
        fill: url(#a4d54310-c886-4d47-98cd-8d8753afecb8);
      }

      .fd9a5770-6db2-43ee-9376-96f9089a42ab {
        fill: url(#bae7a89a-ab53-475f-95e8-dbdd08015658);
      }

      .e16792e7-cd28-47c9-a8f0-c208f5a34645 {
        clip-path: url(#e9abb397-b1fc-4d2a-b557-b724dfed1f6c);
      }

      .ba421a04-4146-4f86-a957-b87abf4b0cca {
        fill: url(#a8d90f0e-4e1a-4657-b3fb-88814d1cb11e);
      }

      .ab68d89d-430b-498b-9817-cc68207a097e {
        fill: #aa895b;
      }

      .ab20c560-8ae8-4477-93fa-daa7a0646b96 {
        fill: #d18c5e;
      }

      .bde897c8-5ce3-44aa-acc8-a49275c90e1c {
        fill: #c19867;
      }

      .a6ef59fc-2a18-4523-8785-a1d748ada9e2 {
        opacity: 0.6;
      }

      .afad9395-d485-4406-8cb2-b8ce7274a5ab {
        fill: #7a5d2a;
      }

      .b444fd6a-c7aa-4255-a8cf-9802e2c32067 {
        fill: #8c5b48;
      }

      .f9d86bc0-18fc-4539-8491-695a8a85797f {
        opacity: 0.41;
      }

      .baa56dfc-0c53-41c8-8f02-f4e2d5c0a79e {
        fill: #666;
      }

      .e9c10baf-db35-4dbe-9b8e-442ef0a8c228 {
        fill: #e6e6e6;
      }

      .b076cf4f-4f9e-44c7-913f-166b1e4abb99 {
        fill: #1a1a1a;
      }

      .eef7c162-ce39-4353-a8fd-6524481bf8aa {
        fill: #70b644;
      }

      .a1637f0a-bcd3-4fec-8028-2a289a5f5345 {
        fill: #579943;
      }

      .fb8541f7-bd81-41a9-8a26-7918c3ac253f {
        fill: #cea852;
      }

      .b993a033-2f3b-41a4-a7aa-f29facd365ad {
        fill: #87c444;
      }

      .b906623b-fb66-4743-85bf-1df455041881 {
        fill: #cd8751;
      }
    </style>
    <clipPath id="acda7949-a9dd-40ff-b879-b1c73642691d">
      <rect class="b66e96f9-f4e2-47b7-812c-7d3d12c45069" width="1600" height="900"/>
    </clipPath>
    <linearGradient id="f101c4a3-74dd-4087-a90c-7fcc93c0ce28" x1="896.32" y1="-301.3" x2="829.94" y2="850.64" gradientTransform="matrix(1, 0, 0, -1, -167.21, 696.09)" gradientUnits="userSpaceOnUse">
      <stop offset="0" stop-color="#35b6e5"/>
      <stop offset="0.12" stop-color="#49bde8"/>
      <stop offset="0.72" stop-color="#a6def6"/>
    </linearGradient>
    <linearGradient id="b400ac7b-fc5c-4255-90b4-06a46570cab6" x1="189.44" y1="275.76" x2="449.43" y2="628.37" gradientTransform="matrix(-1, 0, 0, 1, 1550.59, 0)" gradientUnits="userSpaceOnUse">
      <stop offset="0.08" stop-color="#acc6df"/>
      <stop offset="0.76" stop-color="#81bbe1"/>
    </linearGradient>
    <linearGradient id="b5431093-feae-4467-9533-556cd0ba1ede" x1="115.37" y1="509.27" x2="938.71" y2="509.27" xlink:href="#b400ac7b-fc5c-4255-90b4-06a46570cab6"/>
    <linearGradient id="f90747c8-964b-4246-97e6-de4c675ef8d9" x1="233.92" y1="168.22" x2="567.86" y2="621.12" xlink:href="#b400ac7b-fc5c-4255-90b4-06a46570cab6"/>
    <linearGradient id="abe84f6e-ccb2-4d28-ac4e-1ca15eafdd19" x1="675.22" y1="1192.62" x2="944.12" y2="-136.71" gradientTransform="matrix(1, 0, 0, -1, -166.51, 572.63)" gradientUnits="userSpaceOnUse">
      <stop offset="0.2" stop-color="#c5f7fd"/>
      <stop offset="0.34" stop-color="#b3f0fd"/>
      <stop offset="0.66" stop-color="#8ee1fd"/>
      <stop offset="0.83" stop-color="#80dbfd"/>
    </linearGradient>
    <linearGradient id="ff5b4b40-3a1d-412d-a37e-17bd69b49a35" x1="637.26" y1="195.88" x2="749.19" y2="83.87" gradientTransform="matrix(-1, 0, 0, 1, 1550.59, 0)" gradientUnits="userSpaceOnUse">
      <stop offset="0.11" stop-color="#85ddfd"/>
      <stop offset="0.84" stop-color="#d7eef4"/>
    </linearGradient>
    <linearGradient id="f2961dc0-9604-4470-9d6f-19330afa8e85" x1="1052.49" y1="235.79" x2="1204.78" y2="83.39" gradientTransform="matrix(-1, 0, 0, 1, 1550.59, 0)" gradientUnits="userSpaceOnUse">
      <stop offset="0.17" stop-color="#83dcfd"/>
      <stop offset="0.9" stop-color="#d7eef4"/>
    </linearGradient>
    <linearGradient id="ecf09e30-b2e4-4980-bb47-3d5a7a35a255" x1="-58.18" y1="192.88" x2="35.32" y2="99.31" gradientTransform="matrix(-1, 0, 0, 1, 1550.59, 0)" gradientUnits="userSpaceOnUse">
      <stop offset="0.11" stop-color="#85ddfd"/>
      <stop offset="0.82" stop-color="#d7eef4"/>
    </linearGradient>
    <linearGradient id="f7c57bf4-be19-478d-95bc-8809f305aafa" x1="117.16" y1="204.71" x2="224.01" y2="97.78" gradientTransform="matrix(-1, 0, 0, 1, 1550.59, 0)" gradientUnits="userSpaceOnUse">
      <stop offset="0.17" stop-color="#83dcfd"/>
      <stop offset="0.61" stop-color="#d7eef4"/>
    </linearGradient>
    <linearGradient id="f2a6bc97-0b3a-4cfa-9e3c-92569a142ebc" x1="146.12" y1="354.83" x2="1996.18" y2="354.83" gradientTransform="matrix(-0.98, 0, 0, 0.91, 1611.95, 45.86)" gradientUnits="userSpaceOnUse">
      <stop offset="0.2" stop-color="#68c1dd"/>
      <stop offset="0.83" stop-color="#68c1dd"/>
    </linearGradient>
    <linearGradient id="a98ef16d-c5db-4112-9d70-02fde58cc06d" x1="1282.86" y1="234.83" x2="1379.46" y2="165.79" gradientTransform="matrix(-1, 0, 0, 1, 1550.59, 0)" gradientUnits="userSpaceOnUse">
      <stop offset="0" stop-color="#91d5e3" stop-opacity="0.44"/>
      <stop offset="0.17" stop-color="#a4dce8" stop-opacity="0.61"/>
      <stop offset="0.37" stop-color="#b6e3ed" stop-opacity="0.78"/>
      <stop offset="0.55" stop-color="#c4e8f1" stop-opacity="0.9"/>
      <stop offset="0.7" stop-color="#ccebf3" stop-opacity="0.97"/>
      <stop offset="0.81" stop-color="#cfecf4"/>
    </linearGradient>
    <linearGradient id="a4d54310-c886-4d47-98cd-8d8753afecb8" x1="1469.78" y1="286.7" x2="1534.09" y2="240.73" xlink:href="#a98ef16d-c5db-4112-9d70-02fde58cc06d"/>
    <linearGradient id="bae7a89a-ab53-475f-95e8-dbdd08015658" x1="800.67" y1="221.13" x2="968.82" y2="162.98" xlink:href="#a98ef16d-c5db-4112-9d70-02fde58cc06d"/>
    <clipPath id="e9abb397-b1fc-4d2a-b557-b724dfed1f6c">
      <rect class="b66e96f9-f4e2-47b7-812c-7d3d12c45069" x="-1700" width="1600" height="900"/>
    </clipPath>
    <linearGradient id="a8d90f0e-4e1a-4657-b3fb-88814d1cb11e" x1="2557.36" y1="448.03" x2="2560.16" y2="750.15" gradientTransform="matrix(1, 0, 0, -1, -3567.83, 1295.34)" gradientUnits="userSpaceOnUse">
      <stop offset="0.29" stop-color="#609351"/>
      <stop offset="0.73" stop-color="#6bb25e"/>
      <stop offset="1" stop-color="#70bf64"/>
    </linearGradient>
  </defs>
  <g class="e13314e8-7a71-4888-b8f0-ee1b6a028cb5">
    <rect class="e4d19dd8-9df9-4260-a765-e41640c968c1" x="-388.31" y="139.12" width="2160" height="417.85" transform="translate(1383.38 696.09) rotate(-180)"/>
    <path class="bb56e814-953b-49e2-9122-7e4d2c4992f7" d="M1362.58,496.25c-1.32-.19-179-90.55-404.83,45.51,10,0,413.23,1.8,413.23,1.8Z"/>
    <path class="bde715fe-70bd-4113-826c-2828983d6836" d="M1418.49,494.08c-2.64-.31-356.56-155.07-806.61,77.94,20,0,823.35,3.09,823.35,3.09Z"/>
    <path class="a81b6166-aa01-4f19-8056-028490b7b75f" d="M1275.1,419.42a143.85,143.85,0,0,1-61.32,28.68c-11.68,2.34-35.44,6.83-62.19-1.42-34.86-10.75-38.65-32-62.36-36.55-31.74-6.09-59.65,25.32-82.48,44.75-33.53,28.54-90.36,60.4-191,67.67l476.8,3.55Q1283.81,472.76,1275.1,419.42Z"/>
    <g>
      <rect class="fac33496-f50a-4ca5-88b3-5a31ab769215" x="-388.31" y="0.63" width="2160.71" height="571.37" transform="translate(1384.09 572.63) rotate(-180)"/>
      <g>
        <path class="f77a2f3f-212c-4ad1-8c28-8f929cf2eb43" d="M913.87,170.49s-.89-6.71-12.19-11.31-20.81-7.07-30.62-1.76-7.73,17.32-5.65,18.73c4,2.75,12.74,6.35,36,2.83C915.35,176.86,913.87,170.49,913.87,170.49Z"/>
        <path class="b7c6087f-c55b-43bc-8fd9-fd2f57a463ce" d="M499.75,199.84s-1.3-8.5-17.68-14.32-30.18-9-44.41-2.24-11.21,21.94-8.2,23.73c5.86,3.47,18.49,8,52.18,3.58C501.9,207.9,499.75,199.84,499.75,199.84Z"/>
      </g>
      <g>
        <path class="fa9cdc6b-17d7-49f3-a1a7-e0e54396e517" d="M1609.3,167.49s-.89-6.71-12.19-11.31-20.81-7.07-30.62-1.76-7.72,17.32-5.64,18.73c4,2.75,12.74,6.35,36,2.83C1610.79,173.86,1609.3,167.49,1609.3,167.49Z"/>
        <path class="ba8071fe-5de7-4bd1-9a41-6e23c7dc4eeb" d="M1434.58,179.67s-.9-5.93-12.31-10-21-6.24-30.94-1.56-7.81,15.28-5.7,16.53c4.08,2.42,12.87,5.6,36.34,2.49C1436.08,185.28,1434.58,179.67,1434.58,179.67Z"/>
      </g>
      <path class="b6a4b949-f33f-4dc2-93a0-b6bf17c9b43e" d="M-102.44,410.14l-.11,162.09,1809.85.82.09-132.66-11.44.3-.7,12.44H1685l.35-19.4-60.56,1.44,0,16.1-70.87.33-2.94-216.74-15.72-1.1-19,3.46v-2H1519V233h-2.23v-5.68h-1.19v6.23h-4.11v-5.13h-1.53v5.31l-3.43,1.09.33,1.65h.87V238l-3.26.36v11l-11.81-1.11v-2h-.7v1.65h-2.56v-19l-13.86-.56v-2.19h-1.37v-5.32h1.21v-2h-4.11v8.05h-1v2.75h-8.71V225.3H1458V228h1.18l-.17,2.38-17.44,2,.15,28.37-10.62,1.27v3.31l-1.88,2,2.14,152.86-11.66-.74-7.18.18-.69-17.76-7.68-.73v-9.71l-32.7-.38v-4l-24.81-.21v-4h-2.76V359.43l-1.78-1.92V345.34h-7.45V336h-3.06v.91h-3.77V322.08l-.86.73v2.94l-2.06.36v1.09h-2.57l-.17-1.83-1.37-.37v1.84l-3.58.18-.52-1.65-2.06-.19-.51,1.66-4.11.18.18-1.47-1.89.19v1.09h-3.42v-2.2l-.87-.36-.17-2.93h-1.54l-.35,5.49-4.27.18-.18-4.21-1,.18-.49,4-3.09.91-.17-4.94h-.68l-.18,5.12-3.24.56-.69-1.47v-2l-1.72.18-.17,3.85.68,1.09-.17,8.61-5.65.36-1,8.61-.87.18-.69,1.46-3.07-.17-.15-15.57-1.55.19-.52,16.1-15.24.73,1.5,75h-2.06v1.65l-.7.56.17,2.18,1,.38.32,15.93-2,.54v2h1.38l.16,5.86s-10.55-.17-11-.19c.52,0-.34,2.2-.34,2.2l-6,.18.86,2.18,1,.56h1.53l-.69,10.81-1.38.91v11.9h-2.56L1238,342.55l-17.11-3.13V331l-19.68-3.13v-1.29h-5.14l-.68.92-46.72,2v9.34l-18.84,1.46.35-16.47-6.49-2.2L1121,291.78l-57.34.71L1059.84,324l-10.62.17.19-3.47-1.9.17-1.85-25.26-7.71-1.1.38-50-22.77.17L1001,246.34l.05-71.78-10.44-3.11h-5.82v-2.93h-1v2.56l-15.58-.55v-3.3h-1v2.92l-9.24-.55v1.84h-1.88v-1.66H944.41l-14.21,5.13-19.5-1.48-5,2.56,1.78,151.21-13.87,2-.49-22.16-7.37.19,0-18.49-19.17-2.2.54-24.72-2.4-1.47-9.77-1.1,0-24.35-1.88-1.1s-8.73-1.47-8.21-1.47-25.31-20.87-25.31-20.87h-5.14L789,232l-1.22.37-.34,1.1-8,1.45.17,25.09L767.2,261.6l.14,41.19-24.63.54-.69-7h-1.2l-.34,4.56h-1.2l.16,2.4L695.3,304.4l-.18,6.59-13.72-1.46-.48-12.64-9.75-.37-3.77-10.25-.33-4.77h-2.22l-.87,3.85h-3.75v-.91h-4.29v1.09l-23.28-2.94v-1.47h1.19V278h-7.34v4.76l-6,.19v-2L618,278.19l-2.23.18v2.74l1.38.2-.69,2-1.38.18-.52,3.85.17,1.46-1.21-.17v3.47h-1v2.56H601.85l.8,77.62h7l.15,24.88-4.1.38,0,30.2-3.61.17,0-18.11-2.05-.37-.18-5.86-18,1.1v-1.84H563.77v1.64h-7.88l-.09-97.38-1.19-.92-2.25-.18-.16-.93-1.72-.35L550,304l-5.3-.19-.18-1.09-3.78-.19V291.7l-6-3.11-36.82,1.26v-1.27h-4.09v1.1l-17.11-.19-.53,15-15.41.18.58,178.85-2.76-.2-.09-121.91-1.2-.18-.17-2.74-10.09.17V361h-2.91v-1.47h-9.92v1.28h-1.72l.39-63.53-14-6.23.19-10.61-12.67-6.42-38.35.55v4.92l-2.56-.17-3.24-1.29v-1.63h-1.37l-.86.91-8.89-.2v-1.82H352l2-2.11-1.54-1.64-2.14-2.3h-2.57v-5.67h-1.87v6l-21.57-.38v-1.64h-1.89V270l-2.91,1.28-.17,2,2.23,3.66-.36,8.23-1.71,1.11h-4.28l.18.72-1.56.19v12.08h-8.89v-1.64L303.35,296l-2.4,1.83-.39,60.78-2.57.72v13.73l-7.35.55.16,14.46-3.26.54-.34,7.52-1.88.72-.18,28-1.21.18.11,67.73-.66-.18-.53-1.82H277.2v1.45c0,.73-.52.73-.52.73l-.17,1.83-10.79-.18.53-10.07s1.88-2,2.9-2.19l.34-1.28h-4.1v-1.29l-3.93.18v.55l-1.37.74-.17.55h-3.43l-.34-.93a4.54,4.54,0,0,0-1.88-1.09c-1.21-.36-1.87,1.47-1.87,1.47h-4l.52-11.17-2.06-.37.21-43-3.27-3.11H232.91l-.27-107.83-3.6-.18v-9.88l-2.37.18-.18,2-1.53-.36.17-1.83-16.25.17-7-21.6-.33-3.67-.69-.73L200,274l-1,5.86-1,1.1-.52,3.3-6.17,22.5-38.67.91-5.15.18L142.46,312l-.37,22.51-1.54.37-.69,1.82-1.54.2.11,79.62h-12L118.75,422l.16,11.54-3.59.54.17,11.17-6.35.18,0,33.31h-3.06v-4.58l-18.14-1.28V465l-1.55-1.65H84l-.34-17-6.49-4.59H73.89v-1.64h1.73V426l-8.57-4.94-38.18.53v14.82l1.9,1.83-.18,2.93H20.15L20,448.36l1,.73-.67,1.27L8.15,460.79l-7,.18,0,16.3H-7.09l0,40.27h-14l.08-107.81H-34.94v-1.83h-1.9v2H-39.2v-1.65h-1.56v1.65H-45v-3.11h-1v2.93l-16.1.72V408l-1.38-.55L-64,408l-.32,1.47h-2.41v-3.66h-3.76v3.3H-73.1v-2h-4.1V409l-.7-.18-2.4-2.21v3.12Z"/>
      <g>
        <path class="ed268d52-0c2c-4396-ab9d-ed8bc7cfb8db" d="M255.22,202.6c-.74-2.32-18.86-12.53-37.25-8.6-19.09,5.94-27,17.69-8.61,19a168.64,168.64,0,0,0,37.94-1.68C251.73,210.68,257.55,210,255.22,202.6Z"/>
        <path class="b7f507e0-1ce4-4ace-8b99-516f4cb87703" d="M72.48,265.24c-.49-1.54-12.55-8.34-24.8-5.73-12.71,4-18,11.78-5.73,12.67a113.21,113.21,0,0,0,25.26-1.11C70.16,270.62,74,270.13,72.48,265.24Z"/>
        <path class="fd9a5770-6db2-43ee-9376-96f9089a42ab" d="M748.66,203.37s-33.21-19.84-69.18-11.18c-36.69,8.84-14,25.75,20,24.26,35.92-1.48,49.22-2.31,49.22-2.31S771.64,211.28,748.66,203.37Z"/>
      </g>
    </g>
  </g>
  <g class="e16792e7-cd28-47c9-a8f0-c208f5a34645">
    <g>
      <rect class="ba421a04-4146-4f86-a957-b87abf4b0cca" x="-2088.31" y="573.1" width="2159.38" height="149.14" transform="translate(-2017.24 1295.34) rotate(-180)"/>
      <g>
        <polygon class="ab68d89d-430b-498b-9817-cc68207a097e" points="73.57 551.16 73.57 613.71 -688.15 613.71 -688.15 554.39 73.57 551.16"/>
        <rect class="ab20c560-8ae8-4477-93fa-daa7a0646b96" x="-688.15" y="543.61" width="761.72" height="7.03" transform="translate(-614.59 1094.25) rotate(-180)"/>
        <rect class="bde897c8-5ce3-44aa-acc8-a49275c90e1c" x="-688.15" y="536.65" width="761.72" height="13.99" transform="translate(-614.59 1087.29) rotate(-180)"/>
        <g class="a6ef59fc-2a18-4523-8785-a1d748ada9e2">
          <rect class="afad9395-d485-4406-8cb2-b8ce7274a5ab" x="29.78" y="562.92" width="14.24" height="7.81"/>
          <rect class="afad9395-d485-4406-8cb2-b8ce7274a5ab" x="22.66" y="572.64" width="14.24" height="7.81"/>
        </g>
      </g>
      <rect class="b444fd6a-c7aa-4255-a8cf-9802e2c32067" x="-2060.31" y="547.77" width="2175" height="8.12"/>
      <g class="f9d86bc0-18fc-4539-8491-695a8a85797f">
        <path class="baa56dfc-0c53-41c8-8f02-f4e2d5c0a79e" d="M-426.93,514.47h10.46v-4.68a2.82,2.82,0,0,1-1.51-2.47,2.94,2.94,0,0,1,3-2.86,2.94,2.94,0,0,1,3,2.86,2.82,2.82,0,0,1-1.51,2.47v4.68h87.79v-4.68a2.82,2.82,0,0,1-1.51-2.47,2.94,2.94,0,0,1,3-2.86,2.94,2.94,0,0,1,3,2.86,2.82,2.82,0,0,1-1.51,2.47v4.68h87.79v-4.68a2.82,2.82,0,0,1-1.51-2.47,2.94,2.94,0,0,1,3-2.86,2.94,2.94,0,0,1,3,2.86,2.82,2.82,0,0,1-1.51,2.47v4.68H-144v-4.68a2.82,2.82,0,0,1-1.51-2.47,2.94,2.94,0,0,1,3-2.86,2.94,2.94,0,0,1,3,2.86,2.82,2.82,0,0,1-1.51,2.47v4.68h87.79v-4.68a2.82,2.82,0,0,1-1.51-2.47,2.94,2.94,0,0,1,3-2.86,2.94,2.94,0,0,1,3,2.86,2.82,2.82,0,0,1-1.51,2.47v4.68H37.63v-4.68a2.82,2.82,0,0,1-1.51-2.47,3,3,0,0,1,6.05,0,2.82,2.82,0,0,1-1.51,2.47v4.68h87.79v-4.68a2.82,2.82,0,0,1-1.51-2.47,3,3,0,0,1,6.05,0,2.82,2.82,0,0,1-1.51,2.47v4.68h59v4.29h-59v18.6h-3v-18.6H40.66v18.6h-3v-18.6H-50.16v18.6h-3v-18.6H-141v18.6h-3v-18.6H-231.8v18.6h-3v-18.6h-87.79v18.6h-3v-18.6h-87.79v18.6h-3v-18.6h-10.46Z"/>
        <path class="e9c10baf-db35-4dbe-9b8e-442ef0a8c228" d="M41.2,507.49c-1.32,1.1-3.64-1-2.39-2.19C40.26,503.94,42.52,506.39,41.2,507.49Z"/>
        <path class="b076cf4f-4f9e-44c7-913f-166b1e4abb99" d="M126.94,514.47h1.51v-4.68a2.82,2.82,0,0,1-1.51-2.47,2.86,2.86,0,0,1,1.78-2.61,2.76,2.76,0,0,0-.27,1.18,3,3,0,0,0,3,2.86,3.19,3.19,0,0,0,1.24-.25,3,3,0,0,1-2.76,1.68,3,3,0,0,1-.6-.06v27.24h-.91v-18.6H40.66v-1.43h86.28Z"/>
        <path class="b076cf4f-4f9e-44c7-913f-166b1e4abb99" d="M36.12,517.33v-2.86h1.51v-4.68a2.82,2.82,0,0,1-1.51-2.47,2.86,2.86,0,0,1,1.78-2.61,2.76,2.76,0,0,0-.27,1.18,3,3,0,0,0,3,2.86,3.19,3.19,0,0,0,1.24-.25,3,3,0,0,1-2.76,1.68,3,3,0,0,1-.6-.06v27.24h-.91v-18.6H-50.16v-1.43Z"/>
      </g>
      <rect class="eef7c162-ce39-4353-a8fd-6524481bf8aa" x="-2088.93" y="668.82" width="2160.62" height="241.61" transform="translate(-2017.24 1579.24) rotate(-180)"/>
      <path class="a1637f0a-bcd3-4fec-8028-2a289a5f5345" d="M-501.47,648.93s63.25,18.1,52.69,39c-16,15.74-30.46,27.52-15,30.8s70.36,1.38,65.35,29.06c14,23.14,2.52,108.69,29.46,111.32,85.8,8.37,434.17,123.32,440,0,1.5-31.65,0-136.88,0-210.12Z"/>
      <path class="fb8541f7-bd81-41a9-8a26-7918c3ac253f" d="M-426.94,711c-33.09,0-70.9,2.54-73.8,15.39-.31,1.37-1.39,8,14.43,19.86,38.93,29.15,90.13,22.16,136,20.64,25.63-.85-12.13,2.06,138.93,11.15,0,0,133.42,8,284,12.11h0l-.88-113.56q-574.2-16.08-576.06,9.6Q-505.07,695.77-426.94,711Z"/>
      <path class="b993a033-2f3b-41a4-a7aa-f29facd365ad" d="M71.07,774.06c-15-2.15-31.72,10.2-121.87,0s-176.82-11.93-214.57-13-196.72-5.47-213.47-6.92-8.68,16.79,33.57,28.24,43.48,34.16,9.75,42.26-207.16,33.59-129.91,34.48,636.5,0,636.5,0l1.5-52.33"/>
      <path class="fb8541f7-bd81-41a9-8a26-7918c3ac253f" d="M72.61,804.67h0c-41.33-.87-162.79-3.62-215.8-6.88-64.4-4-201.46-21.42-224.22-8.83s19.44,39.64,42.06,40.26-12.48,2.49-56.65,5.41-42.46,24.49-42.46,24.49H71.07"/>
      <ellipse class="b906623b-fb66-4743-85bf-1df455041881" cx="-70.56" cy="704.19" rx="92.22" ry="15.74"/>
      <rect class="b66e96f9-f4e2-47b7-812c-7d3d12c45069" x="-2088.31" y="139.12" width="2160" height="720" transform="translate(-2016.62 998.24) rotate(-180)"/>
    </g>
  </g>
</svg>
