<svg id="Layer_1" data-name="Layer 1" xmlns="http://www.w3.org/2000/svg" width="1156.67" height="169.53" viewBox="0 0 1156.67 169.53">
  <defs>
    <style>
      .cls-1 {
        fill: #3172c2;
        stroke: #fff;
        stroke-miterlimit: 10;
        stroke-width: 2px;
      }

      .cls-2 {
        fill: #fff;
      }
    </style>
  </defs>
  <rect class="cls-1" x="100.61" y="39.64" width="926.51" height="78.15" rx="39.07"/>
  <g>
    <path class="cls-2" d="M216.92,78a20.73,20.73,0,0,1-1,6.58,11,11,0,0,1-3.29,5,15.89,15.89,0,0,1-6.18,3.12,35.83,35.83,0,0,1-9.63,1.1c-.77,0-1.43,0-2,0s-1.1,0-1.62-.06l-1.62-.12c-.56,0-1.22-.11-2-.2V62.58c1.26-.06,2.45-.13,3.55-.22H198q9.66,0,14.29,3.86T216.92,78Zm-7.74.2c0-3.42-.88-6-2.65-7.79s-4.34-2.67-7.73-2.67c-.27,0-.54,0-.81,0l-1.18.07V88.23c.42.06.76.1,1,.11s.52,0,.79,0q5.22,0,7.89-2.59T209.18,78.22Z"/>
    <path class="cls-2" d="M242.71,83.8a11.45,11.45,0,0,1-.74,4.26,8.54,8.54,0,0,1-2.11,3.12,9.06,9.06,0,0,1-3.27,1.93,13.92,13.92,0,0,1-8.47,0,9.06,9.06,0,0,1-3.27-1.93,8.83,8.83,0,0,1-2.13-3.12A11.24,11.24,0,0,1,222,83.8a11,11,0,0,1,.74-4.15,8.55,8.55,0,0,1,5.36-5,13.16,13.16,0,0,1,4.3-.65,13.42,13.42,0,0,1,4.23.63,9,9,0,0,1,3.27,1.89A8.26,8.26,0,0,1,242,79.58,11.35,11.35,0,0,1,242.71,83.8Zm-6,0a4.49,4.49,0,0,0-1.2-3.34,4.41,4.41,0,0,0-3.25-1.19,4.17,4.17,0,0,0-3.21,1.19A4.71,4.71,0,0,0,228,83.81,4.92,4.92,0,0,0,229,87.24a4.12,4.12,0,0,0,3.23,1.22,4.36,4.36,0,0,0,3.29-1.2A4.71,4.71,0,0,0,236.72,83.81Z"/>
    <path class="cls-2" d="M275.24,93.77V82.53a4.63,4.63,0,0,0-.29-1.82,2.63,2.63,0,0,0-.7-1,1.77,1.77,0,0,0-.85-.39,6,6,0,0,0-.77-.06,4.14,4.14,0,0,0-.94.17,3.38,3.38,0,0,0-1.38.82,5.73,5.73,0,0,0-1.23,1.91,8.77,8.77,0,0,0-.54,3.39v8.2h-6V80.68a22.48,22.48,0,0,0-.27-3.42,11.11,11.11,0,0,0-.72-2.75h6a9.46,9.46,0,0,1,.38,1c.07.27.16.66.25,1.17a9.39,9.39,0,0,1,3.08-2.07,8.93,8.93,0,0,1,3.35-.67,6.57,6.57,0,0,1,2.63.52A6.19,6.19,0,0,1,279.33,76a6.77,6.77,0,0,1,1.39,2.32,8.86,8.86,0,0,1,.51,3.09v12.4Z"/>
    <path class="cls-2" d="M308.14,83.8a11.45,11.45,0,0,1-.74,4.26,8.66,8.66,0,0,1-2.11,3.12A9.06,9.06,0,0,1,302,93.11a13.92,13.92,0,0,1-8.47,0,9.06,9.06,0,0,1-3.27-1.93,8.83,8.83,0,0,1-2.13-3.12,11.24,11.24,0,0,1-.76-4.26,11,11,0,0,1,.74-4.15,8.73,8.73,0,0,1,2.08-3.1,8.86,8.86,0,0,1,3.28-1.93,13.16,13.16,0,0,1,4.3-.65,13.42,13.42,0,0,1,4.23.63,9,9,0,0,1,3.27,1.89,8.37,8.37,0,0,1,2.11,3.09A11.35,11.35,0,0,1,308.14,83.8Zm-6,0a4.46,4.46,0,0,0-1.21-3.34,4.38,4.38,0,0,0-3.25-1.19,4.14,4.14,0,0,0-3.2,1.19,4.71,4.71,0,0,0-1.11,3.34,4.92,4.92,0,0,0,1.09,3.43,4.1,4.1,0,0,0,3.22,1.22,4.37,4.37,0,0,0,3.3-1.2A4.75,4.75,0,0,0,302.15,83.81Z"/>
    <path class="cls-2" d="M314,93.77V78.24h-4V74h4V69h5.9v5H325v4.27h-5.08V93.77Z"/>
    <path class="cls-2" d="M356.87,88.28a5.64,5.64,0,0,1-1.91,4.5,7.87,7.87,0,0,1-5.36,1.66A22.39,22.39,0,0,1,345,94a13.4,13.4,0,0,1-3.6-1.21l.76-4.59a15.34,15.34,0,0,0,6.84,2,2,2,0,0,0,1.42-.43,1.33,1.33,0,0,0,.43-1,1.79,1.79,0,0,0-.34-1.11,5.3,5.3,0,0,0-1.64-1A27.43,27.43,0,0,1,345.73,85a11,11,0,0,1-2.16-1.69,5.75,5.75,0,0,1-1.21-1.87,6.1,6.1,0,0,1-.38-2.25,5.08,5.08,0,0,1,2.17-4.39,9.62,9.62,0,0,1,5.69-1.55,17.87,17.87,0,0,1,3.35.29,15.77,15.77,0,0,1,3.36,1.15l-.72,4.55A10.53,10.53,0,0,0,352.74,78a13.59,13.59,0,0,0-3-.34,2,2,0,0,0-1.43.38,1.38,1.38,0,0,0-.39,1,1.47,1.47,0,0,0,.62,1.23,12.29,12.29,0,0,0,2.4,1.24,31.27,31.27,0,0,1,2.73,1.55,10.15,10.15,0,0,1,1.84,1.53,4.92,4.92,0,0,1,1,1.67A6,6,0,0,1,356.87,88.28Z"/>
    <path class="cls-2" d="M382.2,82.7a15.21,15.21,0,0,1-.62,4.5,11,11,0,0,1-1.78,3.5A8.22,8.22,0,0,1,377.07,93a7.69,7.69,0,0,1-3.49.8,7.43,7.43,0,0,1-2.36-.32,6.56,6.56,0,0,1-2-1.16v14.89h-6.3V79.9a10.32,10.32,0,0,0-.07-1.15c0-.44-.1-.9-.18-1.39s-.16-1-.27-1.46a9.39,9.39,0,0,0-.38-1.35h6.1a4.91,4.91,0,0,1,.33.88,11,11,0,0,1,.18,1.24,9.76,9.76,0,0,1,2.72-2.07,7.15,7.15,0,0,1,3.1-.63,7.93,7.93,0,0,1,3.17.62,7,7,0,0,1,2.46,1.78,8.11,8.11,0,0,1,1.58,2.76A10.7,10.7,0,0,1,382.2,82.7Zm-6,1a4.24,4.24,0,0,0-.9-2.89,3.07,3.07,0,0,0-2.46-1A3.56,3.56,0,0,0,370,81.09a5.53,5.53,0,0,0-1.07,3.56v2.61a4.78,4.78,0,0,0,3.19,1.2,3.84,3.84,0,0,0,3-1.27A5.09,5.09,0,0,0,376.22,83.7Z"/>
    <path class="cls-2" d="M408,83.8a11.45,11.45,0,0,1-.73,4.26,8.66,8.66,0,0,1-2.11,3.12,9.06,9.06,0,0,1-3.27,1.93,13.92,13.92,0,0,1-8.47,0,9.06,9.06,0,0,1-3.27-1.93,8.83,8.83,0,0,1-2.13-3.12,12.16,12.16,0,0,1,0-8.41,8.73,8.73,0,0,1,2.08-3.1,8.9,8.9,0,0,1,3.27-1.93,13.25,13.25,0,0,1,4.3-.65,13.44,13.44,0,0,1,4.24.63,9,9,0,0,1,3.27,1.89,8.37,8.37,0,0,1,2.11,3.09A11.35,11.35,0,0,1,408,83.8Zm-6,0a4.46,4.46,0,0,0-1.21-3.34,4.4,4.4,0,0,0-3.25-1.19,4.14,4.14,0,0,0-3.2,1.19,4.71,4.71,0,0,0-1.12,3.34,4.93,4.93,0,0,0,1.1,3.43,4.1,4.1,0,0,0,3.22,1.22,4.37,4.37,0,0,0,3.3-1.2A4.75,4.75,0,0,0,402.05,83.81Z"/>
    <path class="cls-2" d="M420.77,68.53a2.46,2.46,0,0,1-1,2,4.14,4.14,0,0,1-5,0,2.71,2.71,0,0,1-1.08-2.07,2.44,2.44,0,0,1,1-2.06,4,4,0,0,1,2.61-.84,4.09,4.09,0,0,1,1.33.23,3.4,3.4,0,0,1,1.12.63,3.35,3.35,0,0,1,.77,1A2.53,2.53,0,0,1,420.77,68.53ZM414,93.77V74h6v19.8Z"/>
    <path class="cls-2" d="M426.84,93.77V62.4h6V93.77Z"/>
    <path class="cls-2" d="M455.28,93.77V78.24h-4V74h4V69h5.9v5h5.08v4.27h-5.08V93.77Z"/>
    <path class="cls-2" d="M482.46,93.77V82.57a6.17,6.17,0,0,0-.2-1.73,2.24,2.24,0,0,0-.58-1,1.74,1.74,0,0,0-.83-.45,3.72,3.72,0,0,0-1-.11,2.73,2.73,0,0,0-1.49.45A4.66,4.66,0,0,0,477.13,81a6.7,6.7,0,0,0-.89,1.84,7.19,7.19,0,0,0-.35,2.24v8.72h-6V62.94h5.94V76.22a6.94,6.94,0,0,1,2.48-1.74,8.39,8.39,0,0,1,3-.51,9.36,9.36,0,0,1,2.59.35,6.5,6.5,0,0,1,2.27,1.11,5.73,5.73,0,0,1,1.62,2,7.09,7.09,0,0,1,.62,3.11V93.77Z"/>
    <path class="cls-2" d="M512.88,79.41a5.13,5.13,0,0,1-.8,2.79,6.66,6.66,0,0,1-2.26,2.14,12.59,12.59,0,0,1-3.5,1.37,19.56,19.56,0,0,1-4.59.5l-.54,0-.73,0a4.2,4.2,0,0,0,1.35,2.68,4.3,4.3,0,0,0,2.91,1,13.3,13.3,0,0,0,6.63-2v4.73a12.82,12.82,0,0,1-3.26,1.41,13.44,13.44,0,0,1-3.53.43,11.72,11.72,0,0,1-4.08-.67,8.38,8.38,0,0,1-3.08-2,8.81,8.81,0,0,1-1.93-3.06,11.31,11.31,0,0,1-.68-4,12.36,12.36,0,0,1,.79-4.52,10.45,10.45,0,0,1,2.2-3.53,9.79,9.79,0,0,1,3.4-2.3,11.45,11.45,0,0,1,4.37-.81,8.23,8.23,0,0,1,5.33,1.62A5.29,5.29,0,0,1,512.88,79.41Zm-6,.45a1.59,1.59,0,0,0-.62-1.24,2.36,2.36,0,0,0-1.56-.51,3.56,3.56,0,0,0-2.56,1,5,5,0,0,0-1.38,2.91,3.69,3.69,0,0,0,.71.09h.67Q506.9,82.16,506.9,79.86Z"/>
    <path class="cls-2" d="M544,93.4a13.87,13.87,0,0,1-3.22.37,10.77,10.77,0,0,1-4-.71,9.94,9.94,0,0,1-3.13-2,8.5,8.5,0,0,1-2-3,10.27,10.27,0,0,1-.72-3.91,12.46,12.46,0,0,1,.65-4.13,8.46,8.46,0,0,1,2-3.24,9.07,9.07,0,0,1,3.28-2.1,12.76,12.76,0,0,1,4.57-.75,10.3,10.3,0,0,1,3.44.47,12.06,12.06,0,0,1,2.23,1l-1,5.18c-.45-.21-.84-.4-1.15-.57a8.37,8.37,0,0,0-.9-.4,4.41,4.41,0,0,0-1-.23,10.74,10.74,0,0,0-1.23-.06,4.66,4.66,0,0,0-3.47,1.22,4.52,4.52,0,0,0-1.21,3.32,4.42,4.42,0,0,0,1.26,3.34A5.08,5.08,0,0,0,542,88.46a10,10,0,0,0,2.34-.28,12.87,12.87,0,0,0,2.39-.86l.4,4.9A15.72,15.72,0,0,1,544,93.4Z"/>
    <path class="cls-2" d="M564.59,93.77V82.57a5.77,5.77,0,0,0-.21-1.73,2.24,2.24,0,0,0-.58-1,1.76,1.76,0,0,0-.82-.45,3.85,3.85,0,0,0-1-.11,2.73,2.73,0,0,0-1.49.45A4.5,4.5,0,0,0,559.26,81a6.71,6.71,0,0,0-.9,1.84,7.19,7.19,0,0,0-.34,2.24v8.72h-6V62.94H558V76.22a7,7,0,0,1,2.49-1.74,8.33,8.33,0,0,1,3-.51,9.48,9.48,0,0,1,2.6.35,6.54,6.54,0,0,1,2.26,1.11,5.73,5.73,0,0,1,1.62,2,7.09,7.09,0,0,1,.62,3.11V93.77Z"/>
    <path class="cls-2" d="M591.67,93.77c0-.21,0-.47,0-.77a8.53,8.53,0,0,1-.08-.85c0-.33,0-.68-.07-1a7.14,7.14,0,0,1-2.93,2.32,9.55,9.55,0,0,1-3.83.79A7.11,7.11,0,0,1,579,91.79q-2.06-2.43-2.05-6.93,0-5.44,3.3-8.4t9.42-2.94c.67,0,1.28,0,1.83,0s1.09.08,1.64.16,1.11.17,1.69.29,1.22.29,1.92.5V87.29c0,.69,0,1.41,0,2.18s.07,1.46.14,2.09.11,1.49.18,2.21Zm-.94-14.67a9.25,9.25,0,0,0-1.42-.23c-.43,0-.82,0-1.19,0a4.82,4.82,0,0,0-3.85,1.59,6.64,6.64,0,0,0-1.37,4.44,4.4,4.4,0,0,0,.82,2.88,2.88,2.88,0,0,0,2.34,1,4.17,4.17,0,0,0,1.81-.41,4.56,4.56,0,0,0,1.49-1.15,5.56,5.56,0,0,0,1-1.75,6.51,6.51,0,0,0,.37-2.27Z"/>
    <path class="cls-2" d="M616.87,79.5q-.63-.14-1-.18a6.65,6.65,0,0,0-.81,0A4.58,4.58,0,0,0,611.18,81a8.65,8.65,0,0,0-1.33,5.23v7.51h-6v-13c0-.73,0-1.37,0-1.92s-.06-1-.12-1.52-.14-.93-.24-1.38-.25-1-.43-1.57h5.68c.09.37.18.69.26,1a5.83,5.83,0,0,1,.16.74c0,.23.06.47.09.74a8.2,8.2,0,0,1,0,.94,10.13,10.13,0,0,1,2.56-2.93,4.87,4.87,0,0,1,2.85-.85,4,4,0,0,1,1.06.11,11.51,11.51,0,0,1,1.19.44Z"/>
    <path class="cls-2" d="M622.68,93.77V78.24h-4V74h4V69h5.89v5h5.09v4.27h-5.09V93.77Z"/>
    <path class="cls-2" d="M651.52,88.28a5.67,5.67,0,0,1-1.9,4.5,7.89,7.89,0,0,1-5.36,1.66,22.49,22.49,0,0,1-4.57-.45,13.4,13.4,0,0,1-3.6-1.21l.76-4.59a15.34,15.34,0,0,0,6.84,2,1.93,1.93,0,0,0,1.42-.43,1.29,1.29,0,0,0,.43-1,1.73,1.73,0,0,0-.34-1.11,5.17,5.17,0,0,0-1.64-1A26.44,26.44,0,0,1,640.39,85a10.4,10.4,0,0,1-2.16-1.69A5.79,5.79,0,0,1,637,81.48a6.32,6.32,0,0,1-.38-2.25,5.08,5.08,0,0,1,2.17-4.39,9.62,9.62,0,0,1,5.69-1.55,17.87,17.87,0,0,1,3.35.29,15.77,15.77,0,0,1,3.36,1.15l-.72,4.55A10.53,10.53,0,0,0,647.39,78a13.59,13.59,0,0,0-3-.34,2.08,2.08,0,0,0-1.43.38,1.38,1.38,0,0,0-.39,1,1.47,1.47,0,0,0,.62,1.23,12.29,12.29,0,0,0,2.4,1.24,28.56,28.56,0,0,1,2.73,1.55,10.15,10.15,0,0,1,1.84,1.53,4.77,4.77,0,0,1,1,1.67A6,6,0,0,1,651.52,88.28Z"/>
    <path class="cls-2" d="M678.21,68.53a2.46,2.46,0,0,1-1,2,4.14,4.14,0,0,1-5,0,2.71,2.71,0,0,1-1.08-2.07,2.44,2.44,0,0,1,1-2.06,4,4,0,0,1,2.61-.84,4.09,4.09,0,0,1,1.33.23,3.4,3.4,0,0,1,1.12.63,3.35,3.35,0,0,1,.77,1A2.53,2.53,0,0,1,678.21,68.53Zm-6.75,25.24V74h6v19.8Z"/>
    <path class="cls-2" d="M697,93.77V82.53a4.44,4.44,0,0,0-.3-1.82,2.51,2.51,0,0,0-.69-1,1.81,1.81,0,0,0-.86-.39,5.86,5.86,0,0,0-.76-.06,4.2,4.2,0,0,0-.95.17,3.29,3.29,0,0,0-1.37.82,5.59,5.59,0,0,0-1.24,1.91,8.77,8.77,0,0,0-.54,3.39v8.2h-6V80.68a22.48,22.48,0,0,0-.27-3.42,11.11,11.11,0,0,0-.72-2.75h6a7.73,7.73,0,0,1,.38,1,11.57,11.57,0,0,1,.25,1.17A9.33,9.33,0,0,1,693,74.64a8.86,8.86,0,0,1,3.35-.67,6.52,6.52,0,0,1,2.62.52,6.23,6.23,0,0,1,2.1,1.47,6.75,6.75,0,0,1,1.38,2.32,8.86,8.86,0,0,1,.51,3.09v12.4Z"/>
    <path class="cls-2" d="M725.73,93.77V78.24h-4V74h4V69h5.89v5h5.09v4.27h-5.09V93.77Z"/>
    <path class="cls-2" d="M752.91,93.77V82.57a5.77,5.77,0,0,0-.21-1.73,2.24,2.24,0,0,0-.58-1,1.76,1.76,0,0,0-.82-.45,3.85,3.85,0,0,0-1-.11,2.73,2.73,0,0,0-1.49.45A4.5,4.5,0,0,0,747.58,81a6.71,6.71,0,0,0-.9,1.84,7.19,7.19,0,0,0-.34,2.24v8.72h-6V62.94h5.94V76.22a7,7,0,0,1,2.49-1.74,8.33,8.33,0,0,1,3-.51,9.43,9.43,0,0,1,2.6.35,6.45,6.45,0,0,1,2.26,1.11,5.52,5.52,0,0,1,1.62,2,7.09,7.09,0,0,1,.62,3.11V93.77Z"/>
    <path class="cls-2" d="M783.33,79.41a5.13,5.13,0,0,1-.8,2.79,6.85,6.85,0,0,1-2.26,2.14,12.54,12.54,0,0,1-3.51,1.37,19.47,19.47,0,0,1-4.58.5l-.55,0-.72,0a4.14,4.14,0,0,0,1.34,2.68,4.34,4.34,0,0,0,2.92,1,13.36,13.36,0,0,0,6.63-2v4.73a12.73,12.73,0,0,1-3.27,1.41,13.39,13.39,0,0,1-3.53.43,11.62,11.62,0,0,1-4.07-.67,8.22,8.22,0,0,1-3.08-2,8.83,8.83,0,0,1-1.94-3.06,11.32,11.32,0,0,1-.67-4,12.58,12.58,0,0,1,.78-4.52,10.47,10.47,0,0,1,2.21-3.53,9.7,9.7,0,0,1,3.4-2.3,11.4,11.4,0,0,1,4.36-.81,8.21,8.21,0,0,1,5.33,1.62A5.27,5.27,0,0,1,783.33,79.41Zm-6,.45a1.59,1.59,0,0,0-.62-1.24,2.35,2.35,0,0,0-1.55-.51,3.58,3.58,0,0,0-2.57,1,5.11,5.11,0,0,0-1.38,2.91,3.78,3.78,0,0,0,.72.09h.66Q777.34,82.16,777.34,79.86Z"/>
    <path class="cls-2" d="M814.44,93.4a13.8,13.8,0,0,1-3.22.37,10.77,10.77,0,0,1-4-.71,9.78,9.78,0,0,1-3.12-2,8.4,8.4,0,0,1-2-3,10.27,10.27,0,0,1-.72-3.91,12.73,12.73,0,0,1,.65-4.13,8.72,8.72,0,0,1,2-3.24,9.12,9.12,0,0,1,3.29-2.1,12.67,12.67,0,0,1,4.56-.75,10.4,10.4,0,0,1,3.45.47,12.25,12.25,0,0,1,2.22,1l-1,5.18c-.45-.21-.83-.4-1.15-.57a6.92,6.92,0,0,0-.9-.4,4.31,4.31,0,0,0-.94-.23,11.05,11.05,0,0,0-1.24-.06,4.66,4.66,0,0,0-3.47,1.22,4.52,4.52,0,0,0-1.21,3.32,4.42,4.42,0,0,0,1.26,3.34,5.08,5.08,0,0,0,3.64,1.21,10.14,10.14,0,0,0,2.35-.28,13.05,13.05,0,0,0,2.38-.86l.41,4.9A15.79,15.79,0,0,1,814.44,93.4Z"/>
    <path class="cls-2" d="M842.09,83.8a11.25,11.25,0,0,1-.74,4.26,8.51,8.51,0,0,1-2.1,3.12A9.06,9.06,0,0,1,836,93.11a13.92,13.92,0,0,1-8.47,0,9.06,9.06,0,0,1-3.27-1.93,8.83,8.83,0,0,1-2.13-3.12,12.16,12.16,0,0,1,0-8.41,8.73,8.73,0,0,1,2.08-3.1,8.9,8.9,0,0,1,3.27-1.93,13.25,13.25,0,0,1,4.3-.65,13.44,13.44,0,0,1,4.24.63,9,9,0,0,1,3.27,1.89,8.24,8.24,0,0,1,2.1,3.09A11.15,11.15,0,0,1,842.09,83.8Zm-6,0a4.46,4.46,0,0,0-1.21-3.34,4.4,4.4,0,0,0-3.25-1.19,4.14,4.14,0,0,0-3.2,1.19,4.71,4.71,0,0,0-1.12,3.34,4.93,4.93,0,0,0,1.1,3.43,4.1,4.1,0,0,0,3.22,1.22,4.38,4.38,0,0,0,3.3-1.2A4.75,4.75,0,0,0,836.11,83.81Z"/>
    <path class="cls-2" d="M861.4,79.5q-.63-.14-1-.18a6.65,6.65,0,0,0-.81,0A4.56,4.56,0,0,0,855.71,81a8.58,8.58,0,0,0-1.33,5.23v7.51h-6v-13c0-.73,0-1.37,0-1.92a14.09,14.09,0,0,0-.11-1.52A12.44,12.44,0,0,0,848,76c-.1-.46-.25-1-.43-1.57h5.68c.1.37.18.69.26,1a4.49,4.49,0,0,1,.16.74c0,.23.06.47.1.74a8.46,8.46,0,0,1,0,.94,10.28,10.28,0,0,1,2.56-2.93,4.92,4.92,0,0,1,2.86-.85,4.06,4.06,0,0,1,1.06.11,12.43,12.43,0,0,1,1.19.44Z"/>
    <path class="cls-2" d="M878.81,79.5q-.63-.14-1-.18a6.65,6.65,0,0,0-.81,0A4.58,4.58,0,0,0,873.12,81a8.65,8.65,0,0,0-1.33,5.23v7.51h-6v-13c0-.73,0-1.37,0-1.92s-.06-1-.12-1.52-.14-.93-.24-1.38-.25-1-.43-1.57h5.68c.09.37.18.69.25,1a4.57,4.57,0,0,1,.17.74c0,.23.06.47.09.74a8.2,8.2,0,0,1,0,.94,10.13,10.13,0,0,1,2.56-2.93,4.87,4.87,0,0,1,2.85-.85,4,4,0,0,1,1.06.11,11.51,11.51,0,0,1,1.19.44Z"/>
    <path class="cls-2" d="M889.66,68.53a2.46,2.46,0,0,1-1,2,4.14,4.14,0,0,1-5,0,2.71,2.71,0,0,1-1.08-2.07,2.44,2.44,0,0,1,1-2.06,4,4,0,0,1,2.61-.84,4.09,4.09,0,0,1,1.33.23,3.4,3.4,0,0,1,1.12.63,3.35,3.35,0,0,1,.77,1A2.53,2.53,0,0,1,889.66,68.53Zm-6.75,25.24V74h6v19.8Z"/>
    <path class="cls-2" d="M910.32,93.77c0-.18-.07-.39-.1-.63s-.06-.45-.09-.72-.06-.6-.09-1a8.26,8.26,0,0,1-3,2.22,9.16,9.16,0,0,1-3.57.66,8.93,8.93,0,0,1-3.58-.7,7.9,7.9,0,0,1-2.73-1.94,8.77,8.77,0,0,1-1.76-3,11.5,11.5,0,0,1-.63-3.91,13.28,13.28,0,0,1,.74-4.55,10.82,10.82,0,0,1,2.07-3.58,9.32,9.32,0,0,1,3.17-2.34,9.81,9.81,0,0,1,4.05-.83,14,14,0,0,1,2,.14,11.56,11.56,0,0,1,2.21.58V62.4h6V86.93c0,.51,0,1.15.07,1.93s.1,1.53.16,2.25.13,1.73.22,2.66ZM909,79.32a6.57,6.57,0,0,0-1.66-.45,14.13,14.13,0,0,0-1.62-.09,4.52,4.52,0,0,0-3.62,1.55,6.34,6.34,0,0,0-1.34,4.26,4.59,4.59,0,0,0,.94,3.08,3.2,3.2,0,0,0,2.57,1.1,5.36,5.36,0,0,0,1.85-.31,3.44,3.44,0,0,0,1.5-1.08,5.73,5.73,0,0,0,1-2,10.73,10.73,0,0,0,.38-3.08Z"/>
    <path class="cls-2" d="M941.32,83.8a11.45,11.45,0,0,1-.74,4.26,8.66,8.66,0,0,1-2.11,3.12,9.06,9.06,0,0,1-3.27,1.93,13.92,13.92,0,0,1-8.47,0,9.06,9.06,0,0,1-3.27-1.93,8.83,8.83,0,0,1-2.13-3.12,11.24,11.24,0,0,1-.76-4.26,11,11,0,0,1,.74-4.15,8.73,8.73,0,0,1,2.08-3.1,8.86,8.86,0,0,1,3.28-1.93A13.16,13.16,0,0,1,931,74a13.42,13.42,0,0,1,4.23.63,9,9,0,0,1,3.27,1.89,8.37,8.37,0,0,1,2.11,3.09A11.35,11.35,0,0,1,941.32,83.8Zm-6,0a4.46,4.46,0,0,0-1.21-3.34,4.38,4.38,0,0,0-3.25-1.19,4.14,4.14,0,0,0-3.2,1.19,4.71,4.71,0,0,0-1.11,3.34,4.92,4.92,0,0,0,1.09,3.43,4.1,4.1,0,0,0,3.22,1.22,4.37,4.37,0,0,0,3.3-1.2A4.75,4.75,0,0,0,935.33,83.81Z"/>
    <path class="cls-2" d="M960.62,79.5q-.63-.14-1-.18a6.65,6.65,0,0,0-.81,0A4.56,4.56,0,0,0,954.93,81a8.58,8.58,0,0,0-1.33,5.23v7.51h-6v-13q0-1.09,0-1.92a14.09,14.09,0,0,0-.11-1.52,12.44,12.44,0,0,0-.25-1.38c-.1-.46-.24-1-.42-1.57h5.68c.09.37.18.69.25,1a6,6,0,0,1,.17.74c0,.23.06.47.09.74a8.2,8.2,0,0,1,0,.94,10.27,10.27,0,0,1,2.55-2.93,4.92,4.92,0,0,1,2.86-.85,4.06,4.06,0,0,1,1.06.11,12.43,12.43,0,0,1,1.19.44Z"/>
    <path class="cls-2" d="M967,91a2.42,2.42,0,0,1-1,2,4,4,0,0,1-2.49.8,3.81,3.81,0,0,1-2.5-.86,2.59,2.59,0,0,1-1-2.07,2.56,2.56,0,0,1,1-2,3.54,3.54,0,0,1,2.39-.84,4,4,0,0,1,2.62.89A2.73,2.73,0,0,1,967,91Z"/>
  </g>
</svg>
